G04*
G04 #@! TF.GenerationSoftware,Altium Limited,Altium Designer,23.1.1 (15)*
G04*
G04 Layer_Color=1265191*
%FSTAX24Y24*%
%MOIN*%
G70*
G04*
G04 #@! TF.SameCoordinates,744591E9-B7FF-4256-B3DA-537CD40D5A87*
G04*
G04*
G04 #@! TF.FilePolarity,Negative*
G04*
G01*
G75*
%ADD68R,0.0614X0.0976*%
%ADD69R,0.0378X0.0146*%
G04:AMPARAMS|DCode=70|XSize=29.9mil|YSize=40.9mil|CornerRadius=4.6mil|HoleSize=0mil|Usage=FLASHONLY|Rotation=0.000|XOffset=0mil|YOffset=0mil|HoleType=Round|Shape=RoundedRectangle|*
%AMROUNDEDRECTD70*
21,1,0.0299,0.0318,0,0,0.0*
21,1,0.0208,0.0409,0,0,0.0*
1,1,0.0091,0.0104,-0.0159*
1,1,0.0091,-0.0104,-0.0159*
1,1,0.0091,-0.0104,0.0159*
1,1,0.0091,0.0104,0.0159*
%
%ADD70ROUNDEDRECTD70*%
%ADD71O,0.0591X0.0157*%
%ADD72O,0.0157X0.0591*%
G04:AMPARAMS|DCode=73|XSize=27.6mil|YSize=39.4mil|CornerRadius=4.3mil|HoleSize=0mil|Usage=FLASHONLY|Rotation=0.000|XOffset=0mil|YOffset=0mil|HoleType=Round|Shape=RoundedRectangle|*
%AMROUNDEDRECTD73*
21,1,0.0276,0.0307,0,0,0.0*
21,1,0.0189,0.0394,0,0,0.0*
1,1,0.0087,0.0094,-0.0154*
1,1,0.0087,-0.0094,-0.0154*
1,1,0.0087,-0.0094,0.0154*
1,1,0.0087,0.0094,0.0154*
%
%ADD73ROUNDEDRECTD73*%
G04:AMPARAMS|DCode=74|XSize=31.5mil|YSize=39.4mil|CornerRadius=4.7mil|HoleSize=0mil|Usage=FLASHONLY|Rotation=180.000|XOffset=0mil|YOffset=0mil|HoleType=Round|Shape=RoundedRectangle|*
%AMROUNDEDRECTD74*
21,1,0.0315,0.0299,0,0,180.0*
21,1,0.0220,0.0394,0,0,180.0*
1,1,0.0094,-0.0110,0.0150*
1,1,0.0094,0.0110,0.0150*
1,1,0.0094,0.0110,-0.0150*
1,1,0.0094,-0.0110,-0.0150*
%
%ADD74ROUNDEDRECTD74*%
G04:AMPARAMS|DCode=75|XSize=31.5mil|YSize=39.4mil|CornerRadius=4.7mil|HoleSize=0mil|Usage=FLASHONLY|Rotation=270.000|XOffset=0mil|YOffset=0mil|HoleType=Round|Shape=RoundedRectangle|*
%AMROUNDEDRECTD75*
21,1,0.0315,0.0299,0,0,270.0*
21,1,0.0220,0.0394,0,0,270.0*
1,1,0.0094,-0.0150,-0.0110*
1,1,0.0094,-0.0150,0.0110*
1,1,0.0094,0.0150,0.0110*
1,1,0.0094,0.0150,-0.0110*
%
%ADD75ROUNDEDRECTD75*%
%ADD76O,0.0709X0.0276*%
G04:AMPARAMS|DCode=77|XSize=27.6mil|YSize=43.3mil|CornerRadius=4.3mil|HoleSize=0mil|Usage=FLASHONLY|Rotation=180.000|XOffset=0mil|YOffset=0mil|HoleType=Round|Shape=RoundedRectangle|*
%AMROUNDEDRECTD77*
21,1,0.0276,0.0346,0,0,180.0*
21,1,0.0189,0.0433,0,0,180.0*
1,1,0.0087,-0.0094,0.0173*
1,1,0.0087,0.0094,0.0173*
1,1,0.0087,0.0094,-0.0173*
1,1,0.0087,-0.0094,-0.0173*
%
%ADD77ROUNDEDRECTD77*%
G04:AMPARAMS|DCode=78|XSize=78.7mil|YSize=82.7mil|CornerRadius=9.4mil|HoleSize=0mil|Usage=FLASHONLY|Rotation=0.000|XOffset=0mil|YOffset=0mil|HoleType=Round|Shape=RoundedRectangle|*
%AMROUNDEDRECTD78*
21,1,0.0787,0.0638,0,0,0.0*
21,1,0.0598,0.0827,0,0,0.0*
1,1,0.0189,0.0299,-0.0319*
1,1,0.0189,-0.0299,-0.0319*
1,1,0.0189,-0.0299,0.0319*
1,1,0.0189,0.0299,0.0319*
%
%ADD78ROUNDEDRECTD78*%
G04:AMPARAMS|DCode=79|XSize=27.6mil|YSize=47.2mil|CornerRadius=7.9mil|HoleSize=0mil|Usage=FLASHONLY|Rotation=270.000|XOffset=0mil|YOffset=0mil|HoleType=Round|Shape=RoundedRectangle|*
%AMROUNDEDRECTD79*
21,1,0.0276,0.0315,0,0,270.0*
21,1,0.0118,0.0472,0,0,270.0*
1,1,0.0157,-0.0157,-0.0059*
1,1,0.0157,-0.0157,0.0059*
1,1,0.0157,0.0157,0.0059*
1,1,0.0157,0.0157,-0.0059*
%
%ADD79ROUNDEDRECTD79*%
G04:AMPARAMS|DCode=80|XSize=39.4mil|YSize=39.4mil|CornerRadius=10.8mil|HoleSize=0mil|Usage=FLASHONLY|Rotation=180.000|XOffset=0mil|YOffset=0mil|HoleType=Round|Shape=RoundedRectangle|*
%AMROUNDEDRECTD80*
21,1,0.0394,0.0177,0,0,180.0*
21,1,0.0177,0.0394,0,0,180.0*
1,1,0.0217,-0.0089,0.0089*
1,1,0.0217,0.0089,0.0089*
1,1,0.0217,0.0089,-0.0089*
1,1,0.0217,-0.0089,-0.0089*
%
%ADD80ROUNDEDRECTD80*%
G04:AMPARAMS|DCode=81|XSize=49.2mil|YSize=59.1mil|CornerRadius=13.3mil|HoleSize=0mil|Usage=FLASHONLY|Rotation=90.000|XOffset=0mil|YOffset=0mil|HoleType=Round|Shape=RoundedRectangle|*
%AMROUNDEDRECTD81*
21,1,0.0492,0.0325,0,0,90.0*
21,1,0.0226,0.0591,0,0,90.0*
1,1,0.0266,0.0162,0.0113*
1,1,0.0266,0.0162,-0.0113*
1,1,0.0266,-0.0162,-0.0113*
1,1,0.0266,-0.0162,0.0113*
%
%ADD81ROUNDEDRECTD81*%
G04:AMPARAMS|DCode=82|XSize=49.2mil|YSize=59.1mil|CornerRadius=13.3mil|HoleSize=0mil|Usage=FLASHONLY|Rotation=0.000|XOffset=0mil|YOffset=0mil|HoleType=Round|Shape=RoundedRectangle|*
%AMROUNDEDRECTD82*
21,1,0.0492,0.0325,0,0,0.0*
21,1,0.0226,0.0591,0,0,0.0*
1,1,0.0266,0.0113,-0.0162*
1,1,0.0266,-0.0113,-0.0162*
1,1,0.0266,-0.0113,0.0162*
1,1,0.0266,0.0113,0.0162*
%
%ADD82ROUNDEDRECTD82*%
G04:AMPARAMS|DCode=83|XSize=137.8mil|YSize=102.4mil|CornerRadius=11.8mil|HoleSize=0mil|Usage=FLASHONLY|Rotation=0.000|XOffset=0mil|YOffset=0mil|HoleType=Round|Shape=RoundedRectangle|*
%AMROUNDEDRECTD83*
21,1,0.1378,0.0787,0,0,0.0*
21,1,0.1142,0.1024,0,0,0.0*
1,1,0.0236,0.0571,-0.0394*
1,1,0.0236,-0.0571,-0.0394*
1,1,0.0236,-0.0571,0.0394*
1,1,0.0236,0.0571,0.0394*
%
%ADD83ROUNDEDRECTD83*%
%ADD84R,0.0689X0.0539*%
%ADD85R,0.0630X0.0309*%
%ADD86R,0.0739X0.0539*%
G04:AMPARAMS|DCode=87|XSize=39.4mil|YSize=39.4mil|CornerRadius=10.8mil|HoleSize=0mil|Usage=FLASHONLY|Rotation=270.000|XOffset=0mil|YOffset=0mil|HoleType=Round|Shape=RoundedRectangle|*
%AMROUNDEDRECTD87*
21,1,0.0394,0.0177,0,0,270.0*
21,1,0.0177,0.0394,0,0,270.0*
1,1,0.0217,-0.0089,-0.0089*
1,1,0.0217,-0.0089,0.0089*
1,1,0.0217,0.0089,0.0089*
1,1,0.0217,0.0089,-0.0089*
%
%ADD87ROUNDEDRECTD87*%
G04:AMPARAMS|DCode=88|XSize=27.6mil|YSize=47.2mil|CornerRadius=7.9mil|HoleSize=0mil|Usage=FLASHONLY|Rotation=180.000|XOffset=0mil|YOffset=0mil|HoleType=Round|Shape=RoundedRectangle|*
%AMROUNDEDRECTD88*
21,1,0.0276,0.0315,0,0,180.0*
21,1,0.0118,0.0472,0,0,180.0*
1,1,0.0157,-0.0059,0.0157*
1,1,0.0157,0.0059,0.0157*
1,1,0.0157,0.0059,-0.0157*
1,1,0.0157,-0.0059,-0.0157*
%
%ADD88ROUNDEDRECTD88*%
G04:AMPARAMS|DCode=89|XSize=27.6mil|YSize=43.3mil|CornerRadius=7.9mil|HoleSize=0mil|Usage=FLASHONLY|Rotation=0.000|XOffset=0mil|YOffset=0mil|HoleType=Round|Shape=RoundedRectangle|*
%AMROUNDEDRECTD89*
21,1,0.0276,0.0276,0,0,0.0*
21,1,0.0118,0.0433,0,0,0.0*
1,1,0.0157,0.0059,-0.0138*
1,1,0.0157,-0.0059,-0.0138*
1,1,0.0157,-0.0059,0.0138*
1,1,0.0157,0.0059,0.0138*
%
%ADD89ROUNDEDRECTD89*%
%ADD90O,0.0591X0.0197*%
G04:AMPARAMS|DCode=91|XSize=27.6mil|YSize=15.7mil|CornerRadius=3.2mil|HoleSize=0mil|Usage=FLASHONLY|Rotation=0.000|XOffset=0mil|YOffset=0mil|HoleType=Round|Shape=RoundedRectangle|*
%AMROUNDEDRECTD91*
21,1,0.0276,0.0094,0,0,0.0*
21,1,0.0213,0.0157,0,0,0.0*
1,1,0.0063,0.0106,-0.0047*
1,1,0.0063,-0.0106,-0.0047*
1,1,0.0063,-0.0106,0.0047*
1,1,0.0063,0.0106,0.0047*
%
%ADD91ROUNDEDRECTD91*%
G04:AMPARAMS|DCode=92|XSize=13mil|YSize=32.5mil|CornerRadius=2.9mil|HoleSize=0mil|Usage=FLASHONLY|Rotation=0.000|XOffset=0mil|YOffset=0mil|HoleType=Round|Shape=RoundedRectangle|*
%AMROUNDEDRECTD92*
21,1,0.0130,0.0267,0,0,0.0*
21,1,0.0072,0.0325,0,0,0.0*
1,1,0.0057,0.0036,-0.0134*
1,1,0.0057,-0.0036,-0.0134*
1,1,0.0057,-0.0036,0.0134*
1,1,0.0057,0.0036,0.0134*
%
%ADD92ROUNDEDRECTD92*%
G04:AMPARAMS|DCode=93|XSize=63mil|YSize=72.8mil|CornerRadius=7.9mil|HoleSize=0mil|Usage=FLASHONLY|Rotation=0.000|XOffset=0mil|YOffset=0mil|HoleType=Round|Shape=RoundedRectangle|*
%AMROUNDEDRECTD93*
21,1,0.0630,0.0571,0,0,0.0*
21,1,0.0472,0.0728,0,0,0.0*
1,1,0.0157,0.0236,-0.0285*
1,1,0.0157,-0.0236,-0.0285*
1,1,0.0157,-0.0236,0.0285*
1,1,0.0157,0.0236,0.0285*
%
%ADD93ROUNDEDRECTD93*%
%ADD94O,0.0571X0.0197*%
G04:AMPARAMS|DCode=95|XSize=35.4mil|YSize=45.3mil|CornerRadius=9.8mil|HoleSize=0mil|Usage=FLASHONLY|Rotation=180.000|XOffset=0mil|YOffset=0mil|HoleType=Round|Shape=RoundedRectangle|*
%AMROUNDEDRECTD95*
21,1,0.0354,0.0256,0,0,180.0*
21,1,0.0157,0.0453,0,0,180.0*
1,1,0.0197,-0.0079,0.0128*
1,1,0.0197,0.0079,0.0128*
1,1,0.0197,0.0079,-0.0128*
1,1,0.0197,-0.0079,-0.0128*
%
%ADD95ROUNDEDRECTD95*%
G04:AMPARAMS|DCode=96|XSize=35.4mil|YSize=45.3mil|CornerRadius=9.8mil|HoleSize=0mil|Usage=FLASHONLY|Rotation=270.000|XOffset=0mil|YOffset=0mil|HoleType=Round|Shape=RoundedRectangle|*
%AMROUNDEDRECTD96*
21,1,0.0354,0.0256,0,0,270.0*
21,1,0.0157,0.0453,0,0,270.0*
1,1,0.0197,-0.0128,-0.0079*
1,1,0.0197,-0.0128,0.0079*
1,1,0.0197,0.0128,0.0079*
1,1,0.0197,0.0128,-0.0079*
%
%ADD96ROUNDEDRECTD96*%
G04:AMPARAMS|DCode=97|XSize=51.2mil|YSize=74.8mil|CornerRadius=6.7mil|HoleSize=0mil|Usage=FLASHONLY|Rotation=0.000|XOffset=0mil|YOffset=0mil|HoleType=Round|Shape=RoundedRectangle|*
%AMROUNDEDRECTD97*
21,1,0.0512,0.0614,0,0,0.0*
21,1,0.0378,0.0748,0,0,0.0*
1,1,0.0134,0.0189,-0.0307*
1,1,0.0134,-0.0189,-0.0307*
1,1,0.0134,-0.0189,0.0307*
1,1,0.0134,0.0189,0.0307*
%
%ADD97ROUNDEDRECTD97*%
G04:AMPARAMS|DCode=98|XSize=51.2mil|YSize=74.8mil|CornerRadius=6.7mil|HoleSize=0mil|Usage=FLASHONLY|Rotation=270.000|XOffset=0mil|YOffset=0mil|HoleType=Round|Shape=RoundedRectangle|*
%AMROUNDEDRECTD98*
21,1,0.0512,0.0614,0,0,270.0*
21,1,0.0378,0.0748,0,0,270.0*
1,1,0.0134,-0.0307,-0.0189*
1,1,0.0134,-0.0307,0.0189*
1,1,0.0134,0.0307,0.0189*
1,1,0.0134,0.0307,-0.0189*
%
%ADD98ROUNDEDRECTD98*%
G04:AMPARAMS|DCode=99|XSize=82.7mil|YSize=39.4mil|CornerRadius=7.3mil|HoleSize=0mil|Usage=FLASHONLY|Rotation=90.000|XOffset=0mil|YOffset=0mil|HoleType=Round|Shape=RoundedRectangle|*
%AMROUNDEDRECTD99*
21,1,0.0827,0.0248,0,0,90.0*
21,1,0.0681,0.0394,0,0,90.0*
1,1,0.0146,0.0124,0.0341*
1,1,0.0146,0.0124,-0.0341*
1,1,0.0146,-0.0124,-0.0341*
1,1,0.0146,-0.0124,0.0341*
%
%ADD99ROUNDEDRECTD99*%
G04:AMPARAMS|DCode=100|XSize=39.4mil|YSize=82.7mil|CornerRadius=5.5mil|HoleSize=0mil|Usage=FLASHONLY|Rotation=90.000|XOffset=0mil|YOffset=0mil|HoleType=Round|Shape=RoundedRectangle|*
%AMROUNDEDRECTD100*
21,1,0.0394,0.0717,0,0,90.0*
21,1,0.0283,0.0827,0,0,90.0*
1,1,0.0110,0.0358,0.0142*
1,1,0.0110,0.0358,-0.0142*
1,1,0.0110,-0.0358,-0.0142*
1,1,0.0110,-0.0358,0.0142*
%
%ADD100ROUNDEDRECTD100*%
%ADD101R,0.0563X0.0563*%
G04:AMPARAMS|DCode=102|XSize=27.6mil|YSize=43.3mil|CornerRadius=4.3mil|HoleSize=0mil|Usage=FLASHONLY|Rotation=270.000|XOffset=0mil|YOffset=0mil|HoleType=Round|Shape=RoundedRectangle|*
%AMROUNDEDRECTD102*
21,1,0.0276,0.0346,0,0,270.0*
21,1,0.0189,0.0433,0,0,270.0*
1,1,0.0087,-0.0173,-0.0094*
1,1,0.0087,-0.0173,0.0094*
1,1,0.0087,0.0173,0.0094*
1,1,0.0087,0.0173,-0.0094*
%
%ADD102ROUNDEDRECTD102*%
G04:AMPARAMS|DCode=103|XSize=65.4mil|YSize=19.7mil|CornerRadius=3.9mil|HoleSize=0mil|Usage=FLASHONLY|Rotation=0.000|XOffset=0mil|YOffset=0mil|HoleType=Round|Shape=RoundedRectangle|*
%AMROUNDEDRECTD103*
21,1,0.0654,0.0118,0,0,0.0*
21,1,0.0575,0.0197,0,0,0.0*
1,1,0.0079,0.0287,-0.0059*
1,1,0.0079,-0.0287,-0.0059*
1,1,0.0079,-0.0287,0.0059*
1,1,0.0079,0.0287,0.0059*
%
%ADD103ROUNDEDRECTD103*%
G04:AMPARAMS|DCode=104|XSize=74.8mil|YSize=63mil|CornerRadius=4.9mil|HoleSize=0mil|Usage=FLASHONLY|Rotation=90.000|XOffset=0mil|YOffset=0mil|HoleType=Round|Shape=RoundedRectangle|*
%AMROUNDEDRECTD104*
21,1,0.0748,0.0531,0,0,90.0*
21,1,0.0650,0.0630,0,0,90.0*
1,1,0.0098,0.0266,0.0325*
1,1,0.0098,0.0266,-0.0325*
1,1,0.0098,-0.0266,-0.0325*
1,1,0.0098,-0.0266,0.0325*
%
%ADD104ROUNDEDRECTD104*%
G04:AMPARAMS|DCode=105|XSize=49.2mil|YSize=27.6mil|CornerRadius=4.3mil|HoleSize=0mil|Usage=FLASHONLY|Rotation=180.000|XOffset=0mil|YOffset=0mil|HoleType=Round|Shape=RoundedRectangle|*
%AMROUNDEDRECTD105*
21,1,0.0492,0.0189,0,0,180.0*
21,1,0.0406,0.0276,0,0,180.0*
1,1,0.0087,-0.0203,0.0094*
1,1,0.0087,0.0203,0.0094*
1,1,0.0087,0.0203,-0.0094*
1,1,0.0087,-0.0203,-0.0094*
%
%ADD105ROUNDEDRECTD105*%
G04:AMPARAMS|DCode=106|XSize=49.2mil|YSize=15.7mil|CornerRadius=3.2mil|HoleSize=0mil|Usage=FLASHONLY|Rotation=180.000|XOffset=0mil|YOffset=0mil|HoleType=Round|Shape=RoundedRectangle|*
%AMROUNDEDRECTD106*
21,1,0.0492,0.0094,0,0,180.0*
21,1,0.0429,0.0157,0,0,180.0*
1,1,0.0063,-0.0215,0.0047*
1,1,0.0063,0.0215,0.0047*
1,1,0.0063,0.0215,-0.0047*
1,1,0.0063,-0.0215,-0.0047*
%
%ADD106ROUNDEDRECTD106*%
G04:AMPARAMS|DCode=107|XSize=63mil|YSize=82.7mil|CornerRadius=7.9mil|HoleSize=0mil|Usage=FLASHONLY|Rotation=180.000|XOffset=0mil|YOffset=0mil|HoleType=Round|Shape=RoundedRectangle|*
%AMROUNDEDRECTD107*
21,1,0.0630,0.0669,0,0,180.0*
21,1,0.0472,0.0827,0,0,180.0*
1,1,0.0157,-0.0236,0.0335*
1,1,0.0157,0.0236,0.0335*
1,1,0.0157,0.0236,-0.0335*
1,1,0.0157,-0.0236,-0.0335*
%
%ADD107ROUNDEDRECTD107*%
G04:AMPARAMS|DCode=108|XSize=89.8mil|YSize=82.7mil|CornerRadius=9.8mil|HoleSize=0mil|Usage=FLASHONLY|Rotation=180.000|XOffset=0mil|YOffset=0mil|HoleType=Round|Shape=RoundedRectangle|*
%AMROUNDEDRECTD108*
21,1,0.0898,0.0630,0,0,180.0*
21,1,0.0701,0.0827,0,0,180.0*
1,1,0.0197,-0.0350,0.0315*
1,1,0.0197,0.0350,0.0315*
1,1,0.0197,0.0350,-0.0315*
1,1,0.0197,-0.0350,-0.0315*
%
%ADD108ROUNDEDRECTD108*%
G04:AMPARAMS|DCode=109|XSize=41.3mil|YSize=88.6mil|CornerRadius=11.3mil|HoleSize=0mil|Usage=FLASHONLY|Rotation=270.000|XOffset=0mil|YOffset=0mil|HoleType=Round|Shape=RoundedRectangle|*
%AMROUNDEDRECTD109*
21,1,0.0413,0.0659,0,0,270.0*
21,1,0.0187,0.0886,0,0,270.0*
1,1,0.0226,-0.0330,-0.0094*
1,1,0.0226,-0.0330,0.0094*
1,1,0.0226,0.0330,0.0094*
1,1,0.0226,0.0330,-0.0094*
%
%ADD109ROUNDEDRECTD109*%
G04:AMPARAMS|DCode=110|XSize=131.9mil|YSize=88.6mil|CornerRadius=23.1mil|HoleSize=0mil|Usage=FLASHONLY|Rotation=270.000|XOffset=0mil|YOffset=0mil|HoleType=Round|Shape=RoundedRectangle|*
%AMROUNDEDRECTD110*
21,1,0.1319,0.0423,0,0,270.0*
21,1,0.0856,0.0886,0,0,270.0*
1,1,0.0463,-0.0212,-0.0428*
1,1,0.0463,-0.0212,0.0428*
1,1,0.0463,0.0212,0.0428*
1,1,0.0463,0.0212,-0.0428*
%
%ADD110ROUNDEDRECTD110*%
G04:AMPARAMS|DCode=111|XSize=41.3mil|YSize=88.6mil|CornerRadius=11.3mil|HoleSize=0mil|Usage=FLASHONLY|Rotation=180.000|XOffset=0mil|YOffset=0mil|HoleType=Round|Shape=RoundedRectangle|*
%AMROUNDEDRECTD111*
21,1,0.0413,0.0659,0,0,180.0*
21,1,0.0187,0.0886,0,0,180.0*
1,1,0.0226,-0.0094,0.0330*
1,1,0.0226,0.0094,0.0330*
1,1,0.0226,0.0094,-0.0330*
1,1,0.0226,-0.0094,-0.0330*
%
%ADD111ROUNDEDRECTD111*%
G04:AMPARAMS|DCode=112|XSize=131.9mil|YSize=88.6mil|CornerRadius=23.1mil|HoleSize=0mil|Usage=FLASHONLY|Rotation=180.000|XOffset=0mil|YOffset=0mil|HoleType=Round|Shape=RoundedRectangle|*
%AMROUNDEDRECTD112*
21,1,0.1319,0.0423,0,0,180.0*
21,1,0.0856,0.0886,0,0,180.0*
1,1,0.0463,-0.0428,0.0212*
1,1,0.0463,0.0428,0.0212*
1,1,0.0463,0.0428,-0.0212*
1,1,0.0463,-0.0428,-0.0212*
%
%ADD112ROUNDEDRECTD112*%
G04:AMPARAMS|DCode=113|XSize=94.5mil|YSize=129.9mil|CornerRadius=11mil|HoleSize=0mil|Usage=FLASHONLY|Rotation=90.000|XOffset=0mil|YOffset=0mil|HoleType=Round|Shape=RoundedRectangle|*
%AMROUNDEDRECTD113*
21,1,0.0945,0.1079,0,0,90.0*
21,1,0.0724,0.1299,0,0,90.0*
1,1,0.0220,0.0539,0.0362*
1,1,0.0220,0.0539,-0.0362*
1,1,0.0220,-0.0539,-0.0362*
1,1,0.0220,-0.0539,0.0362*
%
%ADD113ROUNDEDRECTD113*%
G04:AMPARAMS|DCode=114|XSize=55.1mil|YSize=29.5mil|CornerRadius=4.5mil|HoleSize=0mil|Usage=FLASHONLY|Rotation=90.000|XOffset=0mil|YOffset=0mil|HoleType=Round|Shape=RoundedRectangle|*
%AMROUNDEDRECTD114*
21,1,0.0551,0.0205,0,0,90.0*
21,1,0.0461,0.0295,0,0,90.0*
1,1,0.0091,0.0102,0.0230*
1,1,0.0091,0.0102,-0.0230*
1,1,0.0091,-0.0102,-0.0230*
1,1,0.0091,-0.0102,0.0230*
%
%ADD114ROUNDEDRECTD114*%
G04:AMPARAMS|DCode=115|XSize=27.6mil|YSize=51.2mil|CornerRadius=7.9mil|HoleSize=0mil|Usage=FLASHONLY|Rotation=270.000|XOffset=0mil|YOffset=0mil|HoleType=Round|Shape=RoundedRectangle|*
%AMROUNDEDRECTD115*
21,1,0.0276,0.0354,0,0,270.0*
21,1,0.0118,0.0512,0,0,270.0*
1,1,0.0157,-0.0177,-0.0059*
1,1,0.0157,-0.0177,0.0059*
1,1,0.0157,0.0177,0.0059*
1,1,0.0157,0.0177,-0.0059*
%
%ADD115ROUNDEDRECTD115*%
%ADD116C,0.0710*%
%ADD117R,0.0671X0.0680*%
%ADD118C,0.0671*%
%ADD119C,0.0039*%
%ADD120R,0.0669X0.0669*%
%ADD121C,0.0669*%
%ADD122C,0.0316*%
%ADD123O,0.0789X0.0710*%
G36*
X116535Y047835D02*
Y047244D01*
X144488D01*
Y047835D01*
X116535D01*
D02*
G37*
G36*
X116535Y070079D02*
X147244D01*
Y070669D01*
X116535D01*
Y070079D01*
D02*
G37*
D68*
X133465Y051378D02*
D03*
Y05374D02*
D03*
D69*
X1329Y051772D02*
D03*
Y051575D02*
D03*
Y051378D02*
D03*
Y051181D02*
D03*
Y050984D02*
D03*
X13403Y051772D02*
D03*
Y051575D02*
D03*
Y051378D02*
D03*
Y051181D02*
D03*
Y050984D02*
D03*
Y053346D02*
D03*
Y053543D02*
D03*
Y05374D02*
D03*
Y053937D02*
D03*
Y054134D02*
D03*
X1329Y053346D02*
D03*
Y053543D02*
D03*
Y05374D02*
D03*
Y053937D02*
D03*
Y054134D02*
D03*
D70*
X121999Y050591D02*
D03*
X122489Y050591D02*
D03*
Y048819D02*
D03*
X121999D02*
D03*
X122489Y049409D02*
D03*
X121999D02*
D03*
X122489Y05D02*
D03*
X121999D02*
D03*
X124016Y055512D02*
D03*
X123526D02*
D03*
X124016Y05374D02*
D03*
X123526D02*
D03*
X124016Y054331D02*
D03*
X123526D02*
D03*
X124016Y056693D02*
D03*
X123526D02*
D03*
X124016Y056102D02*
D03*
X123526D02*
D03*
D71*
X126083Y053051D02*
D03*
X126083Y053642D02*
D03*
X126083Y053839D02*
D03*
Y054035D02*
D03*
Y054232D02*
D03*
Y054429D02*
D03*
X126083Y054626D02*
D03*
X126083Y054823D02*
D03*
Y05502D02*
D03*
Y055217D02*
D03*
X129429D02*
D03*
X129429Y054823D02*
D03*
Y054626D02*
D03*
Y054429D02*
D03*
Y054232D02*
D03*
X129429Y054035D02*
D03*
Y053839D02*
D03*
X129429Y053642D02*
D03*
Y053445D02*
D03*
Y053248D02*
D03*
Y053051D02*
D03*
Y05502D02*
D03*
X126083Y053248D02*
D03*
Y053445D02*
D03*
D72*
X126673Y055807D02*
D03*
X127067D02*
D03*
X127264D02*
D03*
X127461Y055807D02*
D03*
X127657D02*
D03*
X127854Y055807D02*
D03*
X128051D02*
D03*
X128248D02*
D03*
X128445D02*
D03*
X128839Y055807D02*
D03*
Y052461D02*
D03*
X128642D02*
D03*
X128445D02*
D03*
X128248Y052461D02*
D03*
X127854Y052461D02*
D03*
X127657D02*
D03*
X127461D02*
D03*
X127264Y052461D02*
D03*
X127067D02*
D03*
X12687D02*
D03*
X126673Y052461D02*
D03*
X128051Y052461D02*
D03*
X12687Y055807D02*
D03*
X128642D02*
D03*
D73*
X116923Y062785D02*
D03*
X117638Y062785D02*
D03*
X116953Y06122D02*
D03*
X117668Y061221D02*
D03*
X124655Y057283D02*
D03*
X12537Y057283D02*
D03*
X1254Y056112D02*
D03*
X124685Y056112D02*
D03*
D74*
X117638Y062008D02*
D03*
X117008D02*
D03*
X125315Y056693D02*
D03*
X124685D02*
D03*
X117638Y060433D02*
D03*
X117008D02*
D03*
X125315Y057874D02*
D03*
X124685D02*
D03*
X12685Y065945D02*
D03*
X12748D02*
D03*
X131024Y052362D02*
D03*
X130394D02*
D03*
X131024Y054724D02*
D03*
X130394D02*
D03*
X131024Y054134D02*
D03*
X130394D02*
D03*
X131024Y053543D02*
D03*
X130394D02*
D03*
X131024Y052953D02*
D03*
X130394D02*
D03*
X125472Y048819D02*
D03*
X126102D02*
D03*
Y051378D02*
D03*
X125472D02*
D03*
X130591Y062598D02*
D03*
X13122D02*
D03*
Y062008D02*
D03*
X130591D02*
D03*
X139646Y048622D02*
D03*
X140276D02*
D03*
X135354Y050984D02*
D03*
X134724D02*
D03*
X139646Y050984D02*
D03*
X140276D02*
D03*
X142008Y052756D02*
D03*
X142638D02*
D03*
X142008Y052165D02*
D03*
X142638D02*
D03*
X142008Y053346D02*
D03*
X142638D02*
D03*
X142008Y051575D02*
D03*
X142638D02*
D03*
X13752Y053346D02*
D03*
X13689D02*
D03*
X13752Y051575D02*
D03*
X13689D02*
D03*
X13752Y052165D02*
D03*
X13689D02*
D03*
X13752Y052756D02*
D03*
X13689D02*
D03*
X14126Y056102D02*
D03*
X14063D02*
D03*
X14126Y05689D02*
D03*
X14063D02*
D03*
Y055118D02*
D03*
X14126D02*
D03*
X13689Y056693D02*
D03*
X13752D02*
D03*
X136142Y05689D02*
D03*
X135512D02*
D03*
X129646Y059843D02*
D03*
X129016D02*
D03*
X146181Y069094D02*
D03*
X145551D02*
D03*
X128071Y060236D02*
D03*
X127441D02*
D03*
X142047Y064173D02*
D03*
X141417D02*
D03*
X141024Y060433D02*
D03*
X141654D02*
D03*
X143701Y063032D02*
D03*
X144331D02*
D03*
X143701Y06248D02*
D03*
X144331D02*
D03*
X142205Y059843D02*
D03*
X142835D02*
D03*
X141024Y058661D02*
D03*
X141654D02*
D03*
X141024Y059252D02*
D03*
X141654D02*
D03*
X128032Y066535D02*
D03*
X128661D02*
D03*
X124685Y055512D02*
D03*
X125315Y055512D02*
D03*
X124685Y054921D02*
D03*
X125315D02*
D03*
X124685Y054331D02*
D03*
X125315D02*
D03*
Y05374D02*
D03*
X124685D02*
D03*
D75*
X12126Y069016D02*
D03*
Y068386D02*
D03*
X120669Y069016D02*
D03*
Y068386D02*
D03*
X120079D02*
D03*
Y069016D02*
D03*
X122441Y068386D02*
D03*
Y069016D02*
D03*
X123032Y068386D02*
D03*
Y069016D02*
D03*
X123622Y068386D02*
D03*
Y069016D02*
D03*
X122244Y059567D02*
D03*
Y058937D02*
D03*
X123819Y059567D02*
D03*
Y058937D02*
D03*
X123228Y059567D02*
D03*
Y058937D02*
D03*
X119488Y068386D02*
D03*
Y069016D02*
D03*
X12185Y068386D02*
D03*
Y069016D02*
D03*
X130315Y050866D02*
D03*
Y051496D02*
D03*
X127559Y057205D02*
D03*
Y056575D02*
D03*
X12815Y057205D02*
D03*
Y056575D02*
D03*
X129724Y050866D02*
D03*
Y051496D02*
D03*
X144685Y068386D02*
D03*
Y069016D02*
D03*
X131437Y063268D02*
D03*
Y063898D02*
D03*
X130512Y060709D02*
D03*
Y061339D02*
D03*
X131299D02*
D03*
Y060709D02*
D03*
X138976Y049488D02*
D03*
Y050118D02*
D03*
X138189Y050118D02*
D03*
Y049488D02*
D03*
X137795Y064843D02*
D03*
Y065472D02*
D03*
X138976D02*
D03*
Y064843D02*
D03*
X14311Y065039D02*
D03*
Y065669D02*
D03*
X143701Y057165D02*
D03*
Y057795D02*
D03*
X127362Y067205D02*
D03*
Y067835D02*
D03*
X125394Y059567D02*
D03*
Y058937D02*
D03*
X121654Y059567D02*
D03*
Y058937D02*
D03*
X121063Y059567D02*
D03*
Y058937D02*
D03*
X120472Y059567D02*
D03*
Y058937D02*
D03*
X129331Y057205D02*
D03*
Y056575D02*
D03*
X12874Y057205D02*
D03*
Y056575D02*
D03*
D76*
X137854Y059093D02*
D03*
X137854Y058593D02*
D03*
X137854Y058093D02*
D03*
X140098Y061593D02*
D03*
X140098Y061093D02*
D03*
X140098Y060593D02*
D03*
Y060093D02*
D03*
Y059593D02*
D03*
Y059093D02*
D03*
X140098Y058593D02*
D03*
X140098Y058093D02*
D03*
X137854Y061593D02*
D03*
X137854Y061093D02*
D03*
X137854Y060593D02*
D03*
Y060093D02*
D03*
Y059593D02*
D03*
D77*
X125413Y049656D02*
D03*
X126161D02*
D03*
X125787Y050738D02*
D03*
X128346Y068258D02*
D03*
X12872Y067175D02*
D03*
X127972Y067175D02*
D03*
D78*
X127106Y049016D02*
D03*
X128799D02*
D03*
X13813Y062795D02*
D03*
X139823D02*
D03*
D79*
X138858Y055098D02*
D03*
X139882Y054724D02*
D03*
Y05435D02*
D03*
Y055098D02*
D03*
X138858Y05435D02*
D03*
Y05687D02*
D03*
X139882Y056496D02*
D03*
Y056122D02*
D03*
Y05687D02*
D03*
X138858Y056122D02*
D03*
D80*
X13061Y058661D02*
D03*
X131201D02*
D03*
X13376Y049803D02*
D03*
X133169D02*
D03*
X13376Y050394D02*
D03*
X133169D02*
D03*
X135335Y051575D02*
D03*
X134744D02*
D03*
X135335Y050394D02*
D03*
X134744D02*
D03*
X134941Y05315D02*
D03*
X135532D02*
D03*
Y05374D02*
D03*
X134941D02*
D03*
Y054331D02*
D03*
X135532D02*
D03*
X142618Y055118D02*
D03*
X142028D02*
D03*
X129626Y060827D02*
D03*
X129035D02*
D03*
X133563Y062795D02*
D03*
X132972D02*
D03*
X131201Y058071D02*
D03*
X13061D02*
D03*
X127461Y059646D02*
D03*
X128051D02*
D03*
X119193Y059646D02*
D03*
X118602D02*
D03*
X141634Y059843D02*
D03*
X141043D02*
D03*
X124114Y054921D02*
D03*
X123524D02*
D03*
X139272Y063976D02*
D03*
X139862D02*
D03*
X137894Y063976D02*
D03*
X138484D02*
D03*
X143209Y064173D02*
D03*
X142618D02*
D03*
X142815Y060433D02*
D03*
X142224Y060433D02*
D03*
X144587Y067717D02*
D03*
X143996D02*
D03*
X128051Y060827D02*
D03*
X127461D02*
D03*
X138878Y050787D02*
D03*
X138287D02*
D03*
X128937Y050197D02*
D03*
X128346D02*
D03*
X124705Y052953D02*
D03*
X125295D02*
D03*
X130413Y056102D02*
D03*
X131004D02*
D03*
X125295Y052362D02*
D03*
X124705D02*
D03*
X131004Y055512D02*
D03*
X130413Y055512D02*
D03*
X127657Y050197D02*
D03*
X127067D02*
D03*
D81*
X137205Y06689D02*
D03*
Y066181D02*
D03*
Y068465D02*
D03*
Y067756D02*
D03*
D82*
X119252Y058858D02*
D03*
X118543D02*
D03*
X133622Y06437D02*
D03*
X132913D02*
D03*
X133622Y063583D02*
D03*
X132913Y063583D02*
D03*
X13252Y059449D02*
D03*
X133228Y059449D02*
D03*
X13252Y058661D02*
D03*
X133228Y058661D02*
D03*
D83*
X13563Y062487D02*
D03*
Y060347D02*
D03*
D84*
X122382Y051984D02*
D03*
X122385Y058024D02*
D03*
D85*
X122589Y053874D02*
D03*
Y054307D02*
D03*
Y054741D02*
D03*
Y055174D02*
D03*
Y055607D02*
D03*
Y05604D02*
D03*
Y056473D02*
D03*
Y056906D02*
D03*
Y057339D02*
D03*
D86*
X118452Y058024D02*
D03*
Y051474D02*
D03*
D87*
X132087Y051673D02*
D03*
Y051083D02*
D03*
Y054035D02*
D03*
Y053445D02*
D03*
X13189Y056004D02*
D03*
Y055413D02*
D03*
X13248D02*
D03*
Y056004D02*
D03*
X134646D02*
D03*
Y055413D02*
D03*
X137008Y056004D02*
D03*
Y055413D02*
D03*
X137598D02*
D03*
Y056004D02*
D03*
X138189Y054429D02*
D03*
Y05502D02*
D03*
Y056791D02*
D03*
Y056201D02*
D03*
X140945Y049508D02*
D03*
X140945Y050098D02*
D03*
X132028Y063878D02*
D03*
Y063287D02*
D03*
X131299Y05935D02*
D03*
Y059941D02*
D03*
X127362Y058366D02*
D03*
Y058957D02*
D03*
X127953Y058957D02*
D03*
Y058366D02*
D03*
X119882Y058957D02*
D03*
Y059547D02*
D03*
X126772Y067224D02*
D03*
Y067815D02*
D03*
X143504Y059941D02*
D03*
Y060532D02*
D03*
X143898Y068406D02*
D03*
Y068996D02*
D03*
X138386Y065453D02*
D03*
X138386Y064862D02*
D03*
X128543Y051476D02*
D03*
Y050886D02*
D03*
X129134Y051476D02*
D03*
Y050886D02*
D03*
X126575Y057185D02*
D03*
Y056594D02*
D03*
D88*
X137579Y050315D02*
D03*
X137205Y049291D02*
D03*
X136831D02*
D03*
X137579D02*
D03*
X136831Y050315D02*
D03*
X135453Y055197D02*
D03*
X135827Y05622D02*
D03*
X136201Y05622D02*
D03*
X135453D02*
D03*
X136201Y055197D02*
D03*
X140335Y049291D02*
D03*
X139587Y050315D02*
D03*
X140335D02*
D03*
X139961D02*
D03*
X139587Y049291D02*
D03*
X141949Y055787D02*
D03*
X142323Y056811D02*
D03*
X142697D02*
D03*
X141949D02*
D03*
X142697Y055787D02*
D03*
D89*
X133091Y05624D02*
D03*
X133839Y055177D02*
D03*
X133465Y05624D02*
D03*
X133839D02*
D03*
X133091Y055177D02*
D03*
X133465Y055177D02*
D03*
D90*
X138602Y053455D02*
D03*
X138602Y053199D02*
D03*
X138602Y052943D02*
D03*
X138602Y052687D02*
D03*
X138602Y052431D02*
D03*
X138602Y052175D02*
D03*
Y051919D02*
D03*
Y051663D02*
D03*
X140925Y053455D02*
D03*
Y053199D02*
D03*
Y052943D02*
D03*
Y052687D02*
D03*
Y052431D02*
D03*
Y052175D02*
D03*
Y051919D02*
D03*
Y051663D02*
D03*
D91*
X129882Y058533D02*
D03*
X12878Y058789D02*
D03*
X129882Y058278D02*
D03*
Y059045D02*
D03*
X12878Y058278D02*
D03*
Y059045D02*
D03*
X129882Y058789D02*
D03*
X12878Y058533D02*
D03*
D92*
X129193Y059134D02*
D03*
X129469D02*
D03*
X129193Y058189D02*
D03*
X129469D02*
D03*
D93*
X129331Y058661D02*
D03*
D94*
X131998Y062195D02*
D03*
X131998Y061939D02*
D03*
X131998Y061683D02*
D03*
Y061427D02*
D03*
X13375Y062195D02*
D03*
X13375Y061939D02*
D03*
X13375Y061683D02*
D03*
X13375Y061427D02*
D03*
D95*
X136496Y06437D02*
D03*
X135945Y06437D02*
D03*
D96*
X130512Y059921D02*
D03*
Y05937D02*
D03*
X130709Y064449D02*
D03*
Y063898D02*
D03*
D97*
X132239Y060433D02*
D03*
X133509Y060433D02*
D03*
D98*
X144094Y065399D02*
D03*
Y064129D02*
D03*
X139961Y065989D02*
D03*
Y064719D02*
D03*
D99*
X118933Y060715D02*
D03*
X119433Y060715D02*
D03*
X119933Y060715D02*
D03*
X120433Y060715D02*
D03*
X120933D02*
D03*
X121433Y060715D02*
D03*
X121933Y060715D02*
D03*
X122433Y060715D02*
D03*
X122933D02*
D03*
X123433Y060715D02*
D03*
X123933Y060715D02*
D03*
X124433Y060715D02*
D03*
X124933Y060715D02*
D03*
X125433D02*
D03*
X125433Y067407D02*
D03*
X124933Y067407D02*
D03*
X124433Y067407D02*
D03*
X123933Y067407D02*
D03*
X123433D02*
D03*
X122933D02*
D03*
X122433Y067407D02*
D03*
X121933Y067407D02*
D03*
X121433Y067407D02*
D03*
X120933D02*
D03*
X120433D02*
D03*
X119933Y067407D02*
D03*
X119433Y067407D02*
D03*
X118933Y067407D02*
D03*
D100*
X125827Y061811D02*
D03*
Y062311D02*
D03*
Y062811D02*
D03*
Y063311D02*
D03*
Y063811D02*
D03*
Y064311D02*
D03*
X125827Y064811D02*
D03*
X125827Y065311D02*
D03*
Y065811D02*
D03*
Y066311D02*
D03*
D101*
X121163Y062945D02*
D03*
X121163Y063667D02*
D03*
Y06439D02*
D03*
X121886Y062945D02*
D03*
X121886Y063667D02*
D03*
Y06439D02*
D03*
X122608Y062945D02*
D03*
X122608Y063667D02*
D03*
X122608Y06439D02*
D03*
D102*
X142274Y06498D02*
D03*
Y065728D02*
D03*
X141191Y065354D02*
D03*
X142372Y058858D02*
D03*
X143455Y059232D02*
D03*
Y058484D02*
D03*
D103*
X144142Y066941D02*
D03*
X144142Y066685D02*
D03*
X144142Y06643D02*
D03*
X144142Y066174D02*
D03*
X146409D02*
D03*
Y06643D02*
D03*
Y066685D02*
D03*
Y066941D02*
D03*
D104*
X124016Y048661D02*
D03*
Y051732D02*
D03*
X132087Y068858D02*
D03*
Y065787D02*
D03*
X130118Y068858D02*
D03*
Y065787D02*
D03*
D105*
X144581Y057913D02*
D03*
Y059803D02*
D03*
X144581Y060118D02*
D03*
Y057598D02*
D03*
D106*
Y059154D02*
D03*
Y05876D02*
D03*
Y058957D02*
D03*
Y058563D02*
D03*
Y059547D02*
D03*
Y058366D02*
D03*
Y05935D02*
D03*
Y058169D02*
D03*
D107*
X146364Y06087D02*
D03*
Y056846D02*
D03*
D108*
X144817Y06087D02*
D03*
Y056846D02*
D03*
D109*
X136181Y067323D02*
D03*
Y068228D02*
D03*
X136181Y066417D02*
D03*
D110*
X133898Y067323D02*
D03*
D111*
X128543Y06185D02*
D03*
X129449D02*
D03*
X127638Y06185D02*
D03*
D112*
X128543Y064134D02*
D03*
D113*
X142323Y062402D02*
D03*
D114*
X142073Y063494D02*
D03*
X141573Y063494D02*
D03*
X142573D02*
D03*
X143073Y063494D02*
D03*
X142073Y061329D02*
D03*
X141573Y061329D02*
D03*
X142573Y061329D02*
D03*
X143073D02*
D03*
D115*
X145276Y06811D02*
D03*
X145276Y068484D02*
D03*
X146457Y067736D02*
D03*
Y06811D02*
D03*
X145276Y067736D02*
D03*
X146457Y068484D02*
D03*
D116*
X143898Y054134D02*
D03*
X143898Y052559D02*
D03*
Y050787D02*
D03*
Y049213D02*
D03*
X13248Y05748D02*
D03*
X141142Y048622D02*
D03*
X140748Y063976D02*
D03*
X134843D02*
D03*
X141535Y057677D02*
D03*
X142126Y050591D02*
D03*
X140748Y054331D02*
D03*
X142126D02*
D03*
X136614D02*
D03*
X13622Y052362D02*
D03*
Y051181D02*
D03*
X135827Y049409D02*
D03*
X123622Y052756D02*
D03*
X126181Y068701D02*
D03*
X125D02*
D03*
X143898Y055512D02*
D03*
X128346Y065748D02*
D03*
X137597Y069286D02*
D03*
X13622Y069291D02*
D03*
X130906Y048819D02*
D03*
D117*
X117717Y050098D02*
D03*
X142323Y067421D02*
D03*
X139173Y068406D02*
D03*
D118*
X117717Y049114D02*
D03*
X142323Y068406D02*
D03*
X139173Y067421D02*
D03*
D119*
X118325Y056704D02*
D03*
Y053494D02*
D03*
X145014Y059996D02*
D03*
Y05772D02*
D03*
D120*
X120972Y050803D02*
D03*
D121*
X120972Y049803D02*
D03*
X120972Y048803D02*
D03*
X119972D02*
D03*
X119972Y049803D02*
D03*
X119972Y050803D02*
D03*
D122*
X121163Y063306D02*
D03*
Y064029D02*
D03*
X121525Y062945D02*
D03*
Y063667D02*
D03*
X121525Y06439D02*
D03*
X121886Y063306D02*
D03*
Y064029D02*
D03*
X122247Y062945D02*
D03*
X122247Y063667D02*
D03*
X122247Y06439D02*
D03*
X122608Y063306D02*
D03*
Y064029D02*
D03*
D123*
X145472Y064264D02*
D03*
Y065264D02*
D03*
Y062295D02*
D03*
Y063295D02*
D03*
M02*
