G04*
G04 #@! TF.GenerationSoftware,Altium Limited,Altium Designer,23.1.1 (15)*
G04*
G04 Layer_Color=16777215*
%FSTAX24Y24*%
%MOIN*%
G70*
G04*
G04 #@! TF.SameCoordinates,744591E9-B7FF-4256-B3DA-537CD40D5A87*
G04*
G04*
G04 #@! TF.FilePolarity,Positive*
G04*
G01*
G75*
%ADD133C,0.0020*%
%ADD134C,0.0027*%
D133*
X143898Y054054D02*
X143818Y054214D01*
X143978D01*
X143898Y054054D01*
X143898Y052479D02*
X143818Y052639D01*
X143978D01*
X143898Y052479D01*
Y050707D02*
X143818Y050867D01*
X143978D01*
X143898Y050707D01*
Y049133D02*
X143818Y049293D01*
X143978D01*
X143898Y049133D01*
X13248Y0574D02*
X1324Y05756D01*
X13256D01*
X13248Y0574D01*
X141142Y048542D02*
X141062Y048702D01*
X141222D01*
X141142Y048542D01*
X140748Y063896D02*
X140668Y064056D01*
X140828D01*
X140748Y063896D01*
X134843D02*
X134763Y064056D01*
X134923D01*
X134843Y063896D01*
X141535Y057597D02*
X141455Y057757D01*
X141615D01*
X141535Y057597D01*
X142126Y050511D02*
X142046Y050671D01*
X142206D01*
X142126Y050511D01*
X140748Y054251D02*
X140668Y054411D01*
X140828D01*
X140748Y054251D01*
X142126D02*
X142046Y054411D01*
X142206D01*
X142126Y054251D01*
X136614D02*
X136534Y054411D01*
X136694D01*
X136614Y054251D01*
X13622Y052282D02*
X13614Y052442D01*
X1363D01*
X13622Y052282D01*
Y051101D02*
X13614Y051261D01*
X1363D01*
X13622Y051101D01*
X135827Y049329D02*
X135747Y049489D01*
X135907D01*
X135827Y049329D01*
X123622Y052676D02*
X123542Y052836D01*
X123702D01*
X123622Y052676D01*
X126181Y068621D02*
X126101Y068781D01*
X126261D01*
X126181Y068621D01*
X125D02*
X12492Y068781D01*
X12508D01*
X125Y068621D01*
X143898Y055432D02*
X143818Y055592D01*
X143978D01*
X143898Y055432D01*
X128346Y065668D02*
X128266Y065828D01*
X128426D01*
X128346Y065668D01*
X137597Y069206D02*
X137517Y069366D01*
X137677D01*
X137597Y069206D01*
X13622Y069211D02*
X13614Y069371D01*
X1363D01*
X13622Y069211D01*
X130906Y048739D02*
X130826Y048899D01*
X130986D01*
X130906Y048739D01*
X118325Y056624D02*
X118245Y056784D01*
X118405D01*
X118325Y056624D01*
Y053414D02*
X118245Y053574D01*
X118405D01*
X118325Y053414D01*
X120892Y050723D02*
X120932Y050803D01*
X120892Y050883D01*
X120972Y050843D01*
X121052Y050883D01*
X121012Y050803D01*
X121052Y050723D01*
X120972Y050763D01*
X120892Y050723D01*
X120892Y049723D02*
X120932Y049803D01*
X120892Y049883D01*
X120972Y049843D01*
X121052Y049883D01*
X121012Y049803D01*
X121052Y049723D01*
X120972Y049763D01*
X120892Y049723D01*
X120892Y048723D02*
X120932Y048803D01*
X120892Y048883D01*
X120972Y048843D01*
X121052Y048883D01*
X121012Y048803D01*
X121052Y048723D01*
X120972Y048763D01*
X120892Y048723D01*
X119892D02*
X119932Y048803D01*
X119892Y048883D01*
X119972Y048843D01*
X120052Y048883D01*
X120012Y048803D01*
X120052Y048723D01*
X119972Y048763D01*
X119892Y048723D01*
X119892Y049723D02*
X119932Y049803D01*
X119892Y049883D01*
X119972Y049843D01*
X120052Y049883D01*
X120012Y049803D01*
X120052Y049723D01*
X119972Y049763D01*
X119892Y049723D01*
X119892Y050723D02*
X119932Y050803D01*
X119892Y050883D01*
X119972Y050843D01*
X120052Y050883D01*
X120012Y050803D01*
X120052Y050723D01*
X119972Y050763D01*
X119892Y050723D01*
X121123Y063266D02*
Y063226D01*
X121203D01*
Y063266D01*
X121243D01*
Y063346D01*
X121203D01*
Y063386D01*
X121123D01*
Y063346D01*
X121083D01*
Y063266D01*
X121123D01*
Y063989D02*
Y063949D01*
X121203D01*
Y063989D01*
X121243D01*
Y064069D01*
X121203D01*
Y064109D01*
X121123D01*
Y064069D01*
X121083D01*
Y063989D01*
X121123D01*
X121485Y062905D02*
Y062865D01*
X121565D01*
Y062905D01*
X121605D01*
Y062985D01*
X121565D01*
Y063025D01*
X121485D01*
Y062985D01*
X121445D01*
Y062905D01*
X121485D01*
Y063627D02*
Y063587D01*
X121565D01*
Y063627D01*
X121605D01*
Y063707D01*
X121565D01*
Y063747D01*
X121485D01*
Y063707D01*
X121445D01*
Y063627D01*
X121485D01*
X121485Y06435D02*
Y06431D01*
X121565D01*
Y06435D01*
X121605D01*
Y06443D01*
X121565D01*
Y06447D01*
X121485D01*
Y06443D01*
X121445D01*
Y06435D01*
X121485D01*
X121846Y063266D02*
Y063226D01*
X121926D01*
Y063266D01*
X121966D01*
Y063346D01*
X121926D01*
Y063386D01*
X121846D01*
Y063346D01*
X121806D01*
Y063266D01*
X121846D01*
Y063989D02*
Y063949D01*
X121926D01*
Y063989D01*
X121966D01*
Y064069D01*
X121926D01*
Y064109D01*
X121846D01*
Y064069D01*
X121806D01*
Y063989D01*
X121846D01*
X122207Y062905D02*
Y062865D01*
X122287D01*
Y062905D01*
X122327D01*
Y062985D01*
X122287D01*
Y063025D01*
X122207D01*
Y062985D01*
X122167D01*
Y062905D01*
X122207D01*
X122207Y063627D02*
Y063587D01*
X122287D01*
Y063627D01*
X122327D01*
Y063707D01*
X122287D01*
Y063747D01*
X122207D01*
Y063707D01*
X122167D01*
Y063627D01*
X122207D01*
X122207Y06435D02*
Y06431D01*
X122287D01*
Y06435D01*
X122327D01*
Y06443D01*
X122287D01*
Y06447D01*
X122207D01*
Y06443D01*
X122167D01*
Y06435D01*
X122207D01*
X122568Y063266D02*
Y063226D01*
X122648D01*
Y063266D01*
X122688D01*
Y063346D01*
X122648D01*
Y063386D01*
X122568D01*
Y063346D01*
X122528D01*
Y063266D01*
X122568D01*
Y063989D02*
Y063949D01*
X122648D01*
Y063989D01*
X122688D01*
Y064069D01*
X122648D01*
Y064109D01*
X122568D01*
Y064069D01*
X122528D01*
Y063989D01*
X122568D01*
X145392Y064184D02*
X145432Y064264D01*
X145392Y064344D01*
X145472Y064304D01*
X145552Y064344D01*
X145512Y064264D01*
X145552Y064184D01*
X145472Y064224D01*
X145392Y064184D01*
Y065184D02*
X145432Y065264D01*
X145392Y065344D01*
X145472Y065304D01*
X145552Y065344D01*
X145512Y065264D01*
X145552Y065184D01*
X145472Y065224D01*
X145392Y065184D01*
Y062215D02*
X145432Y062295D01*
X145392Y062375D01*
X145472Y062335D01*
X145552Y062375D01*
X145512Y062295D01*
X145552Y062215D01*
X145472Y062255D01*
X145392Y062215D01*
Y063215D02*
X145432Y063295D01*
X145392Y063375D01*
X145472Y063335D01*
X145552Y063375D01*
X145512Y063295D01*
X145552Y063215D01*
X145472Y063255D01*
X145392Y063215D01*
X145014Y059916D02*
X145054Y059956D01*
X145094D01*
X145054Y059996D01*
X145094Y060036D01*
X145054D01*
X145014Y060076D01*
X144974Y060036D01*
X144934D01*
X144974Y059996D01*
X144934Y059956D01*
X144974D01*
X145014Y059916D01*
Y05764D02*
X145054Y05768D01*
X145094D01*
X145054Y05772D01*
X145094Y05776D01*
X145054D01*
X145014Y0578D01*
X144974Y05776D01*
X144934D01*
X144974Y05772D01*
X144934Y05768D01*
X144974D01*
X145014Y05764D01*
X141889Y049763D02*
Y049723D01*
X141969D01*
Y049763D01*
X142009D01*
Y049843D01*
X141969D01*
Y049883D01*
X141889D01*
Y049843D01*
X141849D01*
Y049763D01*
X141889D01*
X133629Y051634D02*
Y051594D01*
X133709D01*
Y051634D01*
X133749D01*
Y051714D01*
X133709D01*
Y051754D01*
X133629D01*
Y051714D01*
X133589D01*
Y051634D01*
X133629D01*
Y051042D02*
Y051002D01*
X133709D01*
Y051042D01*
X133749D01*
Y051122D01*
X133709D01*
Y051162D01*
X133629D01*
Y051122D01*
X133589D01*
Y051042D01*
X133629D01*
X13322D02*
Y051002D01*
X1333D01*
Y051042D01*
X13334D01*
Y051122D01*
X1333D01*
Y051162D01*
X13322D01*
Y051122D01*
X13318D01*
Y051042D01*
X13322D01*
Y051634D02*
Y051594D01*
X1333D01*
Y051634D01*
X13334D01*
Y051714D01*
X1333D01*
Y051754D01*
X13322D01*
Y051714D01*
X13318D01*
Y051634D01*
X13322D01*
X13374Y058779D02*
Y058739D01*
X13382D01*
Y058779D01*
X13386D01*
Y058859D01*
X13382D01*
Y058899D01*
X13374D01*
Y058859D01*
X1337D01*
Y058779D01*
X13374D01*
X133621Y058228D02*
Y058188D01*
X133701D01*
Y058228D01*
X133741D01*
Y058308D01*
X133701D01*
Y058348D01*
X133621D01*
Y058308D01*
X133581D01*
Y058228D01*
X133621D01*
X133228Y059015D02*
Y058975D01*
X133308D01*
Y059015D01*
X133348D01*
Y059095D01*
X133308D01*
Y059135D01*
X133228D01*
Y059095D01*
X133188D01*
Y059015D01*
X133228D01*
X117873Y059999D02*
Y059959D01*
X117953D01*
Y059999D01*
X117993D01*
Y060079D01*
X117953D01*
Y060119D01*
X117873D01*
Y060079D01*
X117833D01*
Y059999D01*
X117873D01*
Y061574D02*
Y061534D01*
X117953D01*
Y061574D01*
X117993D01*
Y061654D01*
X117953D01*
Y061694D01*
X117873D01*
Y061654D01*
X117833D01*
Y061574D01*
X117873D01*
X144645Y070236D02*
Y070196D01*
X144725D01*
Y070236D01*
X144765D01*
Y070316D01*
X144725D01*
Y070356D01*
X144645D01*
Y070316D01*
X144605D01*
Y070236D01*
X144645D01*
X14622D02*
Y070196D01*
X1463D01*
Y070236D01*
X14634D01*
Y070316D01*
X1463D01*
Y070356D01*
X14622D01*
Y070316D01*
X14618D01*
Y070236D01*
X14622D01*
X145432D02*
Y070196D01*
X145512D01*
Y070236D01*
X145552D01*
Y070316D01*
X145512D01*
Y070356D01*
X145432D01*
Y070316D01*
X145392D01*
Y070236D01*
X145432D01*
X117086D02*
Y070196D01*
X117166D01*
Y070236D01*
X117206D01*
Y070316D01*
X117166D01*
Y070356D01*
X117086D01*
Y070316D01*
X117046D01*
Y070236D01*
X117086D01*
X117873D02*
Y070196D01*
X117953D01*
Y070236D01*
X117993D01*
Y070316D01*
X117953D01*
Y070356D01*
X117873D01*
Y070316D01*
X117833D01*
Y070236D01*
X117873D01*
X119448D02*
Y070196D01*
X119528D01*
Y070236D01*
X119568D01*
Y070316D01*
X119528D01*
Y070356D01*
X119448D01*
Y070316D01*
X119408D01*
Y070236D01*
X119448D01*
X118661D02*
Y070196D01*
X118741D01*
Y070236D01*
X118781D01*
Y070316D01*
X118741D01*
Y070356D01*
X118661D01*
Y070316D01*
X118621D01*
Y070236D01*
X118661D01*
X121023D02*
Y070196D01*
X121103D01*
Y070236D01*
X121143D01*
Y070316D01*
X121103D01*
Y070356D01*
X121023D01*
Y070316D01*
X120983D01*
Y070236D01*
X121023D01*
X12181D02*
Y070196D01*
X12189D01*
Y070236D01*
X12193D01*
Y070316D01*
X12189D01*
Y070356D01*
X12181D01*
Y070316D01*
X12177D01*
Y070236D01*
X12181D01*
X120236D02*
Y070196D01*
X120316D01*
Y070236D01*
X120356D01*
Y070316D01*
X120316D01*
Y070356D01*
X120236D01*
Y070316D01*
X120196D01*
Y070236D01*
X120236D01*
X12496D02*
Y070196D01*
X12504D01*
Y070236D01*
X12508D01*
Y070316D01*
X12504D01*
Y070356D01*
X12496D01*
Y070316D01*
X12492D01*
Y070236D01*
X12496D01*
X126535D02*
Y070196D01*
X126615D01*
Y070236D01*
X126655D01*
Y070316D01*
X126615D01*
Y070356D01*
X126535D01*
Y070316D01*
X126495D01*
Y070236D01*
X126535D01*
X125747D02*
Y070196D01*
X125827D01*
Y070236D01*
X125867D01*
Y070316D01*
X125827D01*
Y070356D01*
X125747D01*
Y070316D01*
X125707D01*
Y070236D01*
X125747D01*
X123385D02*
Y070196D01*
X123465D01*
Y070236D01*
X123505D01*
Y070316D01*
X123465D01*
Y070356D01*
X123385D01*
Y070316D01*
X123345D01*
Y070236D01*
X123385D01*
X124173D02*
Y070196D01*
X124253D01*
Y070236D01*
X124293D01*
Y070316D01*
X124253D01*
Y070356D01*
X124173D01*
Y070316D01*
X124133D01*
Y070236D01*
X124173D01*
X122598D02*
Y070196D01*
X122678D01*
Y070236D01*
X122718D01*
Y070316D01*
X122678D01*
Y070356D01*
X122598D01*
Y070316D01*
X122558D01*
Y070236D01*
X122598D01*
X129684D02*
Y070196D01*
X129764D01*
Y070236D01*
X129804D01*
Y070316D01*
X129764D01*
Y070356D01*
X129684D01*
Y070316D01*
X129644D01*
Y070236D01*
X129684D01*
X131259D02*
Y070196D01*
X131339D01*
Y070236D01*
X131379D01*
Y070316D01*
X131339D01*
Y070356D01*
X131259D01*
Y070316D01*
X131219D01*
Y070236D01*
X131259D01*
X130472D02*
Y070196D01*
X130552D01*
Y070236D01*
X130592D01*
Y070316D01*
X130552D01*
Y070356D01*
X130472D01*
Y070316D01*
X130432D01*
Y070236D01*
X130472D01*
X12811D02*
Y070196D01*
X12819D01*
Y070236D01*
X12823D01*
Y070316D01*
X12819D01*
Y070356D01*
X12811D01*
Y070316D01*
X12807D01*
Y070236D01*
X12811D01*
X128897D02*
Y070196D01*
X128977D01*
Y070236D01*
X129017D01*
Y070316D01*
X128977D01*
Y070356D01*
X128897D01*
Y070316D01*
X128857D01*
Y070236D01*
X128897D01*
X127322D02*
Y070196D01*
X127402D01*
Y070236D01*
X127442D01*
Y070316D01*
X127402D01*
Y070356D01*
X127322D01*
Y070316D01*
X127282D01*
Y070236D01*
X127322D01*
X134409D02*
Y070196D01*
X134489D01*
Y070236D01*
X134529D01*
Y070316D01*
X134489D01*
Y070356D01*
X134409D01*
Y070316D01*
X134369D01*
Y070236D01*
X134409D01*
X135984D02*
Y070196D01*
X136064D01*
Y070236D01*
X136104D01*
Y070316D01*
X136064D01*
Y070356D01*
X135984D01*
Y070316D01*
X135944D01*
Y070236D01*
X135984D01*
X135196D02*
Y070196D01*
X135276D01*
Y070236D01*
X135316D01*
Y070316D01*
X135276D01*
Y070356D01*
X135196D01*
Y070316D01*
X135156D01*
Y070236D01*
X135196D01*
X132834D02*
Y070196D01*
X132914D01*
Y070236D01*
X132954D01*
Y070316D01*
X132914D01*
Y070356D01*
X132834D01*
Y070316D01*
X132794D01*
Y070236D01*
X132834D01*
X133621D02*
Y070196D01*
X133701D01*
Y070236D01*
X133741D01*
Y070316D01*
X133701D01*
Y070356D01*
X133621D01*
Y070316D01*
X133581D01*
Y070236D01*
X133621D01*
X132047D02*
Y070196D01*
X132127D01*
Y070236D01*
X132167D01*
Y070316D01*
X132127D01*
Y070356D01*
X132047D01*
Y070316D01*
X132007D01*
Y070236D01*
X132047D01*
X139133D02*
Y070196D01*
X139213D01*
Y070236D01*
X139253D01*
Y070316D01*
X139213D01*
Y070356D01*
X139133D01*
Y070316D01*
X139093D01*
Y070236D01*
X139133D01*
X140708D02*
Y070196D01*
X140788D01*
Y070236D01*
X140828D01*
Y070316D01*
X140788D01*
Y070356D01*
X140708D01*
Y070316D01*
X140668D01*
Y070236D01*
X140708D01*
X139921D02*
Y070196D01*
X140001D01*
Y070236D01*
X140041D01*
Y070316D01*
X140001D01*
Y070356D01*
X139921D01*
Y070316D01*
X139881D01*
Y070236D01*
X139921D01*
X137558D02*
Y070196D01*
X137638D01*
Y070236D01*
X137678D01*
Y070316D01*
X137638D01*
Y070356D01*
X137558D01*
Y070316D01*
X137518D01*
Y070236D01*
X137558D01*
X138346D02*
Y070196D01*
X138426D01*
Y070236D01*
X138466D01*
Y070316D01*
X138426D01*
Y070356D01*
X138346D01*
Y070316D01*
X138306D01*
Y070236D01*
X138346D01*
X136771D02*
Y070196D01*
X136851D01*
Y070236D01*
X136891D01*
Y070316D01*
X136851D01*
Y070356D01*
X136771D01*
Y070316D01*
X136731D01*
Y070236D01*
X136771D01*
X143858D02*
Y070196D01*
X143938D01*
Y070236D01*
X143978D01*
Y070316D01*
X143938D01*
Y070356D01*
X143858D01*
Y070316D01*
X143818D01*
Y070236D01*
X143858D01*
X142283D02*
Y070196D01*
X142363D01*
Y070236D01*
X142403D01*
Y070316D01*
X142363D01*
Y070356D01*
X142283D01*
Y070316D01*
X142243D01*
Y070236D01*
X142283D01*
X14307D02*
Y070196D01*
X14315D01*
Y070236D01*
X14319D01*
Y070316D01*
X14315D01*
Y070356D01*
X14307D01*
Y070316D01*
X14303D01*
Y070236D01*
X14307D01*
X141495D02*
Y070196D01*
X141575D01*
Y070236D01*
X141615D01*
Y070316D01*
X141575D01*
Y070356D01*
X141495D01*
Y070316D01*
X141455D01*
Y070236D01*
X141495D01*
Y047598D02*
Y047558D01*
X141575D01*
Y047598D01*
X141615D01*
Y047678D01*
X141575D01*
Y047718D01*
X141495D01*
Y047678D01*
X141455D01*
Y047598D01*
X141495D01*
X14307D02*
Y047558D01*
X14315D01*
Y047598D01*
X14319D01*
Y047678D01*
X14315D01*
Y047718D01*
X14307D01*
Y047678D01*
X14303D01*
Y047598D01*
X14307D01*
X142283D02*
Y047558D01*
X142363D01*
Y047598D01*
X142403D01*
Y047678D01*
X142363D01*
Y047718D01*
X142283D01*
Y047678D01*
X142243D01*
Y047598D01*
X142283D01*
X143858D02*
Y047558D01*
X143938D01*
Y047598D01*
X143978D01*
Y047678D01*
X143938D01*
Y047718D01*
X143858D01*
Y047678D01*
X143818D01*
Y047598D01*
X143858D01*
X136771D02*
Y047558D01*
X136851D01*
Y047598D01*
X136891D01*
Y047678D01*
X136851D01*
Y047718D01*
X136771D01*
Y047678D01*
X136731D01*
Y047598D01*
X136771D01*
X138346D02*
Y047558D01*
X138426D01*
Y047598D01*
X138466D01*
Y047678D01*
X138426D01*
Y047718D01*
X138346D01*
Y047678D01*
X138306D01*
Y047598D01*
X138346D01*
X137558D02*
Y047558D01*
X137638D01*
Y047598D01*
X137678D01*
Y047678D01*
X137638D01*
Y047718D01*
X137558D01*
Y047678D01*
X137518D01*
Y047598D01*
X137558D01*
X139921D02*
Y047558D01*
X140001D01*
Y047598D01*
X140041D01*
Y047678D01*
X140001D01*
Y047718D01*
X139921D01*
Y047678D01*
X139881D01*
Y047598D01*
X139921D01*
X140708D02*
Y047558D01*
X140788D01*
Y047598D01*
X140828D01*
Y047678D01*
X140788D01*
Y047718D01*
X140708D01*
Y047678D01*
X140668D01*
Y047598D01*
X140708D01*
X139133D02*
Y047558D01*
X139213D01*
Y047598D01*
X139253D01*
Y047678D01*
X139213D01*
Y047718D01*
X139133D01*
Y047678D01*
X139093D01*
Y047598D01*
X139133D01*
X132047D02*
Y047558D01*
X132127D01*
Y047598D01*
X132167D01*
Y047678D01*
X132127D01*
Y047718D01*
X132047D01*
Y047678D01*
X132007D01*
Y047598D01*
X132047D01*
X133621D02*
Y047558D01*
X133701D01*
Y047598D01*
X133741D01*
Y047678D01*
X133701D01*
Y047718D01*
X133621D01*
Y047678D01*
X133581D01*
Y047598D01*
X133621D01*
X132834D02*
Y047558D01*
X132914D01*
Y047598D01*
X132954D01*
Y047678D01*
X132914D01*
Y047718D01*
X132834D01*
Y047678D01*
X132794D01*
Y047598D01*
X132834D01*
X135196D02*
Y047558D01*
X135276D01*
Y047598D01*
X135316D01*
Y047678D01*
X135276D01*
Y047718D01*
X135196D01*
Y047678D01*
X135156D01*
Y047598D01*
X135196D01*
X135984D02*
Y047558D01*
X136064D01*
Y047598D01*
X136104D01*
Y047678D01*
X136064D01*
Y047718D01*
X135984D01*
Y047678D01*
X135944D01*
Y047598D01*
X135984D01*
X134409D02*
Y047558D01*
X134489D01*
Y047598D01*
X134529D01*
Y047678D01*
X134489D01*
Y047718D01*
X134409D01*
Y047678D01*
X134369D01*
Y047598D01*
X134409D01*
X127322D02*
Y047558D01*
X127402D01*
Y047598D01*
X127442D01*
Y047678D01*
X127402D01*
Y047718D01*
X127322D01*
Y047678D01*
X127282D01*
Y047598D01*
X127322D01*
X128897D02*
Y047558D01*
X128977D01*
Y047598D01*
X129017D01*
Y047678D01*
X128977D01*
Y047718D01*
X128897D01*
Y047678D01*
X128857D01*
Y047598D01*
X128897D01*
X12811D02*
Y047558D01*
X12819D01*
Y047598D01*
X12823D01*
Y047678D01*
X12819D01*
Y047718D01*
X12811D01*
Y047678D01*
X12807D01*
Y047598D01*
X12811D01*
X130472D02*
Y047558D01*
X130552D01*
Y047598D01*
X130592D01*
Y047678D01*
X130552D01*
Y047718D01*
X130472D01*
Y047678D01*
X130432D01*
Y047598D01*
X130472D01*
X131259D02*
Y047558D01*
X131339D01*
Y047598D01*
X131379D01*
Y047678D01*
X131339D01*
Y047718D01*
X131259D01*
Y047678D01*
X131219D01*
Y047598D01*
X131259D01*
X129684D02*
Y047558D01*
X129764D01*
Y047598D01*
X129804D01*
Y047678D01*
X129764D01*
Y047718D01*
X129684D01*
Y047678D01*
X129644D01*
Y047598D01*
X129684D01*
X122598D02*
Y047558D01*
X122678D01*
Y047598D01*
X122718D01*
Y047678D01*
X122678D01*
Y047718D01*
X122598D01*
Y047678D01*
X122558D01*
Y047598D01*
X122598D01*
X124173D02*
Y047558D01*
X124253D01*
Y047598D01*
X124293D01*
Y047678D01*
X124253D01*
Y047718D01*
X124173D01*
Y047678D01*
X124133D01*
Y047598D01*
X124173D01*
X123385D02*
Y047558D01*
X123465D01*
Y047598D01*
X123505D01*
Y047678D01*
X123465D01*
Y047718D01*
X123385D01*
Y047678D01*
X123345D01*
Y047598D01*
X123385D01*
X125747D02*
Y047558D01*
X125827D01*
Y047598D01*
X125867D01*
Y047678D01*
X125827D01*
Y047718D01*
X125747D01*
Y047678D01*
X125707D01*
Y047598D01*
X125747D01*
X126535D02*
Y047558D01*
X126615D01*
Y047598D01*
X126655D01*
Y047678D01*
X126615D01*
Y047718D01*
X126535D01*
Y047678D01*
X126495D01*
Y047598D01*
X126535D01*
X12496D02*
Y047558D01*
X12504D01*
Y047598D01*
X12508D01*
Y047678D01*
X12504D01*
Y047718D01*
X12496D01*
Y047678D01*
X12492D01*
Y047598D01*
X12496D01*
X120236D02*
Y047558D01*
X120316D01*
Y047598D01*
X120356D01*
Y047678D01*
X120316D01*
Y047718D01*
X120236D01*
Y047678D01*
X120196D01*
Y047598D01*
X120236D01*
X12181D02*
Y047558D01*
X12189D01*
Y047598D01*
X12193D01*
Y047678D01*
X12189D01*
Y047718D01*
X12181D01*
Y047678D01*
X12177D01*
Y047598D01*
X12181D01*
X121023D02*
Y047558D01*
X121103D01*
Y047598D01*
X121143D01*
Y047678D01*
X121103D01*
Y047718D01*
X121023D01*
Y047678D01*
X120983D01*
Y047598D01*
X121023D01*
X118661D02*
Y047558D01*
X118741D01*
Y047598D01*
X118781D01*
Y047678D01*
X118741D01*
Y047718D01*
X118661D01*
Y047678D01*
X118621D01*
Y047598D01*
X118661D01*
X119448D02*
Y047558D01*
X119528D01*
Y047598D01*
X119568D01*
Y047678D01*
X119528D01*
Y047718D01*
X119448D01*
Y047678D01*
X119408D01*
Y047598D01*
X119448D01*
X117873D02*
Y047558D01*
X117953D01*
Y047598D01*
X117993D01*
Y047678D01*
X117953D01*
Y047718D01*
X117873D01*
Y047678D01*
X117833D01*
Y047598D01*
X117873D01*
X117086D02*
Y047558D01*
X117166D01*
Y047598D01*
X117206D01*
Y047678D01*
X117166D01*
Y047718D01*
X117086D01*
Y047678D01*
X117046D01*
Y047598D01*
X117086D01*
X121653Y050669D02*
Y050629D01*
X121733D01*
Y050669D01*
X121773D01*
Y050749D01*
X121733D01*
Y050789D01*
X121653D01*
Y050749D01*
X121613D01*
Y050669D01*
X121653D01*
Y050078D02*
Y050038D01*
X121733D01*
Y050078D01*
X121773D01*
Y050158D01*
X121733D01*
Y050198D01*
X121653D01*
Y050158D01*
X121613D01*
Y050078D01*
X121653D01*
Y049488D02*
Y049448D01*
X121733D01*
Y049488D01*
X121773D01*
Y049568D01*
X121733D01*
Y049608D01*
X121653D01*
Y049568D01*
X121613D01*
Y049488D01*
X121653D01*
X121614Y048897D02*
Y048857D01*
X121694D01*
Y048897D01*
X121734D01*
Y048977D01*
X121694D01*
Y049017D01*
X121614D01*
Y048977D01*
X121574D01*
Y048897D01*
X121614D01*
X122745Y050549D02*
Y050509D01*
X122825D01*
Y050549D01*
X122865D01*
Y050629D01*
X122825D01*
Y050669D01*
X122745D01*
Y050629D01*
X122705D01*
Y050549D01*
X122745D01*
X121771Y0687D02*
Y06866D01*
X121851D01*
Y0687D01*
X121891D01*
Y06878D01*
X121851D01*
Y06882D01*
X121771D01*
Y06878D01*
X121731D01*
Y0687D01*
X121771D01*
X125117Y061771D02*
Y061731D01*
X125197D01*
Y061771D01*
X125237D01*
Y061851D01*
X125197D01*
Y061891D01*
X125117D01*
Y061851D01*
X125077D01*
Y061771D01*
X125117D01*
X124921Y057243D02*
Y057203D01*
X125001D01*
Y057243D01*
X125041D01*
Y057323D01*
X125001D01*
Y057363D01*
X124921D01*
Y057323D01*
X124881D01*
Y057243D01*
X124921D01*
X128188Y055157D02*
Y055117D01*
X128268D01*
Y055157D01*
X128308D01*
Y055237D01*
X128268D01*
Y055277D01*
X128188D01*
Y055237D01*
X128148D01*
Y055157D01*
X128188D01*
X128512Y05489D02*
Y05485D01*
X128592D01*
Y05489D01*
X128632D01*
Y05497D01*
X128592D01*
Y05501D01*
X128512D01*
Y05497D01*
X128472D01*
Y05489D01*
X128512D01*
X125275Y052007D02*
Y051967D01*
X125355D01*
Y052007D01*
X125395D01*
Y052087D01*
X125355D01*
Y052127D01*
X125275D01*
Y052087D01*
X125235D01*
Y052007D01*
X125275D01*
X126968Y054054D02*
Y054014D01*
X127048D01*
Y054054D01*
X127088D01*
Y054134D01*
X127048D01*
Y054174D01*
X126968D01*
Y054134D01*
X126928D01*
Y054054D01*
X126968D01*
X126594Y053893D02*
Y053853D01*
X126674D01*
Y053893D01*
X126714D01*
Y053973D01*
X126674D01*
Y054013D01*
X126594D01*
Y053973D01*
X126554D01*
Y053893D01*
X126594D01*
X124881Y056377D02*
Y056337D01*
X124961D01*
Y056377D01*
X125001D01*
Y056457D01*
X124961D01*
Y056497D01*
X124881D01*
Y056457D01*
X124841D01*
Y056377D01*
X124881D01*
X124921Y057716D02*
Y057676D01*
X125001D01*
Y057716D01*
X125041D01*
Y057796D01*
X125001D01*
Y057836D01*
X124921D01*
Y057796D01*
X124881D01*
Y057716D01*
X124921D01*
Y056062D02*
Y056022D01*
X125001D01*
Y056062D01*
X125041D01*
Y056142D01*
X125001D01*
Y056182D01*
X124921D01*
Y056142D01*
X124881D01*
Y056062D01*
X124921D01*
X139921Y049862D02*
Y049822D01*
X140001D01*
Y049862D01*
X140041D01*
Y049942D01*
X140001D01*
Y049982D01*
X139921D01*
Y049942D01*
X139881D01*
Y049862D01*
X139921D01*
X137194Y050324D02*
Y050284D01*
X137274D01*
Y050324D01*
X137314D01*
Y050404D01*
X137274D01*
Y050444D01*
X137194D01*
Y050404D01*
X137154D01*
Y050324D01*
X137194D01*
X121663Y056062D02*
Y056022D01*
X121743D01*
Y056062D01*
X121783D01*
Y056142D01*
X121743D01*
Y056182D01*
X121663D01*
Y056142D01*
X121623D01*
Y056062D01*
X121663D01*
X118464Y067834D02*
Y067794D01*
X118544D01*
Y067834D01*
X118584D01*
Y067914D01*
X118544D01*
Y067954D01*
X118464D01*
Y067914D01*
X118424D01*
Y067834D01*
X118464D01*
X130196Y066299D02*
Y066259D01*
X130276D01*
Y066299D01*
X130316D01*
Y066379D01*
X130276D01*
Y066419D01*
X130196D01*
Y066379D01*
X130156D01*
Y066299D01*
X130196D01*
X132204Y066338D02*
Y066298D01*
X132284D01*
Y066338D01*
X132324D01*
Y066418D01*
X132284D01*
Y066458D01*
X132204D01*
Y066418D01*
X132164D01*
Y066338D01*
X132204D01*
X126732Y06807D02*
Y06803D01*
X126812D01*
Y06807D01*
X126852D01*
Y06815D01*
X126812D01*
Y06819D01*
X126732D01*
Y06815D01*
X126692D01*
Y06807D01*
X126732D01*
X122165Y051495D02*
Y051455D01*
X122245D01*
Y051495D01*
X122285D01*
Y051575D01*
X122245D01*
Y051615D01*
X122165D01*
Y051575D01*
X122125D01*
Y051495D01*
X122165D01*
X123464Y048621D02*
Y048581D01*
X123544D01*
Y048621D01*
X123584D01*
Y048701D01*
X123544D01*
Y048741D01*
X123464D01*
Y048701D01*
X123424D01*
Y048621D01*
X123464D01*
X121663Y057991D02*
Y057951D01*
X121743D01*
Y057991D01*
X121783D01*
Y058071D01*
X121743D01*
Y058112D01*
X121663D01*
Y058071D01*
X121623D01*
Y057991D01*
X121663D01*
X133978Y051926D02*
Y051886D01*
X134058D01*
Y051926D01*
X134098D01*
Y052006D01*
X134058D01*
Y052046D01*
X133978D01*
Y052006D01*
X133938D01*
Y051926D01*
X133978D01*
X134409Y052086D02*
Y052046D01*
X134489D01*
Y052086D01*
X134529D01*
Y052166D01*
X134489D01*
Y052206D01*
X134409D01*
Y052166D01*
X134369D01*
Y052086D01*
X134409D01*
X134212Y055747D02*
Y055707D01*
X134292D01*
Y055747D01*
X134332D01*
Y055827D01*
X134292D01*
Y055867D01*
X134212D01*
Y055827D01*
X134172D01*
Y055747D01*
X134212D01*
X145039Y059251D02*
Y059211D01*
X145119D01*
Y059251D01*
X145159D01*
Y059331D01*
X145119D01*
Y059371D01*
X145039D01*
Y059331D01*
X144999D01*
Y059251D01*
X145039D01*
X143976Y0587D02*
Y05866D01*
X144056D01*
Y0587D01*
X144096D01*
Y05878D01*
X144056D01*
Y05882D01*
X143976D01*
Y05878D01*
X143936D01*
Y0587D01*
X143976D01*
X140236Y052795D02*
Y052755D01*
X140316D01*
Y052795D01*
X140356D01*
Y052875D01*
X140316D01*
Y052915D01*
X140236D01*
Y052875D01*
X140196D01*
Y052795D01*
X140236D01*
X140275Y053228D02*
Y053188D01*
X140355D01*
Y053228D01*
X140395D01*
Y053308D01*
X140355D01*
Y053348D01*
X140275D01*
Y053308D01*
X140235D01*
Y053228D01*
X140275D01*
X145787Y05681D02*
Y05677D01*
X145867D01*
Y05681D01*
X145907D01*
Y05689D01*
X145867D01*
Y05693D01*
X145787D01*
Y05689D01*
X145747D01*
Y05681D01*
X145787D01*
X145039Y057283D02*
Y057243D01*
X145119D01*
Y057283D01*
X145159D01*
Y057363D01*
X145119D01*
Y057403D01*
X145039D01*
Y057363D01*
X144999D01*
Y057283D01*
X145039D01*
X145826Y060826D02*
Y060786D01*
X145906D01*
Y060826D01*
X145946D01*
Y060906D01*
X145906D01*
Y060946D01*
X145826D01*
Y060906D01*
X145786D01*
Y060826D01*
X145826D01*
X144173Y060866D02*
Y060826D01*
X144253D01*
Y060866D01*
X144293D01*
Y060946D01*
X144253D01*
Y060986D01*
X144173D01*
Y060946D01*
X144133D01*
Y060866D01*
X144173D01*
X143818Y060472D02*
Y060432D01*
X143898D01*
Y060472D01*
X143938D01*
Y060552D01*
X143898D01*
Y060592D01*
X143818D01*
Y060552D01*
X143778D01*
Y060472D01*
X143818D01*
X144173Y060196D02*
Y060156D01*
X144253D01*
Y060196D01*
X144293D01*
Y060276D01*
X144253D01*
Y060316D01*
X144173D01*
Y060276D01*
X144133D01*
Y060196D01*
X144173D01*
Y057401D02*
Y057361D01*
X144253D01*
Y057401D01*
X144293D01*
Y057481D01*
X144253D01*
Y057521D01*
X144173D01*
Y057481D01*
X144133D01*
Y057401D01*
X144173D01*
X143661Y05685D02*
Y05681D01*
X143741D01*
Y05685D01*
X143781D01*
Y05693D01*
X143741D01*
Y05697D01*
X143661D01*
Y05693D01*
X143621D01*
Y05685D01*
X143661D01*
X145236Y069054D02*
Y069014D01*
X145316D01*
Y069054D01*
X145356D01*
Y069134D01*
X145316D01*
Y069174D01*
X145236D01*
Y069134D01*
X145196D01*
Y069054D01*
X145236D01*
X143858Y06809D02*
Y06805D01*
X143938D01*
Y06809D01*
X143978D01*
Y06817D01*
X143938D01*
Y06821D01*
X143858D01*
Y06817D01*
X143818D01*
Y06809D01*
X143858D01*
X142795Y065393D02*
Y065353D01*
X142875D01*
Y065393D01*
X142915D01*
Y065473D01*
X142875D01*
Y065513D01*
X142795D01*
Y065473D01*
X142755D01*
Y065393D01*
X142795D01*
X138425Y063582D02*
Y063542D01*
X138505D01*
Y063582D01*
X138545D01*
Y063662D01*
X138505D01*
Y063702D01*
X138425D01*
Y063662D01*
X138385D01*
Y063582D01*
X138425D01*
X139291Y064291D02*
Y064251D01*
X139371D01*
Y064291D01*
X139411D01*
Y064371D01*
X139371D01*
Y064411D01*
X139291D01*
Y064371D01*
X139251D01*
Y064291D01*
X139291D01*
X140708Y060393D02*
Y060353D01*
X140788D01*
Y060393D01*
X140828D01*
Y060473D01*
X140788D01*
Y060513D01*
X140708D01*
Y060473D01*
X140668D01*
Y060393D01*
X140708D01*
X141535Y061732D02*
Y061692D01*
X141615D01*
Y061732D01*
X141655D01*
Y061812D01*
X141615D01*
Y061852D01*
X141535D01*
Y061812D01*
X141495D01*
Y061732D01*
X141535D01*
X142519Y061692D02*
Y061652D01*
X142599D01*
Y061692D01*
X142639D01*
Y061772D01*
X142599D01*
Y061812D01*
X142519D01*
Y061772D01*
X142479D01*
Y061692D01*
X142519D01*
X142165Y060747D02*
Y060707D01*
X142245D01*
Y060747D01*
X142285D01*
Y060827D01*
X142245D01*
Y060867D01*
X142165D01*
Y060827D01*
X142125D01*
Y060747D01*
X142165D01*
X141889Y059803D02*
Y059763D01*
X141969D01*
Y059803D01*
X142009D01*
Y059883D01*
X141969D01*
Y059923D01*
X141889D01*
Y059883D01*
X141849D01*
Y059803D01*
X141889D01*
X139921Y057755D02*
Y057715D01*
X140001D01*
Y057755D01*
X140041D01*
Y057835D01*
X140001D01*
Y057875D01*
X139921D01*
Y057835D01*
X139881D01*
Y057755D01*
X139921D01*
X117873Y051456D02*
Y051416D01*
X117953D01*
Y051456D01*
X117993D01*
Y051536D01*
X117953D01*
Y051576D01*
X117873D01*
Y051536D01*
X117833D01*
Y051456D01*
X117873D01*
X117913Y057991D02*
Y057951D01*
X117993D01*
Y057991D01*
X118033D01*
Y058071D01*
X117993D01*
Y058112D01*
X117913D01*
Y058071D01*
X117873D01*
Y057991D01*
X117913D01*
X125039Y058897D02*
Y058857D01*
X125119D01*
Y058897D01*
X125159D01*
Y058977D01*
X125119D01*
Y059017D01*
X125039D01*
Y058977D01*
X124999D01*
Y058897D01*
X125039D01*
X137992Y048385D02*
Y048345D01*
X138071D01*
Y048385D01*
X138111D01*
Y048465D01*
X138071D01*
Y048505D01*
X137992D01*
Y048465D01*
X137951D01*
Y048385D01*
X137992D01*
X126178Y056532D02*
Y056492D01*
X126258D01*
Y056532D01*
X126298D01*
Y056612D01*
X126258D01*
Y056652D01*
X126178D01*
Y056612D01*
X126138D01*
Y056532D01*
X126178D01*
X133228Y068366D02*
Y068326D01*
X133308D01*
Y068366D01*
X133348D01*
Y068446D01*
X133308D01*
Y068486D01*
X133228D01*
Y068446D01*
X133188D01*
Y068366D01*
X133228D01*
X133464Y068129D02*
Y068089D01*
X133544D01*
Y068129D01*
X133584D01*
Y068209D01*
X133544D01*
Y068249D01*
X133464D01*
Y068209D01*
X133424D01*
Y068129D01*
X133464D01*
X133188Y068051D02*
Y068011D01*
X133268D01*
Y068051D01*
X133308D01*
Y068131D01*
X133268D01*
Y068171D01*
X133188D01*
Y068131D01*
X133148D01*
Y068051D01*
X133188D01*
X132519Y050698D02*
Y050658D01*
X132599D01*
Y050698D01*
X132639D01*
Y050778D01*
X132599D01*
Y050818D01*
X132519D01*
Y050778D01*
X132479D01*
Y050698D01*
X132519D01*
X13311Y049448D02*
Y049408D01*
X13319D01*
Y049448D01*
X13323D01*
Y049528D01*
X13319D01*
Y049568D01*
X13311D01*
Y049528D01*
X13307D01*
Y049448D01*
X13311D01*
X133818Y049054D02*
Y049014D01*
X133898D01*
Y049054D01*
X133938D01*
Y049134D01*
X133898D01*
Y049174D01*
X133818D01*
Y049134D01*
X133778D01*
Y049054D01*
X133818D01*
X128306Y061062D02*
Y061022D01*
X128386D01*
Y061062D01*
X128426D01*
Y061142D01*
X128386D01*
Y061182D01*
X128306D01*
Y061142D01*
X128266D01*
Y061062D01*
X128306D01*
X143582Y06744D02*
Y0674D01*
X143662D01*
Y06744D01*
X143702D01*
Y06752D01*
X143662D01*
Y06756D01*
X143582D01*
Y06752D01*
X143542D01*
Y06744D01*
X143582D01*
X144049Y063366D02*
Y063326D01*
X144129D01*
Y063366D01*
X144169D01*
Y063446D01*
X144129D01*
Y063486D01*
X144049D01*
Y063446D01*
X144009D01*
Y063366D01*
X144049D01*
X142598Y064448D02*
Y064408D01*
X142678D01*
Y064448D01*
X142718D01*
Y064528D01*
X142678D01*
Y064568D01*
X142598D01*
Y064528D01*
X142558D01*
Y064448D01*
X142598D01*
X142283Y063828D02*
Y063788D01*
X142363D01*
Y063828D01*
X142403D01*
Y063908D01*
X142363D01*
Y063948D01*
X142283D01*
Y063908D01*
X142243D01*
Y063828D01*
X142283D01*
X136259Y068503D02*
Y068463D01*
X136339D01*
Y068503D01*
X136379D01*
Y068583D01*
X136339D01*
Y068623D01*
X136259D01*
Y068583D01*
X136219D01*
Y068503D01*
X136259D01*
X135984D02*
Y068463D01*
X136064D01*
Y068503D01*
X136104D01*
Y068583D01*
X136064D01*
Y068623D01*
X135984D01*
Y068583D01*
X135944D01*
Y068503D01*
X135984D01*
X135905Y068818D02*
Y068778D01*
X135985D01*
Y068818D01*
X136025D01*
Y068898D01*
X135985D01*
Y068938D01*
X135905D01*
Y068898D01*
X135865D01*
Y068818D01*
X135905D01*
X140314Y065039D02*
Y064999D01*
X140394D01*
Y065039D01*
X140434D01*
Y065119D01*
X140394D01*
Y065159D01*
X140314D01*
Y065119D01*
X140274D01*
Y065039D01*
X140314D01*
X140039D02*
Y064999D01*
X140119D01*
Y065039D01*
X140159D01*
Y065119D01*
X140119D01*
Y065159D01*
X140039D01*
Y065119D01*
X139999D01*
Y065039D01*
X140039D01*
X140905Y063188D02*
Y063148D01*
X140985D01*
Y063188D01*
X141025D01*
Y063268D01*
X140985D01*
Y063308D01*
X140905D01*
Y063268D01*
X140865D01*
Y063188D01*
X140905D01*
X139763Y065039D02*
Y064999D01*
X139843D01*
Y065039D01*
X139883D01*
Y065119D01*
X139843D01*
Y065159D01*
X139763D01*
Y065119D01*
X139723D01*
Y065039D01*
X139763D01*
X143818Y061771D02*
Y061731D01*
X143898D01*
Y061771D01*
X143938D01*
Y061851D01*
X143898D01*
Y061891D01*
X143818D01*
Y061851D01*
X143778D01*
Y061771D01*
X143818D01*
X144054Y061968D02*
Y061928D01*
X144134D01*
Y061968D01*
X144174D01*
Y062048D01*
X144134D01*
Y062088D01*
X144054D01*
Y062048D01*
X144014D01*
Y061968D01*
X144054D01*
X14374Y062007D02*
Y061967D01*
X14382D01*
Y062007D01*
X14386D01*
Y062087D01*
X14382D01*
Y062127D01*
X14374D01*
Y062087D01*
X1437D01*
Y062007D01*
X14374D01*
X140984Y062913D02*
Y062873D01*
X141064D01*
Y062913D01*
X141104D01*
Y062993D01*
X141064D01*
Y063033D01*
X140984D01*
Y062993D01*
X140944D01*
Y062913D01*
X140984D01*
X14118Y06311D02*
Y06307D01*
X14126D01*
Y06311D01*
X1413D01*
Y06319D01*
X14126D01*
Y06323D01*
X14118D01*
Y06319D01*
X14114D01*
Y06311D01*
X14118D01*
X140944Y06496D02*
Y06492D01*
X141024D01*
Y06496D01*
X141064D01*
Y06504D01*
X141024D01*
Y06508D01*
X140944D01*
Y06504D01*
X140904D01*
Y06496D01*
X140944D01*
X141259Y064842D02*
Y064802D01*
X141339D01*
Y064842D01*
X141379D01*
Y064922D01*
X141339D01*
Y064962D01*
X141259D01*
Y064922D01*
X141219D01*
Y064842D01*
X141259D01*
X140866Y064684D02*
Y064644D01*
X140946D01*
Y064684D01*
X140986D01*
Y064764D01*
X140946D01*
Y064804D01*
X140866D01*
Y064764D01*
X140826D01*
Y064684D01*
X140866D01*
X143621Y063858D02*
Y063818D01*
X143701D01*
Y063858D01*
X143741D01*
Y063938D01*
X143701D01*
Y063978D01*
X143621D01*
Y063938D01*
X143581D01*
Y063858D01*
X143621D01*
X143464Y064133D02*
Y064093D01*
X143544D01*
Y064133D01*
X143584D01*
Y064213D01*
X143544D01*
Y064253D01*
X143464D01*
Y064213D01*
X143424D01*
Y064133D01*
X143464D01*
X143306Y063779D02*
Y063739D01*
X143386D01*
Y063779D01*
X143426D01*
Y063859D01*
X143386D01*
Y063899D01*
X143306D01*
Y063859D01*
X143266D01*
Y063779D01*
X143306D01*
X139251Y065432D02*
Y065392D01*
X139331D01*
Y065432D01*
X139371D01*
Y065512D01*
X139331D01*
Y065552D01*
X139251D01*
Y065512D01*
X139211D01*
Y065432D01*
X139251D01*
X141377Y0537D02*
Y05366D01*
X141457D01*
Y0537D01*
X141497D01*
Y05378D01*
X141457D01*
Y05382D01*
X141377D01*
Y05378D01*
X141337D01*
Y0537D01*
X141377D01*
X131062Y051023D02*
Y050983D01*
X131142D01*
Y051023D01*
X131182D01*
Y051103D01*
X131142D01*
Y051143D01*
X131062D01*
Y051103D01*
X131022D01*
Y051023D01*
X131062D01*
X131141Y050708D02*
Y050668D01*
X131221D01*
Y050708D01*
X131261D01*
Y050788D01*
X131221D01*
Y050828D01*
X131141D01*
Y050788D01*
X131101D01*
Y050708D01*
X131141D01*
X13681Y064448D02*
Y064408D01*
X13689D01*
Y064448D01*
X13693D01*
Y064528D01*
X13689D01*
Y064568D01*
X13681D01*
Y064528D01*
X13677D01*
Y064448D01*
X13681D01*
X136692Y064763D02*
Y064723D01*
X136772D01*
Y064763D01*
X136812D01*
Y064843D01*
X136772D01*
Y064883D01*
X136692D01*
Y064843D01*
X136652D01*
Y064763D01*
X136692D01*
X136417D02*
Y064723D01*
X136497D01*
Y064763D01*
X136537D01*
Y064843D01*
X136497D01*
Y064883D01*
X136417D01*
Y064843D01*
X136377D01*
Y064763D01*
X136417D01*
X124999Y065826D02*
Y065786D01*
X125079D01*
Y065826D01*
X125119D01*
Y065906D01*
X125079D01*
Y065946D01*
X124999D01*
Y065906D01*
X124959D01*
Y065826D01*
X124999D01*
X137795Y054803D02*
Y054763D01*
X137875D01*
Y054803D01*
X137915D01*
Y054883D01*
X137875D01*
Y054923D01*
X137795D01*
Y054883D01*
X137755D01*
Y054803D01*
X137795D01*
X137834Y055747D02*
Y055707D01*
X137914D01*
Y055747D01*
X137954D01*
Y055827D01*
X137914D01*
Y055867D01*
X137834D01*
Y055827D01*
X137794D01*
Y055747D01*
X137834D01*
X135787Y054842D02*
Y054802D01*
X135867D01*
Y054842D01*
X135907D01*
Y054922D01*
X135867D01*
Y054962D01*
X135787D01*
Y054922D01*
X135747D01*
Y054842D01*
X135787D01*
X125826Y058661D02*
Y058621D01*
X125906D01*
Y058661D01*
X125946D01*
Y058741D01*
X125906D01*
Y058781D01*
X125826D01*
Y058741D01*
X125786D01*
Y058661D01*
X125826D01*
X131486Y053661D02*
Y053621D01*
X131566D01*
Y053661D01*
X131606D01*
Y053741D01*
X131566D01*
Y053781D01*
X131486D01*
Y053741D01*
X131446D01*
Y053661D01*
X131486D01*
X124805Y066695D02*
Y066655D01*
X124885D01*
Y066695D01*
X124925D01*
Y066775D01*
X124885D01*
Y066815D01*
X124805D01*
Y066775D01*
X124765D01*
Y066695D01*
X124805D01*
X124488Y066692D02*
Y066652D01*
X124568D01*
Y066692D01*
X124608D01*
Y066772D01*
X124568D01*
Y066812D01*
X124488D01*
Y066772D01*
X124448D01*
Y066692D01*
X124488D01*
X123582Y06874D02*
Y0687D01*
X123662D01*
Y06874D01*
X123702D01*
Y06882D01*
X123662D01*
Y06886D01*
X123582D01*
Y06882D01*
X123542D01*
Y06874D01*
X123582D01*
X122992D02*
Y0687D01*
X123071D01*
Y06874D01*
X123111D01*
Y06882D01*
X123071D01*
Y06886D01*
X122992D01*
Y06882D01*
X122951D01*
Y06874D01*
X122992D01*
X122401D02*
Y0687D01*
X122481D01*
Y06874D01*
X122521D01*
Y06882D01*
X122481D01*
Y06886D01*
X122401D01*
Y06882D01*
X122361D01*
Y06874D01*
X122401D01*
X131102Y057637D02*
Y057597D01*
X131182D01*
Y057637D01*
X131222D01*
Y057717D01*
X131182D01*
Y057757D01*
X131102D01*
Y057717D01*
X131062D01*
Y057637D01*
X131102D01*
X130866Y057283D02*
Y057243D01*
X130946D01*
Y057283D01*
X130986D01*
Y057363D01*
X130946D01*
Y057403D01*
X130866D01*
Y057363D01*
X130826D01*
Y057283D01*
X130866D01*
X130669Y057047D02*
Y057007D01*
X130749D01*
Y057047D01*
X130789D01*
Y057127D01*
X130749D01*
Y057167D01*
X130669D01*
Y057127D01*
X130629D01*
Y057047D01*
X130669D01*
X139094Y058661D02*
Y058621D01*
X139174D01*
Y058661D01*
X139214D01*
Y058741D01*
X139174D01*
Y058781D01*
X139094D01*
Y058741D01*
X139054D01*
Y058661D01*
X139094D01*
X139133Y058306D02*
Y058266D01*
X139213D01*
Y058306D01*
X139253D01*
Y058386D01*
X139213D01*
Y058426D01*
X139133D01*
Y058386D01*
X139093D01*
Y058306D01*
X139133D01*
X133976Y063385D02*
Y063345D01*
X134056D01*
Y063385D01*
X134096D01*
Y063465D01*
X134056D01*
Y063505D01*
X133976D01*
Y063465D01*
X133936D01*
Y063385D01*
X133976D01*
X1287Y067519D02*
Y067479D01*
X12878D01*
Y067519D01*
X12882D01*
Y067599D01*
X12878D01*
Y067639D01*
X1287D01*
Y067599D01*
X12866D01*
Y067519D01*
X1287D01*
X129015Y067795D02*
Y067755D01*
X129095D01*
Y067795D01*
X129135D01*
Y067875D01*
X129095D01*
Y067915D01*
X129015D01*
Y067875D01*
X128975D01*
Y067795D01*
X129015D01*
X130944Y056417D02*
Y056377D01*
X131024D01*
Y056417D01*
X131064D01*
Y056497D01*
X131024D01*
Y056537D01*
X130944D01*
Y056497D01*
X130904D01*
Y056417D01*
X130944D01*
X126495Y058425D02*
Y058385D01*
X126575D01*
Y058425D01*
X126615D01*
Y058505D01*
X126575D01*
Y058545D01*
X126495D01*
Y058505D01*
X126455D01*
Y058425D01*
X126495D01*
X132047Y054999D02*
Y054959D01*
X132127D01*
Y054999D01*
X132167D01*
Y055079D01*
X132127D01*
Y055119D01*
X132047D01*
Y055079D01*
X132007D01*
Y054999D01*
X132047D01*
X132519Y052243D02*
Y052203D01*
X132599D01*
Y052243D01*
X132639D01*
Y052323D01*
X132599D01*
Y052363D01*
X132519D01*
Y052323D01*
X132479D01*
Y052243D01*
X132519D01*
X126869Y058381D02*
Y058341D01*
X126949D01*
Y058381D01*
X126989D01*
Y058461D01*
X126949D01*
Y058501D01*
X126869D01*
Y058461D01*
X126829D01*
Y058381D01*
X126869D01*
X120039Y06874D02*
Y0687D01*
X120119D01*
Y06874D01*
X120159D01*
Y06882D01*
X120119D01*
Y06886D01*
X120039D01*
Y06882D01*
X119999D01*
Y06874D01*
X120039D01*
X119448D02*
Y0687D01*
X119528D01*
Y06874D01*
X119568D01*
Y06882D01*
X119528D01*
Y06886D01*
X119448D01*
Y06882D01*
X119408D01*
Y06874D01*
X119448D01*
X128385Y057696D02*
Y057656D01*
X128465D01*
Y057696D01*
X128505D01*
Y057776D01*
X128465D01*
Y057816D01*
X128385D01*
Y057776D01*
X128345D01*
Y057696D01*
X128385D01*
X131985Y054465D02*
Y054425D01*
X132065D01*
Y054465D01*
X132105D01*
Y054545D01*
X132065D01*
Y054585D01*
X131985D01*
Y054545D01*
X131945D01*
Y054465D01*
X131985D01*
X12307Y057204D02*
Y057164D01*
X12315D01*
Y057204D01*
X12319D01*
Y057284D01*
X12315D01*
Y057324D01*
X12307D01*
Y057284D01*
X12303D01*
Y057204D01*
X12307D01*
X123017Y056176D02*
Y056136D01*
X123097D01*
Y056176D01*
X123137D01*
Y056256D01*
X123097D01*
Y056296D01*
X123017D01*
Y056256D01*
X122977D01*
Y056176D01*
X123017D01*
X122204Y059842D02*
Y059802D01*
X122284D01*
Y059842D01*
X122324D01*
Y059922D01*
X122284D01*
Y059962D01*
X122204D01*
Y059922D01*
X122164D01*
Y059842D01*
X122204D01*
X123779Y05996D02*
Y05992D01*
X123859D01*
Y05996D01*
X123899D01*
Y06004D01*
X123859D01*
Y06008D01*
X123779D01*
Y06004D01*
X123739D01*
Y05996D01*
X123779D01*
X123188Y059881D02*
Y059841D01*
X123268D01*
Y059881D01*
X123308D01*
Y059961D01*
X123268D01*
Y060001D01*
X123188D01*
Y059961D01*
X123148D01*
Y059881D01*
X123188D01*
X122992Y06181D02*
Y06177D01*
X123071D01*
Y06181D01*
X123111D01*
Y06189D01*
X123071D01*
Y06193D01*
X122992D01*
Y06189D01*
X122951D01*
Y06181D01*
X122992D01*
X127283Y068385D02*
Y068345D01*
X127363D01*
Y068385D01*
X127403D01*
Y068465D01*
X127363D01*
Y068505D01*
X127283D01*
Y068465D01*
X127243D01*
Y068385D01*
X127283D01*
X128976Y066495D02*
Y066455D01*
X129056D01*
Y066495D01*
X129096D01*
Y066575D01*
X129056D01*
Y066615D01*
X128976D01*
Y066575D01*
X128936D01*
Y066495D01*
X128976D01*
X120432Y059803D02*
Y059763D01*
X120512D01*
Y059803D01*
X120552D01*
Y059883D01*
X120512D01*
Y059923D01*
X120432D01*
Y059883D01*
X120392D01*
Y059803D01*
X120432D01*
X121614Y059251D02*
Y059211D01*
X121694D01*
Y059251D01*
X121734D01*
Y059331D01*
X121694D01*
Y059371D01*
X121614D01*
Y059331D01*
X121574D01*
Y059251D01*
X121614D01*
X131259Y052007D02*
Y051967D01*
X131339D01*
Y052007D01*
X131379D01*
Y052087D01*
X131339D01*
Y052127D01*
X131259D01*
Y052087D01*
X131219D01*
Y052007D01*
X131259D01*
X124271Y056653D02*
Y056613D01*
X124351D01*
Y056653D01*
X124391D01*
Y056733D01*
X124351D01*
Y056773D01*
X124271D01*
Y056733D01*
X124231D01*
Y056653D01*
X124271D01*
Y055472D02*
Y055432D01*
X124351D01*
Y055472D01*
X124391D01*
Y055552D01*
X124351D01*
Y055592D01*
X124271D01*
Y055552D01*
X124231D01*
Y055472D01*
X124271D01*
Y056062D02*
Y056022D01*
X124351D01*
Y056062D01*
X124391D01*
Y056142D01*
X124351D01*
Y056182D01*
X124271D01*
Y056142D01*
X124231D01*
Y056062D01*
X124271D01*
X131732Y051023D02*
Y050983D01*
X131812D01*
Y051023D01*
X131852D01*
Y051103D01*
X131812D01*
Y051143D01*
X131732D01*
Y051103D01*
X131692D01*
Y051023D01*
X131732D01*
X139448Y053124D02*
Y053084D01*
X139528D01*
Y053124D01*
X139568D01*
Y053204D01*
X139528D01*
Y053244D01*
X139448D01*
Y053204D01*
X139408D01*
Y053124D01*
X139448D01*
X139133Y052991D02*
Y052951D01*
X139213D01*
Y052991D01*
X139253D01*
Y053071D01*
X139213D01*
Y053112D01*
X139133D01*
Y053071D01*
X139093D01*
Y052991D01*
X139133D01*
X138031Y053031D02*
Y052991D01*
X138111D01*
Y053031D01*
X138151D01*
Y053111D01*
X138111D01*
Y053151D01*
X138031D01*
Y053111D01*
X137991D01*
Y053031D01*
X138031D01*
X135787Y05311D02*
Y05307D01*
X135867D01*
Y05311D01*
X135907D01*
Y05319D01*
X135867D01*
Y05323D01*
X135787D01*
Y05319D01*
X135747D01*
Y05311D01*
X135787D01*
X131692Y051653D02*
Y051613D01*
X131772D01*
Y051653D01*
X131812D01*
Y051733D01*
X131772D01*
Y051773D01*
X131692D01*
Y051733D01*
X131652D01*
Y051653D01*
X131692D01*
X131207Y052723D02*
Y052683D01*
X131287D01*
Y052723D01*
X131327D01*
Y052803D01*
X131287D01*
Y052843D01*
X131207D01*
Y052803D01*
X131167D01*
Y052723D01*
X131207D01*
X132047Y052834D02*
Y052794D01*
X132127D01*
Y052834D01*
X132167D01*
Y052914D01*
X132127D01*
Y052954D01*
X132047D01*
Y052914D01*
X132007D01*
Y052834D01*
X132047D01*
X132165Y052165D02*
Y052125D01*
X132245D01*
Y052165D01*
X132285D01*
Y052245D01*
X132245D01*
Y052285D01*
X132165D01*
Y052245D01*
X132125D01*
Y052165D01*
X132165D01*
X126377Y050826D02*
Y050786D01*
X126457D01*
Y050826D01*
X126497D01*
Y050906D01*
X126457D01*
Y050946D01*
X126377D01*
Y050906D01*
X126337D01*
Y050826D01*
X126377D01*
X126062Y051653D02*
Y051613D01*
X126142D01*
Y051653D01*
X126182D01*
Y051733D01*
X126142D01*
Y051773D01*
X126062D01*
Y051733D01*
X126022D01*
Y051653D01*
X126062D01*
X127401Y053503D02*
Y053463D01*
X127481D01*
Y053503D01*
X127521D01*
Y053583D01*
X127481D01*
Y053623D01*
X127401D01*
Y053583D01*
X127361D01*
Y053503D01*
X127401D01*
X127322Y053858D02*
Y053818D01*
X127402D01*
Y053858D01*
X127442D01*
Y053938D01*
X127402D01*
Y053978D01*
X127322D01*
Y053938D01*
X127282D01*
Y053858D01*
X127322D01*
X118149Y058621D02*
Y058581D01*
X118229D01*
Y058621D01*
X118269D01*
Y058701D01*
X118229D01*
Y058741D01*
X118149D01*
Y058701D01*
X118109D01*
Y058621D01*
X118149D01*
X118267Y059488D02*
Y059448D01*
X118347D01*
Y059488D01*
X118387D01*
Y059568D01*
X118347D01*
Y059608D01*
X118267D01*
Y059568D01*
X118227D01*
Y059488D01*
X118267D01*
Y059212D02*
Y059172D01*
X118347D01*
Y059212D01*
X118387D01*
Y059292D01*
X118347D01*
Y059332D01*
X118267D01*
Y059292D01*
X118227D01*
Y059212D01*
X118267D01*
X118582Y059291D02*
Y059251D01*
X118662D01*
Y059291D01*
X118702D01*
Y059371D01*
X118662D01*
Y059411D01*
X118582D01*
Y059371D01*
X118542D01*
Y059291D01*
X118582D01*
X119094Y058228D02*
Y058188D01*
X119174D01*
Y058228D01*
X119214D01*
Y058308D01*
X119174D01*
Y058348D01*
X119094D01*
Y058308D01*
X119054D01*
Y058228D01*
X119094D01*
X11933Y058385D02*
Y058345D01*
X11941D01*
Y058385D01*
X11945D01*
Y058465D01*
X11941D01*
Y058505D01*
X11933D01*
Y058465D01*
X11929D01*
Y058385D01*
X11933D01*
X132558Y063818D02*
Y063778D01*
X132638D01*
Y063818D01*
X132678D01*
Y063898D01*
X132638D01*
Y063938D01*
X132558D01*
Y063898D01*
X132518D01*
Y063818D01*
X132558D01*
X132519Y064212D02*
Y064172D01*
X132599D01*
Y064212D01*
X132639D01*
Y064292D01*
X132599D01*
Y064332D01*
X132519D01*
Y064292D01*
X132479D01*
Y064212D01*
X132519D01*
X132992Y063976D02*
Y063936D01*
X133071D01*
Y063976D01*
X133111D01*
Y064056D01*
X133071D01*
Y064096D01*
X132992D01*
Y064056D01*
X132951D01*
Y063976D01*
X132992D01*
X142716Y066062D02*
Y066022D01*
X142796D01*
Y066062D01*
X142836D01*
Y066142D01*
X142796D01*
Y066182D01*
X142716D01*
Y066142D01*
X142676D01*
Y066062D01*
X142716D01*
X140314Y066338D02*
Y066298D01*
X140394D01*
Y066338D01*
X140434D01*
Y066418D01*
X140394D01*
Y066458D01*
X140314D01*
Y066418D01*
X140274D01*
Y066338D01*
X140314D01*
X14059Y066299D02*
Y066259D01*
X14067D01*
Y066299D01*
X14071D01*
Y066379D01*
X14067D01*
Y066419D01*
X14059D01*
Y066379D01*
X14055D01*
Y066299D01*
X14059D01*
X140432Y066062D02*
Y066022D01*
X140512D01*
Y066062D01*
X140552D01*
Y066142D01*
X140512D01*
Y066182D01*
X140432D01*
Y066142D01*
X140392D01*
Y066062D01*
X140432D01*
X14244Y065944D02*
Y065904D01*
X14252D01*
Y065944D01*
X14256D01*
Y066024D01*
X14252D01*
Y066064D01*
X14244D01*
Y066024D01*
X1424D01*
Y065944D01*
X14244D01*
X142165D02*
Y065904D01*
X142245D01*
Y065944D01*
X142285D01*
Y066024D01*
X142245D01*
Y066064D01*
X142165D01*
Y066024D01*
X142125D01*
Y065944D01*
X142165D01*
X140236Y054684D02*
Y054644D01*
X140316D01*
Y054684D01*
X140356D01*
Y054764D01*
X140316D01*
Y054804D01*
X140236D01*
Y054764D01*
X140196D01*
Y054684D01*
X140236D01*
X138818Y055393D02*
Y055353D01*
X138898D01*
Y055393D01*
X138938D01*
Y055473D01*
X138898D01*
Y055513D01*
X138818D01*
Y055473D01*
X138778D01*
Y055393D01*
X138818D01*
X139369Y060155D02*
Y060115D01*
X139449D01*
Y060155D01*
X139489D01*
Y060235D01*
X139449D01*
Y060275D01*
X139369D01*
Y060235D01*
X139329D01*
Y060155D01*
X139369D01*
Y06045D02*
Y06041D01*
X139449D01*
Y06045D01*
X139489D01*
Y06053D01*
X139449D01*
Y06057D01*
X139369D01*
Y06053D01*
X139329D01*
Y06045D01*
X139369D01*
X129566Y061102D02*
Y061062D01*
X129646D01*
Y061102D01*
X129686D01*
Y061182D01*
X129646D01*
Y061222D01*
X129566D01*
Y061182D01*
X129526D01*
Y061102D01*
X129566D01*
X129724Y061299D02*
Y061259D01*
X129804D01*
Y061299D01*
X129844D01*
Y061379D01*
X129804D01*
Y061419D01*
X129724D01*
Y061379D01*
X129684D01*
Y061299D01*
X129724D01*
X127519Y059251D02*
Y059211D01*
X127599D01*
Y059251D01*
X127639D01*
Y059331D01*
X127599D01*
Y059371D01*
X127519D01*
Y059331D01*
X127479D01*
Y059251D01*
X127519D01*
X127243Y059291D02*
Y059251D01*
X127323D01*
Y059291D01*
X127363D01*
Y059371D01*
X127323D01*
Y059411D01*
X127243D01*
Y059371D01*
X127203D01*
Y059291D01*
X127243D01*
X136102Y065944D02*
Y065904D01*
X136182D01*
Y065944D01*
X136222D01*
Y066024D01*
X136182D01*
Y066064D01*
X136102D01*
Y066024D01*
X136062D01*
Y065944D01*
X136102D01*
X136771Y06622D02*
Y06618D01*
X136851D01*
Y06622D01*
X136891D01*
Y0663D01*
X136851D01*
Y06634D01*
X136771D01*
Y0663D01*
X136731D01*
Y06622D01*
X136771D01*
X135432Y065944D02*
Y065904D01*
X135512D01*
Y065944D01*
X135552D01*
Y066024D01*
X135512D01*
Y066064D01*
X135432D01*
Y066024D01*
X135392D01*
Y065944D01*
X135432D01*
X135393Y066417D02*
Y066377D01*
X135473D01*
Y066417D01*
X135513D01*
Y066497D01*
X135473D01*
Y066537D01*
X135393D01*
Y066497D01*
X135353D01*
Y066417D01*
X135393D01*
X137598Y06748D02*
Y06744D01*
X137678D01*
Y06748D01*
X137718D01*
Y06756D01*
X137678D01*
Y0676D01*
X137598D01*
Y06756D01*
X137558D01*
Y06748D01*
X137598D01*
Y067755D02*
Y067715D01*
X137678D01*
Y067755D01*
X137718D01*
Y067835D01*
X137678D01*
Y067875D01*
X137598D01*
Y067835D01*
X137558D01*
Y067755D01*
X137598D01*
X141259Y050078D02*
Y050038D01*
X141339D01*
Y050078D01*
X141379D01*
Y050158D01*
X141339D01*
Y050198D01*
X141259D01*
Y050158D01*
X141219D01*
Y050078D01*
X141259D01*
X14248Y051023D02*
Y050983D01*
X14256D01*
Y051023D01*
X1426D01*
Y051103D01*
X14256D01*
Y051143D01*
X14248D01*
Y051103D01*
X14244D01*
Y051023D01*
X14248D01*
X14059Y050551D02*
Y050511D01*
X14067D01*
Y050551D01*
X14071D01*
Y050631D01*
X14067D01*
Y050671D01*
X14059D01*
Y050631D01*
X14055D01*
Y050551D01*
X14059D01*
X141259Y049488D02*
Y049448D01*
X141339D01*
Y049488D01*
X141379D01*
Y049568D01*
X141339D01*
Y049608D01*
X141259D01*
Y049568D01*
X141219D01*
Y049488D01*
X141259D01*
X140511Y048582D02*
Y048542D01*
X140591D01*
Y048582D01*
X140631D01*
Y048662D01*
X140591D01*
Y048702D01*
X140511D01*
Y048662D01*
X140471D01*
Y048582D01*
X140511D01*
X132243Y059015D02*
Y058975D01*
X132323D01*
Y059015D01*
X132363D01*
Y059095D01*
X132323D01*
Y059135D01*
X132243D01*
Y059095D01*
X132203D01*
Y059015D01*
X132243D01*
X127204Y062401D02*
Y062361D01*
X127284D01*
Y062401D01*
X127324D01*
Y062481D01*
X127284D01*
Y062521D01*
X127204D01*
Y062481D01*
X127164D01*
Y062401D01*
X127204D01*
Y061968D02*
Y061928D01*
X127284D01*
Y061968D01*
X127324D01*
Y062048D01*
X127284D01*
Y062088D01*
X127204D01*
Y062048D01*
X127164D01*
Y061968D01*
X127204D01*
Y061535D02*
Y061495D01*
X127284D01*
Y061535D01*
X127324D01*
Y061615D01*
X127284D01*
Y061655D01*
X127204D01*
Y061615D01*
X127164D01*
Y061535D01*
X127204D01*
X131397Y062952D02*
Y062912D01*
X131477D01*
Y062952D01*
X131517D01*
Y063032D01*
X131477D01*
Y063072D01*
X131397D01*
Y063032D01*
X131357D01*
Y062952D01*
X131397D01*
X130275Y062558D02*
Y062518D01*
X130355D01*
Y062558D01*
X130395D01*
Y062638D01*
X130355D01*
Y062678D01*
X130275D01*
Y062638D01*
X130235D01*
Y062558D01*
X130275D01*
X130826Y064724D02*
Y064684D01*
X130906D01*
Y064724D01*
X130946D01*
Y064804D01*
X130906D01*
Y064844D01*
X130826D01*
Y064804D01*
X130786D01*
Y064724D01*
X130826D01*
X130472D02*
Y064684D01*
X130552D01*
Y064724D01*
X130592D01*
Y064804D01*
X130552D01*
Y064844D01*
X130472D01*
Y064804D01*
X130432D01*
Y064724D01*
X130472D01*
X130866Y063543D02*
Y063503D01*
X130946D01*
Y063543D01*
X130986D01*
Y063623D01*
X130946D01*
Y063663D01*
X130866D01*
Y063623D01*
X130826D01*
Y063543D01*
X130866D01*
X130511D02*
Y063503D01*
X130591D01*
Y063543D01*
X130631D01*
Y063623D01*
X130591D01*
Y063663D01*
X130511D01*
Y063623D01*
X130471D01*
Y063543D01*
X130511D01*
X142677Y058818D02*
Y058778D01*
X142757D01*
Y058818D01*
X142797D01*
Y058898D01*
X142757D01*
Y058938D01*
X142677D01*
Y058898D01*
X142637D01*
Y058818D01*
X142677D01*
X136968Y055039D02*
Y054999D01*
X137048D01*
Y055039D01*
X137088D01*
Y055119D01*
X137048D01*
Y055159D01*
X136968D01*
Y055119D01*
X136928D01*
Y055039D01*
X136968D01*
X137558D02*
Y054999D01*
X137638D01*
Y055039D01*
X137678D01*
Y055119D01*
X137638D01*
Y055159D01*
X137558D01*
Y055119D01*
X137518D01*
Y055039D01*
X137558D01*
X124921Y0537D02*
Y05366D01*
X125001D01*
Y0537D01*
X125041D01*
Y05378D01*
X125001D01*
Y05382D01*
X124921D01*
Y05378D01*
X124881D01*
Y0537D01*
X124921D01*
Y054291D02*
Y054251D01*
X125001D01*
Y054291D01*
X125041D01*
Y054371D01*
X125001D01*
Y054411D01*
X124921D01*
Y054371D01*
X124881D01*
Y054291D01*
X124921D01*
Y054881D02*
Y054841D01*
X125001D01*
Y054881D01*
X125041D01*
Y054961D01*
X125001D01*
Y055001D01*
X124921D01*
Y054961D01*
X124881D01*
Y054881D01*
X124921D01*
Y055472D02*
Y055432D01*
X125001D01*
Y055472D01*
X125041D01*
Y055552D01*
X125001D01*
Y055592D01*
X124921D01*
Y055552D01*
X124881D01*
Y055472D01*
X124921D01*
X136968Y058228D02*
Y058188D01*
X137048D01*
Y058228D01*
X137088D01*
Y058308D01*
X137048D01*
Y058348D01*
X136968D01*
Y058308D01*
X136928D01*
Y058228D01*
X136968D01*
Y059212D02*
Y059172D01*
X137048D01*
Y059212D01*
X137088D01*
Y059292D01*
X137048D01*
Y059332D01*
X136968D01*
Y059292D01*
X136928D01*
Y059212D01*
X136968D01*
Y059803D02*
Y059763D01*
X137048D01*
Y059803D01*
X137088D01*
Y059883D01*
X137048D01*
Y059923D01*
X136968D01*
Y059883D01*
X136928D01*
Y059803D01*
X136968D01*
X126121Y049931D02*
Y04989D01*
X126201D01*
Y049931D01*
X126241D01*
Y05001D01*
X126201D01*
Y050051D01*
X126121D01*
Y05001D01*
X126081D01*
Y049931D01*
X126121D01*
X140629Y059064D02*
Y059024D01*
X140709D01*
Y059064D01*
X140749D01*
Y059144D01*
X140709D01*
Y059184D01*
X140629D01*
Y059144D01*
X140589D01*
Y059064D01*
X140629D01*
Y058769D02*
Y058729D01*
X140709D01*
Y058769D01*
X140749D01*
Y058849D01*
X140709D01*
Y058889D01*
X140629D01*
Y058849D01*
X140589D01*
Y058769D01*
X140629D01*
X140669Y059999D02*
Y059959D01*
X140749D01*
Y059999D01*
X140789D01*
Y060079D01*
X140749D01*
Y060119D01*
X140669D01*
Y060079D01*
X140629D01*
Y059999D01*
X140669D01*
X124271Y054291D02*
Y054251D01*
X124351D01*
Y054291D01*
X124391D01*
Y054371D01*
X124351D01*
Y054411D01*
X124271D01*
Y054371D01*
X124231D01*
Y054291D01*
X124271D01*
Y0537D02*
Y05366D01*
X124351D01*
Y0537D01*
X124391D01*
Y05378D01*
X124351D01*
Y05382D01*
X124271D01*
Y05378D01*
X124231D01*
Y0537D01*
X124271D01*
X123149Y053621D02*
Y053581D01*
X123229D01*
Y053621D01*
X123269D01*
Y053701D01*
X123229D01*
Y053741D01*
X123149D01*
Y053701D01*
X123109D01*
Y053621D01*
X123149D01*
X123228Y054291D02*
Y054251D01*
X123308D01*
Y054291D01*
X123348D01*
Y054371D01*
X123308D01*
Y054411D01*
X123228D01*
Y054371D01*
X123188D01*
Y054291D01*
X123228D01*
X123188Y055432D02*
Y055392D01*
X123268D01*
Y055432D01*
X123308D01*
Y055512D01*
X123268D01*
Y055552D01*
X123188D01*
Y055512D01*
X123148D01*
Y055432D01*
X123188D01*
X127125Y060787D02*
Y060747D01*
X127205D01*
Y060787D01*
X127245D01*
Y060867D01*
X127205D01*
Y060907D01*
X127125D01*
Y060867D01*
X127085D01*
Y060787D01*
X127125D01*
X128995Y060491D02*
Y060451D01*
X129075D01*
Y060491D01*
X129115D01*
Y060571D01*
X129075D01*
Y060612D01*
X128995D01*
Y060571D01*
X128955D01*
Y060491D01*
X128995D01*
X130472Y060373D02*
Y060333D01*
X130552D01*
Y060373D01*
X130592D01*
Y060453D01*
X130552D01*
Y060493D01*
X130472D01*
Y060453D01*
X130432D01*
Y060373D01*
X130472D01*
X13105Y059102D02*
Y059062D01*
X13113D01*
Y059102D01*
X13117D01*
Y059182D01*
X13113D01*
Y059222D01*
X13105D01*
Y059182D01*
X13101D01*
Y059102D01*
X13105D01*
X131456Y058031D02*
Y057991D01*
X131536D01*
Y058031D01*
X131576D01*
Y058111D01*
X131536D01*
Y058151D01*
X131456D01*
Y058111D01*
X131416D01*
Y058031D01*
X131456D01*
X131456Y058621D02*
Y058581D01*
X131536D01*
Y058621D01*
X131576D01*
Y058701D01*
X131536D01*
Y058741D01*
X131456D01*
Y058701D01*
X131416D01*
Y058621D01*
X131456D01*
X130393Y059015D02*
Y058975D01*
X130473D01*
Y059015D01*
X130513D01*
Y059095D01*
X130473D01*
Y059135D01*
X130393D01*
Y059095D01*
X130353D01*
Y059015D01*
X130393D01*
X137755Y065728D02*
Y065688D01*
X137835D01*
Y065728D01*
X137875D01*
Y065808D01*
X137835D01*
Y065848D01*
X137755D01*
Y065808D01*
X137715D01*
Y065728D01*
X137755D01*
X138346Y065708D02*
Y065668D01*
X138426D01*
Y065708D01*
X138466D01*
Y065788D01*
X138426D01*
Y065828D01*
X138346D01*
Y065788D01*
X138306D01*
Y065708D01*
X138346D01*
X137755Y064527D02*
Y064487D01*
X137835D01*
Y064527D01*
X137875D01*
Y064607D01*
X137835D01*
Y064647D01*
X137755D01*
Y064607D01*
X137715D01*
Y064527D01*
X137755D01*
X129901Y059803D02*
Y059763D01*
X129981D01*
Y059803D01*
X130021D01*
Y059883D01*
X129981D01*
Y059923D01*
X129901D01*
Y059883D01*
X129861D01*
Y059803D01*
X129901D01*
X128543Y059684D02*
Y059644D01*
X128623D01*
Y059684D01*
X128663D01*
Y059764D01*
X128623D01*
Y059804D01*
X128543D01*
Y059764D01*
X128503D01*
Y059684D01*
X128543D01*
X128425Y058701D02*
Y058661D01*
X128505D01*
Y058701D01*
X128545D01*
Y058781D01*
X128505D01*
Y058821D01*
X128425D01*
Y058781D01*
X128385D01*
Y058701D01*
X128425D01*
X131259Y060373D02*
Y060333D01*
X131339D01*
Y060373D01*
X131379D01*
Y060453D01*
X131339D01*
Y060493D01*
X131259D01*
Y060453D01*
X131219D01*
Y060373D01*
X131259D01*
X126535Y05744D02*
Y0574D01*
X126615D01*
Y05744D01*
X126655D01*
Y05752D01*
X126615D01*
Y05756D01*
X126535D01*
Y05752D01*
X126495D01*
Y05744D01*
X126535D01*
X12811D02*
Y0574D01*
X12819D01*
Y05744D01*
X12823D01*
Y05752D01*
X12819D01*
Y05756D01*
X12811D01*
Y05752D01*
X12807D01*
Y05744D01*
X12811D01*
X124369Y052322D02*
Y052282D01*
X124449D01*
Y052322D01*
X124489D01*
Y052402D01*
X124449D01*
Y052442D01*
X124369D01*
Y052402D01*
X124329D01*
Y052322D01*
X124369D01*
Y052913D02*
Y052873D01*
X124449D01*
Y052913D01*
X124489D01*
Y052993D01*
X124449D01*
Y053033D01*
X124369D01*
Y052993D01*
X124329D01*
Y052913D01*
X124369D01*
X128885Y051665D02*
Y051625D01*
X128965D01*
Y051665D01*
X129005D01*
Y051745D01*
X128965D01*
Y051785D01*
X128885D01*
Y051745D01*
X128845D01*
Y051665D01*
X128885D01*
X119842Y058621D02*
Y058581D01*
X119922D01*
Y058621D01*
X119962D01*
Y058701D01*
X119922D01*
Y058741D01*
X119842D01*
Y058701D01*
X119802D01*
Y058621D01*
X119842D01*
X121614Y058602D02*
Y058562D01*
X121694D01*
Y058602D01*
X121734D01*
Y058682D01*
X121694D01*
Y058722D01*
X121614D01*
Y058682D01*
X121574D01*
Y058602D01*
X121614D01*
X121023D02*
Y058562D01*
X121103D01*
Y058602D01*
X121143D01*
Y058682D01*
X121103D01*
Y058722D01*
X121023D01*
Y058682D01*
X120983D01*
Y058602D01*
X121023D01*
X120432D02*
Y058562D01*
X120512D01*
Y058602D01*
X120552D01*
Y058682D01*
X120512D01*
Y058722D01*
X120432D01*
Y058682D01*
X120392D01*
Y058602D01*
X120432D01*
X122744Y048779D02*
Y048739D01*
X122824D01*
Y048779D01*
X122864D01*
Y048859D01*
X122824D01*
Y048899D01*
X122744D01*
Y048859D01*
X122704D01*
Y048779D01*
X122744D01*
Y049369D02*
Y049329D01*
X122824D01*
Y049369D01*
X122864D01*
Y049449D01*
X122824D01*
Y049489D01*
X122744D01*
Y049449D01*
X122704D01*
Y049369D01*
X122744D01*
Y04996D02*
Y04992D01*
X122824D01*
Y04996D01*
X122864D01*
Y05004D01*
X122824D01*
Y05008D01*
X122744D01*
Y05004D01*
X122704D01*
Y04996D01*
X122744D01*
X135787Y056476D02*
Y056436D01*
X135867D01*
Y056476D01*
X135907D01*
Y056556D01*
X135867D01*
Y056596D01*
X135787D01*
Y056556D01*
X135747D01*
Y056476D01*
X135787D01*
X135787Y054291D02*
Y054251D01*
X135867D01*
Y054291D01*
X135907D01*
Y054371D01*
X135867D01*
Y054411D01*
X135787D01*
Y054371D01*
X135747D01*
Y054291D01*
X135787D01*
Y0537D02*
Y05366D01*
X135867D01*
Y0537D01*
X135907D01*
Y05378D01*
X135867D01*
Y05382D01*
X135787D01*
Y05378D01*
X135747D01*
Y0537D01*
X135787D01*
X133621Y054015D02*
Y053975D01*
X133701D01*
Y054015D01*
X133741D01*
Y054095D01*
X133701D01*
Y054135D01*
X133621D01*
Y054095D01*
X133581D01*
Y054015D01*
X133621D01*
X133228D02*
Y053975D01*
X133308D01*
Y054015D01*
X133348D01*
Y054095D01*
X133308D01*
Y054135D01*
X133228D01*
Y054095D01*
X133188D01*
Y054015D01*
X133228D01*
X133621Y053385D02*
Y053345D01*
X133701D01*
Y053385D01*
X133741D01*
Y053465D01*
X133701D01*
Y053505D01*
X133621D01*
Y053465D01*
X133581D01*
Y053385D01*
X133621D01*
X133228D02*
Y053345D01*
X133308D01*
Y053385D01*
X133348D01*
Y053465D01*
X133308D01*
Y053505D01*
X133228D01*
Y053465D01*
X133188D01*
Y053385D01*
X133228D01*
X132795Y054684D02*
Y054644D01*
X132875D01*
Y054684D01*
X132915D01*
Y054764D01*
X132875D01*
Y054804D01*
X132795D01*
Y054764D01*
X132755D01*
Y054684D01*
X132795D01*
X131259Y052322D02*
Y052282D01*
X131339D01*
Y052322D01*
X131379D01*
Y052402D01*
X131339D01*
Y052442D01*
X131259D01*
Y052402D01*
X131219D01*
Y052322D01*
X131259D01*
X131338Y055472D02*
Y055432D01*
X131418D01*
Y055472D01*
X131458D01*
Y055552D01*
X131418D01*
Y055592D01*
X131338D01*
Y055552D01*
X131298D01*
Y055472D01*
X131338D01*
X130354Y056377D02*
Y056337D01*
X130434D01*
Y056377D01*
X130474D01*
Y056457D01*
X130434D01*
Y056497D01*
X130354D01*
Y056457D01*
X130314D01*
Y056377D01*
X130354D01*
X127047Y049842D02*
Y049802D01*
X127127D01*
Y049842D01*
X127167D01*
Y049922D01*
X127127D01*
Y049962D01*
X127047D01*
Y049922D01*
X127007D01*
Y049842D01*
X127047D01*
X128897D02*
Y049802D01*
X128977D01*
Y049842D01*
X129017D01*
Y049922D01*
X128977D01*
Y049962D01*
X128897D01*
Y049922D01*
X128857D01*
Y049842D01*
X128897D01*
X128582Y050511D02*
Y050471D01*
X128662D01*
Y050511D01*
X128702D01*
Y050591D01*
X128662D01*
Y050631D01*
X128582D01*
Y050591D01*
X128542D01*
Y050511D01*
X128582D01*
X129094Y050551D02*
Y050511D01*
X129174D01*
Y050551D01*
X129214D01*
Y050631D01*
X129174D01*
Y050671D01*
X129094D01*
Y050631D01*
X129054D01*
Y050551D01*
X129094D01*
X128214Y051701D02*
Y051661D01*
X128294D01*
Y051701D01*
X128334D01*
Y051781D01*
X128294D01*
Y051821D01*
X128214D01*
Y051781D01*
X128174D01*
Y051701D01*
X128214D01*
X127952Y051417D02*
Y051377D01*
X128032D01*
Y051417D01*
X128072D01*
Y051497D01*
X128032D01*
Y051537D01*
X127952D01*
Y051497D01*
X127912D01*
Y051417D01*
X127952D01*
X145826Y066417D02*
Y066377D01*
X145906D01*
Y066417D01*
X145946D01*
Y066497D01*
X145906D01*
Y066537D01*
X145826D01*
Y066497D01*
X145786D01*
Y066417D01*
X145826D01*
X145511Y066574D02*
Y066534D01*
X145591D01*
Y066574D01*
X145631D01*
Y066654D01*
X145591D01*
Y066694D01*
X145511D01*
Y066654D01*
X145471D01*
Y066574D01*
X145511D01*
X145196D02*
Y066534D01*
X145276D01*
Y066574D01*
X145316D01*
Y066654D01*
X145276D01*
Y066694D01*
X145196D01*
Y066654D01*
X145156D01*
Y066574D01*
X145196D01*
X144921Y06746D02*
Y06742D01*
X145001D01*
Y06746D01*
X145041D01*
Y06754D01*
X145001D01*
Y06758D01*
X144921D01*
Y06754D01*
X144881D01*
Y06746D01*
X144921D01*
X144684Y066299D02*
Y066259D01*
X144764D01*
Y066299D01*
X144804D01*
Y066379D01*
X144764D01*
Y066419D01*
X144684D01*
Y066379D01*
X144644D01*
Y066299D01*
X144684D01*
X145866Y06748D02*
Y06744D01*
X145946D01*
Y06748D01*
X145986D01*
Y06756D01*
X145946D01*
Y0676D01*
X145866D01*
Y06756D01*
X145826D01*
Y06748D01*
X145866D01*
X132598Y062677D02*
Y062637D01*
X132678D01*
Y062677D01*
X132718D01*
Y062757D01*
X132678D01*
Y062797D01*
X132598D01*
Y062757D01*
X132558D01*
Y062677D01*
X132598D01*
X132913Y06311D02*
Y06307D01*
X132993D01*
Y06311D01*
X133033D01*
Y06319D01*
X132993D01*
Y06323D01*
X132913D01*
Y06319D01*
X132873D01*
Y06311D01*
X132913D01*
X132795Y062047D02*
Y062007D01*
X132875D01*
Y062047D01*
X132915D01*
Y062127D01*
X132875D01*
Y062167D01*
X132795D01*
Y062127D01*
X132755D01*
Y062047D01*
X132795D01*
X132558Y061338D02*
Y061298D01*
X132638D01*
Y061338D01*
X132678D01*
Y061418D01*
X132638D01*
Y061458D01*
X132558D01*
Y061418D01*
X132518D01*
Y061338D01*
X132558D01*
X131889Y06118D02*
Y06114D01*
X131969D01*
Y06118D01*
X132009D01*
Y06126D01*
X131969D01*
Y0613D01*
X131889D01*
Y06126D01*
X131849D01*
Y06118D01*
X131889D01*
X133621Y059409D02*
Y059369D01*
X133701D01*
Y059409D01*
X133741D01*
Y059489D01*
X133701D01*
Y059529D01*
X133621D01*
Y059489D01*
X133581D01*
Y059409D01*
X133621D01*
X136495Y050275D02*
Y050235D01*
X136575D01*
Y050275D01*
X136615D01*
Y050355D01*
X136575D01*
Y050395D01*
X136495D01*
Y050355D01*
X136455D01*
Y050275D01*
X136495D01*
X135236Y049999D02*
Y049959D01*
X135316D01*
Y049999D01*
X135356D01*
Y050079D01*
X135316D01*
Y050119D01*
X135236D01*
Y050079D01*
X135196D01*
Y049999D01*
X135236D01*
X134015Y049763D02*
Y049723D01*
X134095D01*
Y049763D01*
X134135D01*
Y049843D01*
X134095D01*
Y049883D01*
X134015D01*
Y049843D01*
X133975D01*
Y049763D01*
X134015D01*
X13559Y051535D02*
Y051495D01*
X13567D01*
Y051535D01*
X13571D01*
Y051615D01*
X13567D01*
Y051655D01*
X13559D01*
Y051615D01*
X13555D01*
Y051535D01*
X13559D01*
X137165Y048858D02*
Y048818D01*
X137245D01*
Y048858D01*
X137285D01*
Y048938D01*
X137245D01*
Y048978D01*
X137165D01*
Y048938D01*
X137125D01*
Y048858D01*
X137165D01*
X138936Y050354D02*
Y050314D01*
X139016D01*
Y050354D01*
X139056D01*
Y050434D01*
X139016D01*
Y050474D01*
X138936D01*
Y050434D01*
X138896D01*
Y050354D01*
X138936D01*
X13685Y05118D02*
Y05114D01*
X13693D01*
Y05118D01*
X13697D01*
Y05126D01*
X13693D01*
Y0513D01*
X13685D01*
Y05126D01*
X13681D01*
Y05118D01*
X13685D01*
X137913Y050826D02*
Y050786D01*
X137993D01*
Y050826D01*
X138033D01*
Y050906D01*
X137993D01*
Y050946D01*
X137913D01*
Y050906D01*
X137873D01*
Y050826D01*
X137913D01*
X131732Y053976D02*
Y053936D01*
X131812D01*
Y053976D01*
X131852D01*
Y054056D01*
X131812D01*
Y054096D01*
X131732D01*
Y054056D01*
X131692D01*
Y053976D01*
X131732D01*
Y053425D02*
Y053385D01*
X131812D01*
Y053425D01*
X131852D01*
Y053505D01*
X131812D01*
Y053545D01*
X131732D01*
Y053505D01*
X131692D01*
Y053425D01*
X131732D01*
X134921Y054606D02*
Y054566D01*
X135001D01*
Y054606D01*
X135041D01*
Y054686D01*
X135001D01*
Y054726D01*
X134921D01*
Y054686D01*
X134881D01*
Y054606D01*
X134921D01*
Y052795D02*
Y052755D01*
X135001D01*
Y052795D01*
X135041D01*
Y052875D01*
X135001D01*
Y052915D01*
X134921D01*
Y052875D01*
X134881D01*
Y052795D01*
X134921D01*
X138818Y056574D02*
Y056534D01*
X138898D01*
Y056574D01*
X138938D01*
Y056654D01*
X138898D01*
Y056694D01*
X138818D01*
Y056654D01*
X138778D01*
Y056574D01*
X138818D01*
X134369Y053503D02*
Y053463D01*
X134449D01*
Y053503D01*
X134489D01*
Y053583D01*
X134449D01*
Y053623D01*
X134369D01*
Y053583D01*
X134329D01*
Y053503D01*
X134369D01*
X137795Y054369D02*
Y054329D01*
X137875D01*
Y054369D01*
X137915D01*
Y054449D01*
X137875D01*
Y054489D01*
X137795D01*
Y054449D01*
X137755D01*
Y054369D01*
X137795D01*
X138149Y055787D02*
Y055747D01*
X138229D01*
Y055787D01*
X138269D01*
Y055867D01*
X138229D01*
Y055907D01*
X138149D01*
Y055867D01*
X138109D01*
Y055787D01*
X138149D01*
X135196Y05685D02*
Y05681D01*
X135276D01*
Y05685D01*
X135316D01*
Y05693D01*
X135276D01*
Y05697D01*
X135196D01*
Y05693D01*
X135156D01*
Y05685D01*
X135196D01*
X134606Y056259D02*
Y056219D01*
X134686D01*
Y056259D01*
X134726D01*
Y056339D01*
X134686D01*
Y056379D01*
X134606D01*
Y056339D01*
X134566D01*
Y056259D01*
X134606D01*
X134133Y05622D02*
Y05618D01*
X134213D01*
Y05622D01*
X134253D01*
Y0563D01*
X134213D01*
Y05634D01*
X134133D01*
Y0563D01*
X134093D01*
Y05622D01*
X134133D01*
X133425Y056574D02*
Y056534D01*
X133505D01*
Y056574D01*
X133545D01*
Y056654D01*
X133505D01*
Y056694D01*
X133425D01*
Y056654D01*
X133385D01*
Y056574D01*
X133425D01*
X13185Y056338D02*
Y056298D01*
X13193D01*
Y056338D01*
X13197D01*
Y056418D01*
X13193D01*
Y056458D01*
X13185D01*
Y056418D01*
X13181D01*
Y056338D01*
X13185D01*
X13244D02*
Y056298D01*
X13252D01*
Y056338D01*
X13256D01*
Y056418D01*
X13252D01*
Y056458D01*
X13244D01*
Y056418D01*
X1324D01*
Y056338D01*
X13244D01*
X141692Y055078D02*
Y055038D01*
X141772D01*
Y055078D01*
X141812D01*
Y055158D01*
X141772D01*
Y055198D01*
X141692D01*
Y055158D01*
X141652D01*
Y055078D01*
X141692D01*
X142952D02*
Y055038D01*
X143032D01*
Y055078D01*
X143072D01*
Y055158D01*
X143032D01*
Y055198D01*
X142952D01*
Y055158D01*
X142912D01*
Y055078D01*
X142952D01*
X142283Y057165D02*
Y057125D01*
X142363D01*
Y057165D01*
X142403D01*
Y057245D01*
X142363D01*
Y057285D01*
X142283D01*
Y057245D01*
X142243D01*
Y057165D01*
X142283D01*
X140236Y056456D02*
Y056416D01*
X140316D01*
Y056456D01*
X140356D01*
Y056536D01*
X140316D01*
Y056576D01*
X140236D01*
Y056536D01*
X140196D01*
Y056456D01*
X140236D01*
X138149Y057047D02*
Y057007D01*
X138229D01*
Y057047D01*
X138269D01*
Y057127D01*
X138229D01*
Y057167D01*
X138149D01*
Y057127D01*
X138109D01*
Y057047D01*
X138149D01*
X137755Y056653D02*
Y056613D01*
X137835D01*
Y056653D01*
X137875D01*
Y056733D01*
X137835D01*
Y056773D01*
X137755D01*
Y056733D01*
X137715D01*
Y056653D01*
X137755D01*
X130275Y061968D02*
Y061928D01*
X130355D01*
Y061968D01*
X130395D01*
Y062048D01*
X130355D01*
Y062088D01*
X130275D01*
Y062048D01*
X130235D01*
Y061968D01*
X130275D01*
X129291Y058867D02*
Y058827D01*
X129371D01*
Y058867D01*
X129411D01*
Y058947D01*
X129371D01*
Y058987D01*
X129291D01*
Y058947D01*
X129251D01*
Y058867D01*
X129291D01*
Y058375D02*
Y058335D01*
X129371D01*
Y058375D01*
X129411D01*
Y058455D01*
X129371D01*
Y058495D01*
X129291D01*
Y058455D01*
X129251D01*
Y058375D01*
X129291D01*
X129488Y058621D02*
Y058581D01*
X129568D01*
Y058621D01*
X129608D01*
Y058701D01*
X129568D01*
Y058741D01*
X129488D01*
Y058701D01*
X129448D01*
Y058621D01*
X129488D01*
X129094D02*
Y058581D01*
X129174D01*
Y058621D01*
X129214D01*
Y058701D01*
X129174D01*
Y058741D01*
X129094D01*
Y058701D01*
X129054D01*
Y058621D01*
X129094D01*
D134*
X117797Y050098D02*
G03*
X117797Y050098I-00008J0D01*
G01*
Y049114D02*
G03*
X117797Y049114I-00008J0D01*
G01*
X142403Y068406D02*
G03*
X142403Y068406I-00008J0D01*
G01*
Y067421D02*
G03*
X142403Y067421I-00008J0D01*
G01*
X139253D02*
G03*
X139253Y067421I-00008J0D01*
G01*
Y068406D02*
G03*
X139253Y068406I-00008J0D01*
G01*
M02*
