G04*
G04 #@! TF.GenerationSoftware,Altium Limited,Altium Designer,23.1.1 (15)*
G04*
G04 Layer_Physical_Order=2*
G04 Layer_Color=128*
%FSTAX24Y24*%
%MOIN*%
G70*
G04*
G04 #@! TF.SameCoordinates,744591E9-B7FF-4256-B3DA-537CD40D5A87*
G04*
G04*
G04 #@! TF.FilePolarity,Positive*
G04*
G01*
G75*
%ADD126C,0.0630*%
%ADD127R,0.0591X0.0600*%
%ADD128C,0.0591*%
%ADD129R,0.0630X0.0630*%
%ADD130C,0.0236*%
%ADD131O,0.0709X0.0630*%
G36*
X147104Y056243D02*
X144488D01*
X144434Y056232D01*
X144389Y056202D01*
X144358Y056156D01*
X144348Y056102D01*
Y047385D01*
X116676D01*
X116676Y070529D01*
X147104D01*
Y056243D01*
D02*
G37*
%LPC*%
G36*
X136272Y069685D02*
X136169D01*
X136069Y069658D01*
X135979Y069606D01*
X135905Y069533D01*
X135898Y06952D01*
X135889Y069514D01*
X135873Y069508D01*
X135839Y069503D01*
X135829Y069505D01*
X135819Y069509D01*
X135814Y069508D01*
X135809Y069509D01*
X117717D01*
X117686Y069503D01*
X11766Y069486D01*
X117642Y06946D01*
X117636Y069429D01*
Y058106D01*
X117638Y058099D01*
Y058091D01*
X117641Y058083D01*
X117642Y058076D01*
X117647Y058069D01*
X11765Y058062D01*
X117655Y058038D01*
Y058025D01*
X11765Y058001D01*
X117647Y057994D01*
X117642Y057987D01*
X117641Y05798D01*
X117638Y057972D01*
Y057964D01*
X117636Y057957D01*
Y051648D01*
X117642Y051618D01*
X11766Y051592D01*
X117686Y051574D01*
X117736Y051553D01*
X117767Y051547D01*
X117797Y051553D01*
X117823Y051571D01*
X117847Y051595D01*
X11789Y051613D01*
X117937D01*
X117979Y051595D01*
X118012Y051562D01*
X11803Y051519D01*
Y051473D01*
X118012Y05143D01*
X117979Y051397D01*
X117937Y051379D01*
X11789D01*
X117847Y051397D01*
X117823Y051421D01*
X117797Y051439D01*
X117767Y051445D01*
X117736Y051439D01*
X117686Y051418D01*
X11766Y051401D01*
X117642Y051375D01*
X117636Y051344D01*
Y050477D01*
X117642Y050446D01*
X11766Y05042D01*
X117686Y050403D01*
X117717Y050397D01*
X11801D01*
Y0498D01*
X117717D01*
X117686Y049794D01*
X11766Y049776D01*
X117642Y04975D01*
X117636Y04972D01*
Y049488D01*
X117638Y04948D01*
X117572Y049463D01*
X117487Y049413D01*
X117417Y049344D01*
X117368Y049259D01*
X117343Y049163D01*
Y049065D01*
X117368Y04897D01*
X117417Y048885D01*
X117487Y048815D01*
X117572Y048766D01*
X117638Y048748D01*
X117636Y04874D01*
Y048032D01*
X117642Y048001D01*
X11766Y047975D01*
X117686Y047957D01*
X117717Y047951D01*
X140945D01*
X140976Y047957D01*
X141002Y047975D01*
X141019Y048001D01*
X141025Y048032D01*
Y048205D01*
X141065Y048235D01*
X14109Y048228D01*
X141194D01*
X141294Y048255D01*
X141383Y048307D01*
X141457Y04838D01*
X141509Y04847D01*
X141528Y048543D01*
X141535Y048542D01*
X14252D01*
X14255Y048548D01*
X142576Y048565D01*
X142594Y048591D01*
X1426Y048622D01*
Y050385D01*
X142599Y05039D01*
X142599Y050396D01*
X142596Y050405D01*
X142594Y050416D01*
X142591Y05042D01*
X142589Y050425D01*
X142582Y050433D01*
X142576Y050442D01*
X142572Y050445D01*
X142569Y050449D01*
X142559Y050453D01*
X14255Y050459D01*
X14255Y050459D01*
X142505Y050483D01*
X14252Y050539D01*
Y050642D01*
X142493Y050743D01*
X142444Y050827D01*
X14245Y050842D01*
X142476Y050868D01*
X142481Y050866D01*
X142559D01*
X142631Y050896D01*
X142687Y050951D01*
X142717Y051024D01*
Y051102D01*
X142687Y051175D01*
X142631Y05123D01*
X142597Y051244D01*
X1426Y05126D01*
Y054125D01*
X142599Y05413D01*
X142599Y054136D01*
X142596Y054146D01*
X142594Y054156D01*
X142591Y05416D01*
X142589Y054165D01*
X142582Y054173D01*
X142576Y054182D01*
X142572Y054185D01*
X142569Y054189D01*
X142559Y054194D01*
X14255Y054199D01*
X14255Y0542D01*
X142505Y054223D01*
X14252Y054279D01*
Y054383D01*
X142505Y054438D01*
X14255Y054462D01*
X14255Y054462D01*
X142559Y054468D01*
X142569Y054473D01*
X142572Y054476D01*
X142576Y054479D01*
X142582Y054488D01*
X142589Y054496D01*
X142591Y054501D01*
X142594Y054505D01*
X142596Y054516D01*
X142599Y054526D01*
X142599Y054531D01*
X1426Y054536D01*
Y057283D01*
X142594Y057314D01*
X142576Y05734D01*
X14255Y057358D01*
X14252Y057364D01*
X142442D01*
X142434Y057372D01*
X142362Y057402D01*
X142284D01*
X142211Y057372D01*
X142203Y057364D01*
X141844D01*
X141825Y05741D01*
X14185Y057435D01*
X141902Y057525D01*
X141929Y057625D01*
Y057729D01*
X141902Y057829D01*
X14185Y057919D01*
X141777Y057992D01*
X141687Y058044D01*
X141587Y058071D01*
X141484D01*
X141383Y058044D01*
X141294Y057992D01*
X14122Y057919D01*
X141169Y057829D01*
X141142Y057729D01*
Y057625D01*
X141169Y057525D01*
X14122Y057435D01*
X141246Y05741D01*
X141227Y057364D01*
X141025D01*
X141025Y060281D01*
X141019Y060312D01*
X141002Y060338D01*
X140976Y060355D01*
X140926Y060376D01*
X140895Y060382D01*
X140864Y060376D01*
X140838Y060358D01*
X140814Y060334D01*
X140771Y060317D01*
X140725D01*
X140682Y060334D01*
X140649Y060367D01*
X140631Y06041D01*
Y060456D01*
X140649Y060499D01*
X140682Y060532D01*
X140725Y06055D01*
X140771D01*
X140814Y060532D01*
X140838Y060508D01*
X140864Y06049D01*
X140895Y060484D01*
X140926Y06049D01*
X140976Y060511D01*
X141002Y060529D01*
X141019Y060555D01*
X141025Y060585D01*
Y062756D01*
X141063D01*
X141135Y062786D01*
X141191Y062841D01*
X14122Y062914D01*
Y062953D01*
X14126D01*
X141332Y062983D01*
X141387Y063038D01*
X141417Y06311D01*
Y063189D01*
X141387Y063261D01*
X141332Y063316D01*
X14126Y063346D01*
X141181D01*
X14112Y063321D01*
X141112Y06334D01*
X141056Y063395D01*
X141022Y063409D01*
X141025Y063425D01*
Y063585D01*
X141023Y063596D01*
X141022Y063606D01*
X14102Y063611D01*
X141019Y063616D01*
X141016Y06362D01*
X141013Y063626D01*
X141009Y063634D01*
X141011Y06367D01*
X141018Y063688D01*
X14102Y063691D01*
X141063Y063735D01*
X141115Y063824D01*
X141142Y063925D01*
Y064028D01*
X141115Y064128D01*
X141063Y064218D01*
X14102Y064262D01*
X141018Y064264D01*
X141011Y064283D01*
X141009Y064318D01*
X141013Y064327D01*
X141016Y064333D01*
X141019Y064337D01*
X14102Y064342D01*
X141022Y064347D01*
X141023Y064357D01*
X141025Y064367D01*
Y064478D01*
X141025Y064478D01*
X141025Y064478D01*
X141022Y064493D01*
X141019Y064508D01*
X141019Y064508D01*
X141017Y064554D01*
X141033Y064574D01*
X141072Y064613D01*
X141102Y064685D01*
Y06473D01*
X141152Y06475D01*
X141188Y064715D01*
X14126Y064685D01*
X141338D01*
X141411Y064715D01*
X141466Y06477D01*
X141496Y064843D01*
Y064921D01*
X141466Y064993D01*
X141411Y065049D01*
X141338Y065079D01*
X14126D01*
X141188Y065049D01*
X141176Y065051D01*
X141151Y065112D01*
X141096Y065167D01*
X141025Y065196D01*
X141025Y065197D01*
Y065707D01*
X142874D01*
X142905Y065713D01*
X142931Y065731D01*
X14301Y065809D01*
X143027Y065835D01*
X143033Y065866D01*
Y066535D01*
X143027Y066566D01*
X14301Y066592D01*
X142983Y06661D01*
X142953Y066616D01*
X141025D01*
Y069429D01*
X141019Y06946D01*
X141002Y069486D01*
X140976Y069503D01*
X140945Y069509D01*
X138008D01*
X138002Y069508D01*
X137997Y069509D01*
X137987Y069505D01*
X137977Y069503D01*
X137947Y069506D01*
X137928Y069512D01*
X137918Y069519D01*
X137917Y06952D01*
X137912Y069527D01*
X137839Y069601D01*
X137749Y069652D01*
X137649Y069679D01*
X137545D01*
X137445Y069652D01*
X137356Y069601D01*
X137282Y069527D01*
X137278Y06952D01*
X137277Y069519D01*
X137267Y069512D01*
X137247Y069506D01*
X137218Y069503D01*
X137208Y069505D01*
X137198Y069509D01*
X137192Y069508D01*
X137187Y069509D01*
X136632D01*
X136627Y069508D01*
X136622Y069509D01*
X136612Y069505D01*
X136601Y069503D01*
X136568Y069508D01*
X136552Y069514D01*
X136543Y06952D01*
X136536Y069533D01*
X136462Y069606D01*
X136372Y069658D01*
X136272Y069685D01*
D02*
G37*
G36*
X142372Y06878D02*
X142274D01*
X142178Y068754D01*
X142093Y068705D01*
X142024Y068635D01*
X141974Y06855D01*
X141949Y068455D01*
Y068356D01*
X141974Y068261D01*
X142024Y068176D01*
X142093Y068106D01*
X142178Y068057D01*
X142274Y068032D01*
X142372D01*
X142467Y068057D01*
X142552Y068106D01*
X142622Y068176D01*
X142671Y068261D01*
X142697Y068356D01*
Y068455D01*
X142671Y06855D01*
X142622Y068635D01*
X142552Y068705D01*
X142467Y068754D01*
X142372Y06878D01*
D02*
G37*
G36*
X145945Y067717D02*
X145866D01*
X145794Y067687D01*
X145739Y067631D01*
X145709Y067559D01*
Y067481D01*
X145739Y067408D01*
X145794Y067353D01*
X145866Y067323D01*
X145945D01*
X146017Y067353D01*
X146072Y067408D01*
X146102Y067481D01*
Y067559D01*
X146072Y067631D01*
X146017Y067687D01*
X145945Y067717D01*
D02*
G37*
G36*
X145Y067697D02*
X144921D01*
X144849Y067667D01*
X144794Y067612D01*
X144764Y067539D01*
Y067461D01*
X144794Y067388D01*
X144849Y067333D01*
X144921Y067303D01*
X145D01*
X145072Y067333D01*
X145128Y067388D01*
X145157Y067461D01*
Y067539D01*
X145128Y067612D01*
X145072Y067667D01*
X145Y067697D01*
D02*
G37*
G36*
X143661Y067677D02*
X143583D01*
X143511Y067647D01*
X143455Y067592D01*
X143425Y067519D01*
Y067441D01*
X143455Y067369D01*
X143511Y067313D01*
X143583Y067283D01*
X143661D01*
X143734Y067313D01*
X143789Y067369D01*
X143819Y067441D01*
Y067519D01*
X143789Y067592D01*
X143734Y067647D01*
X143661Y067677D01*
D02*
G37*
G36*
X142697Y0678D02*
X141949D01*
Y067043D01*
X142697D01*
Y0678D01*
D02*
G37*
G36*
X144764Y066535D02*
X144685D01*
X144613Y066505D01*
X144558Y06645D01*
X144528Y066378D01*
Y066299D01*
X144558Y066227D01*
X144613Y066172D01*
X144685Y066142D01*
X144764D01*
X144836Y066172D01*
X144891Y066227D01*
X144921Y066299D01*
Y066378D01*
X144891Y06645D01*
X144836Y066505D01*
X144764Y066535D01*
D02*
G37*
G36*
X145512Y065661D02*
X145433D01*
X14533Y065647D01*
X145235Y065608D01*
X145152Y065545D01*
X145089Y065462D01*
X14505Y065367D01*
X145036Y065264D01*
X14505Y065161D01*
X145089Y065065D01*
X145152Y064983D01*
X145235Y06492D01*
X14533Y06488D01*
X145433Y064867D01*
X145512D01*
X145615Y06488D01*
X14571Y06492D01*
X145793Y064983D01*
X145856Y065065D01*
X145895Y065161D01*
X145909Y065264D01*
X145895Y065367D01*
X145856Y065462D01*
X145793Y065545D01*
X14571Y065608D01*
X145615Y065647D01*
X145512Y065661D01*
D02*
G37*
G36*
Y064661D02*
X145433D01*
X14533Y064647D01*
X145235Y064608D01*
X145152Y064545D01*
X145089Y064462D01*
X14505Y064367D01*
X145036Y064264D01*
X14505Y064161D01*
X145089Y064065D01*
X145152Y063983D01*
X145235Y06392D01*
X14533Y06388D01*
X145433Y063867D01*
X145512D01*
X145615Y06388D01*
X14571Y06392D01*
X145793Y063983D01*
X145856Y064065D01*
X145895Y064161D01*
X145909Y064264D01*
X145895Y064367D01*
X145856Y064462D01*
X145793Y064545D01*
X14571Y064608D01*
X145615Y064647D01*
X145512Y064661D01*
D02*
G37*
G36*
X143543Y06437D02*
X143465D01*
X143392Y06434D01*
X143337Y064285D01*
X143307Y064212D01*
Y064134D01*
X143335Y064066D01*
X143318Y064016D01*
X143307D01*
X143235Y063986D01*
X14318Y06393D01*
X14315Y063858D01*
Y06378D01*
X14318Y063707D01*
X143235Y063652D01*
X143307Y063622D01*
X143386D01*
X143458Y063652D01*
X143513Y063707D01*
X143573Y063721D01*
X143622Y063701D01*
X143701D01*
X143773Y063731D01*
X143828Y063786D01*
X143858Y063858D01*
Y063937D01*
X143828Y064009D01*
X143773Y064065D01*
X143701Y064094D01*
X143691Y064109D01*
X143701Y064134D01*
Y064212D01*
X143671Y064285D01*
X143615Y06434D01*
X143543Y06437D01*
D02*
G37*
G36*
X142362Y064065D02*
X142284D01*
X142211Y064035D01*
X142156Y06398D01*
X142126Y063907D01*
Y063829D01*
X142156Y063757D01*
X142211Y063701D01*
X142284Y063671D01*
X142362D01*
X142434Y063701D01*
X14249Y063757D01*
X14252Y063829D01*
Y063907D01*
X14249Y06398D01*
X142434Y064035D01*
X142362Y064065D01*
D02*
G37*
G36*
X144128Y063602D02*
X14405D01*
X143978Y063572D01*
X143922Y063517D01*
X143892Y063445D01*
Y063366D01*
X143922Y063294D01*
X143978Y063239D01*
X14405Y063209D01*
X144128D01*
X144201Y063239D01*
X144256Y063294D01*
X144286Y063366D01*
Y063445D01*
X144256Y063517D01*
X144201Y063572D01*
X144128Y063602D01*
D02*
G37*
G36*
X145512Y063692D02*
X145433D01*
X14533Y063679D01*
X145235Y063639D01*
X145152Y063576D01*
X145089Y063494D01*
X14505Y063398D01*
X145036Y063295D01*
X14505Y063193D01*
X145089Y063097D01*
X145152Y063014D01*
X145235Y062951D01*
X14533Y062912D01*
X145433Y062898D01*
X145512D01*
X145615Y062912D01*
X14571Y062951D01*
X145793Y063014D01*
X145856Y063097D01*
X145895Y063193D01*
X145909Y063295D01*
X145895Y063398D01*
X145856Y063494D01*
X145793Y063576D01*
X14571Y063639D01*
X145615Y063679D01*
X145512Y063692D01*
D02*
G37*
G36*
Y062692D02*
X145433D01*
X14533Y062679D01*
X145235Y062639D01*
X145152Y062576D01*
X145089Y062494D01*
X14505Y062398D01*
X145036Y062295D01*
X14505Y062193D01*
X145089Y062097D01*
X145152Y062014D01*
X145235Y061951D01*
X14533Y061912D01*
X145433Y061898D01*
X145512D01*
X145615Y061912D01*
X14571Y061951D01*
X145793Y062014D01*
X145856Y062097D01*
X145895Y062193D01*
X145909Y062295D01*
X145895Y062398D01*
X145856Y062494D01*
X145793Y062576D01*
X14571Y062639D01*
X145615Y062679D01*
X145512Y062692D01*
D02*
G37*
G36*
X143819Y062244D02*
X14374D01*
X143668Y062214D01*
X143613Y062159D01*
X143583Y062086D01*
Y062008D01*
X143613Y061936D01*
X143668Y06188D01*
X143673Y061878D01*
X143661Y06185D01*
Y061772D01*
X143691Y0617D01*
X143747Y061644D01*
X143819Y061614D01*
X143897D01*
X14397Y061644D01*
X144025Y0617D01*
X144052Y061765D01*
X144055Y061772D01*
X144104Y061811D01*
X144134D01*
X144206Y061841D01*
X144261Y061896D01*
X144291Y061969D01*
Y062047D01*
X144261Y062119D01*
X144206Y062175D01*
X144134Y062205D01*
X144055D01*
X143983Y062175D01*
X143921Y062184D01*
X143891Y062214D01*
X143819Y062244D01*
D02*
G37*
G36*
X145057Y060213D02*
X144971D01*
X144891Y06018D01*
X14483Y060119D01*
X144797Y060039D01*
Y059953D01*
X14483Y059873D01*
X144891Y059812D01*
X144971Y05978D01*
X145057D01*
X145136Y059812D01*
X145197Y059873D01*
X14523Y059953D01*
Y060039D01*
X145197Y060119D01*
X145136Y06018D01*
X145057Y060213D01*
D02*
G37*
G36*
X145118Y059488D02*
X14504D01*
X144967Y059458D01*
X144912Y059403D01*
X144882Y05933D01*
Y059252D01*
X144912Y05918D01*
X144967Y059124D01*
X14504Y059094D01*
X145118D01*
X14519Y059124D01*
X145246Y05918D01*
X145276Y059252D01*
Y05933D01*
X145246Y059403D01*
X14519Y059458D01*
X145118Y059488D01*
D02*
G37*
G36*
X144055Y058937D02*
X143977D01*
X143904Y058907D01*
X143849Y058852D01*
X143819Y058779D01*
Y058701D01*
X143849Y058629D01*
X143904Y058573D01*
X143977Y058543D01*
X144055D01*
X144127Y058573D01*
X144183Y058629D01*
X144213Y058701D01*
Y058779D01*
X144183Y058852D01*
X144127Y058907D01*
X144055Y058937D01*
D02*
G37*
G36*
X145057Y057937D02*
X144971D01*
X144891Y057904D01*
X14483Y057843D01*
X144797Y057764D01*
Y057677D01*
X14483Y057598D01*
X144891Y057537D01*
X144971Y057504D01*
X145057D01*
X145136Y057537D01*
X145197Y057598D01*
X14523Y057677D01*
Y057764D01*
X145197Y057843D01*
X145136Y057904D01*
X145057Y057937D01*
D02*
G37*
G36*
X143949Y055906D02*
X143846D01*
X143746Y055879D01*
X143656Y055827D01*
X143583Y055754D01*
X143531Y055664D01*
X143504Y055564D01*
Y05546D01*
X143531Y05536D01*
X143583Y05527D01*
X143656Y055197D01*
X143746Y055145D01*
X143846Y055118D01*
X143949D01*
X14405Y055145D01*
X144139Y055197D01*
X144213Y05527D01*
X144265Y05536D01*
X144291Y05546D01*
Y055564D01*
X144265Y055664D01*
X144213Y055754D01*
X144139Y055827D01*
X14405Y055879D01*
X143949Y055906D01*
D02*
G37*
G36*
X143031Y055315D02*
X142953D01*
X142881Y055285D01*
X142825Y05523D01*
X142795Y055157D01*
Y055079D01*
X142825Y055007D01*
X142881Y054951D01*
X142953Y054921D01*
X143031D01*
X143104Y054951D01*
X143159Y055007D01*
X143189Y055079D01*
Y055157D01*
X143159Y05523D01*
X143104Y055285D01*
X143031Y055315D01*
D02*
G37*
G36*
X143949Y054528D02*
X143846D01*
X143746Y054501D01*
X143656Y054449D01*
X143583Y054376D01*
X143531Y054286D01*
X143504Y054186D01*
Y054082D01*
X143531Y053982D01*
X143583Y053892D01*
X143656Y053819D01*
X143746Y053767D01*
X143846Y05374D01*
X143949D01*
X14405Y053767D01*
X144139Y053819D01*
X144213Y053892D01*
X144265Y053982D01*
X144291Y054082D01*
Y054186D01*
X144265Y054286D01*
X144213Y054376D01*
X144139Y054449D01*
X14405Y054501D01*
X143949Y054528D01*
D02*
G37*
G36*
X143949Y052953D02*
X143846D01*
X143746Y052926D01*
X143656Y052874D01*
X143583Y052801D01*
X143531Y052711D01*
X143504Y052611D01*
Y052507D01*
X143531Y052407D01*
X143583Y052317D01*
X143656Y052244D01*
X143746Y052192D01*
X143846Y052165D01*
X143949D01*
X14405Y052192D01*
X144139Y052244D01*
X144213Y052317D01*
X144265Y052407D01*
X144291Y052507D01*
Y052611D01*
X144265Y052711D01*
X144213Y052801D01*
X144139Y052874D01*
X14405Y052926D01*
X143949Y052953D01*
D02*
G37*
G36*
Y051181D02*
X143846D01*
X143746Y051154D01*
X143656Y051102D01*
X143583Y051029D01*
X143531Y050939D01*
X143504Y050839D01*
Y050736D01*
X143531Y050635D01*
X143583Y050546D01*
X143656Y050472D01*
X143746Y050421D01*
X143846Y050394D01*
X143949D01*
X14405Y050421D01*
X144139Y050472D01*
X144213Y050546D01*
X144265Y050635D01*
X144291Y050736D01*
Y050839D01*
X144265Y050939D01*
X144213Y051029D01*
X144139Y051102D01*
X14405Y051154D01*
X143949Y051181D01*
D02*
G37*
G36*
Y049606D02*
X143846D01*
X143746Y049579D01*
X143656Y049528D01*
X143583Y049454D01*
X143531Y049365D01*
X143504Y049264D01*
Y049161D01*
X143531Y049061D01*
X143583Y048971D01*
X143656Y048898D01*
X143746Y048846D01*
X143846Y048819D01*
X143949D01*
X14405Y048846D01*
X144139Y048898D01*
X144213Y048971D01*
X144265Y049061D01*
X144291Y049161D01*
Y049264D01*
X144265Y049365D01*
X144213Y049454D01*
X144139Y049528D01*
X14405Y049579D01*
X143949Y049606D01*
D02*
G37*
%LPD*%
G36*
X140945Y066616D02*
X140157D01*
X140127Y06661D01*
X140101Y066592D01*
X140083Y066566D01*
X140077Y066535D01*
Y065866D01*
X140083Y065835D01*
X140101Y065809D01*
X140179Y065731D01*
X140205Y065713D01*
X140236Y065707D01*
X140945D01*
Y065197D01*
X140873Y065167D01*
X140817Y065112D01*
X140787Y065039D01*
Y064961D01*
X140813Y064899D01*
X140794Y064891D01*
X140739Y064836D01*
X140709Y064764D01*
Y064685D01*
X140739Y064613D01*
X140794Y064558D01*
X140866Y064528D01*
X140895D01*
X140945Y064478D01*
Y064367D01*
X140913Y064349D01*
X140895Y064345D01*
X1408Y06437D01*
X140696D01*
X140596Y064343D01*
X140506Y064291D01*
X140433Y064218D01*
X140381Y064128D01*
X140354Y064028D01*
Y063925D01*
X140381Y063824D01*
X140433Y063735D01*
X140506Y063661D01*
X140596Y06361D01*
X140696Y063583D01*
X1408D01*
X140895Y063608D01*
X140913Y063604D01*
X140945Y063585D01*
Y063425D01*
X140906D01*
X140833Y063395D01*
X140778Y06334D01*
X140748Y063267D01*
Y063189D01*
X140778Y063117D01*
X140833Y063061D01*
X140852Y063054D01*
X140827Y062992D01*
Y062914D01*
X140857Y062841D01*
X140912Y062786D01*
X140945Y062772D01*
Y060585D01*
X140895Y060565D01*
X14086Y0606D01*
X140787Y06063D01*
X140709D01*
X140637Y0606D01*
X140581Y060545D01*
X140551Y060472D01*
Y060394D01*
X140581Y060322D01*
X140637Y060266D01*
X140709Y060236D01*
X140787D01*
X14086Y060266D01*
X140895Y060302D01*
X140945Y060281D01*
X140945Y057364D01*
X136773D01*
Y059173D01*
X136823Y059183D01*
X136841Y05914D01*
X136896Y059085D01*
X136969Y059055D01*
X137047D01*
X137119Y059085D01*
X137175Y05914D01*
X137205Y059213D01*
Y059291D01*
X137175Y059363D01*
X137119Y059419D01*
X137047Y059449D01*
X136969D01*
X136896Y059419D01*
X136841Y059363D01*
X136823Y059321D01*
X136773Y05933D01*
Y059764D01*
X136823Y059774D01*
X136841Y059731D01*
X136896Y059676D01*
X136969Y059646D01*
X137047D01*
X137119Y059676D01*
X137175Y059731D01*
X137205Y059803D01*
Y059882D01*
X137175Y059954D01*
X137119Y060009D01*
X137047Y060039D01*
X136969D01*
X136896Y060009D01*
X136841Y059954D01*
X136823Y059911D01*
X136773Y059921D01*
Y064266D01*
X136811Y064291D01*
X13689D01*
X136962Y064321D01*
X137017Y064377D01*
X137047Y064449D01*
Y064527D01*
X137017Y0646D01*
X136962Y064655D01*
X136938Y064665D01*
X136915Y064729D01*
X136929Y064764D01*
Y064842D01*
X136899Y064915D01*
X136844Y06497D01*
X136771Y065D01*
X136693D01*
X136621Y06497D01*
X136594Y064944D01*
X136568Y06497D01*
X136496Y065D01*
X136418D01*
X136345Y06497D01*
X13629Y064915D01*
X13626Y064842D01*
Y064764D01*
X13629Y064692D01*
X136345Y064636D01*
X136418Y064606D01*
X136496D01*
X136568Y064636D01*
X136594Y064663D01*
X136621Y064636D01*
X136645Y064626D01*
X136668Y064563D01*
X136654Y064527D01*
Y06449D01*
X134941D01*
X13493Y064488D01*
X13492Y064487D01*
X134915Y064485D01*
X13491Y064484D01*
X134901Y064478D01*
X134892Y064473D01*
X134888Y064469D01*
X134884Y064466D01*
X134878Y064457D01*
X134871Y06445D01*
X134869Y064445D01*
X134869Y064444D01*
X134843Y064441D01*
X134816Y064444D01*
X134816Y064445D01*
X134814Y06445D01*
X134807Y064457D01*
X134801Y064466D01*
X134797Y064469D01*
X134793Y064473D01*
X134784Y064478D01*
X134775Y064484D01*
X13477Y064485D01*
X134765Y064487D01*
X134755Y064488D01*
X134744Y06449D01*
X126772D01*
X126741Y064484D01*
X126715Y064466D01*
X126697Y06444D01*
X126691Y064409D01*
Y058858D01*
X126691Y058858D01*
X126697Y058828D01*
X126715Y058801D01*
X126715Y058801D01*
X126852Y058664D01*
X12684Y058606D01*
X126798Y058588D01*
X126765Y058555D01*
X126706Y058566D01*
X126702Y058576D01*
X126647Y058631D01*
X126575Y058661D01*
X126496D01*
X126424Y058631D01*
X126369Y058576D01*
X126339Y058504D01*
Y058425D01*
X126369Y058353D01*
X126424Y058298D01*
X126496Y058268D01*
X126575D01*
X126647Y058298D01*
X12668Y058331D01*
X126738Y05832D01*
X126743Y05831D01*
X126798Y058254D01*
X12687Y058224D01*
X126949D01*
X127021Y058254D01*
X127076Y05831D01*
X127094Y058352D01*
X127152Y058364D01*
X127305Y058211D01*
X127331Y058194D01*
X127362Y058187D01*
X129731D01*
X130606Y057312D01*
X130607Y057312D01*
X13061Y057282D01*
X130606Y057263D01*
X130606Y057262D01*
X130601Y057255D01*
X130597Y057253D01*
X130542Y057198D01*
X130512Y057126D01*
Y057047D01*
X130542Y056975D01*
X130597Y05692D01*
X13067Y05689D01*
X130748D01*
X13082Y05692D01*
X130874Y056973D01*
X130885Y056983D01*
X130927Y056991D01*
X132321Y055597D01*
Y055118D01*
X132271Y055108D01*
X132254Y055151D01*
X132198Y055206D01*
X132126Y055236D01*
X132047D01*
X131975Y055206D01*
X13192Y055151D01*
X13189Y055079D01*
Y055D01*
X13192Y054928D01*
X131975Y054872D01*
X132047Y054843D01*
X132126D01*
X132198Y054872D01*
X132254Y054928D01*
X132271Y054971D01*
X132321Y054961D01*
Y052953D01*
X132271Y052943D01*
X132254Y052986D01*
X132198Y053041D01*
X132126Y053071D01*
X132047D01*
X131975Y053041D01*
X13192Y052986D01*
X13189Y052913D01*
Y052835D01*
X13192Y052763D01*
X131975Y052707D01*
X132047Y052677D01*
X132126D01*
X132198Y052707D01*
X132254Y052763D01*
X132271Y052805D01*
X132321Y052796D01*
Y05247D01*
X132322Y052468D01*
X132321Y052465D01*
X132325Y052452D01*
X132327Y052439D01*
X132329Y052437D01*
X132329Y052435D01*
X132337Y052424D01*
X132341Y052419D01*
X132336Y0524D01*
X132295Y052381D01*
X132244Y052402D01*
X132166D01*
X132093Y052372D01*
X132038Y052316D01*
X132008Y052244D01*
Y052166D01*
X132038Y052093D01*
X132093Y052038D01*
X132166Y052008D01*
X132244D01*
X132271Y052019D01*
X132321Y051986D01*
Y048622D01*
X132327Y048591D01*
X132345Y048565D01*
X132371Y048548D01*
X132402Y048542D01*
X140354D01*
X14037Y048545D01*
X140384Y048511D01*
X14044Y048455D01*
X140512Y048425D01*
X14059D01*
X140663Y048455D01*
X140713Y048506D01*
X14074Y048505D01*
X140767Y048499D01*
X140775Y04847D01*
X140827Y04838D01*
X1409Y048307D01*
X140945Y048281D01*
Y048032D01*
X117717D01*
Y04874D01*
X117766D01*
X117861Y048766D01*
X117946Y048815D01*
X118016Y048885D01*
X118065Y04897D01*
X118091Y049065D01*
Y049163D01*
X118065Y049259D01*
X118016Y049344D01*
X117946Y049413D01*
X117861Y049463D01*
X117766Y049488D01*
X117717D01*
Y04972D01*
X118091D01*
Y050477D01*
X117717D01*
Y051344D01*
X117767Y051365D01*
X117802Y051329D01*
X117874Y051299D01*
X117953D01*
X118025Y051329D01*
X11808Y051385D01*
X11811Y051457D01*
Y051535D01*
X11808Y051608D01*
X118025Y051663D01*
X117953Y051693D01*
X117874D01*
X117802Y051663D01*
X117767Y051628D01*
X117717Y051648D01*
Y057957D01*
X117767Y057967D01*
X117786Y05792D01*
X117841Y057865D01*
X117914Y057835D01*
X117992D01*
X118064Y057865D01*
X11812Y05792D01*
X11815Y057992D01*
Y058071D01*
X11812Y058143D01*
X118064Y058198D01*
X117992Y058228D01*
X117914D01*
X117841Y058198D01*
X117786Y058143D01*
X117767Y058096D01*
X117717Y058106D01*
Y069429D01*
X135809D01*
X135839Y069389D01*
X135827Y069343D01*
Y06924D01*
X135854Y069139D01*
X135884Y069087D01*
X135868Y069039D01*
X135833Y069025D01*
X135778Y06897D01*
X135748Y068897D01*
Y068819D01*
X135778Y068747D01*
X135828Y068697D01*
X135834Y068688D01*
X135847Y068632D01*
X135827Y068582D01*
Y068504D01*
X135857Y068432D01*
X135912Y068376D01*
X135984Y068346D01*
X136063D01*
X136135Y068376D01*
X136161Y068403D01*
X136188Y068376D01*
X13626Y068346D01*
X136338D01*
X136411Y068376D01*
X136466Y068432D01*
X136496Y068504D01*
Y068582D01*
X136466Y068655D01*
X136411Y06871D01*
X136338Y06874D01*
X13626D01*
X136188Y06871D01*
X136187Y068709D01*
X136158Y068712D01*
X136132Y068725D01*
X136121Y06877D01*
X136142Y068819D01*
Y068853D01*
X136169Y068898D01*
X136188Y068898D01*
X136272D01*
X136372Y068924D01*
X136462Y068976D01*
X136536Y06905D01*
X136587Y069139D01*
X136614Y06924D01*
Y069343D01*
X136602Y069389D01*
X136632Y069429D01*
X137187D01*
X137218Y069389D01*
X137204Y069337D01*
Y069234D01*
X13723Y069134D01*
X137282Y069044D01*
X137356Y068971D01*
X137445Y068919D01*
X137545Y068892D01*
X137649D01*
X137749Y068919D01*
X137839Y068971D01*
X137912Y069044D01*
X137964Y069134D01*
X137991Y069234D01*
Y069337D01*
X137977Y069389D01*
X138008Y069429D01*
X140945D01*
Y066616D01*
D02*
G37*
G36*
X142953Y065866D02*
X142874Y065787D01*
X140236D01*
X140157Y065866D01*
Y066535D01*
X142953D01*
Y065866D01*
D02*
G37*
G36*
X136684Y064377D02*
X136693Y064367D01*
Y057283D01*
X14252D01*
Y054536D01*
X14247Y054523D01*
X142441Y054572D01*
X142368Y054646D01*
X142278Y054698D01*
X142178Y054724D01*
X142074D01*
X141974Y054698D01*
X141884Y054646D01*
X141811Y054572D01*
X141759Y054483D01*
X141732Y054383D01*
Y054279D01*
X141759Y054179D01*
X141811Y054089D01*
X141884Y054016D01*
X141974Y053964D01*
X142074Y053937D01*
X142178D01*
X142278Y053964D01*
X142368Y054016D01*
X142441Y054089D01*
X14247Y054139D01*
X14252Y054125D01*
Y05126D01*
X142481D01*
X142408Y05123D01*
X142353Y051175D01*
X142323Y051102D01*
Y051024D01*
X142342Y050978D01*
X142302Y050944D01*
X142278Y050957D01*
X142178Y050984D01*
X142074D01*
X141974Y050957D01*
X141884Y050906D01*
X141811Y050832D01*
X141759Y050743D01*
X141732Y050642D01*
Y050539D01*
X141759Y050439D01*
X141811Y050349D01*
X141884Y050276D01*
X141974Y050224D01*
X142074Y050197D01*
X142178D01*
X142278Y050224D01*
X142368Y050276D01*
X142441Y050349D01*
X14247Y050398D01*
X14252Y050385D01*
Y048622D01*
X141535D01*
Y048674D01*
X141509Y048774D01*
X141457Y048864D01*
X141383Y048937D01*
X141294Y048989D01*
X141194Y049016D01*
X14109D01*
X14099Y048989D01*
X1409Y048937D01*
X140827Y048864D01*
X140775Y048774D01*
X140767Y048746D01*
X14074Y048739D01*
X140713Y048738D01*
X140663Y048789D01*
X14059Y048819D01*
X140512D01*
X14044Y048789D01*
X140384Y048734D01*
X140354Y048661D01*
Y048622D01*
X132402D01*
Y052097D01*
X132452Y052115D01*
X13252Y052087D01*
X132598D01*
X132671Y052117D01*
X132726Y052172D01*
X132756Y052244D01*
Y052323D01*
X132726Y052395D01*
X132671Y05245D01*
X132598Y05248D01*
X13252D01*
X132452Y052452D01*
X132402Y05247D01*
Y05563D01*
X130952Y05708D01*
X130967Y057135D01*
X131017Y057156D01*
X131072Y057211D01*
X131102Y057284D01*
Y057362D01*
X131072Y057434D01*
X131065Y057442D01*
X131093Y057484D01*
X131103Y05748D01*
X131181D01*
X131253Y05751D01*
X131309Y057566D01*
X131339Y057638D01*
Y057716D01*
X131309Y057789D01*
X131253Y057844D01*
X131181Y057874D01*
X131103D01*
X13103Y057844D01*
X130975Y057789D01*
X130945Y057716D01*
Y057638D01*
X130975Y057566D01*
X130982Y057558D01*
X130954Y057516D01*
X130945Y05752D01*
X130866D01*
X130794Y05749D01*
X130739Y057434D01*
X130718Y057384D01*
X130662Y057369D01*
X129764Y058268D01*
X127362D01*
X126772Y058858D01*
Y064409D01*
X134744D01*
X134751Y064359D01*
X134691Y064343D01*
X134601Y064291D01*
X134527Y064218D01*
X134476Y064128D01*
X134449Y064028D01*
Y063925D01*
X134476Y063824D01*
X134527Y063735D01*
X134601Y063661D01*
X134691Y06361D01*
X134791Y063583D01*
X134894D01*
X134994Y06361D01*
X135084Y063661D01*
X135158Y063735D01*
X135209Y063824D01*
X135236Y063925D01*
Y064028D01*
X135209Y064128D01*
X135158Y064218D01*
X135084Y064291D01*
X134994Y064343D01*
X134934Y064359D01*
X134941Y064409D01*
X13667D01*
X136684Y064377D01*
D02*
G37*
%LPC*%
G36*
X123661Y068976D02*
X123583D01*
X123511Y068946D01*
X123455Y068891D01*
X123425Y068819D01*
Y06874D01*
X123455Y068668D01*
X123511Y068613D01*
X123583Y068583D01*
X123661D01*
X123734Y068613D01*
X123789Y068668D01*
X123819Y06874D01*
Y068819D01*
X123789Y068891D01*
X123734Y068946D01*
X123661Y068976D01*
D02*
G37*
G36*
X123071D02*
X122992D01*
X12292Y068946D01*
X122865Y068891D01*
X122835Y068819D01*
Y06874D01*
X122865Y068668D01*
X12292Y068613D01*
X122992Y068583D01*
X123071D01*
X123143Y068613D01*
X123198Y068668D01*
X123228Y06874D01*
Y068819D01*
X123198Y068891D01*
X123143Y068946D01*
X123071Y068976D01*
D02*
G37*
G36*
X12248D02*
X122402D01*
X122329Y068946D01*
X122274Y068891D01*
X122244Y068819D01*
Y06874D01*
X122274Y068668D01*
X122329Y068613D01*
X122402Y068583D01*
X12248D01*
X122552Y068613D01*
X122608Y068668D01*
X122638Y06874D01*
Y068819D01*
X122608Y068891D01*
X122552Y068946D01*
X12248Y068976D01*
D02*
G37*
G36*
X120118D02*
X12004D01*
X119967Y068946D01*
X119912Y068891D01*
X119882Y068819D01*
Y06874D01*
X119912Y068668D01*
X119967Y068613D01*
X12004Y068583D01*
X120118D01*
X12019Y068613D01*
X120246Y068668D01*
X120276Y06874D01*
Y068819D01*
X120246Y068891D01*
X12019Y068946D01*
X120118Y068976D01*
D02*
G37*
G36*
X119527D02*
X119449D01*
X119377Y068946D01*
X119321Y068891D01*
X119291Y068819D01*
Y06874D01*
X119321Y068668D01*
X119377Y068613D01*
X119449Y068583D01*
X119527D01*
X1196Y068613D01*
X119655Y068668D01*
X119685Y06874D01*
Y068819D01*
X119655Y068891D01*
X1196Y068946D01*
X119527Y068976D01*
D02*
G37*
G36*
X12185Y068937D02*
X121772D01*
X1217Y068907D01*
X121644Y068852D01*
X121614Y068779D01*
Y068701D01*
X121644Y068629D01*
X1217Y068573D01*
X121772Y068543D01*
X12185D01*
X121923Y068573D01*
X121978Y068629D01*
X122008Y068701D01*
Y068779D01*
X121978Y068852D01*
X121923Y068907D01*
X12185Y068937D01*
D02*
G37*
G36*
X126233Y069094D02*
X126129D01*
X126029Y069068D01*
X125939Y069016D01*
X125866Y068943D01*
X125814Y068853D01*
X125787Y068753D01*
Y068649D01*
X125814Y068549D01*
X125866Y068459D01*
X125939Y068386D01*
X126029Y068334D01*
X126129Y068307D01*
X126233D01*
X126333Y068334D01*
X126423Y068386D01*
X126496Y068459D01*
X126548Y068549D01*
X126575Y068649D01*
Y068753D01*
X126548Y068853D01*
X126496Y068943D01*
X126423Y069016D01*
X126333Y069068D01*
X126233Y069094D01*
D02*
G37*
G36*
X125052D02*
X124948D01*
X124848Y069068D01*
X124758Y069016D01*
X124685Y068943D01*
X124633Y068853D01*
X124606Y068753D01*
Y068649D01*
X124633Y068549D01*
X124685Y068459D01*
X124758Y068386D01*
X124848Y068334D01*
X124948Y068307D01*
X125052D01*
X125152Y068334D01*
X125242Y068386D01*
X125315Y068459D01*
X125367Y068549D01*
X125394Y068649D01*
Y068753D01*
X125367Y068853D01*
X125315Y068943D01*
X125242Y069016D01*
X125152Y069068D01*
X125052Y069094D01*
D02*
G37*
G36*
X127362Y068622D02*
X127284D01*
X127211Y068592D01*
X127156Y068537D01*
X127126Y068464D01*
Y068386D01*
X127156Y068314D01*
X127211Y068258D01*
X127284Y068228D01*
X127362D01*
X127434Y068258D01*
X12749Y068314D01*
X12752Y068386D01*
Y068464D01*
X12749Y068537D01*
X127434Y068592D01*
X127362Y068622D01*
D02*
G37*
G36*
X139547Y068784D02*
X138799D01*
Y068027D01*
X139547D01*
Y068784D01*
D02*
G37*
G36*
X126811Y068307D02*
X126733D01*
X12666Y068277D01*
X126605Y068222D01*
X126575Y068149D01*
Y068071D01*
X126605Y067999D01*
X12666Y067943D01*
X126733Y067913D01*
X126811D01*
X126883Y067943D01*
X126939Y067999D01*
X126968Y068071D01*
Y068149D01*
X126939Y068222D01*
X126883Y068277D01*
X126811Y068307D01*
D02*
G37*
G36*
X129094Y068032D02*
X129016D01*
X128944Y068002D01*
X128888Y067946D01*
X128858Y067874D01*
Y067795D01*
X128867Y067774D01*
X128829Y067735D01*
X128779Y067756D01*
X128701D01*
X128629Y067726D01*
X128573Y067671D01*
X128543Y067598D01*
Y06752D01*
X128573Y067448D01*
X128629Y067392D01*
X128701Y067362D01*
X128779D01*
X128852Y067392D01*
X128907Y067448D01*
X128937Y06752D01*
Y067598D01*
X128928Y06762D01*
X128966Y067658D01*
X129016Y067638D01*
X129094D01*
X129167Y067668D01*
X129222Y067723D01*
X129252Y067795D01*
Y067874D01*
X129222Y067946D01*
X129167Y068002D01*
X129094Y068032D01*
D02*
G37*
G36*
X118543Y068071D02*
X118465D01*
X118392Y068041D01*
X118337Y067986D01*
X118307Y067913D01*
Y067835D01*
X118337Y067763D01*
X118392Y067707D01*
X118465Y067677D01*
X118543D01*
X118615Y067707D01*
X118671Y067763D01*
X118701Y067835D01*
Y067913D01*
X118671Y067986D01*
X118615Y068041D01*
X118543Y068071D01*
D02*
G37*
G36*
X137677Y067992D02*
X137599D01*
X137526Y067962D01*
X137471Y067907D01*
X137441Y067834D01*
Y067756D01*
X137471Y067684D01*
X137497Y067657D01*
X137471Y067631D01*
X137441Y067559D01*
Y067481D01*
X137471Y067408D01*
X137526Y067353D01*
X137599Y067323D01*
X137677D01*
X137749Y067353D01*
X137805Y067408D01*
X137835Y067481D01*
Y067559D01*
X137805Y067631D01*
X137778Y067657D01*
X137805Y067684D01*
X137835Y067756D01*
Y067834D01*
X137805Y067907D01*
X137749Y067962D01*
X137677Y067992D01*
D02*
G37*
G36*
X139222Y067795D02*
X139124D01*
X139029Y06777D01*
X138944Y067721D01*
X138874Y067651D01*
X138825Y067566D01*
X138799Y06747D01*
Y067372D01*
X138825Y067277D01*
X138874Y067192D01*
X138944Y067122D01*
X139029Y067073D01*
X139124Y067047D01*
X139222D01*
X139318Y067073D01*
X139403Y067122D01*
X139473Y067192D01*
X139522Y067277D01*
X139547Y067372D01*
Y06747D01*
X139522Y067566D01*
X139473Y067651D01*
X139403Y067721D01*
X139318Y06777D01*
X139222Y067795D01*
D02*
G37*
G36*
X124884Y066932D02*
X124806D01*
X124734Y066902D01*
X124685Y066853D01*
X124639Y066899D01*
X124567Y066929D01*
X124488D01*
X124416Y066899D01*
X124361Y066844D01*
X124331Y066771D01*
Y066693D01*
X124361Y066621D01*
X124416Y066565D01*
X124488Y066535D01*
X124567D01*
X124639Y066565D01*
X124688Y066614D01*
X124734Y066568D01*
X124806Y066538D01*
X124884D01*
X124957Y066568D01*
X125012Y066623D01*
X125042Y066696D01*
Y066774D01*
X125012Y066846D01*
X124957Y066902D01*
X124884Y066932D01*
D02*
G37*
G36*
X135472Y066654D02*
X135394D01*
X135322Y066624D01*
X135266Y066568D01*
X135236Y066496D01*
Y066418D01*
X135266Y066345D01*
X135322Y06629D01*
X135394Y06626D01*
X135472D01*
X135545Y06629D01*
X1356Y066345D01*
X13563Y066418D01*
Y066496D01*
X1356Y066568D01*
X135545Y066624D01*
X135472Y066654D01*
D02*
G37*
G36*
X132283Y066575D02*
X132205D01*
X132133Y066545D01*
X132077Y066489D01*
X132047Y066417D01*
Y066339D01*
X132077Y066266D01*
X132133Y066211D01*
X132205Y066181D01*
X132283D01*
X132356Y066211D01*
X132411Y066266D01*
X132441Y066339D01*
Y066417D01*
X132411Y066489D01*
X132356Y066545D01*
X132283Y066575D01*
D02*
G37*
G36*
X130275Y066535D02*
X130197D01*
X130125Y066505D01*
X130069Y06645D01*
X130039Y066378D01*
Y066299D01*
X130069Y066227D01*
X130125Y066172D01*
X130197Y066142D01*
X130275D01*
X130348Y066172D01*
X130403Y066227D01*
X130433Y066299D01*
Y066378D01*
X130403Y06645D01*
X130348Y066505D01*
X130275Y066535D01*
D02*
G37*
G36*
X13685Y066457D02*
X136772D01*
X1367Y066427D01*
X136644Y066371D01*
X136614Y066299D01*
Y066221D01*
X136644Y066148D01*
X1367Y066093D01*
X136772Y066063D01*
X13685D01*
X136923Y066093D01*
X136978Y066148D01*
X137008Y066221D01*
Y066299D01*
X136978Y066371D01*
X136923Y066427D01*
X13685Y066457D01*
D02*
G37*
G36*
X136181Y066181D02*
X136103D01*
X13603Y066151D01*
X135975Y066096D01*
X135945Y066023D01*
Y065945D01*
X135975Y065873D01*
X13603Y065817D01*
X136103Y065787D01*
X136181D01*
X136253Y065817D01*
X136309Y065873D01*
X136339Y065945D01*
Y066023D01*
X136309Y066096D01*
X136253Y066151D01*
X136181Y066181D01*
D02*
G37*
G36*
X135512D02*
X135433D01*
X135361Y066151D01*
X135306Y066096D01*
X135276Y066023D01*
Y065945D01*
X135306Y065873D01*
X135361Y065817D01*
X135433Y065787D01*
X135512D01*
X135584Y065817D01*
X135639Y065873D01*
X135669Y065945D01*
Y066023D01*
X135639Y066096D01*
X135584Y066151D01*
X135512Y066181D01*
D02*
G37*
G36*
X125079Y066063D02*
X125D01*
X124928Y066033D01*
X124872Y065978D01*
X124843Y065905D01*
Y065827D01*
X124872Y065755D01*
X124928Y065699D01*
X125Y065669D01*
X125079D01*
X125151Y065699D01*
X125206Y065755D01*
X125236Y065827D01*
Y065905D01*
X125206Y065978D01*
X125151Y066033D01*
X125079Y066063D01*
D02*
G37*
G36*
X137834Y065965D02*
X137756D01*
X137684Y065935D01*
X137628Y065879D01*
X137598Y065807D01*
Y065729D01*
X137628Y065656D01*
X137684Y065601D01*
X137756Y065571D01*
X137834D01*
X137907Y065601D01*
X137962Y065656D01*
X137992Y065729D01*
Y065807D01*
X137962Y065879D01*
X137907Y065935D01*
X137834Y065965D01*
D02*
G37*
G36*
X138425Y065945D02*
X138347D01*
X138274Y065915D01*
X138219Y06586D01*
X138189Y065787D01*
Y065709D01*
X138219Y065637D01*
X138274Y065581D01*
X138347Y065551D01*
X138425D01*
X138497Y065581D01*
X138553Y065637D01*
X138583Y065709D01*
Y065787D01*
X138553Y06586D01*
X138497Y065915D01*
X138425Y065945D01*
D02*
G37*
G36*
X128398Y066142D02*
X128295D01*
X128195Y066115D01*
X128105Y066063D01*
X128031Y06599D01*
X12798Y0659D01*
X127953Y0658D01*
Y065696D01*
X12798Y065596D01*
X128031Y065506D01*
X128105Y065433D01*
X128195Y065381D01*
X128295Y065354D01*
X128398D01*
X128498Y065381D01*
X128588Y065433D01*
X128661Y065506D01*
X128713Y065596D01*
X12874Y065696D01*
Y0658D01*
X128713Y0659D01*
X128661Y06599D01*
X128588Y066063D01*
X128498Y066115D01*
X128398Y066142D01*
D02*
G37*
G36*
X139331Y065669D02*
X139252D01*
X13918Y065639D01*
X139124Y065584D01*
X139094Y065512D01*
Y065433D01*
X139124Y065361D01*
X13918Y065306D01*
X139252Y065276D01*
X139331D01*
X139403Y065306D01*
X139458Y065361D01*
X139488Y065433D01*
Y065512D01*
X139458Y065584D01*
X139403Y065639D01*
X139331Y065669D01*
D02*
G37*
G36*
X140393Y065276D02*
X140315D01*
X140243Y065246D01*
X140217Y065219D01*
X14019Y065246D01*
X140118Y065276D01*
X14004D01*
X139967Y065246D01*
X139941Y065219D01*
X139915Y065246D01*
X139842Y065276D01*
X139764D01*
X139692Y065246D01*
X139636Y06519D01*
X139606Y065118D01*
Y06504D01*
X139636Y064967D01*
X139692Y064912D01*
X139764Y064882D01*
X139842D01*
X139915Y064912D01*
X139941Y064938D01*
X139967Y064912D01*
X14004Y064882D01*
X140118D01*
X14019Y064912D01*
X140217Y064938D01*
X140243Y064912D01*
X140315Y064882D01*
X140393D01*
X140466Y064912D01*
X140521Y064967D01*
X140551Y06504D01*
Y065118D01*
X140521Y06519D01*
X140466Y065246D01*
X140393Y065276D01*
D02*
G37*
G36*
X130905Y064961D02*
X130827D01*
X130755Y064931D01*
X130722Y064898D01*
X130689Y064881D01*
X130656Y064898D01*
X130623Y064931D01*
X130551Y064961D01*
X130473D01*
X1304Y064931D01*
X130345Y064875D01*
X130315Y064803D01*
Y064725D01*
X130345Y064652D01*
X1304Y064597D01*
X130473Y064567D01*
X130551D01*
X130623Y064597D01*
X130656Y06463D01*
X130689Y064647D01*
X130722Y06463D01*
X130755Y064597D01*
X130827Y064567D01*
X130905D01*
X130978Y064597D01*
X131033Y064652D01*
X131063Y064725D01*
Y064803D01*
X131033Y064875D01*
X130978Y064931D01*
X130905Y064961D01*
D02*
G37*
G36*
X137834Y064764D02*
X137756D01*
X137684Y064734D01*
X137628Y064678D01*
X137598Y064606D01*
Y064528D01*
X137628Y064455D01*
X137684Y0644D01*
X137756Y06437D01*
X137834D01*
X137907Y0644D01*
X137962Y064455D01*
X137992Y064528D01*
Y064606D01*
X137962Y064678D01*
X137907Y064734D01*
X137834Y064764D01*
D02*
G37*
G36*
X122286Y064587D02*
X122208D01*
X122136Y064557D01*
X12208Y064501D01*
X12205Y064429D01*
Y064351D01*
X12208Y064278D01*
X122136Y064223D01*
X122208Y064193D01*
X122286D01*
X122359Y064223D01*
X122414Y064278D01*
X122444Y064351D01*
Y064429D01*
X122414Y064501D01*
X122359Y064557D01*
X122286Y064587D01*
D02*
G37*
G36*
X121564D02*
X121485D01*
X121413Y064557D01*
X121358Y064501D01*
X121328Y064429D01*
Y064351D01*
X121358Y064278D01*
X121413Y064223D01*
X121485Y064193D01*
X121564D01*
X121636Y064223D01*
X121691Y064278D01*
X121721Y064351D01*
Y064429D01*
X121691Y064501D01*
X121636Y064557D01*
X121564Y064587D01*
D02*
G37*
G36*
X13937Y064528D02*
X139292D01*
X139219Y064498D01*
X139164Y064442D01*
X139134Y06437D01*
Y064292D01*
X139164Y064219D01*
X139219Y064164D01*
X139292Y064134D01*
X13937D01*
X139442Y064164D01*
X139498Y064219D01*
X139528Y064292D01*
Y06437D01*
X139498Y064442D01*
X139442Y064498D01*
X13937Y064528D01*
D02*
G37*
G36*
X122647Y064225D02*
X122569D01*
X122497Y064195D01*
X122441Y06414D01*
X122411Y064068D01*
Y063989D01*
X122441Y063917D01*
X122497Y063862D01*
X122569Y063832D01*
X122647D01*
X12272Y063862D01*
X122775Y063917D01*
X122805Y063989D01*
Y064068D01*
X122775Y06414D01*
X12272Y064195D01*
X122647Y064225D01*
D02*
G37*
G36*
X121925D02*
X121847D01*
X121774Y064195D01*
X121719Y06414D01*
X121689Y064068D01*
Y063989D01*
X121719Y063917D01*
X121774Y063862D01*
X121847Y063832D01*
X121925D01*
X121997Y063862D01*
X122053Y063917D01*
X122083Y063989D01*
Y064068D01*
X122053Y06414D01*
X121997Y064195D01*
X121925Y064225D01*
D02*
G37*
G36*
X121203D02*
X121124D01*
X121052Y064195D01*
X120997Y06414D01*
X120967Y064068D01*
Y063989D01*
X120997Y063917D01*
X121052Y063862D01*
X121124Y063832D01*
X121203D01*
X121275Y063862D01*
X12133Y063917D01*
X12136Y063989D01*
Y064068D01*
X12133Y06414D01*
X121275Y064195D01*
X121203Y064225D01*
D02*
G37*
G36*
X121564Y063864D02*
X121485D01*
X121413Y063834D01*
X121358Y063779D01*
X121328Y063706D01*
Y063628D01*
X121358Y063556D01*
X121413Y0635D01*
X121485Y06347D01*
X121564D01*
X121636Y0635D01*
X121691Y063556D01*
X121721Y063628D01*
Y063706D01*
X121691Y063779D01*
X121636Y063834D01*
X121564Y063864D01*
D02*
G37*
G36*
X122286Y063864D02*
X122208D01*
X122136Y063834D01*
X12208Y063779D01*
X12205Y063706D01*
Y063628D01*
X12208Y063556D01*
X122136Y0635D01*
X122208Y06347D01*
X122286D01*
X122359Y0635D01*
X122414Y063556D01*
X122444Y063628D01*
Y063706D01*
X122414Y063779D01*
X122359Y063834D01*
X122286Y063864D01*
D02*
G37*
G36*
X138504Y063819D02*
X138425D01*
X138353Y063789D01*
X138298Y063734D01*
X138268Y063661D01*
Y063583D01*
X138298Y063511D01*
X138353Y063455D01*
X138425Y063425D01*
X138504D01*
X138576Y063455D01*
X138631Y063511D01*
X138661Y063583D01*
Y063661D01*
X138631Y063734D01*
X138576Y063789D01*
X138504Y063819D01*
D02*
G37*
G36*
X122647Y063503D02*
X122569D01*
X122497Y063473D01*
X122441Y063418D01*
X122411Y063345D01*
Y063267D01*
X122441Y063195D01*
X122497Y063139D01*
X122569Y063109D01*
X122647D01*
X12272Y063139D01*
X122775Y063195D01*
X122805Y063267D01*
Y063345D01*
X122775Y063418D01*
X12272Y063473D01*
X122647Y063503D01*
D02*
G37*
G36*
X121925D02*
X121847D01*
X121774Y063473D01*
X121719Y063418D01*
X121689Y063345D01*
Y063267D01*
X121719Y063195D01*
X121774Y063139D01*
X121847Y063109D01*
X121925D01*
X121997Y063139D01*
X122053Y063195D01*
X122083Y063267D01*
Y063345D01*
X122053Y063418D01*
X121997Y063473D01*
X121925Y063503D01*
D02*
G37*
G36*
X121203D02*
X121124D01*
X121052Y063473D01*
X120997Y063418D01*
X120967Y063345D01*
Y063267D01*
X120997Y063195D01*
X121052Y063139D01*
X121124Y063109D01*
X121203D01*
X121275Y063139D01*
X12133Y063195D01*
X12136Y063267D01*
Y063345D01*
X12133Y063418D01*
X121275Y063473D01*
X121203Y063503D01*
D02*
G37*
G36*
X122286Y063142D02*
X122208D01*
X122136Y063112D01*
X12208Y063056D01*
X12205Y062984D01*
Y062906D01*
X12208Y062833D01*
X122136Y062778D01*
X122208Y062748D01*
X122286D01*
X122359Y062778D01*
X122414Y062833D01*
X122444Y062906D01*
Y062984D01*
X122414Y063056D01*
X122359Y063112D01*
X122286Y063142D01*
D02*
G37*
G36*
X121564Y063142D02*
X121485D01*
X121413Y063112D01*
X121358Y063056D01*
X121328Y062984D01*
Y062906D01*
X121358Y062833D01*
X121413Y062778D01*
X121485Y062748D01*
X121564D01*
X121636Y062778D01*
X121691Y062833D01*
X121721Y062906D01*
Y062984D01*
X121691Y063056D01*
X121636Y063112D01*
X121564Y063142D01*
D02*
G37*
G36*
X123071Y062047D02*
X122992D01*
X12292Y062017D01*
X122865Y061962D01*
X122835Y06189D01*
Y061811D01*
X122865Y061739D01*
X12292Y061684D01*
X122992Y061654D01*
X123071D01*
X123143Y061684D01*
X123198Y061739D01*
X123228Y061811D01*
Y06189D01*
X123198Y061962D01*
X123143Y062017D01*
X123071Y062047D01*
D02*
G37*
G36*
X125197Y062008D02*
X125118D01*
X125046Y061978D01*
X124991Y061923D01*
X124961Y06185D01*
Y061772D01*
X124991Y0617D01*
X125046Y061644D01*
X125118Y061614D01*
X125197D01*
X125269Y061644D01*
X125324Y0617D01*
X125354Y061772D01*
Y06185D01*
X125324Y061923D01*
X125269Y061978D01*
X125197Y062008D01*
D02*
G37*
G36*
X139449Y060687D02*
X13937D01*
X139298Y060657D01*
X139243Y060602D01*
X139213Y060529D01*
Y060451D01*
X139243Y060379D01*
X139279Y060343D01*
X139243Y060306D01*
X139213Y060234D01*
Y060156D01*
X139243Y060083D01*
X139298Y060028D01*
X13937Y059998D01*
X139449D01*
X139521Y060028D01*
X139576Y060083D01*
X139606Y060156D01*
Y060234D01*
X139576Y060306D01*
X13954Y060343D01*
X139576Y060379D01*
X139606Y060451D01*
Y060529D01*
X139576Y060602D01*
X139521Y060657D01*
X139449Y060687D01*
D02*
G37*
G36*
X123858Y060197D02*
X12378D01*
X123707Y060167D01*
X123652Y060112D01*
X123622Y060039D01*
Y059961D01*
X123652Y059888D01*
X123707Y059833D01*
X12378Y059803D01*
X123858D01*
X12393Y059833D01*
X123986Y059888D01*
X124016Y059961D01*
Y060039D01*
X123986Y060112D01*
X12393Y060167D01*
X123858Y060197D01*
D02*
G37*
G36*
X123267Y060118D02*
X123189D01*
X123117Y060088D01*
X123061Y060033D01*
X123032Y05996D01*
Y059882D01*
X123061Y05981D01*
X123117Y059754D01*
X123189Y059724D01*
X123267D01*
X12334Y059754D01*
X123395Y05981D01*
X123425Y059882D01*
Y05996D01*
X123395Y060033D01*
X12334Y060088D01*
X123267Y060118D01*
D02*
G37*
G36*
X122283Y060079D02*
X122205D01*
X122133Y060049D01*
X122077Y059993D01*
X122047Y059921D01*
Y059843D01*
X122077Y05977D01*
X122133Y059715D01*
X122205Y059685D01*
X122283D01*
X122356Y059715D01*
X122411Y05977D01*
X122441Y059843D01*
Y059921D01*
X122411Y059993D01*
X122356Y060049D01*
X122283Y060079D01*
D02*
G37*
G36*
X120512Y060039D02*
X120433D01*
X120361Y060009D01*
X120306Y059954D01*
X120276Y059882D01*
Y059803D01*
X120306Y059731D01*
X120361Y059676D01*
X120433Y059646D01*
X120512D01*
X120584Y059676D01*
X120639Y059731D01*
X120669Y059803D01*
Y059882D01*
X120639Y059954D01*
X120584Y060009D01*
X120512Y060039D01*
D02*
G37*
G36*
X118346Y059724D02*
X118268D01*
X118196Y059694D01*
X11814Y059639D01*
X11811Y059567D01*
Y059488D01*
X11814Y059416D01*
X118166Y05939D01*
X11814Y059363D01*
X11811Y059291D01*
Y059213D01*
X11814Y05914D01*
X118196Y059085D01*
X118268Y059055D01*
X118346D01*
X118419Y059085D01*
X118469Y059135D01*
X118511Y059164D01*
X118583Y059134D01*
X118661D01*
X118734Y059164D01*
X118789Y059219D01*
X118819Y059292D01*
Y05937D01*
X118789Y059442D01*
X118734Y059498D01*
X118661Y059528D01*
X118583D01*
X118554Y059516D01*
X118504Y059549D01*
Y059567D01*
X118474Y059639D01*
X118419Y059694D01*
X118346Y059724D01*
D02*
G37*
G36*
X121693Y059488D02*
X121614D01*
X121542Y059458D01*
X121487Y059403D01*
X121457Y05933D01*
Y059252D01*
X121487Y05918D01*
X121542Y059124D01*
X121614Y059094D01*
X121693D01*
X121765Y059124D01*
X12182Y05918D01*
X12185Y059252D01*
Y05933D01*
X12182Y059403D01*
X121765Y059458D01*
X121693Y059488D01*
D02*
G37*
G36*
X125118Y059134D02*
X12504D01*
X124967Y059104D01*
X124912Y059049D01*
X124882Y058976D01*
Y058898D01*
X124912Y058825D01*
X124967Y05877D01*
X12504Y05874D01*
X125118D01*
X12519Y05877D01*
X125246Y058825D01*
X125276Y058898D01*
Y058976D01*
X125246Y059049D01*
X12519Y059104D01*
X125118Y059134D01*
D02*
G37*
G36*
X140708Y059301D02*
X14063D01*
X140558Y059271D01*
X140502Y059216D01*
X140472Y059143D01*
Y059065D01*
X140502Y058993D01*
X140539Y058957D01*
X140502Y058921D01*
X140472Y058848D01*
Y05877D01*
X140502Y058698D01*
X140558Y058642D01*
X14063Y058612D01*
X140708D01*
X140781Y058642D01*
X140836Y058698D01*
X140866Y05877D01*
Y058848D01*
X140836Y058921D01*
X1408Y058957D01*
X140836Y058993D01*
X140866Y059065D01*
Y059143D01*
X140836Y059216D01*
X140781Y059271D01*
X140708Y059301D01*
D02*
G37*
G36*
X125905Y058898D02*
X125827D01*
X125755Y058868D01*
X125699Y058812D01*
X125669Y05874D01*
Y058662D01*
X125699Y058589D01*
X125755Y058534D01*
X125827Y058504D01*
X125905D01*
X125978Y058534D01*
X126033Y058589D01*
X126063Y058662D01*
Y05874D01*
X126033Y058812D01*
X125978Y058868D01*
X125905Y058898D01*
D02*
G37*
G36*
X119921Y058858D02*
X119843D01*
X11977Y058828D01*
X119715Y058773D01*
X119685Y058701D01*
Y058622D01*
X119715Y05855D01*
X11977Y058495D01*
X119843Y058465D01*
X119921D01*
X119993Y058495D01*
X120049Y05855D01*
X120079Y058622D01*
Y058701D01*
X120049Y058773D01*
X119993Y058828D01*
X119921Y058858D01*
D02*
G37*
G36*
X118228Y058858D02*
X11815D01*
X118077Y058828D01*
X118022Y058773D01*
X117992Y058701D01*
Y058622D01*
X118022Y05855D01*
X118077Y058495D01*
X11815Y058465D01*
X118228D01*
X1183Y058495D01*
X118356Y05855D01*
X118386Y058622D01*
Y058701D01*
X118356Y058773D01*
X1183Y058828D01*
X118228Y058858D01*
D02*
G37*
G36*
X139173Y058898D02*
X139095D01*
X139022Y058868D01*
X138967Y058812D01*
X138937Y05874D01*
Y058662D01*
X138967Y058589D01*
X139022Y058534D01*
X139026Y058478D01*
X139006Y058458D01*
X138976Y058386D01*
Y058307D01*
X139006Y058235D01*
X139062Y05818D01*
X139134Y05815D01*
X139212D01*
X139285Y05818D01*
X13934Y058235D01*
X13937Y058307D01*
Y058386D01*
X13934Y058458D01*
X139285Y058513D01*
X139281Y058569D01*
X139301Y058589D01*
X139331Y058662D01*
Y05874D01*
X139301Y058812D01*
X139245Y058868D01*
X139173Y058898D01*
D02*
G37*
G36*
X121742Y058228D02*
X121664D01*
X121591Y058198D01*
X121536Y058143D01*
X121506Y058071D01*
Y057992D01*
X121536Y05792D01*
X121591Y057865D01*
X121664Y057835D01*
X121742D01*
X121814Y057865D01*
X12187Y05792D01*
X1219Y057992D01*
Y058071D01*
X12187Y058143D01*
X121814Y058198D01*
X121742Y058228D01*
D02*
G37*
G36*
X14Y057992D02*
X139921D01*
X139849Y057962D01*
X139794Y057907D01*
X139764Y057834D01*
Y057756D01*
X139794Y057684D01*
X139849Y057628D01*
X139921Y057598D01*
X14D01*
X140072Y057628D01*
X140128Y057684D01*
X140157Y057756D01*
Y057834D01*
X140128Y057907D01*
X140072Y057962D01*
X14Y057992D01*
D02*
G37*
G36*
X128464Y057933D02*
X128386D01*
X128314Y057903D01*
X128258Y057848D01*
X128228Y057775D01*
Y057715D01*
X128194Y057682D01*
X128182Y057677D01*
X12811D01*
X128038Y057647D01*
X127983Y057592D01*
X127953Y057519D01*
Y057441D01*
X127983Y057369D01*
X128038Y057313D01*
X12811Y057283D01*
X128189D01*
X128261Y057313D01*
X128316Y057369D01*
X128346Y057441D01*
Y057502D01*
X128381Y057534D01*
X128392Y057539D01*
X128464D01*
X128537Y057569D01*
X128592Y057625D01*
X128622Y057697D01*
Y057775D01*
X128592Y057848D01*
X128537Y057903D01*
X128464Y057933D01*
D02*
G37*
G36*
X126614Y057677D02*
X126536D01*
X126463Y057647D01*
X126408Y057592D01*
X126378Y057519D01*
Y057441D01*
X126408Y057369D01*
X126463Y057313D01*
X126536Y057283D01*
X126614D01*
X126686Y057313D01*
X126742Y057369D01*
X126772Y057441D01*
Y057519D01*
X126742Y057592D01*
X126686Y057647D01*
X126614Y057677D01*
D02*
G37*
G36*
X125Y05748D02*
X124921D01*
X124849Y05745D01*
X124794Y057395D01*
X124764Y057323D01*
Y057244D01*
X124794Y057172D01*
X124849Y057117D01*
X124921Y057087D01*
X125D01*
X125072Y057117D01*
X125128Y057172D01*
X125157Y057244D01*
Y057323D01*
X125128Y057395D01*
X125072Y05745D01*
X125Y05748D01*
D02*
G37*
G36*
X123149Y057441D02*
X123071D01*
X122999Y057411D01*
X122943Y057356D01*
X122913Y057283D01*
Y057205D01*
X122943Y057133D01*
X122999Y057077D01*
X123071Y057047D01*
X123149D01*
X123222Y057077D01*
X123277Y057133D01*
X123307Y057205D01*
Y057283D01*
X123277Y057356D01*
X123222Y057411D01*
X123149Y057441D01*
D02*
G37*
G36*
X12435Y05689D02*
X124272D01*
X1242Y05686D01*
X124144Y056804D01*
X124114Y056732D01*
Y056654D01*
X124144Y056581D01*
X1242Y056526D01*
X124272Y056496D01*
X12435D01*
X124423Y056526D01*
X124478Y056581D01*
X124508Y056654D01*
Y056732D01*
X124478Y056804D01*
X124423Y05686D01*
X12435Y05689D01*
D02*
G37*
G36*
X118362Y05698D02*
X118289D01*
X118219Y056961D01*
X118156Y056925D01*
X118105Y056874D01*
X118069Y056811D01*
X11805Y056741D01*
Y056668D01*
X118069Y056598D01*
X118105Y056535D01*
X118156Y056484D01*
X118219Y056448D01*
X118289Y056429D01*
X118362D01*
X118432Y056448D01*
X118495Y056484D01*
X118546Y056535D01*
X118582Y056598D01*
X118601Y056668D01*
Y056741D01*
X118582Y056811D01*
X118546Y056874D01*
X118495Y056925D01*
X118432Y056961D01*
X118362Y05698D01*
D02*
G37*
G36*
X131023Y056654D02*
X130945D01*
X130873Y056624D01*
X130817Y056568D01*
X130787Y056496D01*
Y056418D01*
X130817Y056345D01*
X130873Y05629D01*
X130945Y05626D01*
X131023D01*
X131096Y05629D01*
X131151Y056345D01*
X131181Y056418D01*
Y056496D01*
X131151Y056568D01*
X131096Y056624D01*
X131023Y056654D01*
D02*
G37*
G36*
X123096Y056413D02*
X123018D01*
X122945Y056383D01*
X12289Y056328D01*
X12286Y056255D01*
Y056177D01*
X12289Y056105D01*
X122945Y056049D01*
X123018Y056019D01*
X123096D01*
X123168Y056049D01*
X123224Y056105D01*
X123254Y056177D01*
Y056255D01*
X123224Y056328D01*
X123168Y056383D01*
X123096Y056413D01*
D02*
G37*
G36*
X125Y056299D02*
X124921D01*
X124849Y056269D01*
X124794Y056214D01*
X124764Y056142D01*
Y056063D01*
X124794Y055991D01*
X124849Y055935D01*
X124921Y055906D01*
X125D01*
X125072Y055935D01*
X125128Y055991D01*
X125157Y056063D01*
Y056142D01*
X125128Y056214D01*
X125072Y056269D01*
X125Y056299D01*
D02*
G37*
G36*
X12435D02*
X124272D01*
X1242Y056269D01*
X124144Y056214D01*
X124114Y056142D01*
Y056063D01*
X124144Y055991D01*
X1242Y055935D01*
X124272Y055906D01*
X12435D01*
X124423Y055935D01*
X124478Y055991D01*
X124508Y056063D01*
Y056142D01*
X124478Y056214D01*
X124423Y056269D01*
X12435Y056299D01*
D02*
G37*
G36*
X121742D02*
X121664D01*
X121591Y056269D01*
X121536Y056214D01*
X121506Y056142D01*
Y056063D01*
X121536Y055991D01*
X121591Y055935D01*
X121664Y055906D01*
X121742D01*
X121814Y055935D01*
X12187Y055991D01*
X1219Y056063D01*
Y056142D01*
X12187Y056214D01*
X121814Y056269D01*
X121742Y056299D01*
D02*
G37*
G36*
X131417Y055709D02*
X131339D01*
X131266Y055679D01*
X131211Y055623D01*
X131181Y055551D01*
Y055473D01*
X131211Y0554D01*
X131266Y055345D01*
X131339Y055315D01*
X131417D01*
X131489Y055345D01*
X131545Y0554D01*
X131575Y055473D01*
Y055551D01*
X131545Y055623D01*
X131489Y055679D01*
X131417Y055709D01*
D02*
G37*
G36*
X125D02*
X124921D01*
X124849Y055679D01*
X124794Y055623D01*
X124764Y055551D01*
Y055473D01*
X124794Y0554D01*
X124849Y055345D01*
X124921Y055315D01*
X125D01*
X125072Y055345D01*
X125128Y0554D01*
X125157Y055473D01*
Y055551D01*
X125128Y055623D01*
X125072Y055679D01*
X125Y055709D01*
D02*
G37*
G36*
X12435Y055709D02*
X124272D01*
X1242Y055679D01*
X124144Y055623D01*
X124114Y055551D01*
Y055473D01*
X124144Y0554D01*
X1242Y055345D01*
X124272Y055315D01*
X12435D01*
X124423Y055345D01*
X124478Y0554D01*
X124508Y055473D01*
Y055551D01*
X124478Y055623D01*
X124423Y055679D01*
X12435Y055709D01*
D02*
G37*
G36*
X128267Y055394D02*
X128189D01*
X128117Y055364D01*
X128061Y055308D01*
X128032Y055236D01*
Y055158D01*
X128061Y055085D01*
X128117Y05503D01*
X128189Y055D01*
X128267D01*
X128323Y055023D01*
X128362Y054987D01*
X128355Y054969D01*
Y054891D01*
X128385Y054819D01*
X12844Y054763D01*
X128512Y054733D01*
X128591D01*
X128663Y054763D01*
X128718Y054819D01*
X128748Y054891D01*
Y054969D01*
X128718Y055042D01*
X128663Y055097D01*
X128591Y055127D01*
X128512D01*
X128457Y055104D01*
X128418Y05514D01*
X128425Y055158D01*
Y055236D01*
X128395Y055308D01*
X12834Y055364D01*
X128267Y055394D01*
D02*
G37*
G36*
X125Y055118D02*
X124921D01*
X124849Y055088D01*
X124794Y055033D01*
X124764Y05496D01*
Y054882D01*
X124794Y05481D01*
X124849Y054754D01*
X124921Y054724D01*
X125D01*
X125072Y054754D01*
X125128Y05481D01*
X125157Y054882D01*
Y05496D01*
X125128Y055033D01*
X125072Y055088D01*
X125Y055118D01*
D02*
G37*
G36*
X132064Y054702D02*
X131986D01*
X131913Y054672D01*
X131858Y054617D01*
X131828Y054544D01*
Y054466D01*
X131858Y054394D01*
X131913Y054338D01*
X131986Y054308D01*
X132064D01*
X132136Y054338D01*
X132192Y054394D01*
X132222Y054466D01*
Y054544D01*
X132192Y054617D01*
X132136Y054672D01*
X132064Y054702D01*
D02*
G37*
G36*
X125Y054528D02*
X124921D01*
X124849Y054498D01*
X124794Y054442D01*
X124764Y05437D01*
Y054292D01*
X124794Y054219D01*
X124849Y054164D01*
X124921Y054134D01*
X125D01*
X125072Y054164D01*
X125128Y054219D01*
X125157Y054292D01*
Y05437D01*
X125128Y054442D01*
X125072Y054498D01*
X125Y054528D01*
D02*
G37*
G36*
X123307D02*
X123229D01*
X123156Y054498D01*
X123101Y054442D01*
X123071Y05437D01*
Y054292D01*
X123101Y054219D01*
X123156Y054164D01*
X123229Y054134D01*
X123307D01*
X123379Y054164D01*
X123435Y054219D01*
X123465Y054292D01*
Y05437D01*
X123435Y054442D01*
X123379Y054498D01*
X123307Y054528D01*
D02*
G37*
G36*
X12435Y054528D02*
X124272D01*
X1242Y054498D01*
X124144Y054442D01*
X124114Y05437D01*
Y054292D01*
X124144Y054219D01*
X1242Y054164D01*
X124272Y054134D01*
X12435D01*
X124423Y054164D01*
X124478Y054219D01*
X124508Y054292D01*
Y05437D01*
X124478Y054442D01*
X124423Y054498D01*
X12435Y054528D01*
D02*
G37*
G36*
X127047Y054291D02*
X126969D01*
X126896Y054261D01*
X126841Y054206D01*
X126811Y054134D01*
Y054105D01*
X126761Y054084D01*
X126745Y0541D01*
X126673Y05413D01*
X126595D01*
X126522Y0541D01*
X126467Y054045D01*
X126437Y053972D01*
Y053894D01*
X126467Y053822D01*
X126522Y053766D01*
X126595Y053736D01*
X126673D01*
X126745Y053766D01*
X126801Y053822D01*
X126831Y053894D01*
Y053923D01*
X126881Y053943D01*
X126896Y053928D01*
X126969Y053898D01*
X127047D01*
X127115Y053926D01*
X127136Y053919D01*
X127165Y053903D01*
Y053858D01*
X127195Y053786D01*
X127251Y053731D01*
X127279Y053719D01*
X127289Y05367D01*
X127274Y053655D01*
X127244Y053582D01*
Y053504D01*
X127274Y053432D01*
X127329Y053376D01*
X127402Y053346D01*
X12748D01*
X127552Y053376D01*
X127608Y053432D01*
X127638Y053504D01*
Y053582D01*
X127608Y053655D01*
X127552Y05371D01*
X127524Y053722D01*
X127514Y053771D01*
X127529Y053786D01*
X127559Y053858D01*
Y053937D01*
X127529Y054009D01*
X127474Y054065D01*
X127401Y054094D01*
X127323D01*
X127255Y054066D01*
X127234Y054074D01*
X127205Y054089D01*
Y054134D01*
X127175Y054206D01*
X127119Y054261D01*
X127047Y054291D01*
D02*
G37*
G36*
X125Y053937D02*
X124921D01*
X124849Y053907D01*
X124794Y053852D01*
X124764Y053779D01*
Y053701D01*
X124794Y053629D01*
X124849Y053573D01*
X124921Y053543D01*
X125D01*
X125072Y053573D01*
X125128Y053629D01*
X125157Y053701D01*
Y053779D01*
X125128Y053852D01*
X125072Y053907D01*
X125Y053937D01*
D02*
G37*
G36*
X12435Y053937D02*
X124272D01*
X1242Y053907D01*
X124144Y053852D01*
X124114Y053779D01*
Y053701D01*
X124144Y053629D01*
X1242Y053573D01*
X124272Y053543D01*
X12435D01*
X124423Y053573D01*
X124478Y053629D01*
X124508Y053701D01*
Y053779D01*
X124478Y053852D01*
X124423Y053907D01*
X12435Y053937D01*
D02*
G37*
G36*
X131811Y054213D02*
X131733D01*
X13166Y054183D01*
X131605Y054127D01*
X131575Y054055D01*
Y053977D01*
X131589Y053942D01*
X13158Y053925D01*
X131553Y053898D01*
X131486D01*
X131414Y053868D01*
X131359Y053812D01*
X131329Y05374D01*
Y053662D01*
X131359Y053589D01*
X131414Y053534D01*
X131486Y053504D01*
X131565D01*
X131637Y053534D01*
X131692Y053589D01*
X131722Y053662D01*
Y05374D01*
X131708Y053775D01*
X131717Y053792D01*
X131744Y053819D01*
X131811D01*
X131883Y053849D01*
X131939Y053904D01*
X131968Y053977D01*
Y054055D01*
X131939Y054127D01*
X131883Y054183D01*
X131811Y054213D01*
D02*
G37*
G36*
X123228Y053858D02*
X12315D01*
X123077Y053828D01*
X123022Y053773D01*
X122992Y053701D01*
Y053622D01*
X123022Y05355D01*
X123077Y053495D01*
X12315Y053465D01*
X123228D01*
X1233Y053495D01*
X123356Y05355D01*
X123386Y053622D01*
Y053701D01*
X123356Y053773D01*
X1233Y053828D01*
X123228Y053858D01*
D02*
G37*
G36*
X118362Y05377D02*
X118289D01*
X118219Y053751D01*
X118156Y053715D01*
X118105Y053664D01*
X118069Y053601D01*
X11805Y053531D01*
Y053458D01*
X118069Y053388D01*
X118105Y053325D01*
X118156Y053274D01*
X118219Y053238D01*
X118289Y053219D01*
X118362D01*
X118432Y053238D01*
X118495Y053274D01*
X118546Y053325D01*
X118582Y053388D01*
X118601Y053458D01*
Y053531D01*
X118582Y053601D01*
X118546Y053664D01*
X118495Y053715D01*
X118432Y053751D01*
X118362Y05377D01*
D02*
G37*
G36*
X124449Y05315D02*
X12437D01*
X124298Y05312D01*
X124243Y053064D01*
X124213Y052992D01*
Y052914D01*
X124243Y052841D01*
X124298Y052786D01*
X12437Y052756D01*
X124449D01*
X124521Y052786D01*
X124576Y052841D01*
X124606Y052914D01*
Y052992D01*
X124576Y053064D01*
X124521Y05312D01*
X124449Y05315D01*
D02*
G37*
G36*
X123674Y05315D02*
X12357D01*
X12347Y053123D01*
X12338Y053071D01*
X123307Y052998D01*
X123255Y052908D01*
X123228Y052808D01*
Y052704D01*
X123255Y052604D01*
X123307Y052514D01*
X12338Y052441D01*
X12347Y052389D01*
X12357Y052362D01*
X123674D01*
X123774Y052389D01*
X123864Y052441D01*
X123937Y052514D01*
X123989Y052604D01*
X124016Y052704D01*
Y052808D01*
X123989Y052908D01*
X123937Y052998D01*
X123864Y053071D01*
X123774Y053123D01*
X123674Y05315D01*
D02*
G37*
G36*
X124449Y052559D02*
X12437D01*
X124298Y052529D01*
X124243Y052474D01*
X124213Y052401D01*
Y052323D01*
X124243Y052251D01*
X124298Y052195D01*
X12437Y052165D01*
X124449D01*
X124521Y052195D01*
X124576Y052251D01*
X124606Y052323D01*
Y052401D01*
X124576Y052474D01*
X124521Y052529D01*
X124449Y052559D01*
D02*
G37*
G36*
X131286Y05296D02*
X131208D01*
X131136Y05293D01*
X13108Y052875D01*
X13105Y052803D01*
Y052724D01*
X13108Y052652D01*
X131136Y052597D01*
X131178Y052579D01*
X131182Y052556D01*
X131182Y052523D01*
X131132Y052474D01*
X131102Y052401D01*
Y052323D01*
X131132Y052251D01*
X131178Y052205D01*
X131132Y052159D01*
X131102Y052086D01*
Y052008D01*
X131132Y051936D01*
X131188Y05188D01*
X13126Y05185D01*
X131338D01*
X131411Y05188D01*
X131466Y051936D01*
X131496Y052008D01*
Y052086D01*
X131466Y052159D01*
X13142Y052205D01*
X131466Y052251D01*
X131496Y052323D01*
Y052401D01*
X131466Y052474D01*
X131411Y052529D01*
X131369Y052547D01*
X131364Y05257D01*
X131364Y052602D01*
X131414Y052652D01*
X131444Y052724D01*
Y052803D01*
X131414Y052875D01*
X131359Y05293D01*
X131286Y05296D01*
D02*
G37*
G36*
X131771Y05189D02*
X131693D01*
X131621Y05186D01*
X131565Y051804D01*
X131535Y051732D01*
Y051654D01*
X131565Y051581D01*
X131621Y051526D01*
X131693Y051496D01*
X131771D01*
X131844Y051526D01*
X131899Y051581D01*
X131929Y051654D01*
Y051732D01*
X131899Y051804D01*
X131844Y05186D01*
X131771Y05189D01*
D02*
G37*
G36*
X122244Y051732D02*
X122166D01*
X122093Y051702D01*
X122038Y051647D01*
X122008Y051575D01*
Y051496D01*
X122038Y051424D01*
X122093Y051369D01*
X122166Y051339D01*
X122244D01*
X122316Y051369D01*
X122372Y051424D01*
X122402Y051496D01*
Y051575D01*
X122372Y051647D01*
X122316Y051702D01*
X122244Y051732D01*
D02*
G37*
G36*
X128293Y051937D02*
X128215D01*
X128143Y051907D01*
X128087Y051852D01*
X128057Y05178D01*
Y051701D01*
X128062Y051691D01*
X128023Y051654D01*
X127953D01*
X127881Y051624D01*
X127825Y051568D01*
X127795Y051496D01*
Y051418D01*
X127825Y051345D01*
X127881Y05129D01*
X127953Y05126D01*
X128031D01*
X128104Y05129D01*
X128159Y051345D01*
X128189Y051418D01*
Y051496D01*
X128185Y051506D01*
X128223Y051544D01*
X128293D01*
X128366Y051574D01*
X128421Y051629D01*
X128451Y051701D01*
Y05178D01*
X128421Y051852D01*
X128366Y051907D01*
X128293Y051937D01*
D02*
G37*
G36*
X126456Y051063D02*
X126378D01*
X126306Y051033D01*
X12625Y050978D01*
X12622Y050905D01*
Y050827D01*
X12625Y050755D01*
X126306Y050699D01*
X126378Y050669D01*
X126456D01*
X126529Y050699D01*
X126584Y050755D01*
X126614Y050827D01*
Y050905D01*
X126584Y050978D01*
X126529Y051033D01*
X126456Y051063D01*
D02*
G37*
G36*
X131142Y05126D02*
X131063D01*
X130991Y05123D01*
X130935Y051175D01*
X130906Y051102D01*
Y051024D01*
X130935Y050951D01*
X130991Y050896D01*
X131007Y050843D01*
X130984Y050787D01*
Y050709D01*
X131014Y050637D01*
X13107Y050581D01*
X131142Y050551D01*
X13122D01*
X131293Y050581D01*
X131348Y050637D01*
X131378Y050709D01*
Y050787D01*
X131348Y05086D01*
X131293Y050915D01*
X131276Y050968D01*
X131299Y051024D01*
Y051102D01*
X131269Y051175D01*
X131214Y05123D01*
X131142Y05126D01*
D02*
G37*
G36*
X121732Y050906D02*
X121654D01*
X121581Y050876D01*
X121526Y05082D01*
X121496Y050748D01*
Y050669D01*
X121526Y050597D01*
X121581Y050542D01*
X121654Y050512D01*
X121732D01*
X121804Y050542D01*
X12186Y050597D01*
X12189Y050669D01*
Y050748D01*
X12186Y05082D01*
X121804Y050876D01*
X121732Y050906D01*
D02*
G37*
G36*
X120024Y051197D02*
X119921D01*
X11982Y05117D01*
X119731Y051118D01*
X119657Y051045D01*
X119606Y050955D01*
X119579Y050855D01*
Y050751D01*
X119606Y050651D01*
X119657Y050561D01*
X119731Y050488D01*
X11982Y050436D01*
X119921Y050409D01*
X120024D01*
X120124Y050436D01*
X120214Y050488D01*
X120287Y050561D01*
X120339Y050651D01*
X120366Y050751D01*
Y050855D01*
X120339Y050955D01*
X120287Y051045D01*
X120214Y051118D01*
X120124Y05117D01*
X120024Y051197D01*
D02*
G37*
G36*
X129173Y050787D02*
X129095D01*
X129022Y050757D01*
X128967Y050702D01*
X128937Y05063D01*
Y050551D01*
X128967Y050479D01*
X129022Y050424D01*
X129095Y050394D01*
X129173D01*
X129245Y050424D01*
X129301Y050479D01*
X129331Y050551D01*
Y05063D01*
X129301Y050702D01*
X129245Y050757D01*
X129173Y050787D01*
D02*
G37*
G36*
X122825Y050786D02*
X122746D01*
X122674Y050756D01*
X122619Y050701D01*
X122589Y050629D01*
Y05055D01*
X122619Y050478D01*
X122674Y050423D01*
X122746Y050393D01*
X122825D01*
X122897Y050423D01*
X122952Y050478D01*
X122982Y05055D01*
Y050629D01*
X122952Y050701D01*
X122897Y050756D01*
X122825Y050786D01*
D02*
G37*
G36*
X128661Y050748D02*
X128583D01*
X128511Y050718D01*
X128455Y050663D01*
X128425Y05059D01*
Y050512D01*
X128455Y05044D01*
X128511Y050384D01*
X128583Y050354D01*
X128661D01*
X128734Y050384D01*
X128789Y05044D01*
X128819Y050512D01*
Y05059D01*
X128789Y050663D01*
X128734Y050718D01*
X128661Y050748D01*
D02*
G37*
G36*
X121732Y050315D02*
X121654D01*
X121581Y050285D01*
X121526Y05023D01*
X121496Y050157D01*
Y050079D01*
X121526Y050007D01*
X121581Y049951D01*
X121654Y049921D01*
X121732D01*
X121804Y049951D01*
X12186Y050007D01*
X12189Y050079D01*
Y050157D01*
X12186Y05023D01*
X121804Y050285D01*
X121732Y050315D01*
D02*
G37*
G36*
X122824Y050197D02*
X122745D01*
X122673Y050167D01*
X122617Y050111D01*
X122588Y050039D01*
Y049961D01*
X122617Y049888D01*
X122673Y049833D01*
X122745Y049803D01*
X122824D01*
X122896Y049833D01*
X122951Y049888D01*
X122981Y049961D01*
Y050039D01*
X122951Y050111D01*
X122896Y050167D01*
X122824Y050197D01*
D02*
G37*
G36*
X126201Y050167D02*
X126122D01*
X12605Y050137D01*
X125995Y050082D01*
X125965Y05001D01*
Y049931D01*
X125995Y049859D01*
X12605Y049804D01*
X126122Y049774D01*
X126201D01*
X126273Y049804D01*
X126328Y049859D01*
X126358Y049931D01*
Y05001D01*
X126328Y050082D01*
X126273Y050137D01*
X126201Y050167D01*
D02*
G37*
G36*
X128976Y050079D02*
X128898D01*
X128826Y050049D01*
X12877Y049993D01*
X12874Y049921D01*
Y049843D01*
X12877Y04977D01*
X128826Y049715D01*
X128898Y049685D01*
X128976D01*
X129049Y049715D01*
X129104Y04977D01*
X129134Y049843D01*
Y049921D01*
X129104Y049993D01*
X129049Y050049D01*
X128976Y050079D01*
D02*
G37*
G36*
X127126D02*
X127047D01*
X126975Y050049D01*
X12692Y049993D01*
X12689Y049921D01*
Y049843D01*
X12692Y04977D01*
X126975Y049715D01*
X127047Y049685D01*
X127126D01*
X127198Y049715D01*
X127254Y04977D01*
X127283Y049843D01*
Y049921D01*
X127254Y049993D01*
X127198Y050049D01*
X127126Y050079D01*
D02*
G37*
G36*
X121024Y050197D02*
X120921D01*
X12082Y05017D01*
X120731Y050118D01*
X120657Y050045D01*
X120606Y049955D01*
X120579Y049855D01*
Y049751D01*
X120606Y049651D01*
X120657Y049561D01*
X120731Y049488D01*
X12082Y049436D01*
X120921Y049409D01*
X121024D01*
X121124Y049436D01*
X121214Y049488D01*
X121287Y049561D01*
X121339Y049651D01*
X121366Y049751D01*
Y049855D01*
X121339Y049955D01*
X121287Y050045D01*
X121214Y050118D01*
X121124Y05017D01*
X121024Y050197D01*
D02*
G37*
G36*
X120024D02*
X119921D01*
X11982Y05017D01*
X119731Y050118D01*
X119657Y050045D01*
X119606Y049955D01*
X119579Y049855D01*
Y049751D01*
X119606Y049651D01*
X119657Y049561D01*
X119731Y049488D01*
X11982Y049436D01*
X119921Y049409D01*
X120024D01*
X120124Y049436D01*
X120214Y049488D01*
X120287Y049561D01*
X120339Y049651D01*
X120366Y049751D01*
Y049855D01*
X120339Y049955D01*
X120287Y050045D01*
X120214Y050118D01*
X120124Y05017D01*
X120024Y050197D01*
D02*
G37*
G36*
X121732Y049724D02*
X121654D01*
X121581Y049694D01*
X121526Y049639D01*
X121496Y049567D01*
Y049488D01*
X121526Y049416D01*
X121581Y049361D01*
X121654Y049331D01*
X121732D01*
X121804Y049361D01*
X12186Y049416D01*
X12189Y049488D01*
Y049567D01*
X12186Y049639D01*
X121804Y049694D01*
X121732Y049724D01*
D02*
G37*
G36*
X122824Y049606D02*
X122745D01*
X122673Y049576D01*
X122617Y049521D01*
X122588Y049449D01*
Y04937D01*
X122617Y049298D01*
X122673Y049243D01*
X122745Y049213D01*
X122824D01*
X122896Y049243D01*
X122951Y049298D01*
X122981Y04937D01*
Y049449D01*
X122951Y049521D01*
X122896Y049576D01*
X122824Y049606D01*
D02*
G37*
G36*
X121693Y049134D02*
X121614D01*
X121542Y049104D01*
X121487Y049049D01*
X121457Y048976D01*
Y048898D01*
X121487Y048825D01*
X121542Y04877D01*
X121614Y04874D01*
X121693D01*
X121765Y04877D01*
X12182Y048825D01*
X12185Y048898D01*
Y048976D01*
X12182Y049049D01*
X121765Y049104D01*
X121693Y049134D01*
D02*
G37*
G36*
X122824Y049016D02*
X122745D01*
X122673Y048986D01*
X122617Y04893D01*
X122588Y048858D01*
Y04878D01*
X122617Y048707D01*
X122673Y048652D01*
X122745Y048622D01*
X122824D01*
X122896Y048652D01*
X122951Y048707D01*
X122981Y04878D01*
Y048858D01*
X122951Y04893D01*
X122896Y048986D01*
X122824Y049016D01*
D02*
G37*
G36*
X123543Y048858D02*
X123465D01*
X123392Y048828D01*
X123337Y048773D01*
X123307Y048701D01*
Y048622D01*
X123337Y04855D01*
X123392Y048495D01*
X123465Y048465D01*
X123543D01*
X123615Y048495D01*
X123671Y04855D01*
X123701Y048622D01*
Y048701D01*
X123671Y048773D01*
X123615Y048828D01*
X123543Y048858D01*
D02*
G37*
G36*
X121024Y049197D02*
X120921D01*
X12082Y04917D01*
X120731Y049118D01*
X120657Y049045D01*
X120606Y048955D01*
X120579Y048855D01*
Y048751D01*
X120606Y048651D01*
X120657Y048561D01*
X120731Y048488D01*
X12082Y048436D01*
X120921Y048409D01*
X121024D01*
X121124Y048436D01*
X121214Y048488D01*
X121287Y048561D01*
X121339Y048651D01*
X121366Y048751D01*
Y048855D01*
X121339Y048955D01*
X121287Y049045D01*
X121214Y049118D01*
X121124Y04917D01*
X121024Y049197D01*
D02*
G37*
G36*
X120024D02*
X119921D01*
X11982Y04917D01*
X119731Y049118D01*
X119657Y049045D01*
X119606Y048955D01*
X119579Y048855D01*
Y048751D01*
X119606Y048651D01*
X119657Y048561D01*
X119731Y048488D01*
X11982Y048436D01*
X119921Y048409D01*
X120024D01*
X120124Y048436D01*
X120214Y048488D01*
X120287Y048561D01*
X120339Y048651D01*
X120366Y048751D01*
Y048855D01*
X120339Y048955D01*
X120287Y049045D01*
X120214Y049118D01*
X120124Y04917D01*
X120024Y049197D01*
D02*
G37*
%LPD*%
G36*
X120093Y051095D02*
X120165Y051054D01*
X120223Y050996D01*
X120265Y050924D01*
X120286Y050844D01*
Y050762D01*
X120265Y050682D01*
X120223Y050611D01*
X120165Y050552D01*
X120093Y050511D01*
X120014Y05049D01*
X119931D01*
X119851Y050511D01*
X11978Y050552D01*
X119722Y050611D01*
X11968Y050682D01*
X119659Y050762D01*
Y050844D01*
X11968Y050924D01*
X119722Y050996D01*
X11978Y051054D01*
X119851Y051095D01*
X119931Y051117D01*
X120014D01*
X120093Y051095D01*
D02*
G37*
%LPC*%
G36*
X134055Y063622D02*
X133977D01*
X133904Y063592D01*
X133849Y063537D01*
X133819Y063464D01*
Y063386D01*
X133849Y063314D01*
X133904Y063258D01*
X133977Y063228D01*
X134055D01*
X134127Y063258D01*
X134183Y063314D01*
X134213Y063386D01*
Y063464D01*
X134183Y063537D01*
X134127Y063592D01*
X134055Y063622D01*
D02*
G37*
G36*
X130354Y062205D02*
X130276D01*
X130203Y062175D01*
X130148Y062119D01*
X130118Y062047D01*
Y061969D01*
X130148Y061896D01*
X130203Y061841D01*
X130276Y061811D01*
X130354D01*
X130426Y061841D01*
X130482Y061896D01*
X130512Y061969D01*
Y062047D01*
X130482Y062119D01*
X130426Y062175D01*
X130354Y062205D01*
D02*
G37*
G36*
X129803Y061535D02*
X129725D01*
X129652Y061505D01*
X129597Y06145D01*
X129567Y061378D01*
Y061338D01*
X129495Y061309D01*
X129439Y061253D01*
X129409Y061181D01*
Y061103D01*
X129439Y06103D01*
X129495Y060975D01*
X129567Y060945D01*
X129645D01*
X129718Y060975D01*
X129773Y06103D01*
X129803Y061103D01*
Y061142D01*
X129875Y061172D01*
X129931Y061227D01*
X129961Y061299D01*
Y061378D01*
X129931Y06145D01*
X129875Y061505D01*
X129803Y061535D01*
D02*
G37*
G36*
X128386Y061299D02*
X128307D01*
X128235Y061269D01*
X12818Y061214D01*
X12815Y061142D01*
Y061063D01*
X12818Y060991D01*
X128235Y060935D01*
X128307Y060906D01*
X128386D01*
X128458Y060935D01*
X128513Y060991D01*
X128543Y061063D01*
Y061142D01*
X128513Y061214D01*
X128458Y061269D01*
X128386Y061299D01*
D02*
G37*
G36*
X131338Y06061D02*
X13126D01*
X131188Y06058D01*
X131132Y060525D01*
X131102Y060453D01*
Y060374D01*
X131132Y060302D01*
X131188Y060247D01*
X13126Y060217D01*
X131338D01*
X131411Y060247D01*
X131466Y060302D01*
X131496Y060374D01*
Y060453D01*
X131466Y060525D01*
X131411Y06058D01*
X131338Y06061D01*
D02*
G37*
G36*
X128622Y059921D02*
X128544D01*
X128471Y059891D01*
X128416Y059836D01*
X128386Y059764D01*
Y059685D01*
X128416Y059613D01*
X128471Y059558D01*
X128544Y059528D01*
X128622D01*
X128694Y059558D01*
X12875Y059613D01*
X12878Y059685D01*
Y059764D01*
X12875Y059836D01*
X128694Y059891D01*
X128622Y059921D01*
D02*
G37*
G36*
X127323Y059528D02*
X127244D01*
X127172Y059498D01*
X127117Y059442D01*
X127087Y05937D01*
Y059292D01*
X127117Y059219D01*
X127172Y059164D01*
X127244Y059134D01*
X127323D01*
X127395Y059164D01*
X127402Y05917D01*
X127448Y059124D01*
X12752Y059094D01*
X127598D01*
X127671Y059124D01*
X127726Y05918D01*
X127756Y059252D01*
Y05933D01*
X127726Y059403D01*
X127671Y059458D01*
X127598Y059488D01*
X12752D01*
X127448Y059458D01*
X127441Y059452D01*
X127395Y059498D01*
X127323Y059528D01*
D02*
G37*
G36*
X132323Y059252D02*
X132244D01*
X132172Y059222D01*
X132117Y059167D01*
X132087Y059094D01*
Y059016D01*
X132117Y058944D01*
X132172Y058888D01*
X132244Y058858D01*
X132323D01*
X132395Y058888D01*
X13245Y058944D01*
X13248Y059016D01*
Y059094D01*
X13245Y059167D01*
X132395Y059222D01*
X132323Y059252D01*
D02*
G37*
G36*
X130472D02*
X130394D01*
X130322Y059222D01*
X130266Y059167D01*
X130236Y059094D01*
Y059016D01*
X130266Y058944D01*
X130322Y058888D01*
X130394Y058858D01*
X130472D01*
X130545Y058888D01*
X1306Y058944D01*
X13063Y059016D01*
Y059094D01*
X1306Y059167D01*
X130545Y059222D01*
X130472Y059252D01*
D02*
G37*
G36*
X128504Y058938D02*
X128426D01*
X128354Y058908D01*
X128298Y058853D01*
X128268Y05878D01*
Y058702D01*
X128298Y05863D01*
X128354Y058574D01*
X128426Y058544D01*
X128504D01*
X128577Y058574D01*
X128632Y05863D01*
X128662Y058702D01*
Y05878D01*
X128632Y058853D01*
X128577Y058908D01*
X128504Y058938D01*
D02*
G37*
G36*
X132532Y057874D02*
X132428D01*
X132328Y057847D01*
X132239Y057795D01*
X132165Y057722D01*
X132113Y057632D01*
X132087Y057532D01*
Y057428D01*
X132113Y057328D01*
X132165Y057239D01*
X132239Y057165D01*
X132328Y057113D01*
X132428Y057087D01*
X132532D01*
X132632Y057113D01*
X132722Y057165D01*
X132795Y057239D01*
X132847Y057328D01*
X132874Y057428D01*
Y057532D01*
X132847Y057632D01*
X132795Y057722D01*
X132722Y057795D01*
X132632Y057847D01*
X132532Y057874D01*
D02*
G37*
G36*
X135275Y057087D02*
X135197D01*
X135125Y057057D01*
X135069Y057001D01*
X135039Y056929D01*
Y056851D01*
X135069Y056778D01*
X135125Y056723D01*
X135197Y056693D01*
X135275D01*
X135348Y056723D01*
X135403Y056778D01*
X135433Y056851D01*
Y056929D01*
X135403Y057001D01*
X135348Y057057D01*
X135275Y057087D01*
D02*
G37*
G36*
X138897Y056811D02*
X138819D01*
X138747Y056781D01*
X138691Y056726D01*
X138661Y056653D01*
Y056575D01*
X138691Y056503D01*
X138747Y056447D01*
X138819Y056417D01*
X138897D01*
X13897Y056447D01*
X139025Y056503D01*
X139055Y056575D01*
Y056653D01*
X139025Y056726D01*
X13897Y056781D01*
X138897Y056811D01*
D02*
G37*
G36*
X138228Y056024D02*
X13815D01*
X138077Y055994D01*
X138022Y055938D01*
X137986Y055954D01*
X137986Y055954D01*
X137913Y055984D01*
X137835D01*
X137763Y055954D01*
X137707Y055899D01*
X137677Y055827D01*
Y055748D01*
X137707Y055676D01*
X137763Y055621D01*
X137835Y055591D01*
X137913D01*
X137986Y055621D01*
X138041Y055676D01*
X138077Y05566D01*
X138077Y05566D01*
X13815Y05563D01*
X138228D01*
X1383Y05566D01*
X138356Y055715D01*
X138386Y055788D01*
Y055866D01*
X138356Y055938D01*
X1383Y055994D01*
X138228Y056024D01*
D02*
G37*
G36*
X134291Y055984D02*
X134213D01*
X13414Y055954D01*
X134085Y055899D01*
X134055Y055827D01*
Y055748D01*
X134085Y055676D01*
X13414Y055621D01*
X134213Y055591D01*
X134291D01*
X134363Y055621D01*
X134419Y055676D01*
X134449Y055748D01*
Y055827D01*
X134419Y055899D01*
X134363Y055954D01*
X134291Y055984D01*
D02*
G37*
G36*
X138897Y05563D02*
X138819D01*
X138747Y0556D01*
X138691Y055545D01*
X138661Y055472D01*
Y055394D01*
X138691Y055322D01*
X138747Y055266D01*
X138819Y055236D01*
X138897D01*
X13897Y055266D01*
X139025Y055322D01*
X139055Y055394D01*
Y055472D01*
X139025Y055545D01*
X13897Y0556D01*
X138897Y05563D01*
D02*
G37*
G36*
X135866Y055079D02*
X135788D01*
X135715Y055049D01*
X13566Y054993D01*
X13563Y054921D01*
Y054843D01*
X13566Y05477D01*
X135715Y054715D01*
X135788Y054685D01*
X135866D01*
X135938Y054715D01*
X135994Y05477D01*
X136024Y054843D01*
Y054921D01*
X135994Y054993D01*
X135938Y055049D01*
X135866Y055079D01*
D02*
G37*
G36*
X132874Y054921D02*
X132795D01*
X132723Y054891D01*
X132668Y054836D01*
X132638Y054764D01*
Y054685D01*
X132668Y054613D01*
X132723Y054558D01*
X132795Y054528D01*
X132874D01*
X132946Y054558D01*
X133002Y054613D01*
X133032Y054685D01*
Y054764D01*
X133002Y054836D01*
X132946Y054891D01*
X132874Y054921D01*
D02*
G37*
G36*
X135Y054843D02*
X134921D01*
X134849Y054813D01*
X134794Y054757D01*
X134764Y054685D01*
Y054607D01*
X134794Y054534D01*
X134849Y054479D01*
X134921Y054449D01*
X135D01*
X135072Y054479D01*
X135128Y054534D01*
X135157Y054607D01*
Y054685D01*
X135128Y054757D01*
X135072Y054813D01*
X135Y054843D01*
D02*
G37*
G36*
X137874Y054606D02*
X137795D01*
X137723Y054576D01*
X137668Y054521D01*
X137638Y054449D01*
Y05437D01*
X137668Y054298D01*
X137723Y054243D01*
X137795Y054213D01*
X137874D01*
X137946Y054243D01*
X138002Y054298D01*
X138032Y05437D01*
Y054449D01*
X138002Y054521D01*
X137946Y054576D01*
X137874Y054606D01*
D02*
G37*
G36*
X1408Y054724D02*
X140696D01*
X140596Y054698D01*
X140506Y054646D01*
X140433Y054572D01*
X140381Y054483D01*
X140354Y054383D01*
Y054279D01*
X140381Y054179D01*
X140433Y054089D01*
X140506Y054016D01*
X140596Y053964D01*
X140696Y053937D01*
X1408D01*
X1409Y053964D01*
X14099Y054016D01*
X141063Y054089D01*
X141115Y054179D01*
X141142Y054279D01*
Y054383D01*
X141115Y054483D01*
X141063Y054572D01*
X14099Y054646D01*
X1409Y054698D01*
X1408Y054724D01*
D02*
G37*
G36*
X136666D02*
X136562D01*
X136462Y054698D01*
X136372Y054646D01*
X136299Y054572D01*
X136247Y054483D01*
X13622Y054383D01*
Y054279D01*
X136247Y054179D01*
X136299Y054089D01*
X136372Y054016D01*
X136462Y053964D01*
X136562Y053937D01*
X136666D01*
X136766Y053964D01*
X136856Y054016D01*
X136929Y054089D01*
X136981Y054179D01*
X137008Y054279D01*
Y054383D01*
X136981Y054483D01*
X136929Y054572D01*
X136856Y054646D01*
X136766Y054698D01*
X136666Y054724D01*
D02*
G37*
G36*
X141456Y053937D02*
X141378D01*
X141306Y053907D01*
X14125Y053852D01*
X14122Y053779D01*
Y053701D01*
X14125Y053629D01*
X141306Y053573D01*
X141378Y053543D01*
X141456D01*
X141529Y053573D01*
X141584Y053629D01*
X141614Y053701D01*
Y053779D01*
X141584Y053852D01*
X141529Y053907D01*
X141456Y053937D01*
D02*
G37*
G36*
X134449Y05374D02*
X13437D01*
X134298Y05371D01*
X134243Y053655D01*
X134213Y053582D01*
Y053504D01*
X134243Y053432D01*
X134298Y053376D01*
X13437Y053346D01*
X134449D01*
X134521Y053376D01*
X134576Y053432D01*
X134606Y053504D01*
Y053582D01*
X134576Y053655D01*
X134521Y05371D01*
X134449Y05374D01*
D02*
G37*
G36*
X139527Y05336D02*
X139449D01*
X139377Y05333D01*
X139321Y053275D01*
X139307Y053239D01*
X139288Y053204D01*
X139246Y053214D01*
X139212Y053228D01*
X139134D01*
X139062Y053198D01*
X139006Y053143D01*
X138976Y053071D01*
Y052992D01*
X139006Y05292D01*
X139062Y052865D01*
X139134Y052835D01*
X139212D01*
X139285Y052865D01*
X13934Y05292D01*
X139355Y052956D01*
X139374Y052991D01*
X139415Y052981D01*
X139449Y052967D01*
X139527D01*
X1396Y052997D01*
X139655Y053052D01*
X139685Y053124D01*
Y053203D01*
X139655Y053275D01*
X1396Y05333D01*
X139527Y05336D01*
D02*
G37*
G36*
X13811Y053268D02*
X138032D01*
X137959Y053238D01*
X137904Y053182D01*
X137874Y05311D01*
Y053032D01*
X137904Y052959D01*
X137959Y052904D01*
X138032Y052874D01*
X13811D01*
X138182Y052904D01*
X138238Y052959D01*
X138268Y053032D01*
Y05311D01*
X138238Y053182D01*
X138182Y053238D01*
X13811Y053268D01*
D02*
G37*
G36*
X140354Y053465D02*
X140276D01*
X140203Y053435D01*
X140148Y053379D01*
X140118Y053307D01*
Y053229D01*
X140148Y053156D01*
X140203Y053101D01*
X14025Y053081D01*
X14024Y053032D01*
X140236D01*
X140164Y053002D01*
X140109Y052946D01*
X140079Y052874D01*
Y052795D01*
X140109Y052723D01*
X140164Y052668D01*
X140236Y052638D01*
X140315D01*
X140387Y052668D01*
X140442Y052723D01*
X140472Y052795D01*
Y052874D01*
X140442Y052946D01*
X140387Y053002D01*
X14034Y053021D01*
X14035Y053071D01*
X140354D01*
X140426Y053101D01*
X140482Y053156D01*
X140512Y053229D01*
Y053307D01*
X140482Y053379D01*
X140426Y053435D01*
X140354Y053465D01*
D02*
G37*
G36*
X135Y053032D02*
X134921D01*
X134849Y053002D01*
X134794Y052946D01*
X134764Y052874D01*
Y052795D01*
X134794Y052723D01*
X134849Y052668D01*
X134921Y052638D01*
X135D01*
X135072Y052668D01*
X135128Y052723D01*
X135157Y052795D01*
Y052874D01*
X135128Y052946D01*
X135072Y053002D01*
X135Y053032D01*
D02*
G37*
G36*
X136272Y052756D02*
X136169D01*
X136069Y052729D01*
X135979Y052677D01*
X135905Y052604D01*
X135854Y052514D01*
X135827Y052414D01*
Y05231D01*
X135854Y05221D01*
X135905Y05212D01*
X135979Y052047D01*
X136069Y051995D01*
X136169Y051968D01*
X136272D01*
X136372Y051995D01*
X136462Y052047D01*
X136536Y05212D01*
X136587Y05221D01*
X136614Y05231D01*
Y052414D01*
X136587Y052514D01*
X136536Y052604D01*
X136462Y052677D01*
X136372Y052729D01*
X136272Y052756D01*
D02*
G37*
G36*
X136929Y051417D02*
X136851D01*
X136778Y051387D01*
X136723Y051332D01*
X136693Y05126D01*
Y051181D01*
X136723Y051109D01*
X136778Y051054D01*
X136851Y051024D01*
X136929D01*
X137001Y051054D01*
X137057Y051109D01*
X137087Y051181D01*
Y05126D01*
X137057Y051332D01*
X137001Y051387D01*
X136929Y051417D01*
D02*
G37*
G36*
X136272Y051575D02*
X136169D01*
X136069Y051548D01*
X135979Y051496D01*
X135905Y051423D01*
X135854Y051333D01*
X135827Y051233D01*
Y051129D01*
X135854Y051029D01*
X135905Y050939D01*
X135979Y050866D01*
X136069Y050814D01*
X136169Y050787D01*
X136272D01*
X136372Y050814D01*
X136462Y050866D01*
X136536Y050939D01*
X136587Y051029D01*
X136614Y051129D01*
Y051233D01*
X136587Y051333D01*
X136536Y051423D01*
X136462Y051496D01*
X136372Y051548D01*
X136272Y051575D01*
D02*
G37*
G36*
X137992Y051063D02*
X137914D01*
X137841Y051033D01*
X137786Y050978D01*
X137756Y050905D01*
Y050827D01*
X137786Y050755D01*
X137841Y050699D01*
X137914Y050669D01*
X137992D01*
X138064Y050699D01*
X13812Y050755D01*
X13815Y050827D01*
Y050905D01*
X13812Y050978D01*
X138064Y051033D01*
X137992Y051063D01*
D02*
G37*
G36*
X140669Y050787D02*
X140591D01*
X140518Y050757D01*
X140463Y050702D01*
X140433Y05063D01*
Y050551D01*
X140463Y050479D01*
X140518Y050424D01*
X140591Y050394D01*
X140669D01*
X140741Y050424D01*
X140797Y050479D01*
X140827Y050551D01*
Y05063D01*
X140797Y050702D01*
X140741Y050757D01*
X140669Y050787D01*
D02*
G37*
G36*
X137273Y050561D02*
X137195D01*
X137123Y050531D01*
X137067Y050476D01*
X137037Y050403D01*
Y050325D01*
X137067Y050253D01*
X137123Y050197D01*
X137195Y050167D01*
X137273D01*
X137346Y050197D01*
X137401Y050253D01*
X137431Y050325D01*
Y050403D01*
X137401Y050476D01*
X137346Y050531D01*
X137273Y050561D01*
D02*
G37*
G36*
X136575Y050512D02*
X136496D01*
X136424Y050482D01*
X136369Y050426D01*
X136339Y050354D01*
Y050276D01*
X136369Y050203D01*
X136424Y050148D01*
X136496Y050118D01*
X136575D01*
X136647Y050148D01*
X136702Y050203D01*
X136732Y050276D01*
Y050354D01*
X136702Y050426D01*
X136647Y050482D01*
X136575Y050512D01*
D02*
G37*
G36*
X134094Y05D02*
X134016D01*
X133944Y04997D01*
X133888Y049915D01*
X133858Y049842D01*
Y049764D01*
X133888Y049692D01*
X133944Y049636D01*
X134016Y049606D01*
X134094D01*
X134167Y049636D01*
X134222Y049692D01*
X134252Y049764D01*
Y049842D01*
X134222Y049915D01*
X134167Y04997D01*
X134094Y05D01*
D02*
G37*
G36*
X141338Y049724D02*
X14126D01*
X141188Y049694D01*
X141132Y049639D01*
X141102Y049567D01*
Y049488D01*
X141132Y049416D01*
X141188Y049361D01*
X14126Y049331D01*
X141338D01*
X141411Y049361D01*
X141466Y049416D01*
X141496Y049488D01*
Y049567D01*
X141466Y049639D01*
X141411Y049694D01*
X141338Y049724D01*
D02*
G37*
G36*
X135879Y049803D02*
X135775D01*
X135675Y049776D01*
X135585Y049724D01*
X135512Y049651D01*
X13546Y049561D01*
X135433Y049461D01*
Y049358D01*
X13546Y049257D01*
X135512Y049168D01*
X135585Y049094D01*
X135675Y049043D01*
X135775Y049016D01*
X135879D01*
X135979Y049043D01*
X136069Y049094D01*
X136142Y049168D01*
X136194Y049257D01*
X13622Y049358D01*
Y049461D01*
X136194Y049561D01*
X136142Y049651D01*
X136069Y049724D01*
X135979Y049776D01*
X135879Y049803D01*
D02*
G37*
G36*
X133897Y049291D02*
X133819D01*
X133747Y049261D01*
X133691Y049206D01*
X133661Y049134D01*
Y049055D01*
X133691Y048983D01*
X133747Y048928D01*
X133819Y048898D01*
X133897D01*
X13397Y048928D01*
X134025Y048983D01*
X134055Y049055D01*
Y049134D01*
X134025Y049206D01*
X13397Y049261D01*
X133897Y049291D01*
D02*
G37*
%LPD*%
D126*
X143898Y054134D02*
D03*
X143898Y052559D02*
D03*
Y050787D02*
D03*
Y049213D02*
D03*
X13248Y05748D02*
D03*
X141142Y048622D02*
D03*
X140748Y063976D02*
D03*
X134843D02*
D03*
X141535Y057677D02*
D03*
X142126Y050591D02*
D03*
X140748Y054331D02*
D03*
X142126D02*
D03*
X136614D02*
D03*
X13622Y052362D02*
D03*
Y051181D02*
D03*
X135827Y049409D02*
D03*
X123622Y052756D02*
D03*
X126181Y068701D02*
D03*
X125D02*
D03*
X143898Y055512D02*
D03*
X128346Y065748D02*
D03*
X137597Y069286D02*
D03*
X13622Y069291D02*
D03*
X130906Y048819D02*
D03*
X120972Y049803D02*
D03*
X120972Y048803D02*
D03*
X119972D02*
D03*
X119972Y049803D02*
D03*
X119972Y050803D02*
D03*
D127*
X117717Y050098D02*
D03*
X142323Y067421D02*
D03*
X139173Y068406D02*
D03*
D128*
X117717Y049114D02*
D03*
X142323Y068406D02*
D03*
X139173Y067421D02*
D03*
D129*
X120972Y050803D02*
D03*
D130*
X121163Y063306D02*
D03*
Y064029D02*
D03*
X121525Y062945D02*
D03*
Y063667D02*
D03*
X121525Y06439D02*
D03*
X121886Y063306D02*
D03*
Y064029D02*
D03*
X122247Y062945D02*
D03*
X122247Y063667D02*
D03*
X122247Y06439D02*
D03*
X122608Y063306D02*
D03*
Y064029D02*
D03*
X141929Y049803D02*
D03*
X133669Y051674D02*
D03*
Y051082D02*
D03*
X13326D02*
D03*
Y051674D02*
D03*
X13378Y058819D02*
D03*
X133661Y058268D02*
D03*
X133268Y059055D02*
D03*
X117913Y060039D02*
D03*
Y061614D02*
D03*
X144685Y070276D02*
D03*
X14626D02*
D03*
X145472D02*
D03*
X117126D02*
D03*
X117913D02*
D03*
X119488D02*
D03*
X118701D02*
D03*
X121063D02*
D03*
X12185D02*
D03*
X120276D02*
D03*
X125D02*
D03*
X126575D02*
D03*
X125787D02*
D03*
X123425D02*
D03*
X124213D02*
D03*
X122638D02*
D03*
X129724D02*
D03*
X131299D02*
D03*
X130512D02*
D03*
X12815D02*
D03*
X128937D02*
D03*
X127362D02*
D03*
X134449D02*
D03*
X136024D02*
D03*
X135236D02*
D03*
X132874D02*
D03*
X133661D02*
D03*
X132087D02*
D03*
X139173D02*
D03*
X140748D02*
D03*
X139961D02*
D03*
X137598D02*
D03*
X138386D02*
D03*
X136811D02*
D03*
X143898D02*
D03*
X142323D02*
D03*
X14311D02*
D03*
X141535D02*
D03*
Y047638D02*
D03*
X14311D02*
D03*
X142323D02*
D03*
X143898D02*
D03*
X136811D02*
D03*
X138386D02*
D03*
X137598D02*
D03*
X139961D02*
D03*
X140748D02*
D03*
X139173D02*
D03*
X132087D02*
D03*
X133661D02*
D03*
X132874D02*
D03*
X135236D02*
D03*
X136024D02*
D03*
X134449D02*
D03*
X127362D02*
D03*
X128937D02*
D03*
X12815D02*
D03*
X130512D02*
D03*
X131299D02*
D03*
X129724D02*
D03*
X122638D02*
D03*
X124213D02*
D03*
X123425D02*
D03*
X125787D02*
D03*
X126575D02*
D03*
X125D02*
D03*
X120276D02*
D03*
X12185D02*
D03*
X121063D02*
D03*
X118701D02*
D03*
X119488D02*
D03*
X117913D02*
D03*
X117126D02*
D03*
X121693Y050709D02*
D03*
Y050118D02*
D03*
Y049528D02*
D03*
X121654Y048937D02*
D03*
X122785Y050589D02*
D03*
X121811Y06874D02*
D03*
X125157Y061811D02*
D03*
X124961Y057283D02*
D03*
X128228Y055197D02*
D03*
X128552Y05493D02*
D03*
X125315Y052047D02*
D03*
X127008Y054094D02*
D03*
X126634Y053933D02*
D03*
X124921Y056417D02*
D03*
X124961Y057756D02*
D03*
Y056102D02*
D03*
X139961Y049902D02*
D03*
X137234Y050364D02*
D03*
X121703Y056102D02*
D03*
X118504Y067874D02*
D03*
X130236Y066339D02*
D03*
X132244Y066378D02*
D03*
X126772Y06811D02*
D03*
X122205Y051535D02*
D03*
X123504Y048661D02*
D03*
X121703Y058032D02*
D03*
X134018Y051966D02*
D03*
X134449Y052126D02*
D03*
X134252Y055787D02*
D03*
X145079Y059291D02*
D03*
X144016Y05874D02*
D03*
X140276Y052835D02*
D03*
X140315Y053268D02*
D03*
X145827Y05685D02*
D03*
X145079Y057323D02*
D03*
X145866Y060866D02*
D03*
X144213Y060906D02*
D03*
X143858Y060512D02*
D03*
X144213Y060236D02*
D03*
Y057441D02*
D03*
X143701Y05689D02*
D03*
X145276Y069094D02*
D03*
X143898Y06813D02*
D03*
X142835Y065433D02*
D03*
X138465Y063622D02*
D03*
X139331Y064331D02*
D03*
X140748Y060433D02*
D03*
X141575Y061772D02*
D03*
X142559Y061732D02*
D03*
X142205Y060787D02*
D03*
X141929Y059843D02*
D03*
X139961Y057795D02*
D03*
X117913Y051496D02*
D03*
X117953Y058032D02*
D03*
X125079Y058937D02*
D03*
X138032Y048425D02*
D03*
X126218Y056572D02*
D03*
X133268Y068406D02*
D03*
X133504Y068169D02*
D03*
X133228Y068091D02*
D03*
X132559Y050738D02*
D03*
X13315Y049488D02*
D03*
X133858Y049094D02*
D03*
X128346Y061102D02*
D03*
X143622Y06748D02*
D03*
X144089Y063406D02*
D03*
X142638Y064488D02*
D03*
X142323Y063868D02*
D03*
X136299Y068543D02*
D03*
X136024D02*
D03*
X135945Y068858D02*
D03*
X140354Y065079D02*
D03*
X140079D02*
D03*
X140945Y063228D02*
D03*
X139803Y065079D02*
D03*
X143858Y061811D02*
D03*
X144094Y062008D02*
D03*
X14378Y062047D02*
D03*
X141024Y062953D02*
D03*
X14122Y06315D02*
D03*
X140984Y065D02*
D03*
X141299Y064882D02*
D03*
X140906Y064724D02*
D03*
X143661Y063898D02*
D03*
X143504Y064173D02*
D03*
X143346Y063819D02*
D03*
X139291Y065472D02*
D03*
X141417Y05374D02*
D03*
X131102Y051063D02*
D03*
X131181Y050748D02*
D03*
X13685Y064488D02*
D03*
X136732Y064803D02*
D03*
X136457D02*
D03*
X125039Y065866D02*
D03*
X137835Y054843D02*
D03*
X137874Y055787D02*
D03*
X135827Y054882D02*
D03*
X125866Y058701D02*
D03*
X131526Y053701D02*
D03*
X124845Y066735D02*
D03*
X124528Y066732D02*
D03*
X123622Y06878D02*
D03*
X123032D02*
D03*
X122441D02*
D03*
X131142Y057677D02*
D03*
X130906Y057323D02*
D03*
X130709Y057087D02*
D03*
X139134Y058701D02*
D03*
X139173Y058346D02*
D03*
X134016Y063425D02*
D03*
X12874Y067559D02*
D03*
X129055Y067835D02*
D03*
X130984Y056457D02*
D03*
X126535Y058465D02*
D03*
X132087Y055039D02*
D03*
X132559Y052283D02*
D03*
X126909Y058421D02*
D03*
X120079Y06878D02*
D03*
X119488D02*
D03*
X128425Y057736D02*
D03*
X132025Y054505D02*
D03*
X12311Y057244D02*
D03*
X123057Y056216D02*
D03*
X122244Y059882D02*
D03*
X123819Y06D02*
D03*
X123228Y059921D02*
D03*
X123032Y06185D02*
D03*
X127323Y068425D02*
D03*
X129016Y066535D02*
D03*
X120472Y059843D02*
D03*
X121654Y059291D02*
D03*
X131299Y052047D02*
D03*
X124311Y056693D02*
D03*
Y055512D02*
D03*
Y056102D02*
D03*
X131772Y051063D02*
D03*
X139488Y053164D02*
D03*
X139173Y053032D02*
D03*
X138071Y053071D02*
D03*
X135827Y05315D02*
D03*
X131732Y051693D02*
D03*
X131247Y052763D02*
D03*
X132087Y052874D02*
D03*
X132205Y052205D02*
D03*
X126417Y050866D02*
D03*
X126102Y051693D02*
D03*
X127441Y053543D02*
D03*
X127362Y053898D02*
D03*
X118189Y058661D02*
D03*
X118307Y059528D02*
D03*
Y059252D02*
D03*
X118622Y059331D02*
D03*
X119134Y058268D02*
D03*
X11937Y058425D02*
D03*
X132598Y063858D02*
D03*
X132559Y064252D02*
D03*
X133032Y064016D02*
D03*
X142756Y066102D02*
D03*
X140354Y066378D02*
D03*
X14063Y066339D02*
D03*
X140472Y066102D02*
D03*
X14248Y065984D02*
D03*
X142205D02*
D03*
X140276Y054724D02*
D03*
X138858Y055433D02*
D03*
X139409Y060195D02*
D03*
Y06049D02*
D03*
X129606Y061142D02*
D03*
X129764Y061339D02*
D03*
X127559Y059291D02*
D03*
X127283Y059331D02*
D03*
X136142Y065984D02*
D03*
X136811Y06626D02*
D03*
X135472Y065984D02*
D03*
X135433Y066457D02*
D03*
X137638Y06752D02*
D03*
Y067795D02*
D03*
X141299Y050118D02*
D03*
X14252Y051063D02*
D03*
X14063Y050591D02*
D03*
X141299Y049528D02*
D03*
X140551Y048622D02*
D03*
X132283Y059055D02*
D03*
X127244Y062441D02*
D03*
Y062008D02*
D03*
Y061575D02*
D03*
X131437Y062992D02*
D03*
X130315Y062598D02*
D03*
X130866Y064764D02*
D03*
X130512D02*
D03*
X130906Y063583D02*
D03*
X130551D02*
D03*
X142717Y058858D02*
D03*
X137008Y055079D02*
D03*
X137598D02*
D03*
X124961Y05374D02*
D03*
Y054331D02*
D03*
Y054921D02*
D03*
Y055512D02*
D03*
X137008Y058268D02*
D03*
Y059252D02*
D03*
Y059843D02*
D03*
X126161Y04997D02*
D03*
X140669Y059104D02*
D03*
Y058809D02*
D03*
X140709Y060039D02*
D03*
X124311Y054331D02*
D03*
Y05374D02*
D03*
X123189Y053661D02*
D03*
X123268Y054331D02*
D03*
X123228Y055472D02*
D03*
X127165Y060827D02*
D03*
X129035Y060532D02*
D03*
X130512Y060413D02*
D03*
X13109Y059142D02*
D03*
X131496Y058071D02*
D03*
X131496Y058661D02*
D03*
X130433Y059055D02*
D03*
X137795Y065768D02*
D03*
X138386Y065748D02*
D03*
X137795Y064567D02*
D03*
X129941Y059843D02*
D03*
X128583Y059724D02*
D03*
X128465Y058741D02*
D03*
X131299Y060413D02*
D03*
X126575Y05748D02*
D03*
X12815D02*
D03*
X124409Y052362D02*
D03*
Y052953D02*
D03*
X128925Y051705D02*
D03*
X119882Y058661D02*
D03*
X121654Y058642D02*
D03*
X121063D02*
D03*
X120472D02*
D03*
X122784Y048819D02*
D03*
Y049409D02*
D03*
Y05D02*
D03*
X135827Y056516D02*
D03*
X135827Y054331D02*
D03*
Y05374D02*
D03*
X133661Y054055D02*
D03*
X133268D02*
D03*
X133661Y053425D02*
D03*
X133268D02*
D03*
X132835Y054724D02*
D03*
X131299Y052362D02*
D03*
X131378Y055512D02*
D03*
X130394Y056417D02*
D03*
X127087Y049882D02*
D03*
X128937D02*
D03*
X128622Y050551D02*
D03*
X129134Y050591D02*
D03*
X128254Y051741D02*
D03*
X127992Y051457D02*
D03*
X145866Y066457D02*
D03*
X145551Y066614D02*
D03*
X145236D02*
D03*
X144961Y0675D02*
D03*
X144724Y066339D02*
D03*
X145906Y06752D02*
D03*
X132638Y062717D02*
D03*
X132953Y06315D02*
D03*
X132835Y062087D02*
D03*
X132598Y061378D02*
D03*
X131929Y06122D02*
D03*
X133661Y059449D02*
D03*
X136535Y050315D02*
D03*
X135276Y050039D02*
D03*
X134055Y049803D02*
D03*
X13563Y051575D02*
D03*
X137205Y048898D02*
D03*
X138976Y050394D02*
D03*
X13689Y05122D02*
D03*
X137953Y050866D02*
D03*
X131772Y054016D02*
D03*
Y053465D02*
D03*
X134961Y054646D02*
D03*
Y052835D02*
D03*
X138858Y056614D02*
D03*
X134409Y053543D02*
D03*
X137835Y054409D02*
D03*
X138189Y055827D02*
D03*
X135236Y05689D02*
D03*
X134646Y056299D02*
D03*
X134173Y05626D02*
D03*
X133465Y056614D02*
D03*
X13189Y056378D02*
D03*
X13248D02*
D03*
X141732Y055118D02*
D03*
X142992D02*
D03*
X142323Y057205D02*
D03*
X140276Y056496D02*
D03*
X138189Y057087D02*
D03*
X137795Y056693D02*
D03*
X130315Y062008D02*
D03*
X129331Y058907D02*
D03*
Y058415D02*
D03*
X129528Y058661D02*
D03*
X129134D02*
D03*
D131*
X145472Y064264D02*
D03*
Y065264D02*
D03*
Y062295D02*
D03*
Y063295D02*
D03*
M02*
