G04*
G04 #@! TF.GenerationSoftware,Altium Limited,Altium Designer,23.1.1 (15)*
G04*
G04 Layer_Physical_Order=1*
G04 Layer_Color=2232046*
%FSTAX24Y24*%
%MOIN*%
G70*
G04*
G04 #@! TF.SameCoordinates,744591E9-B7FF-4256-B3DA-537CD40D5A87*
G04*
G04*
G04 #@! TF.FilePolarity,Positive*
G04*
G01*
G75*
%ADD10C,0.0079*%
%ADD12C,0.0098*%
%ADD13C,0.0150*%
%ADD18C,0.0197*%
%ADD21C,0.0118*%
%ADD22R,0.0339X0.0106*%
G04:AMPARAMS|DCode=23|XSize=26mil|YSize=37mil|CornerRadius=2.6mil|HoleSize=0mil|Usage=FLASHONLY|Rotation=0.000|XOffset=0mil|YOffset=0mil|HoleType=Round|Shape=RoundedRectangle|*
%AMROUNDEDRECTD23*
21,1,0.0260,0.0318,0,0,0.0*
21,1,0.0208,0.0370,0,0,0.0*
1,1,0.0052,0.0104,-0.0159*
1,1,0.0052,-0.0104,-0.0159*
1,1,0.0052,-0.0104,0.0159*
1,1,0.0052,0.0104,0.0159*
%
%ADD23ROUNDEDRECTD23*%
%ADD24O,0.0551X0.0118*%
%ADD25O,0.0118X0.0551*%
G04:AMPARAMS|DCode=26|XSize=23.6mil|YSize=35.4mil|CornerRadius=2.4mil|HoleSize=0mil|Usage=FLASHONLY|Rotation=0.000|XOffset=0mil|YOffset=0mil|HoleType=Round|Shape=RoundedRectangle|*
%AMROUNDEDRECTD26*
21,1,0.0236,0.0307,0,0,0.0*
21,1,0.0189,0.0354,0,0,0.0*
1,1,0.0047,0.0094,-0.0154*
1,1,0.0047,-0.0094,-0.0154*
1,1,0.0047,-0.0094,0.0154*
1,1,0.0047,0.0094,0.0154*
%
%ADD26ROUNDEDRECTD26*%
G04:AMPARAMS|DCode=27|XSize=27.6mil|YSize=35.4mil|CornerRadius=2.8mil|HoleSize=0mil|Usage=FLASHONLY|Rotation=180.000|XOffset=0mil|YOffset=0mil|HoleType=Round|Shape=RoundedRectangle|*
%AMROUNDEDRECTD27*
21,1,0.0276,0.0299,0,0,180.0*
21,1,0.0220,0.0354,0,0,180.0*
1,1,0.0055,-0.0110,0.0150*
1,1,0.0055,0.0110,0.0150*
1,1,0.0055,0.0110,-0.0150*
1,1,0.0055,-0.0110,-0.0150*
%
%ADD27ROUNDEDRECTD27*%
G04:AMPARAMS|DCode=28|XSize=27.6mil|YSize=35.4mil|CornerRadius=2.8mil|HoleSize=0mil|Usage=FLASHONLY|Rotation=270.000|XOffset=0mil|YOffset=0mil|HoleType=Round|Shape=RoundedRectangle|*
%AMROUNDEDRECTD28*
21,1,0.0276,0.0299,0,0,270.0*
21,1,0.0220,0.0354,0,0,270.0*
1,1,0.0055,-0.0150,-0.0110*
1,1,0.0055,-0.0150,0.0110*
1,1,0.0055,0.0150,0.0110*
1,1,0.0055,0.0150,-0.0110*
%
%ADD28ROUNDEDRECTD28*%
%ADD29O,0.0669X0.0236*%
G04:AMPARAMS|DCode=30|XSize=23.6mil|YSize=39.4mil|CornerRadius=2.4mil|HoleSize=0mil|Usage=FLASHONLY|Rotation=180.000|XOffset=0mil|YOffset=0mil|HoleType=Round|Shape=RoundedRectangle|*
%AMROUNDEDRECTD30*
21,1,0.0236,0.0346,0,0,180.0*
21,1,0.0189,0.0394,0,0,180.0*
1,1,0.0047,-0.0094,0.0173*
1,1,0.0047,0.0094,0.0173*
1,1,0.0047,0.0094,-0.0173*
1,1,0.0047,-0.0094,-0.0173*
%
%ADD30ROUNDEDRECTD30*%
G04:AMPARAMS|DCode=31|XSize=74.8mil|YSize=78.7mil|CornerRadius=7.5mil|HoleSize=0mil|Usage=FLASHONLY|Rotation=0.000|XOffset=0mil|YOffset=0mil|HoleType=Round|Shape=RoundedRectangle|*
%AMROUNDEDRECTD31*
21,1,0.0748,0.0638,0,0,0.0*
21,1,0.0598,0.0787,0,0,0.0*
1,1,0.0150,0.0299,-0.0319*
1,1,0.0150,-0.0299,-0.0319*
1,1,0.0150,-0.0299,0.0319*
1,1,0.0150,0.0299,0.0319*
%
%ADD31ROUNDEDRECTD31*%
G04:AMPARAMS|DCode=32|XSize=23.6mil|YSize=43.3mil|CornerRadius=5.9mil|HoleSize=0mil|Usage=FLASHONLY|Rotation=270.000|XOffset=0mil|YOffset=0mil|HoleType=Round|Shape=RoundedRectangle|*
%AMROUNDEDRECTD32*
21,1,0.0236,0.0315,0,0,270.0*
21,1,0.0118,0.0433,0,0,270.0*
1,1,0.0118,-0.0157,-0.0059*
1,1,0.0118,-0.0157,0.0059*
1,1,0.0118,0.0157,0.0059*
1,1,0.0118,0.0157,-0.0059*
%
%ADD32ROUNDEDRECTD32*%
G04:AMPARAMS|DCode=33|XSize=35.4mil|YSize=35.4mil|CornerRadius=8.9mil|HoleSize=0mil|Usage=FLASHONLY|Rotation=180.000|XOffset=0mil|YOffset=0mil|HoleType=Round|Shape=RoundedRectangle|*
%AMROUNDEDRECTD33*
21,1,0.0354,0.0177,0,0,180.0*
21,1,0.0177,0.0354,0,0,180.0*
1,1,0.0177,-0.0089,0.0089*
1,1,0.0177,0.0089,0.0089*
1,1,0.0177,0.0089,-0.0089*
1,1,0.0177,-0.0089,-0.0089*
%
%ADD33ROUNDEDRECTD33*%
G04:AMPARAMS|DCode=34|XSize=45.3mil|YSize=55.1mil|CornerRadius=11.3mil|HoleSize=0mil|Usage=FLASHONLY|Rotation=90.000|XOffset=0mil|YOffset=0mil|HoleType=Round|Shape=RoundedRectangle|*
%AMROUNDEDRECTD34*
21,1,0.0453,0.0325,0,0,90.0*
21,1,0.0226,0.0551,0,0,90.0*
1,1,0.0226,0.0162,0.0113*
1,1,0.0226,0.0162,-0.0113*
1,1,0.0226,-0.0162,-0.0113*
1,1,0.0226,-0.0162,0.0113*
%
%ADD34ROUNDEDRECTD34*%
G04:AMPARAMS|DCode=35|XSize=45.3mil|YSize=55.1mil|CornerRadius=11.3mil|HoleSize=0mil|Usage=FLASHONLY|Rotation=0.000|XOffset=0mil|YOffset=0mil|HoleType=Round|Shape=RoundedRectangle|*
%AMROUNDEDRECTD35*
21,1,0.0453,0.0325,0,0,0.0*
21,1,0.0226,0.0551,0,0,0.0*
1,1,0.0226,0.0113,-0.0162*
1,1,0.0226,-0.0113,-0.0162*
1,1,0.0226,-0.0113,0.0162*
1,1,0.0226,0.0113,0.0162*
%
%ADD35ROUNDEDRECTD35*%
G04:AMPARAMS|DCode=36|XSize=133.9mil|YSize=98.4mil|CornerRadius=9.8mil|HoleSize=0mil|Usage=FLASHONLY|Rotation=0.000|XOffset=0mil|YOffset=0mil|HoleType=Round|Shape=RoundedRectangle|*
%AMROUNDEDRECTD36*
21,1,0.1339,0.0787,0,0,0.0*
21,1,0.1142,0.0984,0,0,0.0*
1,1,0.0197,0.0571,-0.0394*
1,1,0.0197,-0.0571,-0.0394*
1,1,0.0197,-0.0571,0.0394*
1,1,0.0197,0.0571,0.0394*
%
%ADD36ROUNDEDRECTD36*%
%ADD37R,0.0650X0.0500*%
%ADD38R,0.0591X0.0270*%
%ADD39R,0.0700X0.0500*%
G04:AMPARAMS|DCode=40|XSize=35.4mil|YSize=35.4mil|CornerRadius=8.9mil|HoleSize=0mil|Usage=FLASHONLY|Rotation=270.000|XOffset=0mil|YOffset=0mil|HoleType=Round|Shape=RoundedRectangle|*
%AMROUNDEDRECTD40*
21,1,0.0354,0.0177,0,0,270.0*
21,1,0.0177,0.0354,0,0,270.0*
1,1,0.0177,-0.0089,-0.0089*
1,1,0.0177,-0.0089,0.0089*
1,1,0.0177,0.0089,0.0089*
1,1,0.0177,0.0089,-0.0089*
%
%ADD40ROUNDEDRECTD40*%
G04:AMPARAMS|DCode=41|XSize=23.6mil|YSize=43.3mil|CornerRadius=5.9mil|HoleSize=0mil|Usage=FLASHONLY|Rotation=180.000|XOffset=0mil|YOffset=0mil|HoleType=Round|Shape=RoundedRectangle|*
%AMROUNDEDRECTD41*
21,1,0.0236,0.0315,0,0,180.0*
21,1,0.0118,0.0433,0,0,180.0*
1,1,0.0118,-0.0059,0.0157*
1,1,0.0118,0.0059,0.0157*
1,1,0.0118,0.0059,-0.0157*
1,1,0.0118,-0.0059,-0.0157*
%
%ADD41ROUNDEDRECTD41*%
G04:AMPARAMS|DCode=42|XSize=23.6mil|YSize=39.4mil|CornerRadius=5.9mil|HoleSize=0mil|Usage=FLASHONLY|Rotation=0.000|XOffset=0mil|YOffset=0mil|HoleType=Round|Shape=RoundedRectangle|*
%AMROUNDEDRECTD42*
21,1,0.0236,0.0276,0,0,0.0*
21,1,0.0118,0.0394,0,0,0.0*
1,1,0.0118,0.0059,-0.0138*
1,1,0.0118,-0.0059,-0.0138*
1,1,0.0118,-0.0059,0.0138*
1,1,0.0118,0.0059,0.0138*
%
%ADD42ROUNDEDRECTD42*%
%ADD43O,0.0551X0.0157*%
G04:AMPARAMS|DCode=44|XSize=23.6mil|YSize=11.8mil|CornerRadius=1.2mil|HoleSize=0mil|Usage=FLASHONLY|Rotation=0.000|XOffset=0mil|YOffset=0mil|HoleType=Round|Shape=RoundedRectangle|*
%AMROUNDEDRECTD44*
21,1,0.0236,0.0094,0,0,0.0*
21,1,0.0213,0.0118,0,0,0.0*
1,1,0.0024,0.0106,-0.0047*
1,1,0.0024,-0.0106,-0.0047*
1,1,0.0024,-0.0106,0.0047*
1,1,0.0024,0.0106,0.0047*
%
%ADD44ROUNDEDRECTD44*%
G04:AMPARAMS|DCode=45|XSize=9.1mil|YSize=28.5mil|CornerRadius=0.9mil|HoleSize=0mil|Usage=FLASHONLY|Rotation=0.000|XOffset=0mil|YOffset=0mil|HoleType=Round|Shape=RoundedRectangle|*
%AMROUNDEDRECTD45*
21,1,0.0091,0.0267,0,0,0.0*
21,1,0.0072,0.0285,0,0,0.0*
1,1,0.0018,0.0036,-0.0134*
1,1,0.0018,-0.0036,-0.0134*
1,1,0.0018,-0.0036,0.0134*
1,1,0.0018,0.0036,0.0134*
%
%ADD45ROUNDEDRECTD45*%
%ADD46O,0.0531X0.0157*%
G04:AMPARAMS|DCode=47|XSize=31.5mil|YSize=41.3mil|CornerRadius=7.9mil|HoleSize=0mil|Usage=FLASHONLY|Rotation=180.000|XOffset=0mil|YOffset=0mil|HoleType=Round|Shape=RoundedRectangle|*
%AMROUNDEDRECTD47*
21,1,0.0315,0.0256,0,0,180.0*
21,1,0.0157,0.0413,0,0,180.0*
1,1,0.0157,-0.0079,0.0128*
1,1,0.0157,0.0079,0.0128*
1,1,0.0157,0.0079,-0.0128*
1,1,0.0157,-0.0079,-0.0128*
%
%ADD47ROUNDEDRECTD47*%
G04:AMPARAMS|DCode=48|XSize=31.5mil|YSize=41.3mil|CornerRadius=7.9mil|HoleSize=0mil|Usage=FLASHONLY|Rotation=270.000|XOffset=0mil|YOffset=0mil|HoleType=Round|Shape=RoundedRectangle|*
%AMROUNDEDRECTD48*
21,1,0.0315,0.0256,0,0,270.0*
21,1,0.0157,0.0413,0,0,270.0*
1,1,0.0157,-0.0128,-0.0079*
1,1,0.0157,-0.0128,0.0079*
1,1,0.0157,0.0128,0.0079*
1,1,0.0157,0.0128,-0.0079*
%
%ADD48ROUNDEDRECTD48*%
G04:AMPARAMS|DCode=49|XSize=47.2mil|YSize=70.9mil|CornerRadius=4.7mil|HoleSize=0mil|Usage=FLASHONLY|Rotation=0.000|XOffset=0mil|YOffset=0mil|HoleType=Round|Shape=RoundedRectangle|*
%AMROUNDEDRECTD49*
21,1,0.0472,0.0614,0,0,0.0*
21,1,0.0378,0.0709,0,0,0.0*
1,1,0.0094,0.0189,-0.0307*
1,1,0.0094,-0.0189,-0.0307*
1,1,0.0094,-0.0189,0.0307*
1,1,0.0094,0.0189,0.0307*
%
%ADD49ROUNDEDRECTD49*%
G04:AMPARAMS|DCode=50|XSize=47.2mil|YSize=70.9mil|CornerRadius=4.7mil|HoleSize=0mil|Usage=FLASHONLY|Rotation=270.000|XOffset=0mil|YOffset=0mil|HoleType=Round|Shape=RoundedRectangle|*
%AMROUNDEDRECTD50*
21,1,0.0472,0.0614,0,0,270.0*
21,1,0.0378,0.0709,0,0,270.0*
1,1,0.0094,-0.0307,-0.0189*
1,1,0.0094,-0.0307,0.0189*
1,1,0.0094,0.0307,0.0189*
1,1,0.0094,0.0307,-0.0189*
%
%ADD50ROUNDEDRECTD50*%
G04:AMPARAMS|DCode=51|XSize=78.7mil|YSize=35.4mil|CornerRadius=5.3mil|HoleSize=0mil|Usage=FLASHONLY|Rotation=90.000|XOffset=0mil|YOffset=0mil|HoleType=Round|Shape=RoundedRectangle|*
%AMROUNDEDRECTD51*
21,1,0.0787,0.0248,0,0,90.0*
21,1,0.0681,0.0354,0,0,90.0*
1,1,0.0106,0.0124,0.0341*
1,1,0.0106,0.0124,-0.0341*
1,1,0.0106,-0.0124,-0.0341*
1,1,0.0106,-0.0124,0.0341*
%
%ADD51ROUNDEDRECTD51*%
G04:AMPARAMS|DCode=52|XSize=35.4mil|YSize=78.7mil|CornerRadius=3.5mil|HoleSize=0mil|Usage=FLASHONLY|Rotation=90.000|XOffset=0mil|YOffset=0mil|HoleType=Round|Shape=RoundedRectangle|*
%AMROUNDEDRECTD52*
21,1,0.0354,0.0717,0,0,90.0*
21,1,0.0283,0.0787,0,0,90.0*
1,1,0.0071,0.0358,0.0142*
1,1,0.0071,0.0358,-0.0142*
1,1,0.0071,-0.0358,-0.0142*
1,1,0.0071,-0.0358,0.0142*
%
%ADD52ROUNDEDRECTD52*%
%ADD53R,0.0524X0.0524*%
G04:AMPARAMS|DCode=54|XSize=23.6mil|YSize=39.4mil|CornerRadius=2.4mil|HoleSize=0mil|Usage=FLASHONLY|Rotation=270.000|XOffset=0mil|YOffset=0mil|HoleType=Round|Shape=RoundedRectangle|*
%AMROUNDEDRECTD54*
21,1,0.0236,0.0346,0,0,270.0*
21,1,0.0189,0.0394,0,0,270.0*
1,1,0.0047,-0.0173,-0.0094*
1,1,0.0047,-0.0173,0.0094*
1,1,0.0047,0.0173,0.0094*
1,1,0.0047,0.0173,-0.0094*
%
%ADD54ROUNDEDRECTD54*%
G04:AMPARAMS|DCode=55|XSize=61.4mil|YSize=15.7mil|CornerRadius=2mil|HoleSize=0mil|Usage=FLASHONLY|Rotation=0.000|XOffset=0mil|YOffset=0mil|HoleType=Round|Shape=RoundedRectangle|*
%AMROUNDEDRECTD55*
21,1,0.0614,0.0118,0,0,0.0*
21,1,0.0575,0.0157,0,0,0.0*
1,1,0.0039,0.0287,-0.0059*
1,1,0.0039,-0.0287,-0.0059*
1,1,0.0039,-0.0287,0.0059*
1,1,0.0039,0.0287,0.0059*
%
%ADD55ROUNDEDRECTD55*%
G04:AMPARAMS|DCode=56|XSize=70.9mil|YSize=59.1mil|CornerRadius=3mil|HoleSize=0mil|Usage=FLASHONLY|Rotation=90.000|XOffset=0mil|YOffset=0mil|HoleType=Round|Shape=RoundedRectangle|*
%AMROUNDEDRECTD56*
21,1,0.0709,0.0531,0,0,90.0*
21,1,0.0650,0.0591,0,0,90.0*
1,1,0.0059,0.0266,0.0325*
1,1,0.0059,0.0266,-0.0325*
1,1,0.0059,-0.0266,-0.0325*
1,1,0.0059,-0.0266,0.0325*
%
%ADD56ROUNDEDRECTD56*%
G04:AMPARAMS|DCode=57|XSize=45.3mil|YSize=23.6mil|CornerRadius=2.4mil|HoleSize=0mil|Usage=FLASHONLY|Rotation=180.000|XOffset=0mil|YOffset=0mil|HoleType=Round|Shape=RoundedRectangle|*
%AMROUNDEDRECTD57*
21,1,0.0453,0.0189,0,0,180.0*
21,1,0.0406,0.0236,0,0,180.0*
1,1,0.0047,-0.0203,0.0094*
1,1,0.0047,0.0203,0.0094*
1,1,0.0047,0.0203,-0.0094*
1,1,0.0047,-0.0203,-0.0094*
%
%ADD57ROUNDEDRECTD57*%
G04:AMPARAMS|DCode=58|XSize=45.3mil|YSize=11.8mil|CornerRadius=1.2mil|HoleSize=0mil|Usage=FLASHONLY|Rotation=180.000|XOffset=0mil|YOffset=0mil|HoleType=Round|Shape=RoundedRectangle|*
%AMROUNDEDRECTD58*
21,1,0.0453,0.0094,0,0,180.0*
21,1,0.0429,0.0118,0,0,180.0*
1,1,0.0024,-0.0215,0.0047*
1,1,0.0024,0.0215,0.0047*
1,1,0.0024,0.0215,-0.0047*
1,1,0.0024,-0.0215,-0.0047*
%
%ADD58ROUNDEDRECTD58*%
G04:AMPARAMS|DCode=59|XSize=59.1mil|YSize=78.7mil|CornerRadius=5.9mil|HoleSize=0mil|Usage=FLASHONLY|Rotation=180.000|XOffset=0mil|YOffset=0mil|HoleType=Round|Shape=RoundedRectangle|*
%AMROUNDEDRECTD59*
21,1,0.0591,0.0669,0,0,180.0*
21,1,0.0472,0.0787,0,0,180.0*
1,1,0.0118,-0.0236,0.0335*
1,1,0.0118,0.0236,0.0335*
1,1,0.0118,0.0236,-0.0335*
1,1,0.0118,-0.0236,-0.0335*
%
%ADD59ROUNDEDRECTD59*%
G04:AMPARAMS|DCode=60|XSize=85.8mil|YSize=78.7mil|CornerRadius=7.9mil|HoleSize=0mil|Usage=FLASHONLY|Rotation=180.000|XOffset=0mil|YOffset=0mil|HoleType=Round|Shape=RoundedRectangle|*
%AMROUNDEDRECTD60*
21,1,0.0858,0.0630,0,0,180.0*
21,1,0.0701,0.0787,0,0,180.0*
1,1,0.0157,-0.0350,0.0315*
1,1,0.0157,0.0350,0.0315*
1,1,0.0157,0.0350,-0.0315*
1,1,0.0157,-0.0350,-0.0315*
%
%ADD60ROUNDEDRECTD60*%
G04:AMPARAMS|DCode=61|XSize=37.4mil|YSize=84.6mil|CornerRadius=9.4mil|HoleSize=0mil|Usage=FLASHONLY|Rotation=270.000|XOffset=0mil|YOffset=0mil|HoleType=Round|Shape=RoundedRectangle|*
%AMROUNDEDRECTD61*
21,1,0.0374,0.0659,0,0,270.0*
21,1,0.0187,0.0846,0,0,270.0*
1,1,0.0187,-0.0330,-0.0094*
1,1,0.0187,-0.0330,0.0094*
1,1,0.0187,0.0330,0.0094*
1,1,0.0187,0.0330,-0.0094*
%
%ADD61ROUNDEDRECTD61*%
G04:AMPARAMS|DCode=62|XSize=128mil|YSize=84.6mil|CornerRadius=21.2mil|HoleSize=0mil|Usage=FLASHONLY|Rotation=270.000|XOffset=0mil|YOffset=0mil|HoleType=Round|Shape=RoundedRectangle|*
%AMROUNDEDRECTD62*
21,1,0.1280,0.0423,0,0,270.0*
21,1,0.0856,0.0846,0,0,270.0*
1,1,0.0423,-0.0212,-0.0428*
1,1,0.0423,-0.0212,0.0428*
1,1,0.0423,0.0212,0.0428*
1,1,0.0423,0.0212,-0.0428*
%
%ADD62ROUNDEDRECTD62*%
G04:AMPARAMS|DCode=63|XSize=37.4mil|YSize=84.6mil|CornerRadius=9.4mil|HoleSize=0mil|Usage=FLASHONLY|Rotation=180.000|XOffset=0mil|YOffset=0mil|HoleType=Round|Shape=RoundedRectangle|*
%AMROUNDEDRECTD63*
21,1,0.0374,0.0659,0,0,180.0*
21,1,0.0187,0.0846,0,0,180.0*
1,1,0.0187,-0.0094,0.0330*
1,1,0.0187,0.0094,0.0330*
1,1,0.0187,0.0094,-0.0330*
1,1,0.0187,-0.0094,-0.0330*
%
%ADD63ROUNDEDRECTD63*%
G04:AMPARAMS|DCode=64|XSize=128mil|YSize=84.6mil|CornerRadius=21.2mil|HoleSize=0mil|Usage=FLASHONLY|Rotation=180.000|XOffset=0mil|YOffset=0mil|HoleType=Round|Shape=RoundedRectangle|*
%AMROUNDEDRECTD64*
21,1,0.1280,0.0423,0,0,180.0*
21,1,0.0856,0.0846,0,0,180.0*
1,1,0.0423,-0.0428,0.0212*
1,1,0.0423,0.0428,0.0212*
1,1,0.0423,0.0428,-0.0212*
1,1,0.0423,-0.0428,-0.0212*
%
%ADD64ROUNDEDRECTD64*%
G04:AMPARAMS|DCode=65|XSize=90.6mil|YSize=126mil|CornerRadius=9.1mil|HoleSize=0mil|Usage=FLASHONLY|Rotation=90.000|XOffset=0mil|YOffset=0mil|HoleType=Round|Shape=RoundedRectangle|*
%AMROUNDEDRECTD65*
21,1,0.0906,0.1079,0,0,90.0*
21,1,0.0724,0.1260,0,0,90.0*
1,1,0.0181,0.0539,0.0362*
1,1,0.0181,0.0539,-0.0362*
1,1,0.0181,-0.0539,-0.0362*
1,1,0.0181,-0.0539,0.0362*
%
%ADD65ROUNDEDRECTD65*%
G04:AMPARAMS|DCode=66|XSize=51.2mil|YSize=25.6mil|CornerRadius=2.6mil|HoleSize=0mil|Usage=FLASHONLY|Rotation=90.000|XOffset=0mil|YOffset=0mil|HoleType=Round|Shape=RoundedRectangle|*
%AMROUNDEDRECTD66*
21,1,0.0512,0.0205,0,0,90.0*
21,1,0.0461,0.0256,0,0,90.0*
1,1,0.0051,0.0102,0.0230*
1,1,0.0051,0.0102,-0.0230*
1,1,0.0051,-0.0102,-0.0230*
1,1,0.0051,-0.0102,0.0230*
%
%ADD66ROUNDEDRECTD66*%
G04:AMPARAMS|DCode=67|XSize=23.6mil|YSize=47.2mil|CornerRadius=5.9mil|HoleSize=0mil|Usage=FLASHONLY|Rotation=270.000|XOffset=0mil|YOffset=0mil|HoleType=Round|Shape=RoundedRectangle|*
%AMROUNDEDRECTD67*
21,1,0.0236,0.0354,0,0,270.0*
21,1,0.0118,0.0472,0,0,270.0*
1,1,0.0118,-0.0177,-0.0059*
1,1,0.0118,-0.0177,0.0059*
1,1,0.0118,0.0177,0.0059*
1,1,0.0118,0.0177,-0.0059*
%
%ADD67ROUNDEDRECTD67*%
%ADD124R,0.0575X0.0937*%
G04:AMPARAMS|DCode=125|XSize=59.1mil|YSize=68.9mil|CornerRadius=5.9mil|HoleSize=0mil|Usage=FLASHONLY|Rotation=0.000|XOffset=0mil|YOffset=0mil|HoleType=Round|Shape=RoundedRectangle|*
%AMROUNDEDRECTD125*
21,1,0.0591,0.0571,0,0,0.0*
21,1,0.0472,0.0689,0,0,0.0*
1,1,0.0118,0.0236,-0.0285*
1,1,0.0118,-0.0236,-0.0285*
1,1,0.0118,-0.0236,0.0285*
1,1,0.0118,0.0236,0.0285*
%
%ADD125ROUNDEDRECTD125*%
%ADD126C,0.0630*%
%ADD127R,0.0591X0.0600*%
%ADD128C,0.0591*%
%ADD129R,0.0630X0.0630*%
%ADD130C,0.0236*%
%ADD131O,0.0709X0.0630*%
G36*
X147047Y069882D02*
X116693D01*
Y070512D01*
X147047D01*
Y069882D01*
D02*
G37*
G36*
X123705Y068864D02*
X123539Y068864D01*
X123573Y068958D01*
X123671D01*
X123705Y068864D01*
D02*
G37*
G36*
X122524D02*
X122358Y068864D01*
X122392Y068958D01*
X12249D01*
X122524Y068864D01*
D02*
G37*
G36*
X120161D02*
X119996Y068864D01*
X12003Y068958D01*
X120128D01*
X120161Y068864D01*
D02*
G37*
G36*
X119571D02*
X119406D01*
X119439Y068958D01*
X119537D01*
X119571Y068864D01*
D02*
G37*
G36*
X121894Y068825D02*
X121728D01*
X121762Y068918D01*
X12186D01*
X121894Y068825D01*
D02*
G37*
G36*
X145Y069252D02*
Y068937D01*
X144843Y06878D01*
X14378D01*
X143583Y068976D01*
X142008D01*
X141693Y068661D01*
Y068032D01*
X14189Y067835D01*
X142559D01*
X142715Y067678D01*
Y066585D01*
X142568Y066437D01*
X142106D01*
X141929Y06626D01*
Y065D01*
X141614Y064685D01*
X14126D01*
X141102Y064528D01*
Y06374D01*
X140984Y063622D01*
X140472D01*
X140315Y06378D01*
Y064094D01*
X140591Y06437D01*
Y065787D01*
X141142Y066339D01*
Y069213D01*
X141299Y06937D01*
X144882D01*
X145Y069252D01*
D02*
G37*
G36*
X125956Y06848D02*
X125681Y068652D01*
Y06875D01*
X125956Y068921D01*
Y06848D01*
D02*
G37*
G36*
X127484Y068334D02*
X127414Y068264D01*
X127324Y068307D01*
X127441Y068424D01*
X127484Y068334D01*
D02*
G37*
G36*
X129233Y067884D02*
Y067785D01*
X129139Y067752D01*
Y067917D01*
X129233Y067884D01*
D02*
G37*
G36*
X128971Y067752D02*
X128877Y067785D01*
Y067884D01*
X128971Y067917D01*
Y067752D01*
D02*
G37*
G36*
X146066Y067611D02*
X146024Y067521D01*
X145907Y067638D01*
X145997Y067681D01*
X146066Y067611D01*
D02*
G37*
G36*
X144882Y068386D02*
X145039Y068228D01*
X145472D01*
X145512Y068189D01*
Y068032D01*
X145472Y067992D01*
X144961D01*
X144764Y067795D01*
Y067559D01*
X144724Y06752D01*
X144331D01*
Y068465D01*
X144449Y068583D01*
X144882D01*
Y068386D01*
D02*
G37*
G36*
X128816Y067468D02*
X12878Y067377D01*
X128681Y067386D01*
X128651Y067482D01*
X128816Y067468D01*
D02*
G37*
G36*
X137795Y067913D02*
Y067362D01*
X137756Y067323D01*
X137087D01*
X136732Y067677D01*
Y067913D01*
X136811Y067992D01*
X137717D01*
X137795Y067913D01*
D02*
G37*
G36*
X146811Y067283D02*
Y06685D01*
X14374D01*
Y067205D01*
X143858Y067323D01*
X146772D01*
X146811Y067283D01*
D02*
G37*
G36*
X13685Y069646D02*
Y068976D01*
X137087Y06874D01*
X138504D01*
X138543Y068701D01*
Y067874D01*
X138661Y067756D01*
X139488D01*
X139567Y067677D01*
Y06685D01*
X138268D01*
X137953Y067165D01*
Y067913D01*
X137717Y06815D01*
X136811D01*
X136575Y067913D01*
X135591D01*
X135394Y06811D01*
Y069606D01*
X135512Y069724D01*
X136772D01*
X13685Y069646D01*
D02*
G37*
G36*
X124516Y06685D02*
X124427Y066794D01*
X124398Y066829D01*
X124468Y066899D01*
X124516Y06685D01*
D02*
G37*
G36*
X135236Y068858D02*
Y067835D01*
X135433Y067638D01*
X136614D01*
X137087Y067165D01*
X13752D01*
X137598Y067087D01*
Y066654D01*
X136929D01*
X136732Y06685D01*
X135276D01*
X135039Y066614D01*
Y066004D01*
X134783Y065748D01*
X13311D01*
X133032Y065827D01*
Y068819D01*
X13315Y068937D01*
X135157D01*
X135236Y068858D01*
D02*
G37*
G36*
X128931Y066453D02*
X128838Y066486D01*
Y066585D01*
X128931Y066618D01*
Y066453D01*
D02*
G37*
G36*
X146732Y066339D02*
X145039D01*
X144961Y066417D01*
Y066654D01*
X145079Y066772D01*
X146732D01*
Y066339D01*
D02*
G37*
G36*
X143504Y068622D02*
Y068032D01*
X143583Y067953D01*
X144094D01*
X144213Y067835D01*
Y06752D01*
X144094Y067402D01*
X14374D01*
X143622Y067283D01*
Y066811D01*
X143661Y066772D01*
X144449D01*
Y066378D01*
X144409Y066339D01*
X14311D01*
X142953Y066496D01*
Y067756D01*
X142756Y067953D01*
X142008D01*
X14189Y068071D01*
Y068622D01*
X142047Y06878D01*
X143346D01*
X143504Y068622D01*
D02*
G37*
G36*
X144723Y06622D02*
X144633Y066178D01*
X144564Y066247D01*
X144606Y066337D01*
X144723Y06622D01*
D02*
G37*
G36*
X125122Y06595D02*
X124957D01*
X125Y066048D01*
X125079D01*
X125122Y06595D01*
D02*
G37*
G36*
X128119Y065966D02*
X128035Y065794D01*
X127971Y06591D01*
X128041Y06598D01*
X128119Y065966D01*
D02*
G37*
G36*
X140945Y069291D02*
Y066378D01*
X140315Y065748D01*
X139567D01*
Y066575D01*
X139724Y066732D01*
Y067756D01*
X139528Y067953D01*
X138819D01*
X138701Y068071D01*
Y068701D01*
X138504Y068898D01*
X137244D01*
X137087Y069055D01*
Y069567D01*
X137205Y069685D01*
X140551D01*
X140945Y069291D01*
D02*
G37*
G36*
X13689Y066457D02*
X137441D01*
X13748Y066417D01*
Y065906D01*
X137323Y065748D01*
X135236D01*
Y066575D01*
X135394Y066732D01*
X136614D01*
X13689Y066457D01*
D02*
G37*
G36*
X139207Y06539D02*
X139113Y065423D01*
Y065522D01*
X139207Y065555D01*
Y06539D01*
D02*
G37*
G36*
X145136Y065166D02*
X145024Y065215D01*
Y065313D01*
X145136Y065362D01*
Y065166D01*
D02*
G37*
G36*
X143661Y06622D02*
Y065984D01*
X143701Y065945D01*
X144488D01*
X144528Y065906D01*
Y065157D01*
X144488Y065118D01*
X143622D01*
X143465Y065276D01*
Y065787D01*
X143346Y065906D01*
X142638D01*
X142598Y065866D01*
Y065591D01*
X14248Y065472D01*
X142087D01*
X142047Y065512D01*
Y066181D01*
X142126Y06626D01*
X143622D01*
X143661Y06622D01*
D02*
G37*
G36*
X137878Y064651D02*
X137713Y064651D01*
X137746Y064745D01*
X137844D01*
X137878Y064651D01*
D02*
G37*
G36*
X140472Y065079D02*
Y064449D01*
X140354Y064331D01*
X139685D01*
X139606Y064409D01*
Y065197D01*
X139646Y065236D01*
X140315D01*
X140472Y065079D01*
D02*
G37*
G36*
X142713Y064397D02*
X142677Y064306D01*
X142579Y064315D01*
X142548Y064411D01*
X142713Y064397D01*
D02*
G37*
G36*
X131063Y064882D02*
Y064291D01*
X130354D01*
X130315Y064331D01*
Y064921D01*
X130354Y064961D01*
X130984D01*
X131063Y064882D01*
D02*
G37*
G36*
X137047Y064882D02*
Y064213D01*
X136969Y064134D01*
X136299D01*
Y064921D01*
X136339Y064961D01*
X136969D01*
X137047Y064882D01*
D02*
G37*
G36*
X142485Y06378D02*
X142417Y063709D01*
X142327Y06375D01*
X142441Y06387D01*
X142485Y06378D01*
D02*
G37*
G36*
X131102Y064016D02*
Y063425D01*
X131063Y063386D01*
X130433D01*
X130354Y063465D01*
Y064055D01*
X131063D01*
X131102Y064016D01*
D02*
G37*
G36*
X143999Y063329D02*
X143907Y063365D01*
X143915Y063463D01*
X144011Y063494D01*
X143999Y063329D01*
D02*
G37*
G36*
X144567Y064331D02*
Y063661D01*
X144488Y063583D01*
X143504D01*
X143307Y063386D01*
Y063268D01*
X143268Y063228D01*
X142953D01*
Y064291D01*
X143071Y064409D01*
X144488D01*
X144567Y064331D01*
D02*
G37*
G36*
X145293Y063016D02*
X145179Y062971D01*
X145109Y063041D01*
X145154Y063155D01*
X145293Y063016D01*
D02*
G37*
G36*
X141772Y064252D02*
Y063228D01*
X141299Y062756D01*
X140551D01*
X140472Y062835D01*
Y063346D01*
X14063Y063504D01*
X141063D01*
X14126Y063701D01*
Y06437D01*
X141654D01*
X141772Y064252D01*
D02*
G37*
G36*
X123032Y062598D02*
X120866D01*
Y064961D01*
X123032D01*
Y062598D01*
D02*
G37*
G36*
X130493Y062057D02*
Y061959D01*
X130399Y061925D01*
Y062091D01*
X130493Y062057D01*
D02*
G37*
G36*
X12321Y0619D02*
Y061801D01*
X123116Y061768D01*
Y061933D01*
X12321Y0619D01*
D02*
G37*
G36*
X136142Y064528D02*
Y063307D01*
X136299Y06315D01*
Y061772D01*
X136132Y061604D01*
X133622D01*
Y061762D01*
X134242D01*
X134449Y061968D01*
Y062953D01*
X134173Y063228D01*
X133504D01*
X133386Y063346D01*
Y064606D01*
X133504Y064724D01*
X135945D01*
X136142Y064528D01*
D02*
G37*
G36*
X117829Y061532D02*
X117731Y061575D01*
Y061654D01*
X117829Y061697D01*
Y061532D01*
D02*
G37*
G36*
X127874Y06248D02*
Y061496D01*
X127756Y061378D01*
X127047D01*
Y06248D01*
X127126Y062559D01*
X127795D01*
X127874Y06248D01*
D02*
G37*
G36*
X133189Y064882D02*
Y062402D01*
X13311Y062323D01*
Y06126D01*
X132913Y061063D01*
X131772D01*
X131693Y061142D01*
Y061457D01*
X131732Y061496D01*
X132323D01*
X132441Y061614D01*
Y064134D01*
X132323Y064252D01*
Y064803D01*
X13248Y064961D01*
X13311D01*
X133189Y064882D01*
D02*
G37*
G36*
X129882Y062244D02*
Y060709D01*
X129803Y06063D01*
X129449D01*
Y060787D01*
Y061181D01*
X129213Y061417D01*
Y062205D01*
X129331Y062323D01*
X129803D01*
X129882Y062244D01*
D02*
G37*
G36*
X129331Y064528D02*
Y063543D01*
X129213Y063425D01*
X128976D01*
X12878Y063228D01*
Y061378D01*
X128425Y061024D01*
Y060748D01*
X128307Y06063D01*
X127835D01*
Y061102D01*
X127992Y06126D01*
X12811D01*
X128189Y061339D01*
Y063346D01*
X12815Y063386D01*
X127756D01*
X127717Y063425D01*
Y064567D01*
X127795Y064646D01*
X129213D01*
X129331Y064528D01*
D02*
G37*
G36*
X139586Y060543D02*
X139596Y060393D01*
X139476Y060393D01*
X139508Y060555D01*
X139586Y060543D01*
D02*
G37*
G36*
X139586Y060143D02*
X139508Y06013D01*
X139476Y060292D01*
X139596Y060293D01*
X139586Y060143D01*
D02*
G37*
G36*
X123968Y060079D02*
X12393Y06004D01*
X123859Y060111D01*
X123898Y060149D01*
X123968Y060079D01*
D02*
G37*
G36*
X123389Y060012D02*
X123346Y059922D01*
X12323Y060039D01*
X12332Y060082D01*
X123389Y060012D01*
D02*
G37*
G36*
X122211Y059995D02*
X122131Y059915D01*
X122091Y059965D01*
X122161Y060035D01*
X122211Y059995D01*
D02*
G37*
G36*
X136339Y061181D02*
Y059921D01*
X13626Y059843D01*
X133504D01*
X133268Y060079D01*
Y06126D01*
X133504Y061496D01*
X136024D01*
X136339Y061181D01*
D02*
G37*
G36*
X123868Y059822D02*
X12377D01*
X123736Y059916D01*
X123902D01*
X123868Y059822D01*
D02*
G37*
G36*
X123278Y059743D02*
X123179D01*
X123146Y059837D01*
X123311D01*
X123278Y059743D01*
D02*
G37*
G36*
X122293Y059704D02*
X122195D01*
X122161Y059798D01*
X122327D01*
X122293Y059704D01*
D02*
G37*
G36*
X146457Y064213D02*
Y062008D01*
X146024Y061575D01*
X144055D01*
X143465Y060984D01*
X143228D01*
X143032Y060787D01*
Y060433D01*
X143307Y060157D01*
X143661D01*
X143898Y059921D01*
X144764D01*
Y059685D01*
X143346D01*
X143228Y059803D01*
Y059961D01*
X143032Y060157D01*
X142638D01*
X142598Y060197D01*
Y060709D01*
X142913Y061024D01*
Y061614D01*
X143425D01*
X143543Y061732D01*
Y062008D01*
X143701Y062165D01*
X144843D01*
X145315Y062638D01*
X145866D01*
X146063Y062835D01*
Y06378D01*
X145984Y063858D01*
X145276D01*
X145118Y064016D01*
Y064449D01*
X145236Y064567D01*
X146102D01*
X146457Y064213D01*
D02*
G37*
G36*
X120522Y059664D02*
X120423D01*
X12039Y059758D01*
X120555D01*
X120522Y059664D01*
D02*
G37*
G36*
X128761Y059774D02*
Y059675D01*
X128667Y059642D01*
Y059807D01*
X128761Y059774D01*
D02*
G37*
G36*
X121703Y05947D02*
X121736Y059376D01*
X121571Y059376D01*
X121604Y05947D01*
X121703Y05947D01*
D02*
G37*
G36*
X132756Y060748D02*
Y058032D01*
X132913Y057874D01*
Y057362D01*
X132717Y057165D01*
X132008D01*
X131693Y05748D01*
Y059528D01*
X131457Y059764D01*
X130315D01*
X130276Y059803D01*
Y060118D01*
X130394Y060236D01*
X131693D01*
X132087Y059843D01*
Y05937D01*
X132126Y059331D01*
X132205D01*
Y059843D01*
X13185Y060197D01*
Y060787D01*
X131929Y060866D01*
X132638D01*
X132756Y060748D01*
D02*
G37*
G36*
X145078Y059173D02*
X144988Y059131D01*
X144918Y0592D01*
X144961Y05929D01*
X145078Y059173D01*
D02*
G37*
G36*
X140855Y059075D02*
X140779Y059061D01*
X140715Y059213D01*
X140849Y059225D01*
X140855Y059075D01*
D02*
G37*
G36*
X127913Y059173D02*
X128898D01*
X128937Y059134D01*
Y058976D01*
X128425D01*
X128228Y05878D01*
X127205D01*
X127126Y058858D01*
Y059409D01*
X127283Y059567D01*
X12752D01*
X127913Y059173D01*
D02*
G37*
G36*
X142632Y058776D02*
X142534Y058819D01*
X142534Y058898D01*
X142632Y058941D01*
X142632Y058776D01*
D02*
G37*
G36*
X139295Y058792D02*
X139252Y058702D01*
X139135Y058819D01*
X139225Y058862D01*
X139295Y058792D01*
D02*
G37*
G36*
X128644Y058839D02*
X128654Y05874D01*
X128576Y0587D01*
X128509Y058851D01*
X128644Y058839D01*
D02*
G37*
G36*
X140855Y058839D02*
X140849Y058689D01*
X140715Y0587D01*
X140779Y058853D01*
X140855Y058839D01*
D02*
G37*
G36*
X144189Y058799D02*
X144203Y05872D01*
X144113Y058673D01*
X144085Y058836D01*
X144189Y058799D01*
D02*
G37*
G36*
X143919Y058673D02*
X143828Y05872D01*
X143843Y058799D01*
X143946Y058836D01*
X143919Y058673D01*
D02*
G37*
G36*
X125836Y058587D02*
X125774Y058548D01*
X125705Y058617D01*
X12575Y058682D01*
X125836Y058587D01*
D02*
G37*
G36*
X119094Y061063D02*
Y060079D01*
X118819Y059803D01*
Y058661D01*
X118701Y058543D01*
X118032D01*
Y059724D01*
X118465Y060157D01*
X118622D01*
X11874Y060276D01*
Y061102D01*
X119055D01*
X119094Y061063D01*
D02*
G37*
G36*
X130827Y059449D02*
Y058543D01*
X130748Y058465D01*
X130433D01*
X130394Y058504D01*
Y05878D01*
X130197Y058976D01*
X129764D01*
Y05937D01*
X129961Y059567D01*
X130709D01*
X130827Y059449D01*
D02*
G37*
G36*
X126922Y058539D02*
X126792Y058436D01*
X126755Y058526D01*
X126833Y058587D01*
X126922Y058539D01*
D02*
G37*
G36*
X126451Y058382D02*
X126357Y058415D01*
Y058514D01*
X126451Y058547D01*
Y058382D01*
D02*
G37*
G36*
X139334Y058438D02*
X139291Y058348D01*
X139174Y058465D01*
X139264Y058507D01*
X139334Y058438D01*
D02*
G37*
G36*
X129646Y059291D02*
Y057992D01*
X129567Y057913D01*
X127126D01*
X127087Y057953D01*
Y058465D01*
X127205Y058583D01*
X128386D01*
X128622Y058346D01*
X128976D01*
X129016Y058386D01*
Y059252D01*
X129094Y059331D01*
X129606D01*
X129646Y059291D01*
D02*
G37*
G36*
X133898Y059567D02*
Y058268D01*
X13378Y05815D01*
X133071D01*
X132992Y058228D01*
Y059724D01*
X13374D01*
X133898Y059567D01*
D02*
G37*
G36*
X119606Y060039D02*
X119528Y059961D01*
Y058189D01*
X119488Y05815D01*
X119016D01*
Y059843D01*
X119252Y060079D01*
Y061102D01*
X119606D01*
Y060039D01*
D02*
G37*
G36*
X124863Y05769D02*
X124783Y05772D01*
Y057799D01*
X124867Y057828D01*
X124863Y05769D01*
D02*
G37*
G36*
X128341Y057654D02*
X128247Y057687D01*
Y057785D01*
X128341Y057819D01*
Y057654D01*
D02*
G37*
G36*
X131057Y057594D02*
X130963Y057628D01*
Y057726D01*
X131057Y05776D01*
Y057594D01*
D02*
G37*
G36*
X141325Y057443D02*
X141054Y057559D01*
X141041Y057756D01*
X141297Y057883D01*
X141325Y057443D01*
D02*
G37*
G36*
X128199Y057302D02*
X1281D01*
X128067Y057396D01*
X128232D01*
X128199Y057302D01*
D02*
G37*
G36*
X126624D02*
X126526D01*
X126492Y057396D01*
X126657Y057396D01*
X126624Y057302D01*
D02*
G37*
G36*
X130821Y05724D02*
X130727Y057274D01*
Y057372D01*
X130821Y057406D01*
Y05724D01*
D02*
G37*
G36*
X124876Y057201D02*
X124778Y057244D01*
Y057323D01*
X124876Y057366D01*
Y057201D01*
D02*
G37*
G36*
X123288Y057293D02*
Y057195D01*
X123195Y057161D01*
Y057327D01*
X123288Y057293D01*
D02*
G37*
G36*
X12639Y056633D02*
X126401Y056534D01*
X12631Y056498D01*
X126294Y056662D01*
X12639Y056633D01*
D02*
G37*
G36*
X12492Y056535D02*
X124803Y056418D01*
X124765Y056518D01*
X12482Y056574D01*
X12492Y056535D01*
D02*
G37*
G36*
X123236Y056263D02*
X123234Y056165D01*
X12314Y056132D01*
X123143Y056297D01*
X123236Y056263D01*
D02*
G37*
G36*
X124876Y05602D02*
X124778Y056063D01*
Y056142D01*
X124876Y056185D01*
Y05602D01*
D02*
G37*
G36*
X143977Y055816D02*
X143595Y055598D01*
X143531Y055857D01*
X14371Y055956D01*
X143977Y055816D01*
D02*
G37*
G36*
X124876Y055429D02*
X124778Y055472D01*
Y055551D01*
X124876Y055594D01*
Y055429D01*
D02*
G37*
G36*
X123407Y055522D02*
Y055423D01*
X123313Y05539D01*
Y055555D01*
X123407Y055522D01*
D02*
G37*
G36*
X128389Y055288D02*
X128346Y055198D01*
X12823Y055315D01*
X12832Y055358D01*
X128389Y055288D01*
D02*
G37*
G36*
X144118Y055287D02*
X143996Y055024D01*
X143799D01*
X143677Y055287D01*
X144118Y055287D01*
D02*
G37*
G36*
X128634Y055015D02*
X128469D01*
X128502Y055108D01*
X128601D01*
X128634Y055015D01*
D02*
G37*
G36*
X132265Y055089D02*
Y05499D01*
X132171Y054957D01*
Y055122D01*
X132265Y055089D01*
D02*
G37*
G36*
X124876Y054839D02*
X124778Y054882D01*
Y054961D01*
X124876Y055004D01*
Y054839D01*
D02*
G37*
G36*
X133013Y054774D02*
Y054675D01*
X132919Y054642D01*
Y054807D01*
X133013Y054774D01*
D02*
G37*
G36*
X144118Y054359D02*
X143677D01*
X143799Y054622D01*
X143996D01*
X144118Y054359D01*
D02*
G37*
G36*
X124876Y054248D02*
X124778Y054291D01*
Y05437D01*
X124876Y054413D01*
Y054248D01*
D02*
G37*
G36*
X123446Y05438D02*
Y054282D01*
X123352Y054248D01*
Y054413D01*
X123446Y05438D01*
D02*
G37*
G36*
X140516Y054117D02*
X140257Y054242D01*
X140263Y054439D01*
X14053Y054558D01*
X140516Y054117D01*
D02*
G37*
G36*
X127158Y054208D02*
X127125Y054109D01*
X126996Y054212D01*
X127095Y054257D01*
X127158Y054208D01*
D02*
G37*
G36*
X126717Y054017D02*
X126551D01*
X126594Y054115D01*
X126673D01*
X126717Y054017D01*
D02*
G37*
G36*
X127519Y053999D02*
X12748Y053899D01*
X127363Y054016D01*
X127463Y054054D01*
X127519Y053999D01*
D02*
G37*
G36*
X131608Y053785D02*
X131443D01*
X131476Y053879D01*
X131575D01*
X131608Y053785D01*
D02*
G37*
G36*
X124876Y053657D02*
X124778Y053701D01*
Y05378D01*
X124876Y053823D01*
Y053657D01*
D02*
G37*
G36*
X123367Y053711D02*
Y053612D01*
X123273Y053579D01*
Y053744D01*
X123367Y053711D01*
D02*
G37*
G36*
X127598Y053644D02*
X127559Y053544D01*
X127442Y053661D01*
X127542Y0537D01*
X127598Y053644D01*
D02*
G37*
G36*
X134325Y053461D02*
X134231Y053494D01*
Y053593D01*
X134325Y053626D01*
Y053461D01*
D02*
G37*
G36*
X140476Y053359D02*
X140433Y053269D01*
X140316Y053386D01*
X140406Y053429D01*
X140476Y053359D01*
D02*
G37*
G36*
X139487Y053282D02*
X13937Y053165D01*
X139332Y053265D01*
X139387Y05332D01*
X139487Y053282D01*
D02*
G37*
G36*
X139172Y05315D02*
X139055Y053033D01*
X139017Y053133D01*
X139072Y053188D01*
X139172Y05315D01*
D02*
G37*
G36*
X138231Y052977D02*
X138178Y052918D01*
X13808Y052953D01*
X138189Y053075D01*
X138231Y052977D01*
D02*
G37*
G36*
X132273Y052897D02*
X132248Y052798D01*
X13215Y052775D01*
X132187Y052936D01*
X132273Y052897D01*
D02*
G37*
G36*
X124037Y05248D02*
X123898Y052341D01*
X123625Y052441D01*
X123937Y052753D01*
X124037Y05248D01*
D02*
G37*
G36*
X132535Y052399D02*
X132443Y052262D01*
X132392Y052349D01*
X132446Y052434D01*
X132535Y052399D01*
D02*
G37*
G36*
X12539Y052138D02*
X125226Y052124D01*
X125246Y052214D01*
X125364Y052225D01*
X12539Y052138D01*
D02*
G37*
G36*
X13212Y052122D02*
X132026Y052156D01*
Y052254D01*
X13212Y052287D01*
Y052122D01*
D02*
G37*
G36*
X132608Y052105D02*
X13251D01*
X132476Y052199D01*
X132642D01*
X132608Y052105D01*
D02*
G37*
G36*
X134488Y051944D02*
X134409D01*
X134366Y052042D01*
X134531D01*
X134488Y051944D01*
D02*
G37*
G36*
X131348Y051869D02*
X13125D01*
X131217Y051963D01*
X131382D01*
X131348Y051869D01*
D02*
G37*
G36*
X134058Y051784D02*
X133979D01*
X133941Y051877D01*
X134096D01*
X134058Y051784D01*
D02*
G37*
G36*
X128258Y051859D02*
X128136Y051746D01*
X128095Y051837D01*
X128168Y051903D01*
X128258Y051859D01*
D02*
G37*
G36*
X128924Y051823D02*
X128807Y051706D01*
X128764Y051796D01*
X128834Y051866D01*
X128924Y051823D01*
D02*
G37*
G36*
X131915Y051732D02*
X131905Y051634D01*
X131809Y051603D01*
X131823Y051768D01*
X131915Y051732D01*
D02*
G37*
G36*
X129086Y051614D02*
X129016Y051544D01*
X128926Y051587D01*
X129043Y051704D01*
X129086Y051614D01*
D02*
G37*
G36*
X128017Y051572D02*
X127877Y051484D01*
X127844Y051573D01*
X127931Y051624D01*
X128017Y051572D01*
D02*
G37*
G36*
X128165Y051516D02*
X128174Y051417D01*
X128083Y051381D01*
X128069Y051546D01*
X128165Y051516D01*
D02*
G37*
G36*
X131945Y051122D02*
X131954Y051024D01*
X131863Y050988D01*
X131849Y051152D01*
X131945Y051122D01*
D02*
G37*
G36*
X131101Y050945D02*
X131011Y050902D01*
X130942Y050972D01*
X130984Y051062D01*
X131101Y050945D01*
D02*
G37*
G36*
X129217Y050675D02*
X129051D01*
X129085Y050769D01*
X129183D01*
X129217Y050675D01*
D02*
G37*
G36*
X121875Y050748D02*
Y050669D01*
X121777Y050626D01*
Y050791D01*
X121875Y050748D01*
D02*
G37*
G36*
X131193Y050631D02*
X131094Y050586D01*
X131031Y050635D01*
X131064Y050733D01*
X131193Y050631D01*
D02*
G37*
G36*
X137317Y050449D02*
X137152D01*
X137185Y050542D01*
X137283D01*
X137317Y050449D01*
D02*
G37*
G36*
X141888Y050385D02*
X141632Y050512D01*
X141645Y050709D01*
X141915Y050825D01*
X141888Y050385D01*
D02*
G37*
G36*
X121873Y050163D02*
X121869Y050065D01*
X121774Y050033D01*
X12178Y050198D01*
X121873Y050163D01*
D02*
G37*
G36*
X120355Y05013D02*
X120287Y049806D01*
X119976Y050118D01*
X120299Y050186D01*
X120355Y05013D01*
D02*
G37*
G36*
X136047Y049634D02*
X135606D01*
X135728Y049898D01*
X135925D01*
X136047Y049634D01*
D02*
G37*
G36*
X121473Y049852D02*
Y049754D01*
X121197Y049583D01*
Y050024D01*
X121473Y049852D01*
D02*
G37*
G36*
X121875Y049567D02*
Y049488D01*
X121777Y049445D01*
Y04961D01*
X121875Y049567D01*
D02*
G37*
G36*
X136328Y049449D02*
X136289Y049252D01*
X136006Y049151D01*
X136089Y049584D01*
X136328Y049449D01*
D02*
G37*
G36*
X121836Y048976D02*
Y048898D01*
X121738Y048854D01*
Y04902D01*
X121836Y048976D01*
D02*
G37*
G36*
X121355Y04913D02*
X121287Y048806D01*
X120976Y049118D01*
X121299Y049186D01*
X121355Y04913D01*
D02*
G37*
G36*
X120355Y048476D02*
X120299Y048421D01*
X119976Y048488D01*
X120287Y0488D01*
X120355Y048476D01*
D02*
G37*
G36*
X144331Y047402D02*
X116693D01*
Y048032D01*
X144331D01*
Y047402D01*
D02*
G37*
D10*
X117008Y062008D02*
X117264D01*
X11737Y061902D01*
Y061838D02*
Y061902D01*
X117593Y061614D02*
X117913D01*
X11737Y061838D02*
X117593Y061614D01*
X12185Y048307D02*
X121999Y048456D01*
Y048819D01*
X120469Y048307D02*
X12185D01*
X119972Y048803D02*
X120469Y048307D01*
X121461Y049291D02*
X121908D01*
X121999Y049382D02*
Y049437D01*
X120972Y048803D02*
X121461Y049291D01*
X121908D02*
X121999Y049382D01*
X121908Y050471D02*
X121999Y050562D01*
X121731Y050471D02*
X121908D01*
X121575Y050315D02*
X121731Y050471D01*
X121999Y050562D02*
Y050591D01*
X120484Y050315D02*
X121575D01*
X119972Y049803D02*
X120484Y050315D01*
X121908Y050709D02*
X121999Y050618D01*
Y050591D02*
Y050618D01*
X121693Y050709D02*
X121908D01*
Y049528D02*
X121999Y049437D01*
X121693Y049528D02*
X121908D01*
X121654Y048937D02*
X121908D01*
X121999Y048819D02*
Y048846D01*
X121908Y048937D02*
X121999Y048846D01*
X124655Y057283D02*
X124961D01*
X124655Y057283D02*
X124655Y057283D01*
X126634Y053933D02*
Y054154D01*
X127028Y054547D01*
Y05514D01*
X126951Y055217D02*
X127028Y05514D01*
X126083Y055217D02*
X126951D01*
X127008Y054094D02*
Y054114D01*
X127165Y054271D02*
Y055197D01*
X127008Y054114D02*
X127165Y054271D01*
X124685Y056654D02*
X124921Y056417D01*
X124685Y056654D02*
Y056693D01*
Y057858D02*
X124783Y05776D01*
X124957D01*
X124961Y057756D01*
X124685Y057858D02*
Y057874D01*
X125315Y056693D02*
X125358Y05665D01*
Y056155D02*
X1254Y056112D01*
X125358Y056155D02*
Y05665D01*
X124685Y056112D02*
X124695Y056102D01*
X124961D01*
X125315Y057874D02*
X125343Y057846D01*
Y057311D02*
X12537Y057283D01*
X125343Y057311D02*
Y057846D01*
X117187Y062671D02*
X117323Y062535D01*
Y062362D02*
Y062535D01*
X117002Y062671D02*
X117187D01*
X117323Y062362D02*
X117638Y062047D01*
X116923Y06275D02*
X117002Y062671D01*
X116923Y06275D02*
Y062785D01*
X117638Y062008D02*
Y062047D01*
X118898Y062008D02*
X122283D01*
X117638Y062785D02*
X11812D01*
X118898Y062008D01*
X116992Y061181D02*
X117244D01*
X116953Y06122D02*
X116992Y061181D01*
X117244D02*
X117323Y061102D01*
Y060787D02*
Y061102D01*
X117638Y060433D02*
Y060472D01*
X117323Y060787D02*
X117638Y060472D01*
X117668Y061221D02*
X117992D01*
X118583Y061811D01*
X122165D01*
X122433Y060715D02*
Y061543D01*
X122165Y061811D02*
X122433Y061543D01*
X122283Y062008D02*
X122795Y061496D01*
X124252D01*
X124433Y061315D01*
Y060715D02*
Y061315D01*
X134018Y051782D02*
Y051966D01*
X133957Y051772D02*
X134009D01*
X134018Y051782D01*
X134449Y051784D02*
Y052126D01*
X133661Y051575D02*
X13424D01*
X134449Y051784D01*
X14376Y05876D02*
X144016D01*
X144035D02*
X144581D01*
X144016Y05874D02*
X144035Y05876D01*
X131024Y050571D02*
X131181Y050729D01*
Y050748D01*
X129173Y048189D02*
X131024Y050039D01*
Y050571D01*
X125039Y065866D02*
Y066103D01*
X125247Y066311D02*
X125827D01*
X125039Y066103D02*
X125247Y066311D01*
X126535Y048189D02*
X129173D01*
X126339Y048386D02*
X126535Y048189D01*
X126102Y04878D02*
Y048819D01*
Y04878D02*
X126339Y048543D01*
Y048386D02*
Y048543D01*
X138602Y053455D02*
X139197D01*
X139488Y053164D01*
X139006Y053199D02*
X139173Y053032D01*
X138602Y053199D02*
X139006D01*
X138209Y052943D02*
X138602D01*
X138081Y053071D02*
X138209Y052943D01*
X138071Y053071D02*
X138081D01*
X127677Y05378D02*
Y053898D01*
X127441Y053543D02*
X127677Y05378D01*
X127953Y054173D02*
Y055118D01*
X127677Y053898D02*
X127953Y054173D01*
X127362Y053898D02*
X127717Y054252D01*
Y055157D01*
X127854Y055217D02*
X127953Y055118D01*
X127854Y055217D02*
Y055807D01*
X127657Y055217D02*
X127717Y055157D01*
X127657Y055217D02*
Y055807D01*
X143957Y058366D02*
X144581D01*
X143819Y058228D02*
X143957Y058366D01*
X143721Y057795D02*
X143819Y057894D01*
Y058228D01*
X143701Y057795D02*
X143721D01*
X142372Y058858D02*
X142372Y058858D01*
X142717D01*
X142717Y058858D01*
X14361Y059077D02*
Y059154D01*
X142776Y059232D02*
X143531D01*
X14373Y058957D02*
X144581D01*
X143531Y059232D02*
X14361Y059154D01*
Y059077D02*
X14373Y058957D01*
X143612Y058612D02*
X14376Y05876D01*
X143612Y058563D02*
Y058612D01*
X143455Y058484D02*
X143533D01*
X143612Y058563D01*
X142087Y058661D02*
X142264Y058484D01*
X143455D01*
X141654Y058661D02*
X142087D01*
X141693Y059291D02*
X142717D01*
X141654Y059252D02*
X141693Y059291D01*
X142717D02*
X142776Y059232D01*
X129213Y056476D02*
X129311Y056575D01*
X129331D01*
X129055Y055512D02*
Y056378D01*
X128937Y056496D02*
X129055Y056378D01*
X128819Y056496D02*
X128937D01*
X12874Y056575D02*
X128819Y056496D01*
X129213Y055472D02*
Y056476D01*
X128996Y055256D02*
X129213Y055472D01*
X128858Y055315D02*
X129055Y055512D01*
X128858Y054724D02*
Y055315D01*
Y054724D02*
X128957Y054626D01*
X129429D01*
X128996Y054902D02*
X129075Y054823D01*
X129429D01*
X128996Y054902D02*
Y055256D01*
X127067Y055295D02*
X127165Y055197D01*
X127067Y055295D02*
Y055807D01*
X126969Y056378D02*
Y056791D01*
X126575Y057185D02*
X126969Y056791D01*
X12687Y05628D02*
X126969Y056378D01*
X12687Y055807D02*
Y05628D01*
X124685Y05374D02*
X124961D01*
X124685Y054331D02*
X124961D01*
X124685Y054921D02*
X124961D01*
X124685Y055512D02*
X124685Y055512D01*
X124961D01*
X12563Y054724D02*
X125728Y054626D01*
X125315Y055512D02*
X125584D01*
X12563Y055466D01*
Y054724D02*
Y055466D01*
X125315Y054882D02*
X125492Y054705D01*
Y054626D02*
Y054705D01*
Y054626D02*
X125689Y054429D01*
X125315Y054882D02*
Y054921D01*
X125728Y054626D02*
X126083D01*
X125689Y054429D02*
X126083D01*
X125413Y054232D02*
X126083D01*
X125315Y054331D02*
X125413Y054232D01*
X133465Y051378D02*
X133661Y051575D01*
X142303Y06501D02*
X143081D01*
X142274Y06498D02*
X142303Y06501D01*
X143081D02*
X14311Y065039D01*
X142047Y064173D02*
Y064833D01*
X142195Y06498D01*
X142274D01*
D12*
X133957Y051181D02*
X134331D01*
X1329Y051772D02*
Y052297D01*
X132349Y052848D02*
X1329Y052297D01*
X134479Y051526D02*
X134695D01*
X134331Y051378D02*
X134479Y051526D01*
X134695D02*
X134744Y051575D01*
X133957Y051378D02*
X134331D01*
X134409Y050728D02*
Y051102D01*
X134331Y051181D02*
X134409Y051102D01*
X121857Y049803D02*
X121999Y049945D01*
X120972Y049803D02*
X121857D01*
X121999Y049945D02*
Y05D01*
Y050033D01*
X121918Y050114D02*
X121999Y050033D01*
X121697Y050114D02*
X121918D01*
X121693Y050118D02*
X121697Y050114D01*
X121811Y06874D02*
Y068976D01*
X12185Y069016D01*
X128445Y055413D02*
Y055807D01*
X128228Y055197D02*
X128445Y055413D01*
X128552Y05493D02*
Y055205D01*
X128642Y055295D01*
Y055807D01*
X124705Y052953D02*
X125Y053248D01*
X126083D01*
X137234Y050699D02*
X137795Y05126D01*
X137234Y050364D02*
Y050699D01*
X137795Y05126D02*
X138425D01*
X144581Y059154D02*
X144941D01*
X145079Y059291D01*
X144581Y058957D02*
X14498D01*
X145039Y058898D01*
Y058661D02*
Y058898D01*
X144941Y058563D02*
X145039Y058661D01*
X144581Y058563D02*
X144941D01*
X145039Y05975D02*
X145354Y059435D01*
X144951Y057982D02*
X145354Y058386D01*
Y059435D01*
X144581Y059803D02*
X144634Y05975D01*
X145039D01*
X14465Y057982D02*
X144951D01*
X144581Y057913D02*
X14465Y057982D01*
X140276Y052835D02*
X140384Y052943D01*
X140925D01*
X140502Y053455D02*
X140925D01*
X140315Y053268D02*
X140502Y053455D01*
X138425Y05126D02*
X138602Y051437D01*
Y051663D01*
X126218Y056572D02*
X126229Y056583D01*
X126564D01*
X126575Y056594D01*
X119488Y06815D02*
Y068386D01*
X144081Y063414D02*
X144089Y063406D01*
X143701Y063356D02*
X143758Y063414D01*
X144081D01*
X143701Y063032D02*
Y063356D01*
X142618Y064173D02*
X142628Y064183D01*
Y064478D01*
X142638Y064488D01*
X142327Y063868D02*
X142573Y063622D01*
Y063494D02*
Y063622D01*
X142323Y063868D02*
X142327D01*
X142913Y063071D02*
X14311Y062874D01*
X14213Y063071D02*
X142913D01*
X142073Y063129D02*
X14213Y063071D01*
X142073Y063129D02*
Y063494D01*
X14311Y062717D02*
X143346Y06248D01*
X14311Y062717D02*
Y062874D01*
X143346Y06248D02*
X143701D01*
X137795Y064843D02*
X138976D01*
X138976Y065472D02*
X139291D01*
X138976Y065472D02*
X138976Y065472D01*
X129724Y050543D02*
Y050866D01*
Y050543D02*
X129782Y050486D01*
X130525D01*
X131102Y051063D01*
X123898Y058583D02*
X12574D01*
X123819Y058661D02*
X123898Y058583D01*
X123819Y058661D02*
Y058937D01*
X125858Y058701D02*
X125866D01*
X12574Y058583D02*
X125858Y058701D01*
X13141Y054211D02*
X131577Y054377D01*
X13141Y054057D02*
X131526Y053942D01*
X13141Y054057D02*
Y054211D01*
X131526Y053701D02*
Y053942D01*
X131577Y054667D02*
X131642Y054732D01*
X132197D01*
X131577Y054377D02*
Y054667D01*
X131024Y054724D02*
X131519D01*
X131577Y054667D01*
X132598Y054059D02*
X132717Y053941D01*
X132598Y054059D02*
Y054331D01*
X132197Y054732D02*
X132598Y054331D01*
X132717Y053941D02*
X132896D01*
X122437Y067411D02*
Y068386D01*
X124845Y066735D02*
Y066772D01*
X124933Y06686D01*
Y067407D01*
X124433Y066864D02*
Y067407D01*
X124528Y066732D02*
Y06677D01*
X124433Y066864D02*
X124528Y06677D01*
X123622Y06878D02*
X123622Y06878D01*
Y069016D01*
X122441Y06878D02*
X122441Y06878D01*
Y069016D01*
X120906Y069488D02*
X124875D01*
X120669Y069252D02*
X120906Y069488D01*
X120669Y069016D02*
Y069252D01*
X124875Y069488D02*
X125269Y069094D01*
X125276D01*
X125Y068701D02*
Y069141D01*
X12126Y069016D02*
Y069252D01*
X12481Y069331D02*
X125Y069141D01*
X121339Y069331D02*
X12481D01*
X12126Y069252D02*
X121339Y069331D01*
X123661Y068386D02*
X12375Y068297D01*
Y068258D02*
X123933Y068075D01*
Y067407D02*
Y068075D01*
X123622Y068386D02*
X123661D01*
X12375Y068258D02*
Y068297D01*
X120433Y067953D02*
X120536Y068055D01*
X120541Y068258D02*
Y068297D01*
X120536Y068252D02*
X120541Y068258D01*
X120536Y068055D02*
Y068252D01*
X12063Y068386D02*
X120669D01*
X120541Y068297D02*
X12063Y068386D01*
X120933Y067407D02*
Y067902D01*
X121063Y068032D01*
X121181D01*
X12126Y06811D01*
Y068386D01*
X121433Y067929D02*
X121663Y06816D01*
X121811Y068386D02*
X12185D01*
X121663Y068238D02*
X121811Y068386D01*
X121663Y06816D02*
Y068238D01*
X121433Y067407D02*
Y067929D01*
X120433Y067407D02*
Y067953D01*
X129882Y057874D02*
Y058278D01*
X130079Y057677D02*
X131142D01*
X129882Y057874D02*
X130079Y057677D01*
X129961Y057323D02*
X130906D01*
X129685Y057598D02*
X129961Y057323D01*
X129921Y057008D02*
X130593D01*
X129331Y057205D02*
X129724D01*
X129921Y057008D01*
X130593D02*
X130671Y057087D01*
X130709D01*
X128858Y057598D02*
X129685D01*
X12874Y057205D02*
Y05748D01*
X128858Y057598D01*
X139526Y059093D02*
X140098D01*
X139134Y058701D02*
X139526Y059093D01*
X139173Y058346D02*
X139419Y058593D01*
X140098D01*
X12873Y067185D02*
Y067549D01*
X12874Y067559D01*
X12872Y067175D02*
X12873Y067185D01*
X129055Y067835D02*
X129724D01*
X128622D02*
X129055D01*
X126024Y058189D02*
X126299Y058465D01*
X123228Y058189D02*
X126024D01*
X126299Y058465D02*
X126535D01*
X126288Y058716D02*
X126635D01*
X126909Y058421D02*
Y058441D01*
X126635Y058716D02*
X126909Y058441D01*
X125919Y058346D02*
X126288Y058716D01*
X132362Y055039D02*
X132559Y054843D01*
X132087Y055039D02*
X132362D01*
X132355Y052455D02*
X132527Y052283D01*
X131732Y052601D02*
X131878Y052455D01*
X132355D01*
X132527Y052283D02*
X132559D01*
Y051693D02*
Y052283D01*
Y051693D02*
X132677Y051575D01*
X131732Y052601D02*
Y053018D01*
X123346Y058346D02*
X125919D01*
X123228Y058465D02*
Y058937D01*
Y058465D02*
X123346Y058346D01*
X123032Y058386D02*
X123228Y058189D01*
X123032Y058386D02*
Y058504D01*
X122598Y058937D02*
X123032Y058504D01*
X122244Y058937D02*
X122598D01*
X120079Y06878D02*
Y069016D01*
X120079Y06878D02*
X120079Y06878D01*
X119488Y06878D02*
Y069016D01*
X127617Y057736D02*
X128425D01*
X127559Y057679D02*
X127617Y057736D01*
X127559Y057205D02*
Y057679D01*
X132025Y054505D02*
X132033Y054497D01*
X132209D02*
X132441Y054265D01*
Y053898D02*
Y054265D01*
X132033Y054497D02*
X132209D01*
X132559Y054646D02*
Y054843D01*
Y054646D02*
X1329Y054305D01*
X12311Y057244D02*
X123425D01*
X123526Y056693D02*
Y057144D01*
X123425Y057244D02*
X123526Y057144D01*
X123228Y056693D02*
X123526D01*
X123008Y056473D02*
X123228Y056693D01*
X122589Y056473D02*
X123008D01*
X123059Y056214D02*
X123445D01*
X123526Y056133D01*
X123057Y056216D02*
X123059Y056214D01*
X123526Y056047D02*
Y056133D01*
X123819Y06D02*
X123933Y060114D01*
X123228Y059567D02*
Y059921D01*
X123032Y06185D02*
X124567D01*
X125028Y062311D02*
X125827D01*
X124567Y06185D02*
X125028Y062311D01*
X128203Y065748D02*
X128346D01*
X12748Y065945D02*
X128006D01*
X128203Y065748D01*
X126323Y065811D02*
X126457Y065945D01*
X12685D01*
X125827Y065811D02*
X126323D01*
X129724Y067835D02*
X130118Y068228D01*
Y068858D01*
X128307Y06752D02*
X128622Y067835D01*
X128307Y06685D02*
Y06752D01*
X128032Y066575D02*
X128307Y06685D01*
X128032Y066535D02*
Y066575D01*
X127362Y067835D02*
X127707D01*
X127972Y067569D01*
Y067175D02*
Y067569D01*
X12749Y068258D02*
X128346D01*
X127323Y068425D02*
X12749Y068258D01*
X128346D02*
X128612D01*
X128858Y068504D02*
Y069252D01*
X128612Y068258D02*
X128858Y068504D01*
Y069252D02*
X129134Y069528D01*
X13189D01*
X132087Y069331D01*
Y068858D02*
Y069331D01*
X128661Y066535D02*
X129016D01*
X127638D02*
X128032D01*
X127362Y066811D02*
X127638Y066535D01*
X127362Y066811D02*
Y067205D01*
X120472Y059567D02*
Y059843D01*
X120433Y060236D02*
Y060715D01*
Y060236D02*
X120669Y06D01*
X120866D01*
X121654Y059567D02*
X121654Y059567D01*
X121654Y059291D02*
Y059567D01*
X121654Y059291D02*
X121654Y059291D01*
X130827Y05122D02*
X131299Y051693D01*
Y052047D01*
X130433Y05122D02*
X130827D01*
X130315Y051102D02*
X130433Y05122D01*
X130315Y050866D02*
Y051102D01*
X131772Y051063D02*
X131782Y051073D01*
X132077D02*
X132087Y051083D01*
X131782Y051073D02*
X132077D01*
X132087Y051083D02*
X1325D01*
X131742Y051683D02*
X132077D01*
X132087Y051673D01*
X131732Y051693D02*
X131742Y051683D01*
X131299Y053451D02*
X131732Y053018D01*
X131575Y052475D02*
Y052953D01*
X131299Y053228D02*
X131575Y052953D01*
X131024Y054094D02*
Y054134D01*
Y054094D02*
X131299Y053819D01*
Y053451D02*
Y053819D01*
X131575Y052475D02*
X131845Y052205D01*
X131299Y053228D02*
X131299D01*
X131024Y053504D02*
X131299Y053228D01*
X131024Y053504D02*
Y053543D01*
X131845Y052205D02*
X132205D01*
X132598Y050984D02*
X132972D01*
X1325Y051083D02*
X132598Y050984D01*
X132113Y052848D02*
X132349D01*
X132087Y052874D02*
X132113Y052848D01*
X132677Y051575D02*
X132972D01*
X132382Y051634D02*
Y052028D01*
X132205Y052205D02*
X132382Y052028D01*
Y051634D02*
X132638Y051378D01*
X132972D01*
X144618Y06248D02*
X145433Y063295D01*
X145472D01*
X144331Y06248D02*
X144618D01*
X144803Y065079D02*
X144988Y065264D01*
X145472D01*
X144803Y063189D02*
Y065079D01*
X144646Y063032D02*
X144803Y063189D01*
X144331Y063032D02*
X144646D01*
X125669Y068701D02*
X126181D01*
X125276Y069094D02*
X125669Y068701D01*
X139577Y061093D02*
X140098D01*
X139331Y061339D02*
Y062165D01*
Y061339D02*
X139577Y061093D01*
X13813Y062795D02*
X138701D01*
X139331Y062165D01*
X137894Y063031D02*
X13813Y062795D01*
X137894Y063031D02*
Y063976D01*
X139862Y062835D02*
Y063976D01*
X139823Y062795D02*
X139862Y062835D01*
X140002Y061656D02*
Y062616D01*
X140066Y061593D02*
X140098D01*
X140002Y061656D02*
X140066Y061593D01*
X139823Y062795D02*
X140002Y062616D01*
X123447Y053661D02*
X123526Y05374D01*
X123189Y053661D02*
X123447D01*
X123445Y053876D02*
X123526Y053795D01*
X123308Y053876D02*
X123445D01*
X123189Y053995D02*
X123308Y053876D01*
X123189Y053995D02*
Y054055D01*
X123526Y05374D02*
Y053795D01*
X123022Y054222D02*
X123189Y054055D01*
X122675Y054222D02*
X123022D01*
X122589Y054307D02*
X122675Y054222D01*
X123268Y054331D02*
X123526D01*
X123526Y054331D01*
X123171Y054741D02*
X123526Y054386D01*
Y054331D02*
Y054386D01*
X122589Y054741D02*
X123171D01*
X123525Y055511D02*
X123526Y055512D01*
X123486Y055472D02*
X123525Y055511D01*
X123228Y055472D02*
X123486D01*
X123524Y054921D02*
X123525Y054922D01*
Y055511D01*
X12342Y055025D02*
X123524Y054921D01*
X123203Y055025D02*
X12342D01*
X123055Y055174D02*
X123203Y055025D01*
X122589Y055174D02*
X123055D01*
X123266Y055787D02*
X123526Y056047D01*
X12315Y055787D02*
X123266D01*
X122589Y055607D02*
X122653Y05567D01*
X123032D01*
X12315Y055787D01*
X125394Y059567D02*
Y060675D01*
X125433Y060715D01*
X123819Y059567D02*
Y06D01*
X123933Y060114D02*
Y060715D01*
X123433Y060126D02*
Y060715D01*
X123228Y059921D02*
X123433Y060126D01*
X126782Y067215D02*
X127352D01*
X127362Y067205D01*
X126772Y067224D02*
X126782Y067215D01*
X126161Y067224D02*
X126772D01*
X125433Y067407D02*
X125978D01*
X126161Y067224D01*
X123032Y068307D02*
Y068386D01*
X122933Y067407D02*
Y068209D01*
X123032Y068307D01*
X122433Y067407D02*
X122437Y067411D01*
X119933Y068122D02*
X120079Y068268D01*
X119933Y067407D02*
Y068122D01*
X119433Y067407D02*
Y068094D01*
X119488Y06815D01*
X130276Y058406D02*
Y058425D01*
Y058406D02*
X13061Y058071D01*
X130167Y058533D02*
X130276Y058425D01*
X129882Y058533D02*
X130167D01*
X137795Y064567D02*
Y064843D01*
Y064567D02*
X137795Y064567D01*
X138976Y064843D02*
X138976Y064843D01*
X128583Y059724D02*
X128927D01*
X129016Y059813D02*
Y059843D01*
X128927Y059724D02*
X129016Y059813D01*
X128976Y059882D02*
X129016Y059843D01*
X128976Y059882D02*
Y060118D01*
X128858Y060236D02*
X128976Y060118D01*
X128071Y060236D02*
X128858D01*
X128051Y059646D02*
X128061Y059656D01*
Y060226D01*
X128071Y060236D01*
X128502Y058741D02*
X128551Y058789D01*
X12878D01*
X128465Y058741D02*
X128502D01*
X126575Y05748D02*
X126575Y05748D01*
Y057185D02*
Y05748D01*
X12815Y057205D02*
Y05748D01*
X12814Y056575D02*
X12815D01*
X128051Y055807D02*
Y056486D01*
X12814Y056575D01*
X125591Y05374D02*
X125689Y053839D01*
X126083D01*
X125315Y05374D02*
X125591D01*
X121462Y060231D02*
Y060686D01*
Y060231D02*
X121693Y06D01*
X121433Y060715D02*
X121462Y060686D01*
X121399Y059921D02*
X121457Y059864D01*
X12122Y059921D02*
X121399D01*
X121457Y059724D02*
X121614Y059567D01*
X121457Y059724D02*
Y059864D01*
X121614Y059567D02*
X121654D01*
X121693Y06D02*
X122126D01*
X122244Y059882D01*
Y059567D02*
Y059882D01*
X120933Y060209D02*
X12122Y059921D01*
X120933Y060209D02*
Y060715D01*
X120866Y06D02*
X120984Y059882D01*
Y059646D02*
X121063Y059567D01*
X120984Y059646D02*
Y059882D01*
X119961Y06D02*
Y060687D01*
X119933Y060715D02*
X119961Y060687D01*
X119882Y059547D02*
Y059921D01*
X119961Y06D01*
X119892Y059557D02*
X120463D01*
X120472Y059567D01*
X119882Y059547D02*
X119892Y059557D01*
X127461Y055807D02*
Y056486D01*
X127549Y056575D01*
X127559D01*
X126575Y056594D02*
X126669Y0565D01*
Y055811D02*
X126673Y055807D01*
X126669Y055811D02*
Y0565D01*
X133465Y05374D02*
X13403D01*
Y054134D02*
Y054593D01*
X133898Y054724D02*
X13403Y054593D01*
X132835Y054724D02*
X133898D01*
X1329Y054134D02*
Y054305D01*
X132896Y053941D02*
X1329Y053937D01*
X132087Y054029D02*
Y054035D01*
X132362Y053661D02*
Y053754D01*
X132087Y054029D02*
X132362Y053754D01*
X132441Y053898D02*
X132598Y05374D01*
X1329D01*
X125413Y049656D02*
X125443Y049626D01*
Y048848D02*
Y049626D01*
Y048848D02*
X125472Y048819D01*
X130315Y055157D02*
X13065D01*
X131004Y055512D01*
X129429Y05502D02*
X130177D01*
X130315Y055157D01*
X130118Y055217D02*
X130413Y055512D01*
X129429Y055217D02*
X130118D01*
X130079Y054016D02*
Y05437D01*
X130394Y054685D01*
Y054724D01*
X129902Y053839D02*
X130079Y054016D01*
X129429Y053839D02*
X129902D01*
X130166Y053867D02*
X130394Y054094D01*
X130166Y053788D02*
Y053867D01*
X130394Y054094D02*
Y054134D01*
X13002Y053642D02*
X130166Y053788D01*
X129429Y053642D02*
X13002D01*
X129429Y053445D02*
X130305D01*
X130394Y053533D01*
Y053543D01*
X130148Y053081D02*
X130305D01*
X130394Y052953D02*
Y052992D01*
X130305Y053081D02*
X130394Y052992D01*
X12998Y053248D02*
X130148Y053081D01*
X129429Y053248D02*
X12998D01*
X129429Y053051D02*
X129862D01*
X129961Y05252D02*
Y052953D01*
X129862Y053051D02*
X129961Y052953D01*
Y05252D02*
X130118Y052362D01*
X130394D01*
X128839Y052253D02*
Y052461D01*
Y052253D02*
X128848Y052244D01*
X129803D01*
X13Y052047D01*
X130187Y051585D02*
Y051624D01*
X13Y051811D02*
X130187Y051624D01*
X130276Y051496D02*
X130315D01*
X130187Y051585D02*
X130276Y051496D01*
X13Y051811D02*
Y052047D01*
X129134Y050591D02*
Y050886D01*
X129724Y051496D02*
Y051772D01*
X129724Y051496D02*
X129724Y051496D01*
X128583Y052008D02*
X129488D01*
X128449Y052142D02*
X128583Y052008D01*
X129488D02*
X129724Y051772D01*
X12878Y05185D02*
X129134Y051496D01*
X128465Y05185D02*
X12878D01*
X128248Y052067D02*
X128465Y05185D01*
X128445Y052461D02*
X128449Y052457D01*
Y052142D02*
Y052457D01*
X129134Y051476D02*
Y051496D01*
X128254Y051741D02*
Y051747D01*
X128051Y05195D02*
X128254Y051747D01*
X128248Y052067D02*
Y052461D01*
X127854Y051632D02*
Y052461D01*
Y051632D02*
X127992Y051494D01*
Y051457D02*
Y051494D01*
Y051457D02*
X128002Y051467D01*
X128533D01*
X128051Y05195D02*
Y052461D01*
X128533Y051467D02*
X128543Y051476D01*
X127461Y051083D02*
X127657Y050886D01*
Y050197D02*
Y050886D01*
X127461Y051083D02*
Y052461D01*
X127657Y051161D02*
X128346Y050472D01*
X127657Y051161D02*
Y052461D01*
X128346Y050197D02*
Y050472D01*
Y049496D02*
Y050197D01*
Y049496D02*
X128799Y049043D01*
Y049016D02*
Y049043D01*
X127106Y049035D02*
X127657Y049587D01*
X127106Y049016D02*
Y049035D01*
X127657Y049587D02*
Y050197D01*
X143091Y059547D02*
X144581D01*
X144142Y066174D02*
X144559D01*
X144724Y066339D01*
X145906Y06752D02*
X146122Y067736D01*
X146457D01*
X145945Y068819D02*
X146181Y069055D01*
Y069094D01*
X145945Y068268D02*
Y068819D01*
Y068268D02*
X146102Y06811D01*
X146457D01*
Y068484D02*
X146909D01*
X147047Y066378D02*
Y068346D01*
X146909Y068484D02*
X147047Y068346D01*
X146843Y066174D02*
X147047Y066378D01*
X146409Y066174D02*
X146843D01*
X133976Y05061D02*
Y050984D01*
X133957D02*
X133976D01*
X13376Y050394D02*
Y050394D01*
X133976Y05061D01*
X134409Y050728D02*
X134744Y050394D01*
X13248Y053543D02*
X1329D01*
X132362Y053661D02*
X13248Y053543D01*
X132087Y053445D02*
X132181Y05335D01*
X132896D02*
X1329Y053346D01*
X132181Y05335D02*
X132896D01*
X134343Y05315D02*
X134941D01*
X134941Y05315D01*
X13403Y053346D02*
X134146D01*
X134343Y05315D01*
X134941Y05374D02*
Y054331D01*
X134646Y05374D02*
X134941D01*
X134449Y053937D02*
X134646Y05374D01*
X13403Y053937D02*
X134449D01*
X13403Y053543D02*
X134409D01*
X142835Y059803D02*
X143091Y059547D01*
X142835Y059803D02*
Y059843D01*
X132018Y063888D02*
X132028Y063878D01*
X131437Y063898D02*
X131447Y063888D01*
X132018D01*
X132047Y062756D02*
Y063268D01*
X132028Y063287D02*
X132047Y063268D01*
X131998Y062195D02*
Y062707D01*
X132047Y062756D01*
X130315Y062008D02*
X130591D01*
X13122D02*
Y062598D01*
X131987Y06195D02*
X131998Y061939D01*
X131278Y06195D02*
X131987D01*
X13122Y062008D02*
X131278Y06195D01*
X131299Y061339D02*
X131339D01*
X131672Y061672D01*
X131987D01*
X131998Y061683D01*
X130512Y061339D02*
X131299D01*
X13375Y061939D02*
X134262D01*
X134419Y061782D01*
X13375Y062195D02*
Y062587D01*
X133563Y062774D02*
X13375Y062587D01*
X133563Y062774D02*
Y062795D01*
D13*
X139876Y060093D02*
X140098D01*
X139487Y060211D02*
X139493Y060218D01*
X139751D01*
X139409Y060195D02*
X139426Y060211D01*
X139487D01*
X139751Y060218D02*
X139876Y060093D01*
X140693Y058809D02*
X140738Y058764D01*
X140669Y058809D02*
X140693D01*
X140738Y058764D02*
X140961D01*
X141024Y058661D02*
Y058701D01*
X140961Y058764D02*
X141024Y058701D01*
X139876Y060593D02*
X140098D01*
X139487Y060474D02*
X139493Y060468D01*
X139409Y06049D02*
X139426Y060474D01*
X139487D01*
X139751Y060468D02*
X139876Y060593D01*
X139493Y060468D02*
X139751D01*
X141024Y059213D02*
Y059252D01*
X140961Y05915D02*
X141024Y059213D01*
X140738Y05915D02*
X140961D01*
X140693Y059104D02*
X140738Y05915D01*
X140669Y059104D02*
X140693D01*
D18*
X142228Y049307D02*
Y049504D01*
X141929Y049803D02*
X142228Y049504D01*
Y049307D02*
X14252Y049016D01*
X143898D01*
X142126Y050591D02*
X14311D01*
X143287Y050768D02*
X143878D01*
X14311Y050591D02*
X143287Y050768D01*
X143878D02*
X143898Y050787D01*
X117362Y060039D02*
X117913D01*
X117008Y060394D02*
X117362Y060039D01*
X117008Y060394D02*
Y060433D01*
X12249Y05059D02*
X122785D01*
X122489Y050591D02*
X12249Y05059D01*
X122785D02*
X122785Y050589D01*
X125157Y061811D02*
X125827D01*
X125157Y061811D02*
X125157Y061811D01*
X125827D02*
X125827Y061811D01*
X124016Y051732D02*
Y052362D01*
X123622Y052756D02*
X124016Y052362D01*
X139961Y049902D02*
Y050315D01*
X124016Y055457D02*
X124114Y055358D01*
X124016Y055457D02*
Y055512D01*
X124114Y054921D02*
Y055358D01*
X121703Y056102D02*
X121713D01*
X121776Y05604D02*
X122589D01*
X121713Y056102D02*
X121776Y05604D01*
X118691Y067866D02*
X118933Y067624D01*
X118511Y067866D02*
X118691D01*
X118933Y067407D02*
Y067624D01*
X118504Y067874D02*
X118511Y067866D01*
X130229Y066331D02*
X130236Y066339D01*
X130118Y065787D02*
X130229Y065898D01*
Y066331D01*
X132237Y06637D02*
X132244Y066378D01*
X132087Y065787D02*
X132237Y065937D01*
Y06637D01*
X126772Y067815D02*
Y06811D01*
X126772Y06811D02*
X126772Y06811D01*
X122205Y051833D02*
X122356Y051984D01*
X122205Y051535D02*
Y051833D01*
X122356Y051984D02*
X122382D01*
X123504Y048661D02*
X124016D01*
X122382Y058028D02*
X122385Y058024D01*
X121706Y058028D02*
X122382D01*
X121703Y058032D02*
X121706Y058028D01*
X132717Y055177D02*
X133091D01*
X13248Y055413D02*
X132717Y055177D01*
X13248Y055413D02*
X132854Y055787D01*
X134252D01*
X14636Y05685D02*
X146364Y056846D01*
X145827Y05685D02*
X14636D01*
X145074Y057103D02*
Y057318D01*
X145079Y057323D01*
X144817Y056846D02*
X145074Y057103D01*
X14636Y060866D02*
X146364Y06087D01*
X145866Y060866D02*
X14636D01*
X144782Y060906D02*
X144817Y06087D01*
X144213Y060906D02*
X144782D01*
X143516Y060519D02*
X143851D01*
X143504Y060532D02*
X143516Y060519D01*
X143851D02*
X143858Y060512D01*
X144223Y060236D02*
X144322Y060138D01*
X144561D02*
X144581Y060118D01*
X144322Y060138D02*
X144561D01*
X144213Y060236D02*
X144223D01*
X144322Y057448D02*
X144472Y057598D01*
X14422Y057448D02*
X144322D01*
X144213Y057441D02*
X14422Y057448D01*
X144472Y057598D02*
X144581D01*
X143701Y05689D02*
X143701Y05689D01*
X143701Y05689D02*
Y057165D01*
X145276Y069094D02*
X145551D01*
X143898Y06813D02*
Y068406D01*
X143071Y065669D02*
X14311D01*
X142835Y065433D02*
X143071Y065669D01*
X142835Y065433D02*
Y065433D01*
X138472Y06363D02*
Y063964D01*
X138484Y063976D01*
X138465Y063622D02*
X138472Y06363D01*
X139323Y064028D02*
Y064323D01*
X139272Y063976D02*
X139323Y064028D01*
Y064323D02*
X139331Y064331D01*
X141024Y060433D02*
X141024Y060433D01*
X140748Y060433D02*
X141024D01*
X141574Y06133D02*
Y061771D01*
X141575Y061772D01*
X141573Y061329D02*
X141574Y06133D01*
X142566Y061336D02*
X142573Y061329D01*
X142566Y061336D02*
Y061725D01*
X142559Y061732D02*
X142566Y061725D01*
X142205Y060787D02*
X142212Y06078D01*
Y060445D02*
X142224Y060433D01*
X142212Y060445D02*
Y06078D01*
X141634Y059843D02*
X141929D01*
X141929Y059843D01*
X142205D01*
X139968Y057803D02*
Y058074D01*
X139986Y058093D02*
X140098D01*
X139968Y058074D02*
X139986Y058093D01*
X139961Y057795D02*
X139968Y057803D01*
X117921Y051489D02*
X118438D01*
X118452Y051474D01*
X117913Y051496D02*
X117921Y051489D01*
X118449Y058028D02*
X118452Y058024D01*
X117956Y058028D02*
X118449D01*
X117953Y058032D02*
X117956Y058028D01*
X125079Y058937D02*
X125394D01*
X133157Y049496D02*
Y050382D01*
X132832Y050731D02*
X133169Y050394D01*
X132567Y050731D02*
X132832D01*
X132559Y050738D02*
X132567Y050731D01*
X13315Y049488D02*
X133157Y049496D01*
Y050382D02*
X133169Y050394D01*
X134744Y049547D02*
Y050394D01*
X134291Y049094D02*
X134744Y049547D01*
X133858Y049094D02*
X134291D01*
X140906Y054803D02*
X141024D01*
X141417Y054409D01*
Y05374D02*
Y054409D01*
X140669Y055039D02*
Y055079D01*
Y055039D02*
X140906Y054803D01*
X14063Y055118D02*
X140669Y055079D01*
X137944Y054941D02*
X13811D01*
X137845Y054843D02*
X137944Y054941D01*
X13811D02*
X138189Y05502D01*
X137835Y054843D02*
X137845D01*
X137008Y055984D02*
X137579D01*
X137807Y055795D02*
X137866D01*
X137874Y055787D01*
X137598Y056004D02*
X137807Y055795D01*
X135834Y054889D02*
X135992D01*
X135827Y054882D02*
X135834Y054889D01*
X136201Y055098D02*
Y055197D01*
X135992Y054889D02*
X136201Y055098D01*
X130992Y056115D02*
X131004Y056102D01*
X130992Y056115D02*
Y056449D01*
X130984Y056457D02*
X130992Y056449D01*
X124016Y056693D02*
X124311D01*
X124016Y055512D02*
X124311D01*
X124016Y056102D02*
X124311D01*
X135532Y05315D02*
X135827D01*
X131174Y052763D02*
X131247D01*
X131024Y052913D02*
Y052953D01*
Y052913D02*
X131174Y052763D01*
X126407Y050866D02*
X126417D01*
X125787Y050738D02*
X126279D01*
X126407Y050866D01*
X124016Y051732D02*
X125118D01*
X125472Y051378D02*
Y051417D01*
X125394Y051457D02*
X125433D01*
X125512Y051093D02*
Y051339D01*
X125118Y051732D02*
X125394Y051457D01*
X125472Y051378D02*
X125512Y051339D01*
X125433Y051457D02*
X125472Y051417D01*
X125512Y051093D02*
X125787Y050817D01*
X126102Y051378D02*
Y051693D01*
X139882Y054724D02*
X140276D01*
X138858Y055098D02*
Y055433D01*
X127441Y060236D02*
X127451Y060226D01*
Y059656D02*
X127461Y059646D01*
X127451Y059656D02*
Y060226D01*
X140945Y050098D02*
X140957Y050111D01*
X141292D02*
X141299Y050118D01*
X140957Y050111D02*
X141292D01*
X14252Y051063D02*
X142638Y051181D01*
Y051575D01*
X141516Y05061D02*
X142106D01*
X141142Y050984D02*
X141516Y05061D01*
X142106D02*
X142126Y050591D01*
X140276Y050984D02*
X141142D01*
X139646Y050945D02*
Y050984D01*
X139587Y050315D02*
Y050886D01*
X139646Y050945D01*
X139606Y051024D02*
X139646Y050984D01*
X139114Y051024D02*
X139606D01*
X138878Y050787D02*
X139114Y051024D01*
X140504Y050583D02*
X140622D01*
X14063Y050591D01*
X140957Y04952D02*
X141292D01*
X140945Y049508D02*
X140957Y04952D01*
X141292D02*
X141299Y049528D01*
X140335Y049291D02*
X140728D01*
X140945Y049508D01*
X140276Y048622D02*
X140276Y048622D01*
X140551D01*
X139646Y048622D02*
Y049134D01*
X139587Y049193D02*
X139646Y049134D01*
X139587Y049193D02*
Y049291D01*
X131437Y062992D02*
X131437Y062992D01*
Y063268D01*
X130315Y062598D02*
X130591D01*
X141516Y057657D02*
X141535Y057677D01*
X140925Y057657D02*
X141516D01*
X14063Y057362D02*
X140925Y057657D01*
X14063Y05689D02*
Y057362D01*
X139882Y05687D02*
X14061D01*
X14063Y05689D01*
X139449Y056749D02*
X139564Y056864D01*
X139876D01*
X139449Y056237D02*
Y056749D01*
Y056237D02*
X139564Y056122D01*
X139882D01*
X137008Y055079D02*
X137008Y055079D01*
X137008Y055079D02*
Y055413D01*
X137598Y055079D02*
X137598Y055079D01*
X137598Y055079D02*
Y055413D01*
X137008Y058268D02*
X137183Y058093D01*
X137854D01*
X137167Y059093D02*
X137854D01*
X137008Y059252D02*
X137167Y059093D01*
X137008Y059843D02*
X137258Y059593D01*
X137854D01*
X125787Y050738D02*
Y050817D01*
X126161Y049656D02*
Y04997D01*
X142007Y061171D02*
X142043D01*
X142073Y061201D01*
Y061329D01*
X141654Y060433D02*
Y060818D01*
X142007Y061171D01*
X140716Y060032D02*
X140854D01*
X141043Y059843D01*
X140709Y060039D02*
X140716Y060032D01*
X140793Y059593D02*
X141043Y059843D01*
X140098Y059593D02*
X140793D01*
X124016Y054331D02*
X124311D01*
X124016Y05374D02*
X124311D01*
X127165Y060827D02*
X127461D01*
X129035Y060532D02*
Y060827D01*
X130512Y060413D02*
Y060709D01*
X13109Y059142D02*
X131299Y05935D01*
X131201Y058071D02*
X131496D01*
X131201Y058661D02*
X131496D01*
X137795Y065472D02*
Y065768D01*
X138386Y065453D02*
Y065748D01*
X129646Y059843D02*
X129941D01*
X131299Y060413D02*
Y060709D01*
X124409Y052362D02*
X124705D01*
X124409Y052953D02*
X124705D01*
X128925Y051705D02*
X129134Y051496D01*
X119882Y058661D02*
Y058957D01*
X121654Y058642D02*
Y058937D01*
X121063Y058642D02*
Y058937D01*
X120472Y058642D02*
Y058937D01*
X122489Y048819D02*
X122784D01*
X122489Y049409D02*
X122784D01*
X122489Y05D02*
X122784D01*
X136717Y056039D02*
X136973D01*
X137008Y056004D02*
Y056535D01*
X136535Y05622D02*
X136717Y056039D01*
X135472Y055866D02*
X135512Y055827D01*
X136181Y055942D02*
Y056201D01*
X136066Y055827D02*
X136181Y055942D01*
X135512Y055827D02*
X136066D01*
X136181Y056201D02*
X136201Y05622D01*
X136535D01*
X135472Y055866D02*
Y056201D01*
X135453Y05622D02*
X135472Y056201D01*
X135827Y05622D02*
Y056516D01*
X135532Y054331D02*
X135827D01*
X135532Y05374D02*
X135827D01*
X131024Y052362D02*
X131024Y052362D01*
X131299D01*
X131004Y055512D02*
X131378D01*
X130401Y056115D02*
Y05641D01*
Y056115D02*
X130413Y056102D01*
X130394Y056417D02*
X130401Y05641D01*
X130413Y055512D02*
Y056102D01*
X127067Y050197D02*
X127079Y050185D01*
Y049889D02*
Y050185D01*
Y049889D02*
X127087Y049882D01*
X128937D02*
Y050197D01*
X128615Y050559D02*
Y050815D01*
Y050559D02*
X128622Y050551D01*
X128543Y050886D02*
X128615Y050815D01*
X145157Y067736D02*
X145276D01*
X144961Y0675D02*
X144968Y067508D01*
Y067547D02*
X145157Y067736D01*
X144968Y067508D02*
Y067547D01*
X136535Y050315D02*
X136831D01*
X135283Y050342D02*
X135335Y050394D01*
X135283Y050047D02*
Y050342D01*
X135276Y050039D02*
X135283Y050047D01*
X13376Y049803D02*
X134055D01*
X13376D02*
Y050394D01*
X134734Y050994D02*
Y051565D01*
X134744Y051575D01*
X134724Y050984D02*
X134734Y050994D01*
X135354Y050984D02*
X13563D01*
X135827Y049409D02*
Y050787D01*
X13563Y050984D02*
X135827Y050787D01*
X135335Y051575D02*
X13563D01*
X136831Y049331D02*
Y049648D01*
X136811Y04935D02*
X136831Y049331D01*
Y049291D02*
Y049331D01*
X135886Y04935D02*
X136811D01*
X135827Y049409D02*
X135886Y04935D01*
X136946Y049764D02*
X137362D01*
X136831Y049648D02*
X136946Y049764D01*
X137362D02*
X137559Y049567D01*
Y049311D02*
Y049567D01*
Y049311D02*
X137579Y049291D01*
X137835Y049803D02*
X13815Y049488D01*
X137717Y049803D02*
X137835D01*
X137579Y050315D02*
X137598Y050295D01*
X13815Y049488D02*
X138189D01*
X137598Y049921D02*
X137717Y049803D01*
X137598Y049921D02*
Y050295D01*
X137205Y048898D02*
Y049291D01*
X138976Y050118D02*
Y050394D01*
X138189Y049488D02*
X138976D01*
X138189Y049488D02*
X138189Y049488D01*
X13689Y05122D02*
Y051575D01*
Y05122D02*
X13689Y05122D01*
X13689Y052756D02*
Y053346D01*
Y052165D02*
Y052756D01*
Y051575D02*
Y052165D01*
X13796Y050859D02*
X138216D01*
X137953Y050866D02*
X13796Y050859D01*
X138216D02*
X138287Y050787D01*
X138228Y050118D02*
X138268Y050157D01*
Y050197D01*
X138287Y050217D01*
Y050787D01*
X138189Y050118D02*
X138228D01*
X140335Y050315D02*
Y050413D01*
X140504Y050583D01*
X142638Y052756D02*
Y053346D01*
Y052165D02*
Y052756D01*
Y051575D02*
Y052165D01*
Y053346D02*
X142638Y053346D01*
X139646Y051024D02*
X139963Y051341D01*
X139646Y050984D02*
Y051024D01*
X139963Y051341D02*
Y051814D01*
X140197Y052047D01*
X131772Y054016D02*
X131779Y054023D01*
X132074D02*
X132087Y054035D01*
X131779Y054023D02*
X132074D01*
X131779Y053457D02*
X132074D01*
X132087Y053445D01*
X131772Y053465D02*
X131779Y053457D01*
X134953Y054638D02*
X134961Y054646D01*
X134941Y054331D02*
X134953Y054343D01*
Y054638D01*
Y052842D02*
Y053137D01*
Y052842D02*
X134961Y052835D01*
X134941Y05315D02*
X134953Y053137D01*
X138858Y056614D02*
Y05687D01*
X14063Y056063D02*
Y056102D01*
X140315Y055748D02*
X14063Y056063D01*
X139882Y055551D02*
X140079Y055748D01*
X140315D01*
X139882Y055098D02*
Y055551D01*
X139643Y055079D02*
X139862D01*
X139449Y054885D02*
X139643Y055079D01*
X139449Y054488D02*
Y054885D01*
X139862Y055079D02*
X139882Y055098D01*
X139449Y054488D02*
X139567Y05437D01*
X139862D02*
X139882Y05435D01*
X139567Y05437D02*
X139862D01*
X139892Y054341D02*
X140738D01*
X139882Y05435D02*
X139892Y054341D01*
X140738D02*
X140748Y054331D01*
X137842Y054417D02*
X138177D01*
X137835Y054409D02*
X137842Y054417D01*
X138177D02*
X138189Y054429D01*
X138248Y05437D01*
X138839D01*
X138858Y05435D01*
X138189Y055827D02*
Y056201D01*
X138189Y056201D01*
X138248Y056142D02*
X138839D01*
X138858Y056122D01*
X138189Y056201D02*
X138248Y056142D01*
X13689Y056654D02*
Y056693D01*
Y056654D02*
X137008Y056535D01*
X137579Y055984D02*
X137598Y056004D01*
X13689Y056693D02*
Y056732D01*
X136142Y05689D02*
X136732D01*
X13689Y056732D01*
X135236Y05689D02*
X135512D01*
X134646Y056004D02*
X134646Y056004D01*
X134646Y056004D02*
Y056299D01*
X133851Y056252D02*
X134166D01*
X133839Y05624D02*
X133851Y056252D01*
X134166D02*
X134173Y05626D01*
X133465Y05624D02*
Y056614D01*
X13189Y056004D02*
X13189Y056004D01*
X13189Y056004D02*
Y056378D01*
X13248D02*
X13248Y056378D01*
Y056004D02*
X13248Y056004D01*
X13248Y056004D02*
Y056378D01*
X13189Y055413D02*
X13248D01*
X135335D02*
X135453Y055295D01*
X134646Y055413D02*
X135335D01*
X135453Y055197D02*
Y055295D01*
X133839Y055177D02*
X134409D01*
X134646Y055413D01*
X141732Y055118D02*
X142028D01*
X141732Y055118D02*
X141732Y055118D01*
X14126Y055157D02*
X141575Y055472D01*
X14126Y055118D02*
Y055157D01*
X141575Y055472D02*
X141732D01*
X141949Y055689D02*
Y055787D01*
X141732Y055472D02*
X141949Y055689D01*
X142992Y055118D02*
X142992Y055118D01*
X142618Y055118D02*
X142992D01*
X142638Y055138D02*
Y055433D01*
X142618Y055118D02*
X142638Y055138D01*
X142677Y055472D02*
Y055768D01*
X142697Y055787D01*
X142638Y055433D02*
X142677Y055472D01*
X142697Y056811D02*
X143228D01*
X143543Y056496D01*
Y055983D02*
Y056496D01*
Y055983D02*
X143898Y055629D01*
Y055512D02*
Y055629D01*
X143898Y055512D02*
X143898Y055512D01*
X143898Y054134D02*
Y055512D01*
X142323Y056811D02*
Y057205D01*
X142323Y057205D01*
X141929Y05689D02*
X141949Y05687D01*
X14126Y05689D02*
X141929D01*
X141949Y056811D02*
Y05687D01*
X14126Y056102D02*
Y05689D01*
X139882Y056496D02*
X140276D01*
X138189Y056791D02*
Y057087D01*
Y056791D02*
X138189Y056791D01*
X13752Y056693D02*
X137795D01*
D21*
X125305Y052057D02*
X125315Y052047D01*
X125295Y052362D02*
X125305Y052352D01*
Y052057D02*
Y052352D01*
X125295Y052953D02*
X125394Y053051D01*
X126083D01*
X125295Y052362D02*
Y052953D01*
X13752Y053307D02*
X137795Y053032D01*
X13752Y053307D02*
Y053346D01*
X137795Y052953D02*
Y053032D01*
Y052953D02*
X138061Y052687D01*
X138602D01*
X13752Y052717D02*
Y052756D01*
X137805Y052431D02*
X138602D01*
X13752Y052717D02*
X137805Y052431D01*
X137525Y05217D02*
X138597D01*
X13752Y052165D02*
X137525Y05217D01*
X138597D02*
X138602Y052175D01*
X137835Y051575D02*
X138179Y051919D01*
X138602D01*
X13752Y051575D02*
X137835D01*
X142008Y053307D02*
Y053346D01*
X141575Y052874D02*
X142008Y053307D01*
X141575Y052835D02*
Y052874D01*
X140925Y052687D02*
X141427D01*
X141575Y052835D01*
X140925Y052431D02*
X141722D01*
X142008Y052717D01*
Y052756D01*
X140197Y052047D02*
X140325Y052175D01*
X140925D01*
Y051919D02*
X141604D01*
X141732Y052047D01*
X141486Y051663D02*
X141575Y051575D01*
X140925Y051663D02*
X141486D01*
X141732Y052047D02*
X141929D01*
X141575Y051575D02*
X142008D01*
X142008Y051575D01*
X141929Y052047D02*
X142008Y052126D01*
Y052165D01*
D22*
X1329Y051772D02*
D03*
Y051575D02*
D03*
Y051378D02*
D03*
Y051181D02*
D03*
Y050984D02*
D03*
X13403Y051772D02*
D03*
Y051575D02*
D03*
Y051378D02*
D03*
Y051181D02*
D03*
Y050984D02*
D03*
Y053346D02*
D03*
Y053543D02*
D03*
Y05374D02*
D03*
Y053937D02*
D03*
Y054134D02*
D03*
X1329Y053346D02*
D03*
Y053543D02*
D03*
Y05374D02*
D03*
Y053937D02*
D03*
Y054134D02*
D03*
D23*
X121999Y050591D02*
D03*
X122489Y050591D02*
D03*
Y048819D02*
D03*
X121999D02*
D03*
X122489Y049409D02*
D03*
X121999D02*
D03*
X122489Y05D02*
D03*
X121999D02*
D03*
X124016Y055512D02*
D03*
X123526D02*
D03*
X124016Y05374D02*
D03*
X123526D02*
D03*
X124016Y054331D02*
D03*
X123526D02*
D03*
X124016Y056693D02*
D03*
X123526D02*
D03*
X124016Y056102D02*
D03*
X123526D02*
D03*
D24*
X126083Y053051D02*
D03*
X126083Y053642D02*
D03*
X126083Y053839D02*
D03*
Y054035D02*
D03*
Y054232D02*
D03*
Y054429D02*
D03*
X126083Y054626D02*
D03*
X126083Y054823D02*
D03*
Y05502D02*
D03*
Y055217D02*
D03*
X129429D02*
D03*
X129429Y054823D02*
D03*
Y054626D02*
D03*
Y054429D02*
D03*
Y054232D02*
D03*
X129429Y054035D02*
D03*
Y053839D02*
D03*
X129429Y053642D02*
D03*
Y053445D02*
D03*
Y053248D02*
D03*
Y053051D02*
D03*
Y05502D02*
D03*
X126083Y053248D02*
D03*
Y053445D02*
D03*
D25*
X126673Y055807D02*
D03*
X127067D02*
D03*
X127264D02*
D03*
X127461Y055807D02*
D03*
X127657D02*
D03*
X127854Y055807D02*
D03*
X128051D02*
D03*
X128248D02*
D03*
X128445D02*
D03*
X128839Y055807D02*
D03*
Y052461D02*
D03*
X128642D02*
D03*
X128445D02*
D03*
X128248Y052461D02*
D03*
X127854Y052461D02*
D03*
X127657D02*
D03*
X127461D02*
D03*
X127264Y052461D02*
D03*
X127067D02*
D03*
X12687D02*
D03*
X126673Y052461D02*
D03*
X128051Y052461D02*
D03*
X12687Y055807D02*
D03*
X128642D02*
D03*
D26*
X116923Y062785D02*
D03*
X117638Y062785D02*
D03*
X116953Y06122D02*
D03*
X117668Y061221D02*
D03*
X124655Y057283D02*
D03*
X12537Y057283D02*
D03*
X1254Y056112D02*
D03*
X124685Y056112D02*
D03*
D27*
X117638Y062008D02*
D03*
X117008D02*
D03*
X125315Y056693D02*
D03*
X124685D02*
D03*
X117638Y060433D02*
D03*
X117008D02*
D03*
X125315Y057874D02*
D03*
X124685D02*
D03*
X12685Y065945D02*
D03*
X12748D02*
D03*
X131024Y052362D02*
D03*
X130394D02*
D03*
X131024Y054724D02*
D03*
X130394D02*
D03*
X131024Y054134D02*
D03*
X130394D02*
D03*
X131024Y053543D02*
D03*
X130394D02*
D03*
X131024Y052953D02*
D03*
X130394D02*
D03*
X125472Y048819D02*
D03*
X126102D02*
D03*
Y051378D02*
D03*
X125472D02*
D03*
X130591Y062598D02*
D03*
X13122D02*
D03*
Y062008D02*
D03*
X130591D02*
D03*
X139646Y048622D02*
D03*
X140276D02*
D03*
X135354Y050984D02*
D03*
X134724D02*
D03*
X139646Y050984D02*
D03*
X140276D02*
D03*
X142008Y052756D02*
D03*
X142638D02*
D03*
X142008Y052165D02*
D03*
X142638D02*
D03*
X142008Y053346D02*
D03*
X142638D02*
D03*
X142008Y051575D02*
D03*
X142638D02*
D03*
X13752Y053346D02*
D03*
X13689D02*
D03*
X13752Y051575D02*
D03*
X13689D02*
D03*
X13752Y052165D02*
D03*
X13689D02*
D03*
X13752Y052756D02*
D03*
X13689D02*
D03*
X14126Y056102D02*
D03*
X14063D02*
D03*
X14126Y05689D02*
D03*
X14063D02*
D03*
Y055118D02*
D03*
X14126D02*
D03*
X13689Y056693D02*
D03*
X13752D02*
D03*
X136142Y05689D02*
D03*
X135512D02*
D03*
X129646Y059843D02*
D03*
X129016D02*
D03*
X146181Y069094D02*
D03*
X145551D02*
D03*
X128071Y060236D02*
D03*
X127441D02*
D03*
X142047Y064173D02*
D03*
X141417D02*
D03*
X141024Y060433D02*
D03*
X141654D02*
D03*
X143701Y063032D02*
D03*
X144331D02*
D03*
X143701Y06248D02*
D03*
X144331D02*
D03*
X142205Y059843D02*
D03*
X142835D02*
D03*
X141024Y058661D02*
D03*
X141654D02*
D03*
X141024Y059252D02*
D03*
X141654D02*
D03*
X128032Y066535D02*
D03*
X128661D02*
D03*
X124685Y055512D02*
D03*
X125315Y055512D02*
D03*
X124685Y054921D02*
D03*
X125315D02*
D03*
X124685Y054331D02*
D03*
X125315D02*
D03*
Y05374D02*
D03*
X124685D02*
D03*
D28*
X12126Y069016D02*
D03*
Y068386D02*
D03*
X120669Y069016D02*
D03*
Y068386D02*
D03*
X120079D02*
D03*
Y069016D02*
D03*
X122441Y068386D02*
D03*
Y069016D02*
D03*
X123032Y068386D02*
D03*
Y069016D02*
D03*
X123622Y068386D02*
D03*
Y069016D02*
D03*
X122244Y059567D02*
D03*
Y058937D02*
D03*
X123819Y059567D02*
D03*
Y058937D02*
D03*
X123228Y059567D02*
D03*
Y058937D02*
D03*
X119488Y068386D02*
D03*
Y069016D02*
D03*
X12185Y068386D02*
D03*
Y069016D02*
D03*
X130315Y050866D02*
D03*
Y051496D02*
D03*
X127559Y057205D02*
D03*
Y056575D02*
D03*
X12815Y057205D02*
D03*
Y056575D02*
D03*
X129724Y050866D02*
D03*
Y051496D02*
D03*
X144685Y068386D02*
D03*
Y069016D02*
D03*
X131437Y063268D02*
D03*
Y063898D02*
D03*
X130512Y060709D02*
D03*
Y061339D02*
D03*
X131299D02*
D03*
Y060709D02*
D03*
X138976Y049488D02*
D03*
Y050118D02*
D03*
X138189Y050118D02*
D03*
Y049488D02*
D03*
X137795Y064843D02*
D03*
Y065472D02*
D03*
X138976D02*
D03*
Y064843D02*
D03*
X14311Y065039D02*
D03*
Y065669D02*
D03*
X143701Y057165D02*
D03*
Y057795D02*
D03*
X127362Y067205D02*
D03*
Y067835D02*
D03*
X125394Y059567D02*
D03*
Y058937D02*
D03*
X121654Y059567D02*
D03*
Y058937D02*
D03*
X121063Y059567D02*
D03*
Y058937D02*
D03*
X120472Y059567D02*
D03*
Y058937D02*
D03*
X129331Y057205D02*
D03*
Y056575D02*
D03*
X12874Y057205D02*
D03*
Y056575D02*
D03*
D29*
X137854Y059093D02*
D03*
X137854Y058593D02*
D03*
X137854Y058093D02*
D03*
X140098Y061593D02*
D03*
X140098Y061093D02*
D03*
X140098Y060593D02*
D03*
Y060093D02*
D03*
Y059593D02*
D03*
Y059093D02*
D03*
X140098Y058593D02*
D03*
X140098Y058093D02*
D03*
X137854Y061593D02*
D03*
X137854Y061093D02*
D03*
X137854Y060593D02*
D03*
Y060093D02*
D03*
Y059593D02*
D03*
D30*
X125413Y049656D02*
D03*
X126161D02*
D03*
X125787Y050738D02*
D03*
X128346Y068258D02*
D03*
X12872Y067175D02*
D03*
X127972Y067175D02*
D03*
D31*
X127106Y049016D02*
D03*
X128799D02*
D03*
X13813Y062795D02*
D03*
X139823D02*
D03*
D32*
X138858Y055098D02*
D03*
X139882Y054724D02*
D03*
Y05435D02*
D03*
Y055098D02*
D03*
X138858Y05435D02*
D03*
Y05687D02*
D03*
X139882Y056496D02*
D03*
Y056122D02*
D03*
Y05687D02*
D03*
X138858Y056122D02*
D03*
D33*
X13061Y058661D02*
D03*
X131201D02*
D03*
X13376Y049803D02*
D03*
X133169D02*
D03*
X13376Y050394D02*
D03*
X133169D02*
D03*
X135335Y051575D02*
D03*
X134744D02*
D03*
X135335Y050394D02*
D03*
X134744D02*
D03*
X134941Y05315D02*
D03*
X135532D02*
D03*
Y05374D02*
D03*
X134941D02*
D03*
Y054331D02*
D03*
X135532D02*
D03*
X142618Y055118D02*
D03*
X142028D02*
D03*
X129626Y060827D02*
D03*
X129035D02*
D03*
X133563Y062795D02*
D03*
X132972D02*
D03*
X131201Y058071D02*
D03*
X13061D02*
D03*
X127461Y059646D02*
D03*
X128051D02*
D03*
X119193Y059646D02*
D03*
X118602D02*
D03*
X141634Y059843D02*
D03*
X141043D02*
D03*
X124114Y054921D02*
D03*
X123524D02*
D03*
X139272Y063976D02*
D03*
X139862D02*
D03*
X137894Y063976D02*
D03*
X138484D02*
D03*
X143209Y064173D02*
D03*
X142618D02*
D03*
X142815Y060433D02*
D03*
X142224Y060433D02*
D03*
X144587Y067717D02*
D03*
X143996D02*
D03*
X128051Y060827D02*
D03*
X127461D02*
D03*
X138878Y050787D02*
D03*
X138287D02*
D03*
X128937Y050197D02*
D03*
X128346D02*
D03*
X124705Y052953D02*
D03*
X125295D02*
D03*
X130413Y056102D02*
D03*
X131004D02*
D03*
X125295Y052362D02*
D03*
X124705D02*
D03*
X131004Y055512D02*
D03*
X130413Y055512D02*
D03*
X127657Y050197D02*
D03*
X127067D02*
D03*
D34*
X137205Y06689D02*
D03*
Y066181D02*
D03*
Y068465D02*
D03*
Y067756D02*
D03*
D35*
X119252Y058858D02*
D03*
X118543D02*
D03*
X133622Y06437D02*
D03*
X132913D02*
D03*
X133622Y063583D02*
D03*
X132913Y063583D02*
D03*
X13252Y059449D02*
D03*
X133228Y059449D02*
D03*
X13252Y058661D02*
D03*
X133228Y058661D02*
D03*
D36*
X13563Y062487D02*
D03*
Y060347D02*
D03*
D37*
X122382Y051984D02*
D03*
X122385Y058024D02*
D03*
D38*
X122589Y053874D02*
D03*
Y054307D02*
D03*
Y054741D02*
D03*
Y055174D02*
D03*
Y055607D02*
D03*
Y05604D02*
D03*
Y056473D02*
D03*
Y056906D02*
D03*
Y057339D02*
D03*
D39*
X118452Y058024D02*
D03*
Y051474D02*
D03*
D40*
X132087Y051673D02*
D03*
Y051083D02*
D03*
Y054035D02*
D03*
Y053445D02*
D03*
X13189Y056004D02*
D03*
Y055413D02*
D03*
X13248D02*
D03*
Y056004D02*
D03*
X134646D02*
D03*
Y055413D02*
D03*
X137008Y056004D02*
D03*
Y055413D02*
D03*
X137598D02*
D03*
Y056004D02*
D03*
X138189Y054429D02*
D03*
Y05502D02*
D03*
Y056791D02*
D03*
Y056201D02*
D03*
X140945Y049508D02*
D03*
X140945Y050098D02*
D03*
X132028Y063878D02*
D03*
Y063287D02*
D03*
X131299Y05935D02*
D03*
Y059941D02*
D03*
X127362Y058366D02*
D03*
Y058957D02*
D03*
X127953Y058957D02*
D03*
Y058366D02*
D03*
X119882Y058957D02*
D03*
Y059547D02*
D03*
X126772Y067224D02*
D03*
Y067815D02*
D03*
X143504Y059941D02*
D03*
Y060532D02*
D03*
X143898Y068406D02*
D03*
Y068996D02*
D03*
X138386Y065453D02*
D03*
X138386Y064862D02*
D03*
X128543Y051476D02*
D03*
Y050886D02*
D03*
X129134Y051476D02*
D03*
Y050886D02*
D03*
X126575Y057185D02*
D03*
Y056594D02*
D03*
D41*
X137579Y050315D02*
D03*
X137205Y049291D02*
D03*
X136831D02*
D03*
X137579D02*
D03*
X136831Y050315D02*
D03*
X135453Y055197D02*
D03*
X135827Y05622D02*
D03*
X136201Y05622D02*
D03*
X135453D02*
D03*
X136201Y055197D02*
D03*
X140335Y049291D02*
D03*
X139587Y050315D02*
D03*
X140335D02*
D03*
X139961D02*
D03*
X139587Y049291D02*
D03*
X141949Y055787D02*
D03*
X142323Y056811D02*
D03*
X142697D02*
D03*
X141949D02*
D03*
X142697Y055787D02*
D03*
D42*
X133091Y05624D02*
D03*
X133839Y055177D02*
D03*
X133465Y05624D02*
D03*
X133839D02*
D03*
X133091Y055177D02*
D03*
X133465Y055177D02*
D03*
D43*
X138602Y053455D02*
D03*
X138602Y053199D02*
D03*
X138602Y052943D02*
D03*
X138602Y052687D02*
D03*
X138602Y052431D02*
D03*
X138602Y052175D02*
D03*
Y051919D02*
D03*
Y051663D02*
D03*
X140925Y053455D02*
D03*
Y053199D02*
D03*
Y052943D02*
D03*
Y052687D02*
D03*
Y052431D02*
D03*
Y052175D02*
D03*
Y051919D02*
D03*
Y051663D02*
D03*
D44*
X129882Y058533D02*
D03*
X12878Y058789D02*
D03*
X129882Y058278D02*
D03*
Y059045D02*
D03*
X12878Y058278D02*
D03*
Y059045D02*
D03*
X129882Y058789D02*
D03*
X12878Y058533D02*
D03*
D45*
X129193Y059134D02*
D03*
X129469D02*
D03*
X129193Y058189D02*
D03*
X129469D02*
D03*
D46*
X131998Y062195D02*
D03*
X131998Y061939D02*
D03*
X131998Y061683D02*
D03*
Y061427D02*
D03*
X13375Y062195D02*
D03*
X13375Y061939D02*
D03*
X13375Y061683D02*
D03*
X13375Y061427D02*
D03*
D47*
X136496Y06437D02*
D03*
X135945Y06437D02*
D03*
D48*
X130512Y059921D02*
D03*
Y05937D02*
D03*
X130709Y064449D02*
D03*
Y063898D02*
D03*
D49*
X132239Y060433D02*
D03*
X133509Y060433D02*
D03*
D50*
X144094Y065399D02*
D03*
Y064129D02*
D03*
X139961Y065989D02*
D03*
Y064719D02*
D03*
D51*
X118933Y060715D02*
D03*
X119433Y060715D02*
D03*
X119933Y060715D02*
D03*
X120433Y060715D02*
D03*
X120933D02*
D03*
X121433Y060715D02*
D03*
X121933Y060715D02*
D03*
X122433Y060715D02*
D03*
X122933D02*
D03*
X123433Y060715D02*
D03*
X123933Y060715D02*
D03*
X124433Y060715D02*
D03*
X124933Y060715D02*
D03*
X125433D02*
D03*
X125433Y067407D02*
D03*
X124933Y067407D02*
D03*
X124433Y067407D02*
D03*
X123933Y067407D02*
D03*
X123433D02*
D03*
X122933D02*
D03*
X122433Y067407D02*
D03*
X121933Y067407D02*
D03*
X121433Y067407D02*
D03*
X120933D02*
D03*
X120433D02*
D03*
X119933Y067407D02*
D03*
X119433Y067407D02*
D03*
X118933Y067407D02*
D03*
D52*
X125827Y061811D02*
D03*
Y062311D02*
D03*
Y062811D02*
D03*
Y063311D02*
D03*
Y063811D02*
D03*
Y064311D02*
D03*
X125827Y064811D02*
D03*
X125827Y065311D02*
D03*
Y065811D02*
D03*
Y066311D02*
D03*
D53*
X121163Y062945D02*
D03*
X121163Y063667D02*
D03*
Y06439D02*
D03*
X121886Y062945D02*
D03*
X121886Y063667D02*
D03*
Y06439D02*
D03*
X122608Y062945D02*
D03*
X122608Y063667D02*
D03*
X122608Y06439D02*
D03*
D54*
X142274Y06498D02*
D03*
Y065728D02*
D03*
X141191Y065354D02*
D03*
X142372Y058858D02*
D03*
X143455Y059232D02*
D03*
Y058484D02*
D03*
D55*
X144142Y066941D02*
D03*
X144142Y066685D02*
D03*
X144142Y06643D02*
D03*
X144142Y066174D02*
D03*
X146409D02*
D03*
Y06643D02*
D03*
Y066685D02*
D03*
Y066941D02*
D03*
D56*
X124016Y048661D02*
D03*
Y051732D02*
D03*
X132087Y068858D02*
D03*
Y065787D02*
D03*
X130118Y068858D02*
D03*
Y065787D02*
D03*
D57*
X144581Y057913D02*
D03*
Y059803D02*
D03*
X144581Y060118D02*
D03*
Y057598D02*
D03*
D58*
Y059154D02*
D03*
Y05876D02*
D03*
Y058957D02*
D03*
Y058563D02*
D03*
Y059547D02*
D03*
Y058366D02*
D03*
Y05935D02*
D03*
Y058169D02*
D03*
D59*
X146364Y06087D02*
D03*
Y056846D02*
D03*
D60*
X144817Y06087D02*
D03*
Y056846D02*
D03*
D61*
X136181Y067323D02*
D03*
Y068228D02*
D03*
X136181Y066417D02*
D03*
D62*
X133898Y067323D02*
D03*
D63*
X128543Y06185D02*
D03*
X129449D02*
D03*
X127638Y06185D02*
D03*
D64*
X128543Y064134D02*
D03*
D65*
X142323Y062402D02*
D03*
D66*
X142073Y063494D02*
D03*
X141573Y063494D02*
D03*
X142573D02*
D03*
X143073Y063494D02*
D03*
X142073Y061329D02*
D03*
X141573Y061329D02*
D03*
X142573Y061329D02*
D03*
X143073D02*
D03*
D67*
X145276Y06811D02*
D03*
X145276Y068484D02*
D03*
X146457Y067736D02*
D03*
Y06811D02*
D03*
X145276Y067736D02*
D03*
X146457Y068484D02*
D03*
D124*
X133465Y051378D02*
D03*
Y05374D02*
D03*
D125*
X129331Y058661D02*
D03*
D126*
X143898Y054134D02*
D03*
X143898Y052559D02*
D03*
Y050787D02*
D03*
Y049213D02*
D03*
X13248Y05748D02*
D03*
X141142Y048622D02*
D03*
X140748Y063976D02*
D03*
X134843D02*
D03*
X141535Y057677D02*
D03*
X142126Y050591D02*
D03*
X140748Y054331D02*
D03*
X142126D02*
D03*
X136614D02*
D03*
X13622Y052362D02*
D03*
Y051181D02*
D03*
X135827Y049409D02*
D03*
X123622Y052756D02*
D03*
X126181Y068701D02*
D03*
X125D02*
D03*
X143898Y055512D02*
D03*
X128346Y065748D02*
D03*
X137597Y069286D02*
D03*
X13622Y069291D02*
D03*
X130906Y048819D02*
D03*
X120972Y049803D02*
D03*
X120972Y048803D02*
D03*
X119972D02*
D03*
X119972Y049803D02*
D03*
X119972Y050803D02*
D03*
D127*
X117717Y050098D02*
D03*
X142323Y067421D02*
D03*
X139173Y068406D02*
D03*
D128*
X117717Y049114D02*
D03*
X142323Y068406D02*
D03*
X139173Y067421D02*
D03*
D129*
X120972Y050803D02*
D03*
D130*
X121163Y063306D02*
D03*
Y064029D02*
D03*
X121525Y062945D02*
D03*
Y063667D02*
D03*
X121525Y06439D02*
D03*
X121886Y063306D02*
D03*
Y064029D02*
D03*
X122247Y062945D02*
D03*
X122247Y063667D02*
D03*
X122247Y06439D02*
D03*
X122608Y063306D02*
D03*
Y064029D02*
D03*
X141929Y049803D02*
D03*
X133669Y051674D02*
D03*
Y051082D02*
D03*
X13326D02*
D03*
Y051674D02*
D03*
X13378Y058819D02*
D03*
X133661Y058268D02*
D03*
X133268Y059055D02*
D03*
X117913Y060039D02*
D03*
Y061614D02*
D03*
X144685Y070276D02*
D03*
X14626D02*
D03*
X145472D02*
D03*
X117126D02*
D03*
X117913D02*
D03*
X119488D02*
D03*
X118701D02*
D03*
X121063D02*
D03*
X12185D02*
D03*
X120276D02*
D03*
X125D02*
D03*
X126575D02*
D03*
X125787D02*
D03*
X123425D02*
D03*
X124213D02*
D03*
X122638D02*
D03*
X129724D02*
D03*
X131299D02*
D03*
X130512D02*
D03*
X12815D02*
D03*
X128937D02*
D03*
X127362D02*
D03*
X134449D02*
D03*
X136024D02*
D03*
X135236D02*
D03*
X132874D02*
D03*
X133661D02*
D03*
X132087D02*
D03*
X139173D02*
D03*
X140748D02*
D03*
X139961D02*
D03*
X137598D02*
D03*
X138386D02*
D03*
X136811D02*
D03*
X143898D02*
D03*
X142323D02*
D03*
X14311D02*
D03*
X141535D02*
D03*
Y047638D02*
D03*
X14311D02*
D03*
X142323D02*
D03*
X143898D02*
D03*
X136811D02*
D03*
X138386D02*
D03*
X137598D02*
D03*
X139961D02*
D03*
X140748D02*
D03*
X139173D02*
D03*
X132087D02*
D03*
X133661D02*
D03*
X132874D02*
D03*
X135236D02*
D03*
X136024D02*
D03*
X134449D02*
D03*
X127362D02*
D03*
X128937D02*
D03*
X12815D02*
D03*
X130512D02*
D03*
X131299D02*
D03*
X129724D02*
D03*
X122638D02*
D03*
X124213D02*
D03*
X123425D02*
D03*
X125787D02*
D03*
X126575D02*
D03*
X125D02*
D03*
X120276D02*
D03*
X12185D02*
D03*
X121063D02*
D03*
X118701D02*
D03*
X119488D02*
D03*
X117913D02*
D03*
X117126D02*
D03*
X121693Y050709D02*
D03*
Y050118D02*
D03*
Y049528D02*
D03*
X121654Y048937D02*
D03*
X122785Y050589D02*
D03*
X121811Y06874D02*
D03*
X125157Y061811D02*
D03*
X124961Y057283D02*
D03*
X128228Y055197D02*
D03*
X128552Y05493D02*
D03*
X125315Y052047D02*
D03*
X127008Y054094D02*
D03*
X126634Y053933D02*
D03*
X124921Y056417D02*
D03*
X124961Y057756D02*
D03*
Y056102D02*
D03*
X139961Y049902D02*
D03*
X137234Y050364D02*
D03*
X121703Y056102D02*
D03*
X118504Y067874D02*
D03*
X130236Y066339D02*
D03*
X132244Y066378D02*
D03*
X126772Y06811D02*
D03*
X122205Y051535D02*
D03*
X123504Y048661D02*
D03*
X121703Y058032D02*
D03*
X134018Y051966D02*
D03*
X134449Y052126D02*
D03*
X134252Y055787D02*
D03*
X145079Y059291D02*
D03*
X144016Y05874D02*
D03*
X140276Y052835D02*
D03*
X140315Y053268D02*
D03*
X145827Y05685D02*
D03*
X145079Y057323D02*
D03*
X145866Y060866D02*
D03*
X144213Y060906D02*
D03*
X143858Y060512D02*
D03*
X144213Y060236D02*
D03*
Y057441D02*
D03*
X143701Y05689D02*
D03*
X145276Y069094D02*
D03*
X143898Y06813D02*
D03*
X142835Y065433D02*
D03*
X138465Y063622D02*
D03*
X139331Y064331D02*
D03*
X140748Y060433D02*
D03*
X141575Y061772D02*
D03*
X142559Y061732D02*
D03*
X142205Y060787D02*
D03*
X141929Y059843D02*
D03*
X139961Y057795D02*
D03*
X117913Y051496D02*
D03*
X117953Y058032D02*
D03*
X125079Y058937D02*
D03*
X138032Y048425D02*
D03*
X126218Y056572D02*
D03*
X133268Y068406D02*
D03*
X133504Y068169D02*
D03*
X133228Y068091D02*
D03*
X132559Y050738D02*
D03*
X13315Y049488D02*
D03*
X133858Y049094D02*
D03*
X128346Y061102D02*
D03*
X143622Y06748D02*
D03*
X144089Y063406D02*
D03*
X142638Y064488D02*
D03*
X142323Y063868D02*
D03*
X136299Y068543D02*
D03*
X136024D02*
D03*
X135945Y068858D02*
D03*
X140354Y065079D02*
D03*
X140079D02*
D03*
X140945Y063228D02*
D03*
X139803Y065079D02*
D03*
X143858Y061811D02*
D03*
X144094Y062008D02*
D03*
X14378Y062047D02*
D03*
X141024Y062953D02*
D03*
X14122Y06315D02*
D03*
X140984Y065D02*
D03*
X141299Y064882D02*
D03*
X140906Y064724D02*
D03*
X143661Y063898D02*
D03*
X143504Y064173D02*
D03*
X143346Y063819D02*
D03*
X139291Y065472D02*
D03*
X141417Y05374D02*
D03*
X131102Y051063D02*
D03*
X131181Y050748D02*
D03*
X13685Y064488D02*
D03*
X136732Y064803D02*
D03*
X136457D02*
D03*
X125039Y065866D02*
D03*
X137835Y054843D02*
D03*
X137874Y055787D02*
D03*
X135827Y054882D02*
D03*
X125866Y058701D02*
D03*
X131526Y053701D02*
D03*
X124845Y066735D02*
D03*
X124528Y066732D02*
D03*
X123622Y06878D02*
D03*
X123032D02*
D03*
X122441D02*
D03*
X131142Y057677D02*
D03*
X130906Y057323D02*
D03*
X130709Y057087D02*
D03*
X139134Y058701D02*
D03*
X139173Y058346D02*
D03*
X134016Y063425D02*
D03*
X12874Y067559D02*
D03*
X129055Y067835D02*
D03*
X130984Y056457D02*
D03*
X126535Y058465D02*
D03*
X132087Y055039D02*
D03*
X132559Y052283D02*
D03*
X126909Y058421D02*
D03*
X120079Y06878D02*
D03*
X119488D02*
D03*
X128425Y057736D02*
D03*
X132025Y054505D02*
D03*
X12311Y057244D02*
D03*
X123057Y056216D02*
D03*
X122244Y059882D02*
D03*
X123819Y06D02*
D03*
X123228Y059921D02*
D03*
X123032Y06185D02*
D03*
X127323Y068425D02*
D03*
X129016Y066535D02*
D03*
X120472Y059843D02*
D03*
X121654Y059291D02*
D03*
X131299Y052047D02*
D03*
X124311Y056693D02*
D03*
Y055512D02*
D03*
Y056102D02*
D03*
X131772Y051063D02*
D03*
X139488Y053164D02*
D03*
X139173Y053032D02*
D03*
X138071Y053071D02*
D03*
X135827Y05315D02*
D03*
X131732Y051693D02*
D03*
X131247Y052763D02*
D03*
X132087Y052874D02*
D03*
X132205Y052205D02*
D03*
X126417Y050866D02*
D03*
X126102Y051693D02*
D03*
X127441Y053543D02*
D03*
X127362Y053898D02*
D03*
X118189Y058661D02*
D03*
X118307Y059528D02*
D03*
Y059252D02*
D03*
X118622Y059331D02*
D03*
X119134Y058268D02*
D03*
X11937Y058425D02*
D03*
X132598Y063858D02*
D03*
X132559Y064252D02*
D03*
X133032Y064016D02*
D03*
X142756Y066102D02*
D03*
X140354Y066378D02*
D03*
X14063Y066339D02*
D03*
X140472Y066102D02*
D03*
X14248Y065984D02*
D03*
X142205D02*
D03*
X140276Y054724D02*
D03*
X138858Y055433D02*
D03*
X139409Y060195D02*
D03*
Y06049D02*
D03*
X129606Y061142D02*
D03*
X129764Y061339D02*
D03*
X127559Y059291D02*
D03*
X127283Y059331D02*
D03*
X136142Y065984D02*
D03*
X136811Y06626D02*
D03*
X135472Y065984D02*
D03*
X135433Y066457D02*
D03*
X137638Y06752D02*
D03*
Y067795D02*
D03*
X141299Y050118D02*
D03*
X14252Y051063D02*
D03*
X14063Y050591D02*
D03*
X141299Y049528D02*
D03*
X140551Y048622D02*
D03*
X132283Y059055D02*
D03*
X127244Y062441D02*
D03*
Y062008D02*
D03*
Y061575D02*
D03*
X131437Y062992D02*
D03*
X130315Y062598D02*
D03*
X130866Y064764D02*
D03*
X130512D02*
D03*
X130906Y063583D02*
D03*
X130551D02*
D03*
X142717Y058858D02*
D03*
X137008Y055079D02*
D03*
X137598D02*
D03*
X124961Y05374D02*
D03*
Y054331D02*
D03*
Y054921D02*
D03*
Y055512D02*
D03*
X137008Y058268D02*
D03*
Y059252D02*
D03*
Y059843D02*
D03*
X126161Y04997D02*
D03*
X140669Y059104D02*
D03*
Y058809D02*
D03*
X140709Y060039D02*
D03*
X124311Y054331D02*
D03*
Y05374D02*
D03*
X123189Y053661D02*
D03*
X123268Y054331D02*
D03*
X123228Y055472D02*
D03*
X127165Y060827D02*
D03*
X129035Y060532D02*
D03*
X130512Y060413D02*
D03*
X13109Y059142D02*
D03*
X131496Y058071D02*
D03*
X131496Y058661D02*
D03*
X130433Y059055D02*
D03*
X137795Y065768D02*
D03*
X138386Y065748D02*
D03*
X137795Y064567D02*
D03*
X129941Y059843D02*
D03*
X128583Y059724D02*
D03*
X128465Y058741D02*
D03*
X131299Y060413D02*
D03*
X126575Y05748D02*
D03*
X12815D02*
D03*
X124409Y052362D02*
D03*
Y052953D02*
D03*
X128925Y051705D02*
D03*
X119882Y058661D02*
D03*
X121654Y058642D02*
D03*
X121063D02*
D03*
X120472D02*
D03*
X122784Y048819D02*
D03*
Y049409D02*
D03*
Y05D02*
D03*
X135827Y056516D02*
D03*
X135827Y054331D02*
D03*
Y05374D02*
D03*
X133661Y054055D02*
D03*
X133268D02*
D03*
X133661Y053425D02*
D03*
X133268D02*
D03*
X132835Y054724D02*
D03*
X131299Y052362D02*
D03*
X131378Y055512D02*
D03*
X130394Y056417D02*
D03*
X127087Y049882D02*
D03*
X128937D02*
D03*
X128622Y050551D02*
D03*
X129134Y050591D02*
D03*
X128254Y051741D02*
D03*
X127992Y051457D02*
D03*
X145866Y066457D02*
D03*
X145551Y066614D02*
D03*
X145236D02*
D03*
X144961Y0675D02*
D03*
X144724Y066339D02*
D03*
X145906Y06752D02*
D03*
X132638Y062717D02*
D03*
X132953Y06315D02*
D03*
X132835Y062087D02*
D03*
X132598Y061378D02*
D03*
X131929Y06122D02*
D03*
X133661Y059449D02*
D03*
X136535Y050315D02*
D03*
X135276Y050039D02*
D03*
X134055Y049803D02*
D03*
X13563Y051575D02*
D03*
X137205Y048898D02*
D03*
X138976Y050394D02*
D03*
X13689Y05122D02*
D03*
X137953Y050866D02*
D03*
X131772Y054016D02*
D03*
Y053465D02*
D03*
X134961Y054646D02*
D03*
Y052835D02*
D03*
X138858Y056614D02*
D03*
X134409Y053543D02*
D03*
X137835Y054409D02*
D03*
X138189Y055827D02*
D03*
X135236Y05689D02*
D03*
X134646Y056299D02*
D03*
X134173Y05626D02*
D03*
X133465Y056614D02*
D03*
X13189Y056378D02*
D03*
X13248D02*
D03*
X141732Y055118D02*
D03*
X142992D02*
D03*
X142323Y057205D02*
D03*
X140276Y056496D02*
D03*
X138189Y057087D02*
D03*
X137795Y056693D02*
D03*
X130315Y062008D02*
D03*
X129331Y058907D02*
D03*
Y058415D02*
D03*
X129528Y058661D02*
D03*
X129134D02*
D03*
D131*
X145472Y064264D02*
D03*
Y065264D02*
D03*
Y062295D02*
D03*
Y063295D02*
D03*
M02*
