M48
;Layer_Color=9474304
;FILE_FORMAT=2:4
INCH,LZ
;TYPE=PLATED
T1F00S00C0.0118
T2F00S00C0.0354
T3F00S00C0.0394
;TYPE=NON_PLATED
T4F00S00C0.0276
%
T01
X140748Y047638
X141535
X142323
X14311
X143898
X141929Y049803
X141299Y049528
Y050118
X14063Y050591
X14252Y051063
X141417Y05374
X141732Y055118
X142992
X143701Y05689
X144213Y057441
X145079Y057323
X145827Y05685
X145079Y059291
X144016Y05874
X142717Y058858
X141929Y059843
X142205Y060787
X142559Y061732
X141575Y061772
X140748Y060433
X140709Y060039
X140669Y059104
Y058809
X142323Y057205
X143858Y060512
X144213Y060236
Y060906
X144094Y062008
X14378Y062047
X143858Y061811
X145866Y060866
X139409Y06049
Y060195
X139134Y058701
X139173Y058346
X139961Y057795
X140276Y056496
X138858Y056614
X138189Y057087
X137795Y056693
X137874Y055787
X138189Y055827
X138858Y055433
X137835Y054843
Y054409
X137598Y055079
X137008
X135827Y054882
X135827Y054331
Y05374
Y05315
X134961Y052835
X134449Y052126
X134018Y051966
X133669Y051674
X13326
Y051082
X133669
X132559Y050738
X131772Y051063
X131102
X131181Y050748
X131299Y052047
Y052362
X131247Y052763
X132087Y052874
X132205Y052205
X132559Y052283
X131732Y051693
X131772Y053465
X131526Y053701
X131772Y054016
X132025Y054505
X132087Y055039
X132835Y054724
X133268Y054055
X133661
Y053425
X133268
X134409Y053543
X134961Y054646
X134252Y055787
X134173Y05626
X134646Y056299
X135236Y05689
X135827Y056516
X133465Y056614
X13248Y056378
X13189
X130984Y056457
X130394Y056417
X130709Y057087
X130906Y057323
X131142Y057677
X131496Y058071
X131496Y058661
X13109Y059142
X130433Y059055
X129331Y058907
X129528Y058661
X129134
X129331Y058415
X128465Y058741
X128425Y057736
X12815Y05748
X126575
X126535Y058465
X126909Y058421
X127283Y059331
X127559Y059291
X128583Y059724
X129035Y060532
X129606Y061142
X129764Y061339
X130315Y062008
X130512Y060413
X131299
X131929Y06122
X132598Y061378
X132835Y062087
X133268Y059055
X13378Y058819
X133661Y058268
Y059449
X132283Y059055
X129941Y059843
X128346Y061102
X127165Y060827
X127244Y061575
Y062008
Y062441
X125157Y061811
X125079Y058937
X125866Y058701
X126218Y056572
X126634Y053933
X127008Y054094
X127362Y053898
X127441Y053543
X128228Y055197
X128552Y05493
X131378Y055512
X128925Y051705
X128254Y051741
X127992Y051457
X128622Y050551
X129134Y050591
X128937Y049882
X127087
X126161Y04997
X126417Y050866
X126102Y051693
X125315Y052047
X125Y047638
X125787
X126575
X127362
X12815
X128937
X129724
X130512
X131299
X132087
X132874
X133661
X134449
X135236
X136024
X136811
X137598
X138386
X139173
X139961
X140551Y048622
X139961Y049902
X138976Y050394
X137953Y050866
X137234Y050364
X136535Y050315
X13689Y05122
X13563Y051575
X135276Y050039
X134055Y049803
X133858Y049094
X13315Y049488
X137205Y048898
X138032Y048425
X138071Y053071
X139173Y053032
X139488Y053164
X140315Y053268
X140276Y052835
Y054724
X137008Y058268
Y059252
Y059843
X123819Y06
X123228Y059921
X122244Y059882
X121654Y059291
X121654Y058642
X121063
X120472
X119882Y058661
X11937Y058425
X119134Y058268
X118189Y058661
X118307Y059252
Y059528
X118622Y059331
X117913Y060039
Y061614
X117953Y058032
X121703
Y056102
X123057Y056216
X123228Y055472
X124311Y055512
Y056102
Y056693
X124921Y056417
X124961Y056102
Y055512
Y054921
Y054331
Y05374
X124311Y05374
Y054331
X123268Y054331
X123189Y053661
X124409Y052953
Y052362
X122205Y051535
X121693Y050709
Y050118
Y049528
X121654Y048937
X122784Y048819
Y049409
Y05
X122785Y050589
X123504Y048661
X123425Y047638
X122638
X12185
X121063
X120276
X119488
X118701
X117913
X117126
X117913Y051496
X124213Y047638
X124961Y057283
Y057756
X12311Y057244
X123032Y06185
X120472Y059843
X121525Y062945
X122247Y062945
X122247Y063667
X122608Y063306
X121886
X121163
Y064029
X121525Y06439
X121525Y063667
X121886Y064029
X122247Y06439
X122608Y064029
X124528Y066732
X124845Y066735
X123622Y06878
X123032
X122441
X121811Y06874
X12185Y070276
X121063
X120276
X119488
X118701
X117913
X117126
X118504Y067874
X119488Y06878
X120079
X122638Y070276
X123425
X124213
X125
X125787
X126575
X127362
X12815
X128937
X129724
X130512
X131299
X132087
X132874
X133661
X134449
X135236
X136024
X136811
X137598
X138386
X139173
X139961
X140354Y066378
X140472Y066102
X140354Y065079
X140079
X139803
X139291Y065472
X138386Y065748
X137795Y065768
X137795Y064567
X13685Y064488
X136732Y064803
X136457
X136142Y065984
X135472
X135433Y066457
X136811Y06626
X137638Y06752
Y067795
X136299Y068543
X136024
X135945Y068858
X133504Y068169
X133228Y068091
X133268Y068406
X132244Y066378
X130236Y066339
X129016Y066535
X12874Y067559
X129055Y067835
X127323Y068425
X126772Y06811
X125039Y065866
X130512Y064764
X130866
X130906Y063583
X130551
X130315Y062598
X131437Y062992
X132638Y062717
X132953Y06315
X133032Y064016
X132598Y063858
X132559Y064252
X134016Y063425
X138465Y063622
X139331Y064331
X140906Y064724
X140984Y065
X141299Y064882
X142638Y064488
X142323Y063868
X143346Y063819
X143661Y063898
X143504Y064173
X144089Y063406
X14122Y06315
X140945Y063228
X141024Y062953
X14063Y066339
X142205Y065984
X14248
X142756Y066102
X142835Y065433
X144724Y066339
X145236Y066614
X145551
X145866Y066457
X145906Y06752
X144961Y0675
X143622Y06748
X143898Y06813
X143898Y070276
X144685
X145472
X14626
X145276Y069094
X14311Y070276
X142323
X141535
X140748
T02
X145472Y062295
X120972Y050803
X119972
X119972Y049803
X120972
X120972Y048803
X119972
X117717Y049114
Y050098
X139173Y067421
Y068406
X142323
Y067421
X145472Y065264
Y064264
Y063295
T03
X141142Y048622
X142126Y050591
X143898Y050787
Y049213
Y052559
X143898Y054134
X143898Y055512
X142126Y054331
X140748
X141535Y057677
X136614Y054331
X13622Y052362
Y051181
X135827Y049409
X130906Y048819
X13248Y05748
X123622Y052756
X118325Y053494
Y056704
X125Y068701
X126181
X128346Y065748
X134843Y063976
X13622Y069291
X137597Y069286
X140748Y063976
T04
X145014Y05772
Y059996
M30
