G04*
G04 #@! TF.GenerationSoftware,Altium Limited,Altium Designer,24.0.1 (36)*
G04*
G04 Layer_Color=16711935*
%FSTAX24Y24*%
%MOIN*%
G70*
G04*
G04 #@! TF.SameCoordinates,F3E9A89A-E33D-43AE-B610-609CB64B5824*
G04*
G04*
G04 #@! TF.FilePolarity,Positive*
G04*
G01*
G75*
%ADD111C,0.0118*%
D111*
X148032Y099409D02*
G03*
X147638Y099803I-000394J0D01*
G01*
D02*
G03*
X147244Y099409I0J-000394D01*
G01*
X147638Y083858D02*
G03*
X148032Y084252I0J000394D01*
G01*
X145669Y083858D02*
G03*
X145276Y083465I0J-000394D01*
G01*
X144488Y075394D02*
G03*
X144882Y075I000394J0D01*
G01*
D02*
G03*
X145276Y075394I0J000394D01*
G01*
X114567Y047244D02*
X167717D01*
X114567Y099134D02*
X167717D01*
X147244Y084567D02*
X147244Y099409D01*
X144488Y084567D02*
X147244D01*
X144488Y075394D02*
Y084567D01*
X145276Y075394D02*
Y083465D01*
X114567Y075709D02*
X167717D01*
X145669Y083858D02*
X147638D01*
X148031Y084252D02*
X148032Y099409D01*
X114567Y074134D02*
X167717D01*
X114567Y045866D02*
X167717D01*
X165512D02*
X165512Y100591D01*
X116535Y045866D02*
X116535Y100591D01*
X114567D02*
X114567Y045866D01*
X114567Y100591D02*
X167717D01*
X167717Y045866D02*
X167717Y100591D01*
X116535Y099134D02*
X116535Y075709D01*
X116535Y099134D02*
X147244D01*
Y084567D02*
Y099134D01*
X144488Y084567D02*
X147244D01*
X144488Y075709D02*
Y084567D01*
X116535Y075709D02*
X144488D01*
M02*
