G04*
G04 #@! TF.GenerationSoftware,Altium Limited,Altium Designer,24.0.1 (36)*
G04*
G04 Layer_Physical_Order=4*
G04 Layer_Color=16711680*
%FSTAX24Y24*%
%MOIN*%
G70*
G04*
G04 #@! TF.SameCoordinates,F3E9A89A-E33D-43AE-B610-609CB64B5824*
G04*
G04*
G04 #@! TF.FilePolarity,Positive*
G04*
G01*
G75*
%ADD58C,0.0200*%
%ADD59C,0.0150*%
%ADD61C,0.0100*%
%ADD63C,0.0500*%
%ADD108C,0.0197*%
%ADD109C,0.0098*%
%ADD110C,0.0079*%
%ADD112C,0.0551*%
%ADD113R,0.0551X0.0551*%
%ADD114R,0.0715X0.0715*%
%ADD115C,0.0715*%
%ADD116O,0.0650X0.0670*%
%ADD117R,0.0650X0.0670*%
%ADD118C,0.2362*%
%ADD119C,0.0945*%
G04:AMPARAMS|DCode=120|XSize=94.5mil|YSize=94.5mil|CornerRadius=23.6mil|HoleSize=0mil|Usage=FLASHONLY|Rotation=0.000|XOffset=0mil|YOffset=0mil|HoleType=Round|Shape=RoundedRectangle|*
%AMROUNDEDRECTD120*
21,1,0.0945,0.0472,0,0,0.0*
21,1,0.0472,0.0945,0,0,0.0*
1,1,0.0472,0.0236,-0.0236*
1,1,0.0472,-0.0236,-0.0236*
1,1,0.0472,-0.0236,0.0236*
1,1,0.0472,0.0236,0.0236*
%
%ADD120ROUNDEDRECTD120*%
%ADD121O,0.0630X0.0787*%
%ADD122R,0.0630X0.0787*%
%ADD123O,0.0787X0.0630*%
%ADD124R,0.0388X0.0388*%
%ADD125C,0.0388*%
%ADD126C,0.0787*%
%ADD127R,0.0669X0.0669*%
%ADD128C,0.0669*%
%ADD129C,0.0591*%
%ADD130C,0.1900*%
%ADD131C,0.0665*%
%ADD132R,0.0665X0.0665*%
%ADD133C,0.0236*%
%ADD134C,0.0630*%
%ADD135R,0.0591X0.0600*%
%ADD136C,0.0591*%
%ADD137R,0.0630X0.0630*%
%ADD138O,0.0709X0.0630*%
G04:AMPARAMS|DCode=139|XSize=70.9mil|YSize=78.7mil|CornerRadius=17.7mil|HoleSize=0mil|Usage=FLASHONLY|Rotation=180.000|XOffset=0mil|YOffset=0mil|HoleType=Round|Shape=RoundedRectangle|*
%AMROUNDEDRECTD139*
21,1,0.0709,0.0433,0,0,180.0*
21,1,0.0354,0.0787,0,0,180.0*
1,1,0.0354,-0.0177,0.0217*
1,1,0.0354,0.0177,0.0217*
1,1,0.0354,0.0177,-0.0217*
1,1,0.0354,-0.0177,-0.0217*
%
%ADD139ROUNDEDRECTD139*%
%ADD140C,0.0394*%
%ADD141C,0.0157*%
%ADD142C,0.0394*%
G36*
X147047Y098346D02*
X116693D01*
Y098976D01*
X147047D01*
Y098346D01*
D02*
G37*
G36*
X121894Y097289D02*
X121728D01*
X121762Y097383D01*
X12186D01*
X121894Y097289D01*
D02*
G37*
G36*
X123621Y097126D02*
X123531Y097083D01*
X123461Y097153D01*
X123504Y097243D01*
X123621Y097126D01*
D02*
G37*
G36*
X122602Y097153D02*
X122532Y097083D01*
X122442Y097126D01*
X122559Y097243D01*
X122602Y097153D01*
D02*
G37*
G36*
X119649D02*
X119579Y097083D01*
X119489Y097126D01*
X119606Y097243D01*
X119649Y097153D01*
D02*
G37*
G36*
X123081Y097066D02*
X122982D01*
X122949Y09716D01*
X123114D01*
X123081Y097066D01*
D02*
G37*
G36*
X120128D02*
X12003D01*
X119996Y09716D01*
X120161D01*
X120128Y097066D01*
D02*
G37*
G36*
X127406Y096974D02*
X12724D01*
X127274Y097068D01*
X127372D01*
X127406Y096974D01*
D02*
G37*
G36*
X126043Y096882D02*
X125927Y096846D01*
X125858Y096916D01*
X125896Y097032D01*
X126043Y096882D01*
D02*
G37*
G36*
X125388Y096847D02*
X125319Y096777D01*
X125003Y09685D01*
X125315Y097162D01*
X125388Y096847D01*
D02*
G37*
G36*
X129216Y096208D02*
X129146Y096138D01*
X129056Y096181D01*
X129173Y096298D01*
X129216Y096208D01*
D02*
G37*
G36*
X128901Y095932D02*
X128831Y095863D01*
X128741Y095906D01*
X128858Y096022D01*
X128901Y095932D01*
D02*
G37*
G36*
X145904Y095866D02*
X145814Y095823D01*
X145745Y095893D01*
X145787Y095983D01*
X145904Y095866D01*
D02*
G37*
G36*
X142168Y095587D02*
X142029Y095517D01*
X141959Y095587D01*
X142029Y095726D01*
X142168Y095587D01*
D02*
G37*
G36*
X124894Y095021D02*
X124796D01*
X124762Y095115D01*
X124928D01*
X124894Y095021D01*
D02*
G37*
G36*
X144807Y094888D02*
X144642D01*
X144675Y094981D01*
X144774D01*
X144807Y094888D01*
D02*
G37*
G36*
X128567Y094438D02*
X128126D01*
X128297Y094713D01*
X128396D01*
X128567Y094438D01*
D02*
G37*
G36*
X125038Y094213D02*
X124938Y094174D01*
X124883Y09423D01*
X124921Y09433D01*
X125038Y094213D01*
D02*
G37*
G36*
X13947Y093986D02*
Y093888D01*
X139376Y093854D01*
Y09402D01*
X13947Y093986D01*
D02*
G37*
G36*
X137974Y093081D02*
Y092982D01*
X13788Y092949D01*
Y093114D01*
X137974Y093081D01*
D02*
G37*
G36*
X137794Y092913D02*
X137704Y092871D01*
X137634Y09294D01*
X137677Y09303D01*
X137794Y092913D01*
D02*
G37*
G36*
X136811Y097835D02*
Y097402D01*
X137323Y09689D01*
Y093032D01*
X137087Y092795D01*
X136299D01*
X136102Y092992D01*
Y093307D01*
X135433Y093976D01*
Y094252D01*
X135433Y094252D01*
X135512D01*
X135584Y094282D01*
X135639Y094337D01*
X135669Y09441D01*
Y094488D01*
X135639Y09456D01*
X135584Y094616D01*
X135512Y094646D01*
X135433D01*
X135433Y094646D01*
Y094724D01*
X135472D01*
X135545Y094754D01*
X1356Y09481D01*
X13563Y094882D01*
Y09496D01*
X1356Y095033D01*
X135545Y095088D01*
X135472Y095118D01*
X135433D01*
Y097953D01*
X13563Y09815D01*
X136496D01*
X136811Y097835D01*
D02*
G37*
G36*
X143898Y092874D02*
Y092283D01*
X143701Y092087D01*
X143649D01*
X143636Y0921D01*
X143593Y092128D01*
X143543Y092138D01*
X142702D01*
X14252Y09232D01*
Y092372D01*
X14249Y092444D01*
X142434Y0925D01*
X142362Y09253D01*
X142284D01*
X142211Y0925D01*
X142156Y092444D01*
X142126Y092372D01*
Y092294D01*
X142156Y092221D01*
X142211Y092166D01*
X142284Y092136D01*
X142282Y092087D01*
X140551D01*
X140354Y092283D01*
Y092835D01*
Y093032D01*
X140945Y093622D01*
X14315D01*
X143898Y092874D01*
D02*
G37*
G36*
X144005Y091787D02*
X143911Y091821D01*
Y091919D01*
X144005Y091953D01*
Y091787D01*
D02*
G37*
G36*
X134065Y091712D02*
X133967D01*
X133933Y091805D01*
X134098D01*
X134065Y091712D01*
D02*
G37*
G36*
X130314Y090354D02*
X130224Y090312D01*
X130154Y090381D01*
X130197Y090471D01*
X130314Y090354D01*
D02*
G37*
G36*
X123081Y090137D02*
X122982D01*
X122949Y090231D01*
X123114D01*
X123081Y090137D01*
D02*
G37*
G36*
X140472Y093583D02*
Y093425D01*
X140157Y09311D01*
Y092205D01*
X140586Y091776D01*
X14346D01*
X144331Y090906D01*
Y090197D01*
X144213Y090079D01*
X143465D01*
X14315Y090394D01*
Y090591D01*
X142756Y090984D01*
X140748D01*
X139528Y092205D01*
Y093543D01*
X139685Y093701D01*
X140354D01*
X140472Y093583D01*
D02*
G37*
G36*
X139586Y089007D02*
X139596Y088857D01*
X139476Y088857D01*
X139508Y08902D01*
X139586Y089007D01*
D02*
G37*
G36*
X131477Y088927D02*
Y088829D01*
X131384Y088795D01*
Y088961D01*
X131477Y088927D01*
D02*
G37*
G36*
X139586Y088607D02*
X139508Y088594D01*
X139476Y088757D01*
X139596Y088757D01*
X139586Y088607D01*
D02*
G37*
G36*
X120555Y088391D02*
X12039D01*
X120423Y088485D01*
X120522D01*
X120555Y088391D01*
D02*
G37*
G36*
X137007Y088425D02*
X13689Y088308D01*
X136847Y088398D01*
X136917Y088468D01*
X137007Y088425D01*
D02*
G37*
G36*
X123818Y088346D02*
X123728Y088304D01*
X123658Y088373D01*
X123701Y088463D01*
X123818Y088346D01*
D02*
G37*
G36*
X123227Y088268D02*
X123137Y088225D01*
X123068Y088295D01*
X12311Y088385D01*
X123227Y088268D01*
D02*
G37*
G36*
X122293Y088168D02*
X122195D01*
X122161Y088262D01*
X122327D01*
X122293Y088168D01*
D02*
G37*
G36*
X128632Y088011D02*
X128533D01*
X1285Y088105D01*
X128665D01*
X128632Y088011D01*
D02*
G37*
G36*
X137007Y087835D02*
X13689Y087718D01*
X136847Y087808D01*
X136917Y087877D01*
X137007Y087835D01*
D02*
G37*
G36*
X144994Y087673D02*
X144901Y087707D01*
Y087805D01*
X144994Y087839D01*
Y087673D01*
D02*
G37*
G36*
X121569D02*
X121475Y087707D01*
Y087805D01*
X121569Y087839D01*
Y087673D01*
D02*
G37*
G36*
X132282Y087638D02*
X132165Y087521D01*
X132123Y087611D01*
X132192Y087681D01*
X132282Y087638D01*
D02*
G37*
G36*
X140602Y087472D02*
X140483Y087471D01*
X140493Y087621D01*
X140571Y087634D01*
X140602Y087472D01*
D02*
G37*
G36*
X130594Y087428D02*
X130524Y087359D01*
X130434Y087402D01*
X130551Y087519D01*
X130594Y087428D01*
D02*
G37*
G36*
X128548Y08729D02*
X128382D01*
X128416Y087384D01*
X128514D01*
X128548Y08729D01*
D02*
G37*
G36*
X140602Y087371D02*
X140571Y087209D01*
X140493Y087221D01*
X140483Y087371D01*
X140602Y087371D01*
D02*
G37*
G36*
X144177Y087296D02*
X144134Y087206D01*
X144017Y087323D01*
X144107Y087366D01*
X144177Y087296D01*
D02*
G37*
G36*
X13905Y087083D02*
X138956Y087116D01*
Y087215D01*
X13905Y087248D01*
Y087083D01*
D02*
G37*
G36*
X125915Y086987D02*
X125817D01*
X125783Y087081D01*
X125949D01*
X125915Y086987D01*
D02*
G37*
G36*
X126699Y087013D02*
X126653Y086924D01*
X126543Y087047D01*
X126633Y087087D01*
X126699Y087013D01*
D02*
G37*
G36*
X139089Y086728D02*
X138995Y086762D01*
Y08686D01*
X139089Y086894D01*
Y086728D01*
D02*
G37*
G36*
X12707Y086795D02*
X127001Y086725D01*
X126911Y086768D01*
X127028Y086885D01*
X12707Y086795D01*
D02*
G37*
G36*
X128424Y086319D02*
X128307Y086202D01*
X128264Y086292D01*
X128334Y086362D01*
X128424Y086319D01*
D02*
G37*
G36*
X131141Y08626D02*
X131024Y086143D01*
X130981Y086233D01*
X131051Y086303D01*
X131141Y08626D01*
D02*
G37*
G36*
X128586Y08611D02*
X128516Y08604D01*
X128426Y086083D01*
X128543Y0862D01*
X128586Y08611D01*
D02*
G37*
G36*
X128148Y086063D02*
X128032Y085946D01*
X127989Y086036D01*
X128058Y086106D01*
X128148Y086063D01*
D02*
G37*
G36*
X123193Y085793D02*
X123028D01*
X123061Y085887D01*
X123159D01*
X123193Y085793D01*
D02*
G37*
G36*
X130904Y085906D02*
X130787Y085789D01*
X130745Y085879D01*
X130814Y085948D01*
X130904Y085906D01*
D02*
G37*
G36*
X12831Y085854D02*
X128241Y085784D01*
X128151Y085827D01*
X128268Y085944D01*
X12831Y085854D01*
D02*
G37*
G36*
X131084Y085837D02*
Y085738D01*
X13099Y085705D01*
Y08587D01*
X131084Y085837D01*
D02*
G37*
G36*
X12501Y08557D02*
X124911D01*
X124878Y085664D01*
X125043D01*
X12501Y08557D01*
D02*
G37*
G36*
X130707Y085669D02*
X130591Y085552D01*
X130548Y085642D01*
X130617Y085712D01*
X130707Y085669D01*
D02*
G37*
G36*
X130887Y0856D02*
Y085502D01*
X130793Y085469D01*
Y085634D01*
X130887Y0856D01*
D02*
G37*
G36*
X12314Y084765D02*
X122974D01*
X123008Y084859D01*
X123106D01*
X12314Y084765D01*
D02*
G37*
G36*
X125139Y084616D02*
Y084518D01*
X125045Y084484D01*
Y08465D01*
X125139Y084616D01*
D02*
G37*
G36*
X124959Y084094D02*
X124843Y083978D01*
X1248Y084068D01*
X124869Y084137D01*
X124959Y084094D01*
D02*
G37*
G36*
X125121Y083885D02*
X125052Y083816D01*
X124962Y083858D01*
X125079Y083975D01*
X125121Y083885D01*
D02*
G37*
G36*
X128311Y083746D02*
X128146D01*
X128179Y08384D01*
X128278D01*
X128311Y083746D01*
D02*
G37*
G36*
X132169Y083588D02*
X132004D01*
X132037Y083682D01*
X132136D01*
X132169Y083588D01*
D02*
G37*
G36*
X128634Y083479D02*
X128469D01*
X128502Y083573D01*
X128601D01*
X128634Y083479D01*
D02*
G37*
G36*
X124959Y083504D02*
X124843Y083387D01*
X1248Y083477D01*
X124869Y083547D01*
X124959Y083504D01*
D02*
G37*
G36*
X132247Y083413D02*
X132178Y083343D01*
X132088Y083386D01*
X132205Y083503D01*
X132247Y083413D01*
D02*
G37*
G36*
X132917Y083273D02*
X132752D01*
X132785Y083367D01*
X132884D01*
X132917Y083273D01*
D02*
G37*
G36*
X125121Y083295D02*
X125052Y083225D01*
X124962Y083268D01*
X125079Y083385D01*
X125121Y083295D01*
D02*
G37*
G36*
X13291Y083098D02*
X132874Y083007D01*
X132776Y083016D01*
X132746Y083111D01*
X13291Y083098D01*
D02*
G37*
G36*
X132024Y083088D02*
X131907Y082971D01*
X131864Y083061D01*
X131934Y083131D01*
X132024Y083088D01*
D02*
G37*
G36*
X12335Y08288D02*
X123185D01*
X123218Y082974D01*
X123317D01*
X12335Y08288D01*
D02*
G37*
G36*
X124959Y082913D02*
X124843Y082796D01*
X1248Y082887D01*
X124869Y082956D01*
X124959Y082913D01*
D02*
G37*
G36*
X125139Y082844D02*
Y082746D01*
X125045Y082713D01*
Y082878D01*
X125139Y082844D01*
D02*
G37*
G36*
X12702Y082442D02*
X12692Y082397D01*
X126858Y082446D01*
X126891Y082544D01*
X12702Y082442D01*
D02*
G37*
G36*
X136713Y082307D02*
X136516D01*
X136394Y08257D01*
X136835D01*
X136713Y082307D01*
D02*
G37*
G36*
X127544Y082402D02*
Y082323D01*
X127447Y08228D01*
Y082445D01*
X127544Y082402D01*
D02*
G37*
G36*
X126673Y082215D02*
X126594D01*
X126551Y082313D01*
X126717D01*
X126673Y082215D01*
D02*
G37*
G36*
X131524Y082283D02*
X131407Y082167D01*
X131365Y082257D01*
X131434Y082326D01*
X131524Y082283D01*
D02*
G37*
G36*
X123188Y082244D02*
X123071Y082127D01*
X123028Y082217D01*
X123098Y082287D01*
X123188Y082244D01*
D02*
G37*
G36*
X12748Y081826D02*
X127402D01*
X127358Y081924D01*
X127524D01*
X12748Y081826D01*
D02*
G37*
G36*
X13957Y081543D02*
X139536Y081449D01*
X139437Y081451D01*
X139404Y081545D01*
X13957Y081543D01*
D02*
G37*
G36*
X132169Y081423D02*
X132004D01*
X132037Y081517D01*
X132136D01*
X132169Y081423D01*
D02*
G37*
G36*
X13807Y081417D02*
X13798Y081375D01*
X13791Y081444D01*
X137953Y081534D01*
X13807Y081417D01*
D02*
G37*
G36*
X139222Y081318D02*
X139124D01*
X139091Y081412D01*
X139256D01*
X139222Y081318D01*
D02*
G37*
G36*
X131425Y081277D02*
Y081179D01*
X131331Y081145D01*
Y081311D01*
X131425Y081277D01*
D02*
G37*
G36*
X132642Y080832D02*
X132476D01*
X13251Y080926D01*
X132608D01*
X132642Y080832D01*
D02*
G37*
G36*
X132287Y080754D02*
X132122D01*
X132156Y080848D01*
X132254D01*
X132287Y080754D01*
D02*
G37*
G36*
X131215Y080744D02*
X131121Y080778D01*
Y080876D01*
X131215Y080909D01*
Y080744D01*
D02*
G37*
G36*
Y080429D02*
X131121Y080463D01*
Y080561D01*
X131215Y080594D01*
Y080429D01*
D02*
G37*
G36*
X127908Y079839D02*
X127814Y079872D01*
Y07997D01*
X127908Y080004D01*
Y079839D01*
D02*
G37*
G36*
X131263Y079619D02*
X13122Y079529D01*
X131104Y079646D01*
X131194Y079688D01*
X131263Y079619D01*
D02*
G37*
G36*
X136655Y079843D02*
Y079449D01*
X136445Y079425D01*
Y079866D01*
X136655Y079843D01*
D02*
G37*
G36*
X126578Y079422D02*
X126535Y079332D01*
X126419Y079449D01*
X126509Y079492D01*
X126578Y079422D01*
D02*
G37*
G36*
X131097Y07913D02*
X130999Y079173D01*
Y079252D01*
X131097Y079295D01*
Y07913D01*
D02*
G37*
G36*
X121875Y079213D02*
Y079134D01*
X121777Y079091D01*
Y079256D01*
X121875Y079213D01*
D02*
G37*
G36*
X12185Y078684D02*
X121811Y078584D01*
X121694Y078701D01*
X121794Y078739D01*
X12185Y078684D01*
D02*
G37*
G36*
X12186Y078061D02*
X121807Y077963D01*
X121724Y078106D01*
X12182Y078132D01*
X12186Y078061D01*
D02*
G37*
G36*
X118082Y077875D02*
X118012Y077582D01*
X117719Y077874D01*
X118013Y077945D01*
X118082Y077875D01*
D02*
G37*
G36*
X12181Y077503D02*
X121772Y077403D01*
X121655Y07752D01*
X121755Y077558D01*
X12181Y077503D01*
D02*
G37*
G36*
X141573Y077223D02*
Y077026D01*
X141439Y076983D01*
X141406Y077258D01*
X141573Y077223D01*
D02*
G37*
G36*
X140917Y076866D02*
X140654Y076988D01*
Y077185D01*
X140917Y077307D01*
X140917Y076866D01*
D02*
G37*
G36*
X144331Y075866D02*
X116693D01*
Y076496D01*
X144331D01*
Y075866D01*
D02*
G37*
G36*
X144702Y071544D02*
Y070068D01*
X142537Y067903D01*
X140174D01*
X140076Y068001D01*
Y069084D01*
X140863Y069871D01*
X14293D01*
X143915Y070856D01*
Y071544D01*
X144111Y071741D01*
X144505D01*
X144702Y071544D01*
D02*
G37*
G36*
X158682Y057389D02*
X158682Y057389D01*
X158682D01*
X158812Y057259D01*
Y055629D01*
X158612Y055429D01*
X157332D01*
X157122Y055639D01*
Y057209D01*
X157302Y057389D01*
X158682D01*
X158682Y057389D01*
D02*
G37*
G36*
X164328Y055167D02*
X164249Y055088D01*
X163737D01*
X163541Y055285D01*
Y056072D01*
X163934Y056466D01*
X164328D01*
Y055167D01*
D02*
G37*
%LPC*%
G36*
X13685Y094921D02*
X136772D01*
X1367Y094891D01*
X136644Y094836D01*
X136614Y094764D01*
Y094685D01*
X136644Y094613D01*
X1367Y094558D01*
X136772Y094528D01*
X13685D01*
X136923Y094558D01*
X136978Y094613D01*
X137008Y094685D01*
Y094764D01*
X136978Y094836D01*
X136923Y094891D01*
X13685Y094921D01*
D02*
G37*
G36*
X136181Y094646D02*
X136103D01*
X13603Y094616D01*
X135975Y09456D01*
X135945Y094488D01*
Y09441D01*
X135975Y094337D01*
X13603Y094282D01*
X136103Y094252D01*
X136181D01*
X136253Y094282D01*
X136309Y094337D01*
X136339Y09441D01*
Y094488D01*
X136309Y09456D01*
X136253Y094616D01*
X136181Y094646D01*
D02*
G37*
G36*
X142677Y09315D02*
X142599D01*
X142526Y09312D01*
X142471Y093064D01*
X142441Y092992D01*
Y092914D01*
X142471Y092841D01*
X142526Y092786D01*
X142599Y092756D01*
X142677D01*
X142749Y092786D01*
X142805Y092841D01*
X142835Y092914D01*
Y092992D01*
X142805Y093064D01*
X142749Y09312D01*
X142677Y09315D01*
D02*
G37*
%LPD*%
D58*
X151062Y057429D02*
X150262Y056629D01*
X149962D01*
X149482Y056149D01*
D59*
X159141Y068149D02*
X158482D01*
X156223Y068474D02*
X155899Y068149D01*
X157714Y068474D02*
X156223D01*
X158048Y068139D02*
X157714Y068474D01*
X158482Y068139D02*
X158048D01*
X146336Y055403D02*
X145706Y054773D01*
X153922Y056979D02*
X152346Y055403D01*
X146336D01*
X152871Y059261D02*
X146884D01*
X153165Y059555D02*
X152871Y059261D01*
X146884D02*
X145422Y057799D01*
X153922Y054387D02*
X14829D01*
X142872Y048969D01*
X162911Y060718D02*
X160155Y063474D01*
Y067135D01*
X157522Y064874D02*
X157169Y065227D01*
X157522Y065595D02*
X157057Y066059D01*
X157522Y065374D02*
Y065595D01*
X157057Y066059D02*
X155752D01*
X160155Y067135D02*
X159141Y068149D01*
X145702Y052246D02*
Y054261D01*
X145706D02*
Y054773D01*
X153922Y059555D02*
X153165D01*
X145422Y052419D02*
Y057799D01*
X155752Y066059D02*
X155468Y066343D01*
X156942Y065829D02*
X155362D01*
X154832Y066359D01*
X157169Y065602D02*
X156942Y065829D01*
X157169Y065227D02*
Y065602D01*
X145702Y052246D02*
X142512Y049056D01*
X145152Y052579D02*
Y061199D01*
Y052579D02*
X141627Y049054D01*
X146402Y062449D02*
X145152Y061199D01*
X144902Y052799D02*
X144612Y052509D01*
X146945Y064702D02*
X144902Y062659D01*
Y052799D02*
Y062659D01*
X145422Y052419D02*
X142152Y049149D01*
X153922Y064702D02*
X146945D01*
X147648Y053355D02*
X143251Y048959D01*
X153285Y053355D02*
X147648D01*
X142512Y048229D02*
Y049056D01*
X142152Y047919D02*
Y049149D01*
X153922Y062139D02*
X153862D01*
X153552Y062449D02*
X146402D01*
X153862Y062139D02*
X153552Y062449D01*
X141627Y04812D02*
Y049054D01*
X161047Y065894D02*
Y068124D01*
X161052Y065889D02*
X161047Y065894D01*
Y068124D02*
X161042Y068129D01*
X139409Y088955D02*
X139426Y088938D01*
X139487D01*
X140586Y087546D02*
X140592Y087552D01*
X140653D02*
X140669Y087569D01*
X139493Y088682D02*
X139662D01*
X140335Y087546D02*
X140586D01*
X139858Y08767D02*
Y088485D01*
Y08767D02*
X140232Y087296D01*
X139765Y088932D02*
X140108Y088589D01*
X139493Y088932D02*
X139765D01*
X140586Y087296D02*
X140592Y08729D01*
X139409Y088659D02*
X139426Y088676D01*
X139487Y088938D02*
X139493Y088932D01*
X140653Y08729D02*
X140669Y087274D01*
X140108Y087773D02*
Y088589D01*
X140232Y087296D02*
X140586D01*
X139662Y088682D02*
X139858Y088485D01*
X139487Y088676D02*
X139493Y088682D01*
X140108Y087773D02*
X140335Y087546D01*
X139426Y088676D02*
X139487D01*
X140592Y087552D02*
X140653D01*
X140592Y08729D02*
X140653D01*
D61*
X153068Y067568D02*
X152832Y067804D01*
X1517D01*
X146077D01*
X143499Y073118D02*
X143497Y073119D01*
X143499Y072137D02*
Y073118D01*
X1435Y072135D02*
X143499Y072137D01*
X144499Y073118D02*
X144497Y073119D01*
X144499Y072137D02*
Y073118D01*
X1445Y072135D02*
X144499Y072137D01*
X146077Y067804D02*
X143882Y065609D01*
X118427Y058934D02*
Y059094D01*
X119053Y059188D02*
X11852D01*
X118427Y058934D02*
X118372Y058879D01*
X11852Y059188D02*
X118427Y059094D01*
X144392Y057909D02*
X144384Y057901D01*
X124236Y060721D02*
X123849D01*
X123762Y060809D01*
X124292Y060778D02*
X124236Y060721D01*
X124142Y060088D02*
X123582Y060648D01*
Y062274D01*
X124304Y060169D02*
X12414D01*
X126009Y054849D02*
X118359D01*
X126092Y054649D02*
X118442D01*
X127159Y055716D02*
Y056045D01*
Y055716D02*
X126092Y054649D01*
X126959Y055799D02*
Y055962D01*
Y055799D02*
X126009Y054849D01*
X118442Y054649D02*
X117604Y053811D01*
X118359Y054849D02*
X117404Y053893D01*
X143882Y058719D02*
Y065609D01*
X143262Y051149D02*
X142912D01*
X143882Y051769D02*
Y058719D01*
Y051769D02*
X143262Y051149D01*
X143537Y057807D02*
Y062074D01*
X142452Y063159D02*
X140412D01*
X143537Y062074D02*
X142452Y063159D01*
X119362Y068689D02*
X119112Y068439D01*
X119542Y068502D02*
X119534Y068494D01*
X119542Y068502D02*
Y070205D01*
X1234Y058522D02*
X12338Y058542D01*
X129495Y058522D02*
X1234D01*
X119493Y058409D02*
X118968Y058934D01*
X118956D01*
X119652Y058589D02*
X119053Y059188D01*
X122912Y059425D02*
X121896Y058409D01*
X121822Y058589D02*
X119652D01*
X122732Y059499D02*
X121822Y058589D01*
X121896Y058409D02*
X119493D01*
X129439Y059066D02*
X126216D01*
X129942Y059569D02*
X129439Y059066D01*
X129452Y060399D02*
Y069639D01*
Y060399D02*
X128842Y059789D01*
X122732Y059499D02*
Y064299D01*
X122912Y059425D02*
Y064225D01*
X130772Y070959D02*
X129452Y069639D01*
X129272Y062813D02*
Y069749D01*
Y062813D02*
X128732Y062273D01*
X129942Y059569D02*
Y061444D01*
X12944Y058721D02*
X12661D01*
X126513Y058818D02*
X126483D01*
X12661Y058721D02*
X126513Y058818D01*
X130122Y059404D02*
X12944Y058721D01*
X130302Y059329D02*
X129495Y058522D01*
X128684Y058258D02*
X128679Y058263D01*
X129486Y058258D02*
X128684D01*
X130482Y059254D02*
X129486Y058258D01*
X130482Y059254D02*
Y061205D01*
X130122Y059404D02*
Y061354D01*
X130302Y059329D02*
Y061279D01*
X126059Y058909D02*
X126022D01*
X126216Y059066D02*
X126059Y058909D01*
X129061Y056929D02*
X129061D01*
X128964Y056549D02*
X128545Y056131D01*
X130862Y058447D02*
Y061047D01*
X128971Y056839D02*
X128844D01*
X130862Y058447D02*
X128964Y056549D01*
X128964D01*
X128844Y056839D02*
X128818Y056813D01*
X130662Y05853D02*
X129061Y056929D01*
X130662Y05853D02*
Y06113D01*
X129061Y056929D02*
X128971Y056839D01*
X131187Y062689D02*
X129942Y061444D01*
X133732Y062689D02*
X131187D01*
X135372Y064329D02*
X133732Y062689D01*
X131584Y061769D02*
X130862Y061047D01*
X131501Y061969D02*
X130662Y06113D01*
X135332Y062149D02*
X131426D01*
X131352Y062329D02*
X130302Y061279D01*
X135022Y062329D02*
X131352D01*
X135472Y061969D02*
X131501D01*
X134274Y062509D02*
X131262D01*
X135555Y061769D02*
X131584D01*
X131262Y062509D02*
X130162Y061409D01*
X13495Y063185D02*
X134274Y062509D01*
X135472Y062779D02*
X135022Y062329D01*
X136452Y062949D02*
X135472Y061969D01*
X135883Y0627D02*
X135332Y062149D01*
X131426D02*
X130482Y061205D01*
X136652Y062866D02*
X135555Y061769D01*
X123286Y064599D02*
X122912Y064225D01*
X123212Y064779D02*
X122732Y064299D01*
X130162Y061394D02*
X130122Y061354D01*
X130162Y061394D02*
Y061409D01*
X135472Y062779D02*
Y063609D01*
X135656Y063793D02*
X135472Y063609D01*
X135922Y063819D02*
X135896Y063793D01*
X135656D01*
X125431Y064599D02*
X123286D01*
X125252Y064779D02*
X123212D01*
X125441Y065244D02*
X125337Y065141D01*
Y064865D02*
Y065141D01*
Y064865D02*
X125252Y064779D01*
X135883Y0627D02*
Y063117D01*
X13595Y063185D02*
X135883Y063117D01*
X136452Y062949D02*
Y06353D01*
X136652Y062866D02*
Y062876D01*
X13695Y063175D02*
X136652Y062876D01*
X13695Y063175D02*
Y063185D01*
X136771Y063849D02*
X136452Y06353D01*
X136962Y063849D02*
X136771D01*
X117404Y053645D02*
Y053893D01*
X117579Y053469D02*
X117404Y053645D01*
X11786Y053469D02*
X117579D01*
X117918Y053411D02*
X11786Y053469D01*
X117955Y053411D02*
X117918D01*
X126639Y056026D02*
X126531Y056134D01*
X126895Y056026D02*
X126639D01*
X126959Y055962D02*
X126895Y056026D01*
X117604Y053728D02*
Y053811D01*
X117662Y053669D02*
X117604Y053728D01*
X11786Y053669D02*
X117662D01*
X117955Y053727D02*
X117918D01*
X11786Y053669D01*
X127076Y056127D02*
Y057252D01*
X127159Y056045D02*
X127076Y056127D01*
X133772Y070959D02*
X130772D01*
X128419Y068727D02*
Y070786D01*
X129652Y072019D02*
X128419Y070786D01*
X133152Y072019D02*
X129652D01*
X130662Y071139D02*
X129272Y069749D01*
X134292Y071539D02*
Y071939D01*
X133892Y071139D02*
X130662D01*
X134292Y071539D02*
X133892Y071139D01*
X134182Y070159D02*
Y070549D01*
X133772Y070959D01*
X13486Y072537D02*
X13485Y072527D01*
X12161D01*
X121626Y072289D02*
X119542Y070205D01*
X12161Y072527D02*
X119362Y070279D01*
X135472Y072289D02*
X121626D01*
X119362Y068689D02*
Y070279D01*
X125904Y064126D02*
X125431Y064599D01*
X125986Y064126D02*
X125904D01*
X125552Y063369D02*
Y06362D01*
X125046Y064126D02*
X124895D01*
X125552Y06362D02*
X125046Y064126D01*
X125552Y063369D02*
X125382Y063199D01*
X124507D01*
X126531Y063828D02*
X125722Y063019D01*
X124507Y063199D02*
X123582Y062274D01*
X124582Y063019D02*
X123762Y062199D01*
X125722Y063019D02*
X124582D01*
X126531Y063828D02*
Y065244D01*
X123762Y060809D02*
Y062199D01*
X142662Y062509D02*
X140062D01*
X139412Y063159D01*
X143062Y062109D02*
X142662Y062509D01*
X143062Y058039D02*
Y062109D01*
X133692Y05309D02*
Y053919D01*
X134052Y054279D02*
X133692Y053919D01*
X134952Y054559D02*
X133922D01*
X133362Y053999D01*
X134802Y054279D02*
X134052D01*
X135132Y054379D02*
X134952Y054559D01*
X135132Y053909D02*
Y054379D01*
X133692Y05309D02*
X133452Y05285D01*
D63*
X15543Y060521D02*
X146992D01*
X155824Y060127D02*
X15543Y060521D01*
X146992D02*
X146902Y060611D01*
X146788D01*
X160745Y062293D02*
X159761Y061308D01*
X153068D01*
X152765Y061611D02*
X146788D01*
X153068Y061308D02*
X152765Y061611D01*
X164092Y057962D02*
X161926Y060127D01*
X155824D01*
X164092Y055796D02*
Y057962D01*
X16096Y056369D02*
X157972D01*
X162552Y052479D02*
Y054777D01*
X16096Y056369D01*
D108*
X153501Y067568D02*
X153068D01*
X155942D02*
X153501D01*
X156178Y067804D02*
X155942Y067568D01*
X157192Y067804D02*
X156178D01*
X140551Y077087D02*
X141142D01*
X14118Y077124D02*
X141573D01*
X142913Y078465D01*
X141142Y077087D02*
X14118Y077124D01*
X142913Y078465D02*
Y080709D01*
X138543Y083346D02*
Y083504D01*
X138307Y08374D02*
X138543Y083504D01*
X137882Y084087D02*
X138228Y08374D01*
X138307D01*
X137882Y084087D02*
Y084244D01*
X137874Y084252D02*
X137882Y084244D01*
X138543Y083346D02*
X139685Y082205D01*
X141417D02*
X142913Y080709D01*
X139685Y082205D02*
X141417D01*
X138504Y084724D02*
X138858Y085079D01*
X13622Y084252D02*
X136693Y084724D01*
X138504D01*
X1364Y083368D02*
X136435D01*
X136614Y083189D01*
X13622Y083547D02*
X1364Y083368D01*
X13622Y083547D02*
Y084252D01*
X136614Y082795D02*
Y083189D01*
Y082283D02*
Y082795D01*
X13626Y081929D02*
X136614Y082283D01*
X135512Y081929D02*
X13626D01*
X134409Y082008D02*
X135433D01*
X135512Y081929D01*
D109*
X134094Y081378D02*
Y083346D01*
X133976Y08126D02*
X134094Y081378D01*
X133976Y08126D02*
Y08126D01*
X13248Y079764D02*
X133976Y08126D01*
X135935Y081339D02*
X137874D01*
X133573Y078976D02*
X135935Y081339D01*
X130787Y078976D02*
X133573D01*
X133675Y078819D02*
X135368Y080512D01*
X130709Y078819D02*
X133675D01*
X135368Y080512D02*
X135813D01*
X135433Y080354D02*
X135748D01*
X13374Y078661D02*
X135433Y080354D01*
X13063Y078661D02*
X13374D01*
X131339Y079764D02*
X13248D01*
X118701Y081417D02*
Y087165D01*
X118425Y081142D02*
X118701Y081417D01*
X118425Y078287D02*
Y081142D01*
X126575Y09815D02*
X127323Y097402D01*
X119488Y09815D02*
X126575D01*
X118898Y097559D02*
X119488Y09815D01*
X121811Y097756D02*
X122008Y097953D01*
X123989D01*
X124291Y09765D01*
X123924Y097795D02*
X124134Y097585D01*
X122244Y097795D02*
X123924D01*
X122054Y097605D02*
X122244Y097795D01*
X122309Y097638D02*
X123858D01*
X122211Y09754D02*
X122309Y097638D01*
X123858D02*
X123976Y09752D01*
X122211Y096936D02*
Y09754D01*
X123976Y09685D02*
Y09752D01*
X120079Y097008D02*
Y097244D01*
Y097008D02*
X120276Y096811D01*
X121811Y097205D02*
Y097756D01*
X120276Y096811D02*
X121864D01*
X122054Y097001D02*
Y097605D01*
X121864Y096811D02*
X122054Y097001D01*
X121929Y096654D02*
X122211Y096936D01*
X120079Y096654D02*
X121929D01*
X124961Y084567D02*
X125748D01*
X126142Y084173D01*
X127992D01*
X128228Y083661D02*
Y083937D01*
X127992Y084173D02*
X128228Y083937D01*
X124961Y085512D02*
X125118Y085354D01*
X124961Y085512D02*
Y085748D01*
X125118Y085354D02*
X125224D01*
X126248Y084331D02*
X128189D01*
X125224Y085354D02*
X126248Y084331D01*
X128189D02*
X128552Y083968D01*
Y083395D02*
Y083968D01*
X13Y079764D02*
Y081627D01*
X125709Y083228D02*
X128398D01*
X13Y081627D01*
X129843Y079685D02*
Y081561D01*
X125394Y082953D02*
X126313D01*
X124961Y083386D02*
X125394Y082953D01*
X126313D02*
X126431Y083071D01*
X128333D01*
X129843Y081561D01*
X129685Y079606D02*
Y081496D01*
X124961Y082795D02*
X126378D01*
X128268Y082913D02*
X129685Y081496D01*
X126496Y082913D02*
X128268D01*
X126378Y082795D02*
X126496Y082913D01*
X124606Y084331D02*
X124961Y083976D01*
X124606Y084331D02*
Y085394D01*
X12437Y08563D02*
X124606Y085394D01*
X125039Y095787D02*
X125377D01*
X126142Y095023D01*
X123976Y09685D02*
X125039Y095787D01*
X126142Y086732D02*
Y095023D01*
X126299Y086811D02*
Y095088D01*
X125105Y095945D02*
X125443D01*
X126299Y095088D01*
X124134Y096916D02*
X125105Y095945D01*
X144567Y087756D02*
X145079D01*
X144016Y087205D02*
X144567Y087756D01*
X135813Y080512D02*
X135971Y080354D01*
X138321D01*
X139173Y081207D01*
Y081496D01*
X135906Y080197D02*
X138386D01*
X139486Y081297D02*
Y081626D01*
X138386Y080197D02*
X139486Y081297D01*
Y081626D02*
X139488Y081628D01*
X135748Y080354D02*
X135906Y080197D01*
X137874Y081339D02*
X138071Y081535D01*
X136417Y085945D02*
X140236D01*
X135472Y085D02*
X136417Y085945D01*
X134094Y083346D02*
X135472Y084724D01*
Y085D01*
X145079Y095512D02*
X145433D01*
X145906Y095984D01*
X144724Y095157D02*
X145079Y095512D01*
X144724Y094803D02*
Y095157D01*
X141457Y087165D02*
Y089665D01*
X137795Y093031D02*
X138091D01*
X141457Y089665D01*
X143681Y09187D02*
X144089D01*
X143543Y092008D02*
X143681Y09187D01*
X142648Y092008D02*
X143543D01*
X142323Y092333D02*
X142648Y092008D01*
X132283Y096772D02*
X135945Y09311D01*
X137323Y092559D02*
X137795Y093031D01*
X136299Y092559D02*
X137323D01*
X135945Y092913D02*
Y09311D01*
Y092913D02*
X136299Y092559D01*
X141535Y09437D02*
Y095094D01*
X142323Y095881D02*
Y095886D01*
X141535Y095094D02*
X142323Y095881D01*
X139291Y093937D02*
X141102D01*
X141535Y09437D01*
X140236Y085945D02*
X141457Y087165D01*
X129843Y079685D02*
X130709Y078819D01*
X13Y079764D02*
X130787Y078976D01*
X129685Y079606D02*
X13063Y078661D01*
X131102Y079528D02*
X131339Y079764D01*
X128543Y096772D02*
X132283D01*
X128071Y096299D02*
X128543Y096772D01*
X128071Y095591D02*
Y096299D01*
Y095591D02*
X128346Y095315D01*
Y094213D02*
Y095315D01*
X128533Y085157D02*
X131526Y082165D01*
X12689Y085157D02*
X128533D01*
X126831Y084744D02*
X128287D01*
X130472Y082559D01*
X125427Y086148D02*
X126831Y084744D01*
X12832Y084934D02*
X13063Y082624D01*
X125859Y085938D02*
X126863Y084934D01*
X125866Y086181D02*
X12689Y085157D01*
X126863Y084934D02*
X12832D01*
X125866Y086181D02*
Y087165D01*
X125585Y086213D02*
Y09452D01*
Y086213D02*
X125859Y085938D01*
X125859D01*
X125427Y086148D02*
Y094455D01*
X129134Y085039D02*
X131457Y082717D01*
X131929D01*
X132087Y081339D02*
Y082559D01*
X131929Y082717D02*
X132087Y082559D01*
X131688Y083307D02*
X132025Y08297D01*
X131142Y083307D02*
X131688D01*
X129252Y085197D02*
X131142Y083307D01*
X126575Y087874D02*
Y095035D01*
X12517Y096102D02*
X125508D01*
X126575Y095035D01*
X124291Y096981D02*
X12517Y096102D01*
X126177Y097165D02*
X126181D01*
X125893Y096881D02*
X126177Y097165D01*
X125893Y096495D02*
Y096881D01*
Y096495D02*
X126404Y095984D01*
X126758D02*
X127717Y095026D01*
X126404Y095984D02*
X126758D01*
X127717Y089331D02*
Y095026D01*
X127559Y089265D02*
Y094961D01*
X126693Y095827D02*
X127559Y094961D01*
X126339Y095827D02*
X126693D01*
X125Y097165D02*
X126339Y095827D01*
X124291Y096981D02*
Y09765D01*
X124134Y096916D02*
Y097585D01*
X125039Y094803D02*
X125301D01*
X125585Y09452D01*
X124845Y094997D02*
Y095199D01*
Y094997D02*
X125039Y094803D01*
X124528Y095197D02*
X124554Y09517D01*
X125276Y094606D02*
X125427Y094455D01*
X124554Y095051D02*
X124999Y094606D01*
X124554Y095051D02*
Y09517D01*
X124999Y094606D02*
X125276D01*
X126575Y087874D02*
X127526Y086922D01*
X126299Y086811D02*
X126772Y086339D01*
X119488Y097244D02*
X120079Y096654D01*
X123032Y096128D02*
X124409Y09475D01*
X123032Y096128D02*
Y097244D01*
X123307Y096075D02*
Y096929D01*
X123622Y097244D01*
X122795Y096142D02*
Y09689D01*
X122441Y097244D02*
X122795Y09689D01*
X128865Y086922D02*
X130512Y085276D01*
X127526Y086922D02*
X128865D01*
X129606Y085288D02*
Y085945D01*
X127441Y086732D02*
X128819D01*
X129606Y085945D01*
X128386Y085591D02*
X128937Y085039D01*
X129134D01*
X128386Y085591D02*
Y085709D01*
X12815Y085945D02*
X128386Y085709D01*
X127953Y086142D02*
X12815Y085945D01*
X129094Y085197D02*
X129252D01*
X128661Y08563D02*
X129094Y085197D01*
X128661Y08563D02*
Y085965D01*
X128425Y086201D02*
X128661Y085965D01*
X128287Y086339D02*
X128425Y086201D01*
X118701Y087165D02*
X119291Y087756D01*
X121654D01*
X117717Y077579D02*
X118425Y078287D01*
X128583Y087795D02*
Y088189D01*
X128465Y087206D02*
Y087678D01*
X128583Y087795D01*
X126728Y087112D02*
X127061D01*
X127441Y086732D01*
X12874Y086535D02*
X129016Y08626D01*
X12726Y086535D02*
X12874D01*
X126909Y086886D02*
X12726Y086535D01*
X126772Y086339D02*
X128287D01*
X126732Y086142D02*
X127953D01*
X126142Y086732D02*
X126732Y086142D01*
X130906Y085787D02*
X131339D01*
X132205Y086654D01*
X133294D01*
X132362Y086496D02*
X133228D01*
X130709Y085551D02*
X131417D01*
X132362Y086496D01*
X130709Y086575D02*
Y087244D01*
Y086575D02*
X131142Y086142D01*
X130433Y08752D02*
X130709Y087244D01*
X130433Y08626D02*
Y087008D01*
Y08626D02*
X130906Y085787D01*
X130276Y085984D02*
X130709Y085551D01*
X130276Y085984D02*
Y086943D01*
X132953Y084055D02*
Y084764D01*
X130512Y085276D02*
X132441D01*
X132953Y084764D01*
X132835Y083937D02*
X132953Y084055D01*
X127559Y089265D02*
X128202Y088622D01*
X128596D01*
X130276Y086943D01*
X128268Y08878D02*
X128661D01*
X130433Y087008D01*
X127717Y089331D02*
X128268Y08878D01*
X133294Y086654D02*
X133569Y086378D01*
X138071D01*
X138228Y086535D01*
Y086693D01*
X138701Y087165D01*
X139134D01*
X133504Y08622D02*
X138189D01*
X13878Y086811D01*
X139173D01*
X133228Y086496D02*
X133504Y08622D01*
X134016Y090236D02*
Y09189D01*
X132657Y088878D02*
X134016Y090236D01*
X131299Y088878D02*
X132657D01*
X130118Y090276D02*
X130315Y090472D01*
X130118Y088952D02*
Y090276D01*
Y088952D02*
X130841Y088228D01*
X131575D01*
X132283Y08752D01*
X136693Y088622D02*
X137008Y088307D01*
X136693Y088622D02*
Y091679D01*
X132388Y095984D02*
X136693Y091679D01*
X12937Y095984D02*
X132388D01*
X129055Y096299D02*
X12937Y095984D01*
X12874Y096024D02*
X128937Y095827D01*
X132323D01*
X136496Y091654D01*
Y088228D02*
X137008Y087717D01*
X136496Y088228D02*
Y091654D01*
X132835Y083189D02*
Y083937D01*
X132825Y08318D02*
X132835Y083189D01*
X132825Y082365D02*
Y08318D01*
Y082365D02*
X132913Y082277D01*
Y08063D02*
Y082277D01*
X132559Y080276D02*
X132913Y08063D01*
X132047Y080276D02*
X132559D01*
X131772Y080551D02*
X132047Y080276D01*
X131772Y080551D02*
Y081024D01*
X131567Y081228D02*
X131772Y081024D01*
X131247Y081228D02*
X131567D01*
X13185Y084567D02*
X132559Y083858D01*
X130327Y084567D02*
X13185D01*
X132559Y080748D02*
Y083858D01*
X130262Y084409D02*
X131732D01*
X132087Y084055D01*
Y083504D02*
Y084055D01*
Y083504D02*
X132362Y083228D01*
X129016Y085656D02*
X130262Y084409D01*
X129606Y085288D02*
X130327Y084567D01*
X126535Y086929D02*
X126545D01*
X126728Y087112D01*
X132362Y081142D02*
Y083228D01*
X132205Y080984D02*
X132362Y081142D01*
X129016Y085656D02*
Y08626D01*
X118898Y096457D02*
Y097559D01*
Y096457D02*
X120079Y095276D01*
Y09D02*
Y095276D01*
X124409Y086706D02*
Y09475D01*
X12437Y086444D02*
X124567Y086641D01*
X124252Y086772D02*
Y094685D01*
X122795Y096142D02*
X124252Y094685D01*
X123307Y096075D02*
X124567Y094816D01*
X124055Y086352D02*
X124409Y086706D01*
X124567Y086641D02*
Y094816D01*
X123858Y086378D02*
X124252Y086772D01*
X123504Y086811D02*
Y08815D01*
X123819Y088465D01*
X123504Y086811D02*
X123622Y086693D01*
Y08374D02*
Y086693D01*
X123268Y083386D02*
X123622Y08374D01*
X123268Y082795D02*
Y083386D01*
X12248Y086772D02*
Y087638D01*
Y086772D02*
X12311Y086142D01*
Y085709D02*
Y086142D01*
X122874Y088032D02*
X123228Y088386D01*
X122874Y086693D02*
Y088032D01*
Y086693D02*
X123386Y086181D01*
Y085394D02*
Y086181D01*
X123057Y085065D02*
X123386Y085394D01*
X123057Y084681D02*
Y085065D01*
X122244Y087874D02*
Y088346D01*
Y087874D02*
X12248Y087638D01*
X122402Y089055D02*
X122717D01*
X121929Y088583D02*
X122402Y089055D01*
X121929Y083386D02*
Y088583D01*
X122717Y089055D02*
X123032Y08937D01*
Y090315D01*
X121929Y083386D02*
X123189Y082126D01*
X127323Y09689D02*
Y097402D01*
X120079Y09D02*
X120472Y089606D01*
Y088307D02*
Y089606D01*
X13063Y081089D02*
Y082624D01*
Y081089D02*
X130892Y080827D01*
X131299D01*
X130472Y081024D02*
Y082559D01*
Y081024D02*
X130984Y080512D01*
X131299D01*
X123858Y083583D02*
X124094Y083346D01*
X123858Y083583D02*
Y086378D01*
X124055Y083898D02*
Y086352D01*
Y083898D02*
X124331Y083622D01*
X124961Y083976D02*
X125709Y083228D01*
X12437Y08563D02*
Y086444D01*
X124724Y083622D02*
X124961Y083386D01*
X124331Y083622D02*
X124724D01*
X124094Y083346D02*
X124409D01*
X124961Y082795D01*
X132205Y080669D02*
Y080984D01*
X126732Y079764D02*
X12689Y079921D01*
X127992D01*
X126732Y079646D02*
Y079764D01*
X126417Y079331D02*
X126732Y079646D01*
D110*
X122165Y077913D02*
Y078543D01*
X122402Y07878D02*
X123032D01*
X122165Y078543D02*
X122402Y07878D01*
X121693Y079173D02*
X12189D01*
X12252Y079803D01*
X125157D01*
X122756Y079646D02*
X125236D01*
X121693Y078583D02*
X122756Y079646D01*
X122028Y078602D02*
X122874Y079449D01*
X122028Y078284D02*
Y078602D01*
X121736Y077992D02*
X122028Y078284D01*
X122874Y079449D02*
X125787D01*
X121693Y077992D02*
X121736D01*
X121654Y077402D02*
X122165Y077913D01*
X124843Y08685D02*
Y094134D01*
X126299Y084488D02*
X128268D01*
X125197Y085591D02*
X126299Y084488D01*
X125197Y085591D02*
Y086496D01*
X124843Y08685D02*
X125197Y086496D01*
X125157Y079803D02*
X126634Y08128D01*
Y082398D01*
X127008Y08254D02*
Y082559D01*
X12685Y082382D02*
X127008Y08254D01*
X12685Y08203D02*
Y082382D01*
X125236Y079646D02*
X126909Y081319D01*
Y081971D01*
X12685Y08203D02*
X126909Y081971D01*
X127598Y082362D02*
X127717Y082244D01*
X127362Y082362D02*
X127598D01*
X127717Y081142D02*
Y082244D01*
X125866Y079291D02*
X127717Y081142D01*
X130276Y079724D02*
X130787Y079213D01*
X131181D01*
X130276Y079724D02*
Y08248D01*
X124843Y094134D02*
X125039Y094331D01*
X128268Y084488D02*
X130276Y08248D01*
X123032Y07878D02*
X123543Y079291D01*
X125866D01*
X125787Y079449D02*
X127441Y081102D01*
Y082008D01*
D112*
X153922Y054387D02*
D03*
Y056979D02*
D03*
Y062139D02*
D03*
Y059555D02*
D03*
Y064702D02*
D03*
D113*
X154922Y054387D02*
D03*
Y056979D02*
D03*
Y062139D02*
D03*
Y059555D02*
D03*
Y064702D02*
D03*
D114*
X14508Y064988D02*
D03*
D115*
Y063988D02*
D03*
D116*
X139412Y066159D02*
D03*
X140412D02*
D03*
X139412Y063159D02*
D03*
X13495Y063185D02*
D03*
Y066185D02*
D03*
X13595D02*
D03*
X13695D02*
D03*
X13595Y063185D02*
D03*
X141175Y058193D02*
D03*
X142175D02*
D03*
X141175Y055193D02*
D03*
D117*
X140412Y063159D02*
D03*
X13695Y063185D02*
D03*
X142175Y055193D02*
D03*
D118*
X16388Y072588D02*
D03*
X118117Y072573D02*
D03*
X163966Y048744D02*
D03*
X118067Y048795D02*
D03*
D119*
X159186Y072155D02*
D03*
X154462D02*
D03*
D120*
X157186D02*
D03*
X152462D02*
D03*
D121*
X1453Y071348D02*
D03*
X1433D02*
D03*
X1443D02*
D03*
X15507Y048076D02*
D03*
X16007Y048076D02*
D03*
X15907D02*
D03*
X15707Y048076D02*
D03*
D122*
X1463Y071348D02*
D03*
D123*
X146788Y065611D02*
D03*
X146788Y060611D02*
D03*
Y061611D02*
D03*
X146788Y063611D02*
D03*
D124*
X146497Y073119D02*
D03*
X137992Y049579D02*
D03*
D125*
X145497Y073119D02*
D03*
X144497D02*
D03*
X143497D02*
D03*
X136992Y049579D02*
D03*
X135992D02*
D03*
X134992D02*
D03*
D126*
X164236Y062669D02*
D03*
X162268D02*
D03*
D127*
X163537Y052479D02*
D03*
D128*
X162552D02*
D03*
D129*
X135848Y055193D02*
D03*
X136848D02*
D03*
X137848D02*
D03*
Y058193D02*
D03*
X136848D02*
D03*
X135848D02*
D03*
D130*
X121067Y064685D02*
D03*
X130905D02*
D03*
Y056693D02*
D03*
X121067D02*
D03*
D131*
X128167Y064126D02*
D03*
X127622Y065244D02*
D03*
X127076Y064126D02*
D03*
X126531Y065244D02*
D03*
X125986Y064126D02*
D03*
X125441Y065244D02*
D03*
X124895Y064126D02*
D03*
X12435Y065244D02*
D03*
X123805Y057252D02*
D03*
X12435Y056134D02*
D03*
X124895Y057252D02*
D03*
X125441Y056134D02*
D03*
X125986Y057252D02*
D03*
X126531Y056134D02*
D03*
X127076Y057252D02*
D03*
X127622Y056134D02*
D03*
D132*
X123805Y064126D02*
D03*
X128167Y057252D02*
D03*
D133*
X153501Y067568D02*
D03*
X148152Y052119D02*
D03*
X141887Y067096D02*
D03*
X127773Y072041D02*
D03*
X142596Y067174D02*
D03*
X131486Y05278D02*
D03*
X148344Y056387D02*
D03*
X148934Y056584D02*
D03*
X148999Y058291D02*
D03*
X147282Y064289D02*
D03*
X146966Y055796D02*
D03*
X150518Y057494D02*
D03*
X151887Y059733D02*
D03*
X152281Y059537D02*
D03*
Y058946D02*
D03*
X156021Y060718D02*
D03*
X160352Y061899D02*
D03*
X160745Y062293D02*
D03*
X157522Y064874D02*
D03*
Y065374D02*
D03*
X145785Y069379D02*
D03*
X157582Y055939D02*
D03*
X157612Y056819D02*
D03*
X1448Y067804D02*
D03*
X14048Y068979D02*
D03*
X140393Y068395D02*
D03*
X145115Y067765D02*
D03*
X163895Y055206D02*
D03*
X163698Y055403D02*
D03*
X164092Y055796D02*
D03*
X163698D02*
D03*
X162911Y060718D02*
D03*
X142723Y061427D02*
D03*
X157672Y054969D02*
D03*
X158572Y054849D02*
D03*
X159532Y054679D02*
D03*
X15917Y052647D02*
D03*
X159564D02*
D03*
X159062Y0523D02*
D03*
X159412Y047529D02*
D03*
X158453Y04793D02*
D03*
X158442Y048539D02*
D03*
X158852Y049429D02*
D03*
X158972Y050039D02*
D03*
X162072Y049176D02*
D03*
X161062Y047449D02*
D03*
X162762Y047589D02*
D03*
X165012Y049909D02*
D03*
X164809Y05085D02*
D03*
X164923Y051794D02*
D03*
X164995Y05291D02*
D03*
X164952Y054083D02*
D03*
X159862Y055459D02*
D03*
X160542Y055829D02*
D03*
X159342Y058279D02*
D03*
X158022Y058189D02*
D03*
X158944Y058076D02*
D03*
X157852Y064339D02*
D03*
X158942Y066629D02*
D03*
X161412Y068069D02*
D03*
X16126Y068724D02*
D03*
X164072Y070629D02*
D03*
X162792Y071269D02*
D03*
X163592Y071029D02*
D03*
X164412D02*
D03*
X165117Y071847D02*
D03*
X165072Y071229D02*
D03*
X164962Y070389D02*
D03*
X165059Y069386D02*
D03*
X165131Y06853D02*
D03*
X165109Y067472D02*
D03*
X165052Y066379D02*
D03*
X165022Y065529D02*
D03*
X165016Y064652D02*
D03*
X165002Y063899D02*
D03*
X158383Y064261D02*
D03*
Y050088D02*
D03*
X159564Y066623D02*
D03*
X158974Y06308D02*
D03*
Y051269D02*
D03*
Y048907D02*
D03*
X161926Y064261D02*
D03*
X161336Y053631D02*
D03*
X161926Y05245D02*
D03*
X161336Y051269D02*
D03*
X161926Y050088D02*
D03*
X161336Y048907D02*
D03*
X161926Y047726D02*
D03*
X163107Y071348D02*
D03*
Y064261D02*
D03*
X162517Y051269D02*
D03*
X163107Y050088D02*
D03*
X163698Y070167D02*
D03*
X164289Y064261D02*
D03*
X163698Y053631D02*
D03*
X164289Y05245D02*
D03*
X163698Y051269D02*
D03*
X132915Y067681D02*
D03*
X131902Y067789D02*
D03*
X136002Y067999D02*
D03*
X13365Y067873D02*
D03*
X137462Y067429D02*
D03*
X137488Y067862D02*
D03*
X139879Y065639D02*
D03*
X142082Y065569D02*
D03*
X131862Y063739D02*
D03*
X133483Y063723D02*
D03*
X132282Y064739D02*
D03*
X133282Y064639D02*
D03*
X131802Y060469D02*
D03*
Y059069D02*
D03*
X131712Y058049D02*
D03*
X133573Y054647D02*
D03*
X132442Y055309D02*
D03*
X131712Y055329D02*
D03*
X133272Y055039D02*
D03*
X133132Y055939D02*
D03*
Y056809D02*
D03*
X133232Y057729D02*
D03*
X134922Y057869D02*
D03*
X136932Y058969D02*
D03*
X135152Y058879D02*
D03*
X135522Y059539D02*
D03*
X136822Y059799D02*
D03*
X135292Y060239D02*
D03*
X135332Y061199D02*
D03*
X136702Y060929D02*
D03*
X153962Y049379D02*
D03*
X150912Y051079D02*
D03*
X151602Y050869D02*
D03*
X151192Y049439D02*
D03*
X149842Y047459D02*
D03*
X149992Y048199D02*
D03*
X148428Y048717D02*
D03*
X148592Y047509D02*
D03*
X146832Y047439D02*
D03*
X146782Y048079D02*
D03*
X146062Y047949D02*
D03*
X145532Y047429D02*
D03*
X141422Y047478D02*
D03*
X142447D02*
D03*
X143442Y047479D02*
D03*
X138332Y050379D02*
D03*
X138539Y049915D02*
D03*
X134962Y050339D02*
D03*
X135392Y049069D02*
D03*
X136222Y049019D02*
D03*
X137529Y049018D02*
D03*
X130156Y050765D02*
D03*
X132252Y049969D02*
D03*
X132522Y050879D02*
D03*
X131602Y050909D02*
D03*
X133102Y050079D02*
D03*
X133382Y051759D02*
D03*
X136772Y051719D02*
D03*
X135005Y051286D02*
D03*
X135232Y052279D02*
D03*
X135811Y052414D02*
D03*
X136882Y052479D02*
D03*
X135092Y053169D02*
D03*
X136142Y053219D02*
D03*
X137292Y053289D02*
D03*
X142932Y052299D02*
D03*
X141472Y050869D02*
D03*
X142142Y050579D02*
D03*
X142112Y051239D02*
D03*
X141572Y052119D02*
D03*
X142372Y052079D02*
D03*
X147642Y052879D02*
D03*
X147592Y052249D02*
D03*
X147192Y053999D02*
D03*
X146202Y054009D02*
D03*
X146922Y054959D02*
D03*
X14445Y053119D02*
D03*
X144352Y053742D02*
D03*
X144352Y054589D02*
D03*
X144442Y055139D02*
D03*
X144372Y055849D02*
D03*
X144302Y056529D02*
D03*
X150621Y051389D02*
D03*
X150836Y052429D02*
D03*
X152112Y050959D02*
D03*
X152802Y051089D02*
D03*
X156148Y050806D02*
D03*
X157092Y049819D02*
D03*
X154879Y049371D02*
D03*
X154789Y050189D02*
D03*
X154578Y051491D02*
D03*
X153932Y051569D02*
D03*
X152792Y052689D02*
D03*
X130627Y051269D02*
D03*
X131218Y050088D02*
D03*
X130627Y048907D02*
D03*
X131218Y047726D02*
D03*
X131808Y048907D02*
D03*
X132399Y047726D02*
D03*
X132989Y048907D02*
D03*
X13358Y047726D02*
D03*
X134761D02*
D03*
X135942D02*
D03*
X137123D02*
D03*
X138304D02*
D03*
X139485D02*
D03*
X140667D02*
D03*
X145391D02*
D03*
X146572D02*
D03*
X150115D02*
D03*
X156021Y050088D02*
D03*
Y047726D02*
D03*
X156611Y048907D02*
D03*
X125336Y051566D02*
D03*
X125162Y052909D02*
D03*
X124812Y053509D02*
D03*
X129702Y055779D02*
D03*
X130552Y054429D02*
D03*
X127932Y062869D02*
D03*
X130372Y063379D02*
D03*
X129862Y063689D02*
D03*
X128482Y064989D02*
D03*
X122232Y063939D02*
D03*
X122114Y063462D02*
D03*
X117349Y066476D02*
D03*
X126452Y073749D02*
D03*
X125832Y073719D02*
D03*
X124592Y073689D02*
D03*
X123467Y073754D02*
D03*
X122011D02*
D03*
X120011Y073005D02*
D03*
X120202Y073799D02*
D03*
X119372Y073669D02*
D03*
X116902Y071519D02*
D03*
X117682Y070929D02*
D03*
X117102Y070829D02*
D03*
X121422Y071539D02*
D03*
X120886Y070938D02*
D03*
X120392Y069759D02*
D03*
X120395Y068596D02*
D03*
X120382Y067849D02*
D03*
X121352Y066589D02*
D03*
X124852Y071919D02*
D03*
X124762Y071299D02*
D03*
X122461Y071322D02*
D03*
X122442Y069249D02*
D03*
X122552Y067769D02*
D03*
X123642Y067739D02*
D03*
X124833Y067609D02*
D03*
X126922Y067409D02*
D03*
X126196Y06663D02*
D03*
X127302Y066529D02*
D03*
X127852Y067359D02*
D03*
X129802Y066819D02*
D03*
X130402D02*
D03*
X128932Y073789D02*
D03*
X130233Y073777D02*
D03*
X131352Y073779D02*
D03*
X136818Y07375D02*
D03*
X137966Y073714D02*
D03*
X139609Y073766D02*
D03*
X140752Y073749D02*
D03*
X142196Y063961D02*
D03*
X143482Y062669D02*
D03*
X142432Y061319D02*
D03*
X142084Y0606D02*
D03*
X144472Y060339D02*
D03*
X144462Y061769D02*
D03*
X144382Y062659D02*
D03*
X145202Y062299D02*
D03*
X14616Y064645D02*
D03*
X146002Y065399D02*
D03*
X148132Y050729D02*
D03*
X159202Y065629D02*
D03*
X158972Y066059D02*
D03*
X159432D02*
D03*
X158972Y065199D02*
D03*
X159432D02*
D03*
X130342Y053229D02*
D03*
Y053799D02*
D03*
X118372Y058879D02*
D03*
X143442Y066519D02*
D03*
X148762Y048089D02*
D03*
X124292Y060778D02*
D03*
X124304Y060169D02*
D03*
X152107Y057378D02*
D03*
X14432Y057193D02*
D03*
X144392Y057909D02*
D03*
X154276Y066084D02*
D03*
X144192Y060869D02*
D03*
X143882Y058719D02*
D03*
X144342Y058819D02*
D03*
X142912Y051149D02*
D03*
X145922Y058899D02*
D03*
X155899Y068149D02*
D03*
X154809Y067884D02*
D03*
X156156Y066414D02*
D03*
X155468Y066343D02*
D03*
X154832Y066359D02*
D03*
X138261Y072504D02*
D03*
X126082Y067814D02*
D03*
X141202Y073349D02*
D03*
X139732Y073049D02*
D03*
X132552Y073779D02*
D03*
X133082Y073799D02*
D03*
X117117Y062624D02*
D03*
X116937Y063699D02*
D03*
X119112Y068439D02*
D03*
X119534Y068494D02*
D03*
X119475Y064446D02*
D03*
X12338Y058542D02*
D03*
X118956Y058934D02*
D03*
X128842Y059789D02*
D03*
X128092Y067909D02*
D03*
X130202Y067919D02*
D03*
X140382Y071199D02*
D03*
X141886Y071194D02*
D03*
X141585Y072184D02*
D03*
X140101D02*
D03*
X138817Y071209D02*
D03*
X138625Y072322D02*
D03*
X137087Y070449D02*
D03*
X136107Y070514D02*
D03*
X135477Y069952D02*
D03*
X134367Y069649D02*
D03*
X132577Y068194D02*
D03*
X122814Y055464D02*
D03*
X129297Y052794D02*
D03*
X130833Y055095D02*
D03*
X129682Y059829D02*
D03*
X129357Y059623D02*
D03*
X124357Y058244D02*
D03*
X129159Y061323D02*
D03*
X128812Y062919D02*
D03*
X125162Y05877D02*
D03*
X150582Y059829D02*
D03*
X149852Y058909D02*
D03*
X152422Y052039D02*
D03*
X155952Y063628D02*
D03*
X156342Y058884D02*
D03*
Y056314D02*
D03*
X146736Y058303D02*
D03*
X139402Y065389D02*
D03*
X140402Y065409D02*
D03*
X141362Y06047D02*
D03*
X139282Y060479D02*
D03*
X135502Y066929D02*
D03*
X134382Y067284D02*
D03*
X128452Y066808D02*
D03*
X132402Y066609D02*
D03*
X133979Y065829D02*
D03*
X133442Y063108D02*
D03*
X133852Y060848D02*
D03*
X133152Y059219D02*
D03*
X136016Y056351D02*
D03*
Y056964D02*
D03*
X137709Y056391D02*
D03*
Y056984D02*
D03*
X132407Y052039D02*
D03*
X140262Y053229D02*
D03*
X135962Y051658D02*
D03*
X139062Y049274D02*
D03*
X139714Y049277D02*
D03*
X144692Y048509D02*
D03*
X145382Y048879D02*
D03*
X144712Y047849D02*
D03*
X146111Y052813D02*
D03*
X144539Y058533D02*
D03*
X144612Y052509D02*
D03*
X147592Y051469D02*
D03*
X150022Y052009D02*
D03*
X155299Y052752D02*
D03*
X155952Y053319D02*
D03*
X161512Y057069D02*
D03*
X161842Y058449D02*
D03*
X161832Y057579D02*
D03*
X161852Y058899D02*
D03*
X158862Y054039D02*
D03*
X135152Y069039D02*
D03*
X130052Y055639D02*
D03*
X131072Y071719D02*
D03*
X137072Y071874D02*
D03*
X145672Y066329D02*
D03*
X140852Y061969D02*
D03*
X143432Y063539D02*
D03*
X140402Y070549D02*
D03*
X141901D02*
D03*
X138901Y070569D02*
D03*
X138442Y069139D02*
D03*
X136982Y070109D02*
D03*
X133822Y069099D02*
D03*
X131862Y070109D02*
D03*
X122952Y071979D02*
D03*
X125112Y069589D02*
D03*
X121762Y068629D02*
D03*
X125457Y067809D02*
D03*
X129762Y067779D02*
D03*
X127702Y061619D02*
D03*
X127096Y062519D02*
D03*
X130052Y062979D02*
D03*
X129762Y061689D02*
D03*
X129386Y054289D02*
D03*
X127252Y053264D02*
D03*
X125646Y05331D02*
D03*
X117962Y064359D02*
D03*
X117322Y064734D02*
D03*
X120751Y063029D02*
D03*
X117652Y059289D02*
D03*
X120902Y059309D02*
D03*
X119793Y053559D02*
D03*
X122157Y055119D02*
D03*
X122177Y052019D02*
D03*
X123303Y051739D02*
D03*
X134382Y067914D02*
D03*
X136982Y067919D02*
D03*
X131387Y051629D02*
D03*
X131912Y054699D02*
D03*
X139832Y054014D02*
D03*
X141132Y057258D02*
D03*
X142152Y057268D02*
D03*
X146862Y056809D02*
D03*
X135572Y050579D02*
D03*
X137422Y05183D02*
D03*
X138652Y050294D02*
D03*
X143644Y048907D02*
D03*
X143412Y051729D02*
D03*
X145432Y050529D02*
D03*
X14832Y053809D02*
D03*
X149488Y052515D02*
D03*
X148152Y052749D02*
D03*
Y051504D02*
D03*
X148112Y047679D02*
D03*
X150762Y050619D02*
D03*
X153325Y05201D02*
D03*
X153369Y052649D02*
D03*
X159662Y061899D02*
D03*
X159202Y062039D02*
D03*
X159502Y062419D02*
D03*
X159032Y062729D02*
D03*
X159392Y063169D02*
D03*
X158992Y063599D02*
D03*
X159563Y06384D02*
D03*
X161139Y063474D02*
D03*
X161533Y062883D02*
D03*
X161352Y063129D02*
D03*
X161982Y063369D02*
D03*
X161592Y063719D02*
D03*
X161052Y063949D02*
D03*
X158992Y064379D02*
D03*
X159492Y064389D02*
D03*
X149202Y054849D02*
D03*
X149442Y059929D02*
D03*
X149792Y065179D02*
D03*
X152732Y065219D02*
D03*
X161461Y067349D02*
D03*
X161462Y069229D02*
D03*
X163172Y070328D02*
D03*
X164812Y069869D02*
D03*
X164741Y067699D02*
D03*
X164771Y066739D02*
D03*
X164132Y065889D02*
D03*
X164131Y065219D02*
D03*
X158362Y051059D02*
D03*
X164742Y058029D02*
D03*
X164882Y059069D02*
D03*
X164652Y059899D02*
D03*
X159672Y057019D02*
D03*
X161622Y053949D02*
D03*
X163382Y054809D02*
D03*
X164546Y054319D02*
D03*
X153285Y053355D02*
D03*
X142152Y047919D02*
D03*
X142512Y048229D02*
D03*
X142872Y048969D02*
D03*
X143251Y048959D02*
D03*
X141627Y04812D02*
D03*
X158332Y055929D02*
D03*
X158312Y056819D02*
D03*
X157972Y056369D02*
D03*
X161042Y068129D02*
D03*
X161052Y065889D02*
D03*
X128675Y058258D02*
D03*
X126022Y058909D02*
D03*
X126483Y058818D02*
D03*
X128818Y056813D02*
D03*
X135922Y063819D02*
D03*
X135372Y064329D02*
D03*
X128545Y056131D02*
D03*
X136962Y063849D02*
D03*
X117955Y053411D02*
D03*
Y053727D02*
D03*
X133152Y072019D02*
D03*
X128419Y068727D02*
D03*
X134182Y070159D02*
D03*
X128732Y062273D02*
D03*
X134292Y071939D02*
D03*
X135472Y072289D02*
D03*
X13486Y072537D02*
D03*
X143062Y058039D02*
D03*
X143537Y057807D02*
D03*
X133362Y053999D02*
D03*
X134802Y054279D02*
D03*
X133452Y05285D02*
D03*
X135132Y053912D02*
D03*
X151062Y057429D02*
D03*
X149482Y056149D02*
D03*
X121163Y091771D02*
D03*
Y092493D02*
D03*
X121525Y091409D02*
D03*
Y092132D02*
D03*
X121525Y092854D02*
D03*
X121886Y091771D02*
D03*
Y092493D02*
D03*
X122247Y091409D02*
D03*
X122247Y092132D02*
D03*
X122247Y092854D02*
D03*
X122608Y091771D02*
D03*
Y092493D02*
D03*
X141929Y078268D02*
D03*
X133669Y080139D02*
D03*
Y079546D02*
D03*
X13326D02*
D03*
Y080139D02*
D03*
X13378Y087283D02*
D03*
X133661Y086732D02*
D03*
X133268Y08752D02*
D03*
X117913Y088504D02*
D03*
Y090079D02*
D03*
X144685Y09874D02*
D03*
X14626D02*
D03*
X145472D02*
D03*
X117126D02*
D03*
X117913D02*
D03*
X119488D02*
D03*
X118701D02*
D03*
X121063D02*
D03*
X12185D02*
D03*
X120276D02*
D03*
X125D02*
D03*
X126575D02*
D03*
X125787D02*
D03*
X123425D02*
D03*
X124213D02*
D03*
X122638D02*
D03*
X129724D02*
D03*
X131299D02*
D03*
X130512D02*
D03*
X12815D02*
D03*
X128937D02*
D03*
X127362D02*
D03*
X134449D02*
D03*
X136024D02*
D03*
X135236D02*
D03*
X132874D02*
D03*
X133661D02*
D03*
X132087D02*
D03*
X139173D02*
D03*
X140748D02*
D03*
X139961D02*
D03*
X137598D02*
D03*
X138386D02*
D03*
X136811D02*
D03*
X143898D02*
D03*
X142323D02*
D03*
X14311D02*
D03*
X141535D02*
D03*
Y076102D02*
D03*
X14311D02*
D03*
X142323D02*
D03*
X143898D02*
D03*
X136811D02*
D03*
X138386D02*
D03*
X137598D02*
D03*
X139961D02*
D03*
X140748D02*
D03*
X139173D02*
D03*
X132087D02*
D03*
X133661D02*
D03*
X132874D02*
D03*
X135236D02*
D03*
X136024D02*
D03*
X134449D02*
D03*
X127362D02*
D03*
X128937D02*
D03*
X12815D02*
D03*
X130512D02*
D03*
X131299D02*
D03*
X129724D02*
D03*
X122638D02*
D03*
X124213D02*
D03*
X123425D02*
D03*
X125787D02*
D03*
X126575D02*
D03*
X125D02*
D03*
X120276D02*
D03*
X12185D02*
D03*
X121063D02*
D03*
X118701D02*
D03*
X119488D02*
D03*
X117913D02*
D03*
X117126D02*
D03*
X121693Y079173D02*
D03*
Y078583D02*
D03*
Y077992D02*
D03*
X121654Y077402D02*
D03*
X122785Y079054D02*
D03*
X121811Y097205D02*
D03*
X125157Y090276D02*
D03*
X124961Y085748D02*
D03*
X128228Y083661D02*
D03*
X128552Y083395D02*
D03*
X125315Y080512D02*
D03*
X127008Y082559D02*
D03*
X126634Y082398D02*
D03*
X124921Y084882D02*
D03*
X124961Y08622D02*
D03*
Y084567D02*
D03*
X139961Y078366D02*
D03*
X137234Y078829D02*
D03*
X121703Y084567D02*
D03*
X118504Y096339D02*
D03*
X130236Y094803D02*
D03*
X132244Y094843D02*
D03*
X126772Y096575D02*
D03*
X122205Y08D02*
D03*
X123504Y077126D02*
D03*
X121703Y086496D02*
D03*
X134018Y08043D02*
D03*
X134449Y080591D02*
D03*
X134252Y084252D02*
D03*
X145079Y087756D02*
D03*
X144016Y087205D02*
D03*
X140276Y081299D02*
D03*
X140315Y081732D02*
D03*
X145827Y085315D02*
D03*
X145079Y085787D02*
D03*
X145866Y089331D02*
D03*
X144213Y08937D02*
D03*
X143858Y088976D02*
D03*
X144213Y088701D02*
D03*
Y085906D02*
D03*
X143701Y085354D02*
D03*
X145276Y097559D02*
D03*
X143898Y096594D02*
D03*
X142835Y093898D02*
D03*
X138465Y092087D02*
D03*
X139331Y092795D02*
D03*
X140748Y088898D02*
D03*
X141575Y090236D02*
D03*
X142559Y090197D02*
D03*
X142205Y089252D02*
D03*
X141929Y088307D02*
D03*
X139961Y08626D02*
D03*
X117913Y079961D02*
D03*
X117953Y086496D02*
D03*
X125079Y087402D02*
D03*
X138032Y07689D02*
D03*
X126218Y085037D02*
D03*
X133268Y09687D02*
D03*
X133504Y096634D02*
D03*
X133228Y096555D02*
D03*
X132559Y079203D02*
D03*
X13315Y077953D02*
D03*
X133858Y077559D02*
D03*
X128346Y089567D02*
D03*
X143622Y095945D02*
D03*
X144089Y09187D02*
D03*
X142638Y092953D02*
D03*
X142323Y092333D02*
D03*
X136299Y097008D02*
D03*
X136024D02*
D03*
X135945Y097323D02*
D03*
X140354Y093543D02*
D03*
X140079D02*
D03*
X140945Y091693D02*
D03*
X139803Y093543D02*
D03*
X143858Y090276D02*
D03*
X144094Y090472D02*
D03*
X14378Y090512D02*
D03*
X141024Y091417D02*
D03*
X14122Y091614D02*
D03*
X140984Y093465D02*
D03*
X141299Y093346D02*
D03*
X140906Y093189D02*
D03*
X143661Y092362D02*
D03*
X143504Y092638D02*
D03*
X143346Y092283D02*
D03*
X139291Y093937D02*
D03*
X141417Y082205D02*
D03*
X131102Y079528D02*
D03*
X131181Y079213D02*
D03*
X13685Y092953D02*
D03*
X136732Y093268D02*
D03*
X136457D02*
D03*
X125039Y094331D02*
D03*
X137835Y083307D02*
D03*
X137874Y084252D02*
D03*
X135827Y083346D02*
D03*
X125866Y087165D02*
D03*
X131526Y082165D02*
D03*
X124845Y095199D02*
D03*
X124528Y095197D02*
D03*
X123622Y097244D02*
D03*
X123032D02*
D03*
X122441D02*
D03*
X131142Y086142D02*
D03*
X130906Y085787D02*
D03*
X130709Y085551D02*
D03*
X139134Y087165D02*
D03*
X139173Y086811D02*
D03*
X134016Y09189D02*
D03*
X12874Y096024D02*
D03*
X129055Y096299D02*
D03*
X130984Y084921D02*
D03*
X126535Y086929D02*
D03*
X132087Y083504D02*
D03*
X132559Y080748D02*
D03*
X126909Y086886D02*
D03*
X120079Y097244D02*
D03*
X119488D02*
D03*
X128425Y086201D02*
D03*
X132025Y08297D02*
D03*
X12311Y085709D02*
D03*
X123057Y084681D02*
D03*
X122244Y088346D02*
D03*
X123819Y088465D02*
D03*
X123228Y088386D02*
D03*
X123032Y090315D02*
D03*
X127323Y09689D02*
D03*
X129016Y095D02*
D03*
X120472Y088307D02*
D03*
X121654Y087756D02*
D03*
X131299Y080512D02*
D03*
X124311Y085157D02*
D03*
Y083976D02*
D03*
Y084567D02*
D03*
X131772Y079528D02*
D03*
X139488Y081628D02*
D03*
X139173Y081496D02*
D03*
X138071Y081535D02*
D03*
X135827Y081614D02*
D03*
X131732Y080157D02*
D03*
X131247Y081228D02*
D03*
X132087Y081339D02*
D03*
X132205Y080669D02*
D03*
X126417Y079331D02*
D03*
X126102Y080157D02*
D03*
X127441Y082008D02*
D03*
X127362Y082362D02*
D03*
X118189Y087126D02*
D03*
X118307Y087992D02*
D03*
Y087717D02*
D03*
X118622Y087795D02*
D03*
X119134Y086732D02*
D03*
X11937Y08689D02*
D03*
X132598Y092323D02*
D03*
X132559Y092717D02*
D03*
X133032Y09248D02*
D03*
X142756Y094567D02*
D03*
X140354Y094843D02*
D03*
X14063Y094803D02*
D03*
X140472Y094567D02*
D03*
X14248Y094449D02*
D03*
X142205D02*
D03*
X140276Y083189D02*
D03*
X138858Y083898D02*
D03*
X139409Y088659D02*
D03*
Y088955D02*
D03*
X129606Y089606D02*
D03*
X129764Y089803D02*
D03*
X127559Y087756D02*
D03*
X127283Y087795D02*
D03*
X136142Y094449D02*
D03*
X136811Y094724D02*
D03*
X135472Y094449D02*
D03*
X135433Y094921D02*
D03*
X137638Y095984D02*
D03*
Y09626D02*
D03*
X141299Y078583D02*
D03*
X14252Y079528D02*
D03*
X14063Y079055D02*
D03*
X141299Y077992D02*
D03*
X140551Y077087D02*
D03*
X132283Y08752D02*
D03*
X127244Y090906D02*
D03*
Y090472D02*
D03*
Y090039D02*
D03*
X131437Y091457D02*
D03*
X130315Y091063D02*
D03*
X130866Y093228D02*
D03*
X130512D02*
D03*
X130906Y092047D02*
D03*
X130551D02*
D03*
X142717Y087323D02*
D03*
X137008Y083543D02*
D03*
X137598D02*
D03*
X124961Y082205D02*
D03*
Y082795D02*
D03*
Y083386D02*
D03*
Y083976D02*
D03*
X137008Y086732D02*
D03*
Y087717D02*
D03*
Y088307D02*
D03*
X126161Y078435D02*
D03*
X140669Y087569D02*
D03*
Y087274D02*
D03*
X140709Y088504D02*
D03*
X124311Y082795D02*
D03*
Y082205D02*
D03*
X123189Y082126D02*
D03*
X123268Y082795D02*
D03*
X123228Y083937D02*
D03*
X127165Y089291D02*
D03*
X129035Y088996D02*
D03*
X130512Y088878D02*
D03*
X13109Y087606D02*
D03*
X131496Y086535D02*
D03*
X131496Y087126D02*
D03*
X130433Y08752D02*
D03*
X137795Y094232D02*
D03*
X138386Y094213D02*
D03*
X137795Y093031D02*
D03*
X129941Y088307D02*
D03*
X128583Y088189D02*
D03*
X128465Y087206D02*
D03*
X131299Y088878D02*
D03*
X126575Y085945D02*
D03*
X12815D02*
D03*
X124409Y080827D02*
D03*
Y081417D02*
D03*
X128925Y080169D02*
D03*
X119882Y087126D02*
D03*
X121654Y087106D02*
D03*
X121063D02*
D03*
X120472D02*
D03*
X122784Y077283D02*
D03*
Y077874D02*
D03*
Y078465D02*
D03*
X135827Y08498D02*
D03*
X135827Y082795D02*
D03*
Y082205D02*
D03*
X133661Y08252D02*
D03*
X133268D02*
D03*
X133661Y08189D02*
D03*
X133268D02*
D03*
X132835Y083189D02*
D03*
X131299Y080827D02*
D03*
X131378Y083976D02*
D03*
X130394Y084882D02*
D03*
X127087Y078346D02*
D03*
X128937D02*
D03*
X128622Y079016D02*
D03*
X129134Y079055D02*
D03*
X128254Y080205D02*
D03*
X127992Y079921D02*
D03*
X145866Y094921D02*
D03*
X145551Y095079D02*
D03*
X145236D02*
D03*
X144961Y095965D02*
D03*
X144724Y094803D02*
D03*
X145906Y095984D02*
D03*
X132638Y091181D02*
D03*
X132953Y091614D02*
D03*
X132835Y090551D02*
D03*
X132598Y089843D02*
D03*
X131929Y089685D02*
D03*
X133661Y087913D02*
D03*
X136535Y07878D02*
D03*
X135276Y078504D02*
D03*
X134055Y078268D02*
D03*
X13563Y080039D02*
D03*
X137205Y077362D02*
D03*
X138976Y078858D02*
D03*
X13689Y079685D02*
D03*
X137953Y079331D02*
D03*
X131772Y08248D02*
D03*
Y081929D02*
D03*
X134961Y08311D02*
D03*
Y081299D02*
D03*
X138858Y085079D02*
D03*
X134409Y082008D02*
D03*
X137835Y082874D02*
D03*
X138189Y084291D02*
D03*
X135236Y085354D02*
D03*
X134646Y084764D02*
D03*
X134173Y084724D02*
D03*
X133465Y085079D02*
D03*
X13189Y084843D02*
D03*
X13248D02*
D03*
X141732Y083583D02*
D03*
X142992D02*
D03*
X142323Y085669D02*
D03*
X140276Y084961D02*
D03*
X138189Y085551D02*
D03*
X137795Y085157D02*
D03*
X130315Y090472D02*
D03*
X129331Y087372D02*
D03*
Y08688D02*
D03*
X129528Y087126D02*
D03*
X129134D02*
D03*
D134*
X143898Y082598D02*
D03*
X143898Y081024D02*
D03*
Y079252D02*
D03*
Y077677D02*
D03*
X13248Y085945D02*
D03*
X141142Y077087D02*
D03*
X140748Y092441D02*
D03*
X134843D02*
D03*
X141535Y086142D02*
D03*
X142126Y079055D02*
D03*
X140748Y082795D02*
D03*
X142126D02*
D03*
X136614D02*
D03*
X13622Y080827D02*
D03*
Y079646D02*
D03*
X135827Y077874D02*
D03*
X123622Y08122D02*
D03*
X126181Y097165D02*
D03*
X125D02*
D03*
X143898Y083976D02*
D03*
X128346Y094213D02*
D03*
X137597Y09775D02*
D03*
X13622Y097756D02*
D03*
X130906Y077283D02*
D03*
X120972Y078268D02*
D03*
X120972Y077268D02*
D03*
X119972D02*
D03*
X119972Y078268D02*
D03*
X119972Y079268D02*
D03*
D135*
X117717Y078563D02*
D03*
X142323Y095886D02*
D03*
X139173Y09687D02*
D03*
D136*
X117717Y077579D02*
D03*
X142323Y09687D02*
D03*
X139173Y095886D02*
D03*
D137*
X120972Y079268D02*
D03*
D138*
X145472Y092728D02*
D03*
Y093728D02*
D03*
Y09076D02*
D03*
Y09176D02*
D03*
D139*
X157192Y069773D02*
D03*
X1517D02*
D03*
X157192Y067804D02*
D03*
X1517D02*
D03*
D140*
X158482Y068139D02*
D03*
X14344Y066519D02*
D03*
X148132Y050729D02*
D03*
X144352Y057909D02*
D03*
X14432Y057194D02*
D03*
X152092Y057379D02*
D03*
X1445Y072135D02*
D03*
X1435D02*
D03*
X124292Y060779D02*
D03*
X118372Y058859D02*
D03*
X119342Y05832D02*
D03*
X118332Y05425D02*
D03*
X119082Y05503D02*
D03*
X130482Y053799D02*
D03*
X130402Y053139D02*
D03*
X133452Y05285D02*
D03*
X135132Y053912D02*
D03*
X124142Y060089D02*
D03*
X150518Y057495D02*
D03*
D141*
X1517Y069773D02*
X147123D01*
X157192D02*
X1517D01*
X147123D02*
X145609Y068259D01*
X144282D01*
X142182Y066159D01*
X140412D02*
X139412D01*
X142182D02*
X140412D01*
D142*
X143898Y081024D02*
Y081614D01*
X142913Y082008D02*
X143504D01*
X143898Y081614D01*
X142126Y082795D02*
X142913Y082008D01*
X142081Y08284D02*
X142126Y082795D01*
X141658Y08284D02*
X142081D01*
X140807Y083691D02*
X141658Y08284D01*
X139065Y083691D02*
X140807D01*
X138858Y083898D02*
X139065Y083691D01*
X141693Y079626D02*
X142421D01*
X141122Y079055D02*
X141693Y079626D01*
X142421D02*
X14252Y079528D01*
X14063Y079055D02*
X141122D01*
X13622Y079646D02*
X137638D01*
X138051Y079232D02*
X140453D01*
X137953Y079331D02*
X138051Y079232D01*
X140453D02*
X14063Y079055D01*
X137638Y079646D02*
X137953Y079331D01*
X137274Y078829D02*
X138032Y078071D01*
X137234Y078829D02*
X137274D01*
X138032Y07689D02*
Y078071D01*
X144331Y095984D02*
X144941D01*
X144961Y095965D01*
X143622Y095945D02*
X144291D01*
X144331Y095984D01*
M02*
