G04*
G04 #@! TF.GenerationSoftware,Altium Limited,Altium Designer,24.0.1 (36)*
G04*
G04 Layer_Color=8388736*
%FSTAX24Y24*%
%MOIN*%
G70*
G04*
G04 #@! TF.SameCoordinates,F3E9A89A-E33D-43AE-B610-609CB64B5824*
G04*
G04*
G04 #@! TF.FilePolarity,Negative*
G04*
G01*
G75*
%ADD49R,0.0830X0.0740*%
%ADD126C,0.0787*%
%ADD158R,0.0671X0.0316*%
%ADD159R,0.0867X0.0552*%
%ADD160R,0.0380X0.0380*%
%ADD161R,0.0379X0.0379*%
G04:AMPARAMS|DCode=162|XSize=57.2mil|YSize=126.1mil|CornerRadius=16.3mil|HoleSize=0mil|Usage=FLASHONLY|Rotation=0.000|XOffset=0mil|YOffset=0mil|HoleType=Round|Shape=RoundedRectangle|*
%AMROUNDEDRECTD162*
21,1,0.0572,0.0935,0,0,0.0*
21,1,0.0246,0.1261,0,0,0.0*
1,1,0.0326,0.0123,-0.0468*
1,1,0.0326,-0.0123,-0.0468*
1,1,0.0326,-0.0123,0.0468*
1,1,0.0326,0.0123,0.0468*
%
%ADD162ROUNDEDRECTD162*%
G04:AMPARAMS|DCode=163|XSize=49.2mil|YSize=74.8mil|CornerRadius=13.3mil|HoleSize=0mil|Usage=FLASHONLY|Rotation=90.000|XOffset=0mil|YOffset=0mil|HoleType=Round|Shape=RoundedRectangle|*
%AMROUNDEDRECTD163*
21,1,0.0492,0.0482,0,0,90.0*
21,1,0.0226,0.0748,0,0,90.0*
1,1,0.0266,0.0241,0.0113*
1,1,0.0266,0.0241,-0.0113*
1,1,0.0266,-0.0241,-0.0113*
1,1,0.0266,-0.0241,0.0113*
%
%ADD163ROUNDEDRECTD163*%
%ADD164R,0.1261X0.0710*%
G04:AMPARAMS|DCode=165|XSize=47.4mil|YSize=43.4mil|CornerRadius=7.5mil|HoleSize=0mil|Usage=FLASHONLY|Rotation=90.000|XOffset=0mil|YOffset=0mil|HoleType=Round|Shape=RoundedRectangle|*
%AMROUNDEDRECTD165*
21,1,0.0474,0.0283,0,0,90.0*
21,1,0.0323,0.0434,0,0,90.0*
1,1,0.0151,0.0142,0.0161*
1,1,0.0151,0.0142,-0.0161*
1,1,0.0151,-0.0142,-0.0161*
1,1,0.0151,-0.0142,0.0161*
%
%ADD165ROUNDEDRECTD165*%
%ADD166R,0.0395X0.0769*%
%ADD167R,0.0356X0.0769*%
G04:AMPARAMS|DCode=168|XSize=40.9mil|YSize=40.9mil|CornerRadius=6.3mil|HoleSize=0mil|Usage=FLASHONLY|Rotation=0.000|XOffset=0mil|YOffset=0mil|HoleType=Round|Shape=RoundedRectangle|*
%AMROUNDEDRECTD168*
21,1,0.0409,0.0283,0,0,0.0*
21,1,0.0283,0.0409,0,0,0.0*
1,1,0.0126,0.0142,-0.0142*
1,1,0.0126,-0.0142,-0.0142*
1,1,0.0126,-0.0142,0.0142*
1,1,0.0126,0.0142,0.0142*
%
%ADD168ROUNDEDRECTD168*%
G04:AMPARAMS|DCode=169|XSize=43.3mil|YSize=43.3mil|CornerRadius=7.5mil|HoleSize=0mil|Usage=FLASHONLY|Rotation=0.000|XOffset=0mil|YOffset=0mil|HoleType=Round|Shape=RoundedRectangle|*
%AMROUNDEDRECTD169*
21,1,0.0433,0.0283,0,0,0.0*
21,1,0.0283,0.0433,0,0,0.0*
1,1,0.0150,0.0142,-0.0142*
1,1,0.0150,-0.0142,-0.0142*
1,1,0.0150,-0.0142,0.0142*
1,1,0.0150,0.0142,0.0142*
%
%ADD169ROUNDEDRECTD169*%
G04:AMPARAMS|DCode=170|XSize=40.9mil|YSize=40.9mil|CornerRadius=6.3mil|HoleSize=0mil|Usage=FLASHONLY|Rotation=90.000|XOffset=0mil|YOffset=0mil|HoleType=Round|Shape=RoundedRectangle|*
%AMROUNDEDRECTD170*
21,1,0.0409,0.0283,0,0,90.0*
21,1,0.0283,0.0409,0,0,90.0*
1,1,0.0126,0.0142,0.0142*
1,1,0.0126,0.0142,-0.0142*
1,1,0.0126,-0.0142,-0.0142*
1,1,0.0126,-0.0142,0.0142*
%
%ADD170ROUNDEDRECTD170*%
G04:AMPARAMS|DCode=171|XSize=43.3mil|YSize=43.3mil|CornerRadius=7.5mil|HoleSize=0mil|Usage=FLASHONLY|Rotation=90.000|XOffset=0mil|YOffset=0mil|HoleType=Round|Shape=RoundedRectangle|*
%AMROUNDEDRECTD171*
21,1,0.0433,0.0283,0,0,90.0*
21,1,0.0283,0.0433,0,0,90.0*
1,1,0.0150,0.0142,0.0142*
1,1,0.0150,0.0142,-0.0142*
1,1,0.0150,-0.0142,-0.0142*
1,1,0.0150,-0.0142,0.0142*
%
%ADD171ROUNDEDRECTD171*%
%ADD172O,0.0685X0.0291*%
G04:AMPARAMS|DCode=173|XSize=47.4mil|YSize=43.4mil|CornerRadius=7.5mil|HoleSize=0mil|Usage=FLASHONLY|Rotation=0.000|XOffset=0mil|YOffset=0mil|HoleType=Round|Shape=RoundedRectangle|*
%AMROUNDEDRECTD173*
21,1,0.0474,0.0283,0,0,0.0*
21,1,0.0323,0.0434,0,0,0.0*
1,1,0.0151,0.0161,-0.0142*
1,1,0.0151,-0.0161,-0.0142*
1,1,0.0151,-0.0161,0.0142*
1,1,0.0151,0.0161,0.0142*
%
%ADD173ROUNDEDRECTD173*%
G04:AMPARAMS|DCode=174|XSize=43.9mil|YSize=55.9mil|CornerRadius=12mil|HoleSize=0mil|Usage=FLASHONLY|Rotation=180.000|XOffset=0mil|YOffset=0mil|HoleType=Round|Shape=RoundedRectangle|*
%AMROUNDEDRECTD174*
21,1,0.0439,0.0320,0,0,180.0*
21,1,0.0200,0.0559,0,0,180.0*
1,1,0.0239,-0.0100,0.0160*
1,1,0.0239,0.0100,0.0160*
1,1,0.0239,0.0100,-0.0160*
1,1,0.0239,-0.0100,-0.0160*
%
%ADD174ROUNDEDRECTD174*%
%ADD175R,0.0552X0.0671*%
G04:AMPARAMS|DCode=176|XSize=29.1mil|YSize=44.9mil|CornerRadius=5.1mil|HoleSize=0mil|Usage=FLASHONLY|Rotation=90.000|XOffset=0mil|YOffset=0mil|HoleType=Round|Shape=RoundedRectangle|*
%AMROUNDEDRECTD176*
21,1,0.0291,0.0346,0,0,90.0*
21,1,0.0189,0.0449,0,0,90.0*
1,1,0.0102,0.0173,0.0094*
1,1,0.0102,0.0173,-0.0094*
1,1,0.0102,-0.0173,-0.0094*
1,1,0.0102,-0.0173,0.0094*
%
%ADD176ROUNDEDRECTD176*%
G04:AMPARAMS|DCode=177|XSize=40.9mil|YSize=90.2mil|CornerRadius=6.3mil|HoleSize=0mil|Usage=FLASHONLY|Rotation=90.000|XOffset=0mil|YOffset=0mil|HoleType=Round|Shape=RoundedRectangle|*
%AMROUNDEDRECTD177*
21,1,0.0409,0.0776,0,0,90.0*
21,1,0.0283,0.0902,0,0,90.0*
1,1,0.0126,0.0388,0.0142*
1,1,0.0126,0.0388,-0.0142*
1,1,0.0126,-0.0388,-0.0142*
1,1,0.0126,-0.0388,0.0142*
%
%ADD177ROUNDEDRECTD177*%
G04:AMPARAMS|DCode=178|XSize=131.5mil|YSize=90.2mil|CornerRadius=11.2mil|HoleSize=0mil|Usage=FLASHONLY|Rotation=90.000|XOffset=0mil|YOffset=0mil|HoleType=Round|Shape=RoundedRectangle|*
%AMROUNDEDRECTD178*
21,1,0.1315,0.0677,0,0,90.0*
21,1,0.1091,0.0902,0,0,90.0*
1,1,0.0224,0.0339,0.0545*
1,1,0.0224,0.0339,-0.0545*
1,1,0.0224,-0.0339,-0.0545*
1,1,0.0224,-0.0339,0.0545*
%
%ADD178ROUNDEDRECTD178*%
%ADD179R,0.0512X0.0354*%
G04:AMPARAMS|DCode=180|XSize=29.1mil|YSize=44.9mil|CornerRadius=5.1mil|HoleSize=0mil|Usage=FLASHONLY|Rotation=180.000|XOffset=0mil|YOffset=0mil|HoleType=Round|Shape=RoundedRectangle|*
%AMROUNDEDRECTD180*
21,1,0.0291,0.0346,0,0,180.0*
21,1,0.0189,0.0449,0,0,180.0*
1,1,0.0102,-0.0094,0.0173*
1,1,0.0102,0.0094,0.0173*
1,1,0.0102,0.0094,-0.0173*
1,1,0.0102,-0.0094,-0.0173*
%
%ADD180ROUNDEDRECTD180*%
G04:AMPARAMS|DCode=181|XSize=31.5mil|YSize=41.3mil|CornerRadius=4.7mil|HoleSize=0mil|Usage=FLASHONLY|Rotation=180.000|XOffset=0mil|YOffset=0mil|HoleType=Round|Shape=RoundedRectangle|*
%AMROUNDEDRECTD181*
21,1,0.0315,0.0319,0,0,180.0*
21,1,0.0220,0.0413,0,0,180.0*
1,1,0.0094,-0.0110,0.0159*
1,1,0.0094,0.0110,0.0159*
1,1,0.0094,0.0110,-0.0159*
1,1,0.0094,-0.0110,-0.0159*
%
%ADD181ROUNDEDRECTD181*%
%ADD182R,0.0316X0.0671*%
%ADD183R,0.0336X0.0680*%
G04:AMPARAMS|DCode=184|XSize=50.8mil|YSize=76.4mil|CornerRadius=7.3mil|HoleSize=0mil|Usage=FLASHONLY|Rotation=90.000|XOffset=0mil|YOffset=0mil|HoleType=Round|Shape=RoundedRectangle|*
%AMROUNDEDRECTD184*
21,1,0.0508,0.0618,0,0,90.0*
21,1,0.0362,0.0764,0,0,90.0*
1,1,0.0146,0.0309,0.0181*
1,1,0.0146,0.0309,-0.0181*
1,1,0.0146,-0.0309,-0.0181*
1,1,0.0146,-0.0309,0.0181*
%
%ADD184ROUNDEDRECTD184*%
%ADD185R,0.0789X0.0946*%
%ADD186R,0.0946X0.0789*%
%ADD187O,0.0291X0.0685*%
%ADD188O,0.0779X0.0339*%
%ADD189R,0.0984X0.1299*%
G04:AMPARAMS|DCode=190|XSize=49.2mil|YSize=74.8mil|CornerRadius=13.3mil|HoleSize=0mil|Usage=FLASHONLY|Rotation=180.000|XOffset=0mil|YOffset=0mil|HoleType=Round|Shape=RoundedRectangle|*
%AMROUNDEDRECTD190*
21,1,0.0492,0.0482,0,0,180.0*
21,1,0.0226,0.0748,0,0,180.0*
1,1,0.0266,-0.0113,0.0241*
1,1,0.0266,0.0113,0.0241*
1,1,0.0266,0.0113,-0.0241*
1,1,0.0266,-0.0113,-0.0241*
%
%ADD190ROUNDEDRECTD190*%
%ADD191R,0.0380X0.0380*%
%ADD192R,0.0379X0.0379*%
%ADD193R,0.0915X0.0671*%
G04:AMPARAMS|DCode=194|XSize=57.2mil|YSize=126.1mil|CornerRadius=16.3mil|HoleSize=0mil|Usage=FLASHONLY|Rotation=270.000|XOffset=0mil|YOffset=0mil|HoleType=Round|Shape=RoundedRectangle|*
%AMROUNDEDRECTD194*
21,1,0.0572,0.0935,0,0,270.0*
21,1,0.0246,0.1261,0,0,270.0*
1,1,0.0326,-0.0468,-0.0123*
1,1,0.0326,-0.0468,0.0123*
1,1,0.0326,0.0468,0.0123*
1,1,0.0326,0.0468,-0.0123*
%
%ADD194ROUNDEDRECTD194*%
G04:AMPARAMS|DCode=195|XSize=43.4mil|YSize=47.4mil|CornerRadius=8.4mil|HoleSize=0mil|Usage=FLASHONLY|Rotation=180.000|XOffset=0mil|YOffset=0mil|HoleType=Round|Shape=RoundedRectangle|*
%AMROUNDEDRECTD195*
21,1,0.0434,0.0305,0,0,180.0*
21,1,0.0266,0.0474,0,0,180.0*
1,1,0.0169,-0.0133,0.0153*
1,1,0.0169,0.0133,0.0153*
1,1,0.0169,0.0133,-0.0153*
1,1,0.0169,-0.0133,-0.0153*
%
%ADD195ROUNDEDRECTD195*%
%ADD196R,0.0433X0.0589*%
G04:AMPARAMS|DCode=197|XSize=44.9mil|YSize=84.3mil|CornerRadius=7.7mil|HoleSize=0mil|Usage=FLASHONLY|Rotation=0.000|XOffset=0mil|YOffset=0mil|HoleType=Round|Shape=RoundedRectangle|*
%AMROUNDEDRECTD197*
21,1,0.0449,0.0689,0,0,0.0*
21,1,0.0295,0.0843,0,0,0.0*
1,1,0.0154,0.0148,-0.0344*
1,1,0.0154,-0.0148,-0.0344*
1,1,0.0154,-0.0148,0.0344*
1,1,0.0154,0.0148,0.0344*
%
%ADD197ROUNDEDRECTD197*%
G04:AMPARAMS|DCode=198|XSize=222mil|YSize=229.9mil|CornerRadius=29.8mil|HoleSize=0mil|Usage=FLASHONLY|Rotation=0.000|XOffset=0mil|YOffset=0mil|HoleType=Round|Shape=RoundedRectangle|*
%AMROUNDEDRECTD198*
21,1,0.2220,0.1703,0,0,0.0*
21,1,0.1624,0.2299,0,0,0.0*
1,1,0.0596,0.0812,-0.0851*
1,1,0.0596,-0.0812,-0.0851*
1,1,0.0596,-0.0812,0.0851*
1,1,0.0596,0.0812,0.0851*
%
%ADD198ROUNDEDRECTD198*%
%ADD199R,0.0710X0.1261*%
%ADD200R,0.0589X0.0433*%
%ADD201O,0.0157X0.0591*%
%ADD202O,0.0591X0.0157*%
G04:AMPARAMS|DCode=203|XSize=85.6mil|YSize=31.2mil|CornerRadius=6.9mil|HoleSize=0mil|Usage=FLASHONLY|Rotation=180.000|XOffset=0mil|YOffset=0mil|HoleType=Round|Shape=RoundedRectangle|*
%AMROUNDEDRECTD203*
21,1,0.0856,0.0174,0,0,180.0*
21,1,0.0718,0.0312,0,0,180.0*
1,1,0.0138,-0.0359,0.0087*
1,1,0.0138,0.0359,0.0087*
1,1,0.0138,0.0359,-0.0087*
1,1,0.0138,-0.0359,-0.0087*
%
%ADD203ROUNDEDRECTD203*%
G04:AMPARAMS|DCode=204|XSize=50.8mil|YSize=76.4mil|CornerRadius=7.3mil|HoleSize=0mil|Usage=FLASHONLY|Rotation=180.000|XOffset=0mil|YOffset=0mil|HoleType=Round|Shape=RoundedRectangle|*
%AMROUNDEDRECTD204*
21,1,0.0508,0.0618,0,0,180.0*
21,1,0.0362,0.0764,0,0,180.0*
1,1,0.0146,-0.0181,0.0309*
1,1,0.0146,0.0181,0.0309*
1,1,0.0146,0.0181,-0.0309*
1,1,0.0146,-0.0181,-0.0309*
%
%ADD204ROUNDEDRECTD204*%
G04:AMPARAMS|DCode=205|XSize=103.9mil|YSize=135.4mil|CornerRadius=12.6mil|HoleSize=0mil|Usage=FLASHONLY|Rotation=180.000|XOffset=0mil|YOffset=0mil|HoleType=Round|Shape=RoundedRectangle|*
%AMROUNDEDRECTD205*
21,1,0.1039,0.1102,0,0,180.0*
21,1,0.0787,0.1354,0,0,180.0*
1,1,0.0252,-0.0394,0.0551*
1,1,0.0252,0.0394,0.0551*
1,1,0.0252,0.0394,-0.0551*
1,1,0.0252,-0.0394,-0.0551*
%
%ADD205ROUNDEDRECTD205*%
%ADD206R,0.1220X0.1614*%
G04:AMPARAMS|DCode=207|XSize=88.7mil|YSize=31.2mil|CornerRadius=6.9mil|HoleSize=0mil|Usage=FLASHONLY|Rotation=180.000|XOffset=0mil|YOffset=0mil|HoleType=Round|Shape=RoundedRectangle|*
%AMROUNDEDRECTD207*
21,1,0.0887,0.0174,0,0,180.0*
21,1,0.0749,0.0312,0,0,180.0*
1,1,0.0138,-0.0375,0.0087*
1,1,0.0138,0.0375,0.0087*
1,1,0.0138,0.0375,-0.0087*
1,1,0.0138,-0.0375,-0.0087*
%
%ADD207ROUNDEDRECTD207*%
G04:AMPARAMS|DCode=208|XSize=103.9mil|YSize=135.4mil|CornerRadius=12.6mil|HoleSize=0mil|Usage=FLASHONLY|Rotation=270.000|XOffset=0mil|YOffset=0mil|HoleType=Round|Shape=RoundedRectangle|*
%AMROUNDEDRECTD208*
21,1,0.1039,0.1102,0,0,270.0*
21,1,0.0787,0.1354,0,0,270.0*
1,1,0.0252,-0.0551,-0.0394*
1,1,0.0252,-0.0551,0.0394*
1,1,0.0252,0.0551,0.0394*
1,1,0.0252,0.0551,-0.0394*
%
%ADD208ROUNDEDRECTD208*%
%ADD209R,0.0614X0.0976*%
%ADD210R,0.0378X0.0146*%
G04:AMPARAMS|DCode=211|XSize=29.9mil|YSize=40.9mil|CornerRadius=4.6mil|HoleSize=0mil|Usage=FLASHONLY|Rotation=0.000|XOffset=0mil|YOffset=0mil|HoleType=Round|Shape=RoundedRectangle|*
%AMROUNDEDRECTD211*
21,1,0.0299,0.0318,0,0,0.0*
21,1,0.0208,0.0409,0,0,0.0*
1,1,0.0091,0.0104,-0.0159*
1,1,0.0091,-0.0104,-0.0159*
1,1,0.0091,-0.0104,0.0159*
1,1,0.0091,0.0104,0.0159*
%
%ADD211ROUNDEDRECTD211*%
G04:AMPARAMS|DCode=212|XSize=27.6mil|YSize=39.4mil|CornerRadius=4.3mil|HoleSize=0mil|Usage=FLASHONLY|Rotation=0.000|XOffset=0mil|YOffset=0mil|HoleType=Round|Shape=RoundedRectangle|*
%AMROUNDEDRECTD212*
21,1,0.0276,0.0307,0,0,0.0*
21,1,0.0189,0.0394,0,0,0.0*
1,1,0.0087,0.0094,-0.0154*
1,1,0.0087,-0.0094,-0.0154*
1,1,0.0087,-0.0094,0.0154*
1,1,0.0087,0.0094,0.0154*
%
%ADD212ROUNDEDRECTD212*%
G04:AMPARAMS|DCode=213|XSize=31.5mil|YSize=39.4mil|CornerRadius=4.7mil|HoleSize=0mil|Usage=FLASHONLY|Rotation=180.000|XOffset=0mil|YOffset=0mil|HoleType=Round|Shape=RoundedRectangle|*
%AMROUNDEDRECTD213*
21,1,0.0315,0.0299,0,0,180.0*
21,1,0.0220,0.0394,0,0,180.0*
1,1,0.0094,-0.0110,0.0150*
1,1,0.0094,0.0110,0.0150*
1,1,0.0094,0.0110,-0.0150*
1,1,0.0094,-0.0110,-0.0150*
%
%ADD213ROUNDEDRECTD213*%
G04:AMPARAMS|DCode=214|XSize=31.5mil|YSize=39.4mil|CornerRadius=4.7mil|HoleSize=0mil|Usage=FLASHONLY|Rotation=270.000|XOffset=0mil|YOffset=0mil|HoleType=Round|Shape=RoundedRectangle|*
%AMROUNDEDRECTD214*
21,1,0.0315,0.0299,0,0,270.0*
21,1,0.0220,0.0394,0,0,270.0*
1,1,0.0094,-0.0150,-0.0110*
1,1,0.0094,-0.0150,0.0110*
1,1,0.0094,0.0150,0.0110*
1,1,0.0094,0.0150,-0.0110*
%
%ADD214ROUNDEDRECTD214*%
%ADD215O,0.0709X0.0276*%
G04:AMPARAMS|DCode=216|XSize=27.6mil|YSize=43.3mil|CornerRadius=4.3mil|HoleSize=0mil|Usage=FLASHONLY|Rotation=180.000|XOffset=0mil|YOffset=0mil|HoleType=Round|Shape=RoundedRectangle|*
%AMROUNDEDRECTD216*
21,1,0.0276,0.0346,0,0,180.0*
21,1,0.0189,0.0433,0,0,180.0*
1,1,0.0087,-0.0094,0.0173*
1,1,0.0087,0.0094,0.0173*
1,1,0.0087,0.0094,-0.0173*
1,1,0.0087,-0.0094,-0.0173*
%
%ADD216ROUNDEDRECTD216*%
G04:AMPARAMS|DCode=217|XSize=78.7mil|YSize=82.7mil|CornerRadius=9.4mil|HoleSize=0mil|Usage=FLASHONLY|Rotation=0.000|XOffset=0mil|YOffset=0mil|HoleType=Round|Shape=RoundedRectangle|*
%AMROUNDEDRECTD217*
21,1,0.0787,0.0638,0,0,0.0*
21,1,0.0598,0.0827,0,0,0.0*
1,1,0.0189,0.0299,-0.0319*
1,1,0.0189,-0.0299,-0.0319*
1,1,0.0189,-0.0299,0.0319*
1,1,0.0189,0.0299,0.0319*
%
%ADD217ROUNDEDRECTD217*%
G04:AMPARAMS|DCode=218|XSize=27.6mil|YSize=47.2mil|CornerRadius=7.9mil|HoleSize=0mil|Usage=FLASHONLY|Rotation=270.000|XOffset=0mil|YOffset=0mil|HoleType=Round|Shape=RoundedRectangle|*
%AMROUNDEDRECTD218*
21,1,0.0276,0.0315,0,0,270.0*
21,1,0.0118,0.0472,0,0,270.0*
1,1,0.0157,-0.0157,-0.0059*
1,1,0.0157,-0.0157,0.0059*
1,1,0.0157,0.0157,0.0059*
1,1,0.0157,0.0157,-0.0059*
%
%ADD218ROUNDEDRECTD218*%
G04:AMPARAMS|DCode=219|XSize=39.4mil|YSize=39.4mil|CornerRadius=10.8mil|HoleSize=0mil|Usage=FLASHONLY|Rotation=180.000|XOffset=0mil|YOffset=0mil|HoleType=Round|Shape=RoundedRectangle|*
%AMROUNDEDRECTD219*
21,1,0.0394,0.0177,0,0,180.0*
21,1,0.0177,0.0394,0,0,180.0*
1,1,0.0217,-0.0089,0.0089*
1,1,0.0217,0.0089,0.0089*
1,1,0.0217,0.0089,-0.0089*
1,1,0.0217,-0.0089,-0.0089*
%
%ADD219ROUNDEDRECTD219*%
G04:AMPARAMS|DCode=220|XSize=49.2mil|YSize=59.1mil|CornerRadius=13.3mil|HoleSize=0mil|Usage=FLASHONLY|Rotation=90.000|XOffset=0mil|YOffset=0mil|HoleType=Round|Shape=RoundedRectangle|*
%AMROUNDEDRECTD220*
21,1,0.0492,0.0325,0,0,90.0*
21,1,0.0226,0.0591,0,0,90.0*
1,1,0.0266,0.0162,0.0113*
1,1,0.0266,0.0162,-0.0113*
1,1,0.0266,-0.0162,-0.0113*
1,1,0.0266,-0.0162,0.0113*
%
%ADD220ROUNDEDRECTD220*%
G04:AMPARAMS|DCode=221|XSize=49.2mil|YSize=59.1mil|CornerRadius=13.3mil|HoleSize=0mil|Usage=FLASHONLY|Rotation=0.000|XOffset=0mil|YOffset=0mil|HoleType=Round|Shape=RoundedRectangle|*
%AMROUNDEDRECTD221*
21,1,0.0492,0.0325,0,0,0.0*
21,1,0.0226,0.0591,0,0,0.0*
1,1,0.0266,0.0113,-0.0162*
1,1,0.0266,-0.0113,-0.0162*
1,1,0.0266,-0.0113,0.0162*
1,1,0.0266,0.0113,0.0162*
%
%ADD221ROUNDEDRECTD221*%
G04:AMPARAMS|DCode=222|XSize=137.8mil|YSize=102.4mil|CornerRadius=11.8mil|HoleSize=0mil|Usage=FLASHONLY|Rotation=0.000|XOffset=0mil|YOffset=0mil|HoleType=Round|Shape=RoundedRectangle|*
%AMROUNDEDRECTD222*
21,1,0.1378,0.0787,0,0,0.0*
21,1,0.1142,0.1024,0,0,0.0*
1,1,0.0236,0.0571,-0.0394*
1,1,0.0236,-0.0571,-0.0394*
1,1,0.0236,-0.0571,0.0394*
1,1,0.0236,0.0571,0.0394*
%
%ADD222ROUNDEDRECTD222*%
%ADD223R,0.0689X0.0539*%
%ADD224R,0.0630X0.0309*%
%ADD225R,0.0739X0.0539*%
G04:AMPARAMS|DCode=226|XSize=39.4mil|YSize=39.4mil|CornerRadius=10.8mil|HoleSize=0mil|Usage=FLASHONLY|Rotation=270.000|XOffset=0mil|YOffset=0mil|HoleType=Round|Shape=RoundedRectangle|*
%AMROUNDEDRECTD226*
21,1,0.0394,0.0177,0,0,270.0*
21,1,0.0177,0.0394,0,0,270.0*
1,1,0.0217,-0.0089,-0.0089*
1,1,0.0217,-0.0089,0.0089*
1,1,0.0217,0.0089,0.0089*
1,1,0.0217,0.0089,-0.0089*
%
%ADD226ROUNDEDRECTD226*%
G04:AMPARAMS|DCode=227|XSize=27.6mil|YSize=47.2mil|CornerRadius=7.9mil|HoleSize=0mil|Usage=FLASHONLY|Rotation=180.000|XOffset=0mil|YOffset=0mil|HoleType=Round|Shape=RoundedRectangle|*
%AMROUNDEDRECTD227*
21,1,0.0276,0.0315,0,0,180.0*
21,1,0.0118,0.0472,0,0,180.0*
1,1,0.0157,-0.0059,0.0157*
1,1,0.0157,0.0059,0.0157*
1,1,0.0157,0.0059,-0.0157*
1,1,0.0157,-0.0059,-0.0157*
%
%ADD227ROUNDEDRECTD227*%
G04:AMPARAMS|DCode=228|XSize=27.6mil|YSize=43.3mil|CornerRadius=7.9mil|HoleSize=0mil|Usage=FLASHONLY|Rotation=0.000|XOffset=0mil|YOffset=0mil|HoleType=Round|Shape=RoundedRectangle|*
%AMROUNDEDRECTD228*
21,1,0.0276,0.0276,0,0,0.0*
21,1,0.0118,0.0433,0,0,0.0*
1,1,0.0157,0.0059,-0.0138*
1,1,0.0157,-0.0059,-0.0138*
1,1,0.0157,-0.0059,0.0138*
1,1,0.0157,0.0059,0.0138*
%
%ADD228ROUNDEDRECTD228*%
%ADD229O,0.0591X0.0197*%
G04:AMPARAMS|DCode=230|XSize=27.6mil|YSize=15.7mil|CornerRadius=3.2mil|HoleSize=0mil|Usage=FLASHONLY|Rotation=0.000|XOffset=0mil|YOffset=0mil|HoleType=Round|Shape=RoundedRectangle|*
%AMROUNDEDRECTD230*
21,1,0.0276,0.0094,0,0,0.0*
21,1,0.0213,0.0157,0,0,0.0*
1,1,0.0063,0.0106,-0.0047*
1,1,0.0063,-0.0106,-0.0047*
1,1,0.0063,-0.0106,0.0047*
1,1,0.0063,0.0106,0.0047*
%
%ADD230ROUNDEDRECTD230*%
G04:AMPARAMS|DCode=231|XSize=13mil|YSize=32.5mil|CornerRadius=2.9mil|HoleSize=0mil|Usage=FLASHONLY|Rotation=0.000|XOffset=0mil|YOffset=0mil|HoleType=Round|Shape=RoundedRectangle|*
%AMROUNDEDRECTD231*
21,1,0.0130,0.0267,0,0,0.0*
21,1,0.0072,0.0325,0,0,0.0*
1,1,0.0057,0.0036,-0.0134*
1,1,0.0057,-0.0036,-0.0134*
1,1,0.0057,-0.0036,0.0134*
1,1,0.0057,0.0036,0.0134*
%
%ADD231ROUNDEDRECTD231*%
G04:AMPARAMS|DCode=232|XSize=63mil|YSize=72.8mil|CornerRadius=7.9mil|HoleSize=0mil|Usage=FLASHONLY|Rotation=0.000|XOffset=0mil|YOffset=0mil|HoleType=Round|Shape=RoundedRectangle|*
%AMROUNDEDRECTD232*
21,1,0.0630,0.0571,0,0,0.0*
21,1,0.0472,0.0728,0,0,0.0*
1,1,0.0157,0.0236,-0.0285*
1,1,0.0157,-0.0236,-0.0285*
1,1,0.0157,-0.0236,0.0285*
1,1,0.0157,0.0236,0.0285*
%
%ADD232ROUNDEDRECTD232*%
%ADD233O,0.0571X0.0197*%
G04:AMPARAMS|DCode=234|XSize=35.4mil|YSize=45.3mil|CornerRadius=9.8mil|HoleSize=0mil|Usage=FLASHONLY|Rotation=180.000|XOffset=0mil|YOffset=0mil|HoleType=Round|Shape=RoundedRectangle|*
%AMROUNDEDRECTD234*
21,1,0.0354,0.0256,0,0,180.0*
21,1,0.0157,0.0453,0,0,180.0*
1,1,0.0197,-0.0079,0.0128*
1,1,0.0197,0.0079,0.0128*
1,1,0.0197,0.0079,-0.0128*
1,1,0.0197,-0.0079,-0.0128*
%
%ADD234ROUNDEDRECTD234*%
G04:AMPARAMS|DCode=235|XSize=35.4mil|YSize=45.3mil|CornerRadius=9.8mil|HoleSize=0mil|Usage=FLASHONLY|Rotation=270.000|XOffset=0mil|YOffset=0mil|HoleType=Round|Shape=RoundedRectangle|*
%AMROUNDEDRECTD235*
21,1,0.0354,0.0256,0,0,270.0*
21,1,0.0157,0.0453,0,0,270.0*
1,1,0.0197,-0.0128,-0.0079*
1,1,0.0197,-0.0128,0.0079*
1,1,0.0197,0.0128,0.0079*
1,1,0.0197,0.0128,-0.0079*
%
%ADD235ROUNDEDRECTD235*%
G04:AMPARAMS|DCode=236|XSize=51.2mil|YSize=74.8mil|CornerRadius=6.7mil|HoleSize=0mil|Usage=FLASHONLY|Rotation=0.000|XOffset=0mil|YOffset=0mil|HoleType=Round|Shape=RoundedRectangle|*
%AMROUNDEDRECTD236*
21,1,0.0512,0.0614,0,0,0.0*
21,1,0.0378,0.0748,0,0,0.0*
1,1,0.0134,0.0189,-0.0307*
1,1,0.0134,-0.0189,-0.0307*
1,1,0.0134,-0.0189,0.0307*
1,1,0.0134,0.0189,0.0307*
%
%ADD236ROUNDEDRECTD236*%
G04:AMPARAMS|DCode=237|XSize=51.2mil|YSize=74.8mil|CornerRadius=6.7mil|HoleSize=0mil|Usage=FLASHONLY|Rotation=270.000|XOffset=0mil|YOffset=0mil|HoleType=Round|Shape=RoundedRectangle|*
%AMROUNDEDRECTD237*
21,1,0.0512,0.0614,0,0,270.0*
21,1,0.0378,0.0748,0,0,270.0*
1,1,0.0134,-0.0307,-0.0189*
1,1,0.0134,-0.0307,0.0189*
1,1,0.0134,0.0307,0.0189*
1,1,0.0134,0.0307,-0.0189*
%
%ADD237ROUNDEDRECTD237*%
G04:AMPARAMS|DCode=238|XSize=82.7mil|YSize=39.4mil|CornerRadius=7.3mil|HoleSize=0mil|Usage=FLASHONLY|Rotation=90.000|XOffset=0mil|YOffset=0mil|HoleType=Round|Shape=RoundedRectangle|*
%AMROUNDEDRECTD238*
21,1,0.0827,0.0248,0,0,90.0*
21,1,0.0681,0.0394,0,0,90.0*
1,1,0.0146,0.0124,0.0341*
1,1,0.0146,0.0124,-0.0341*
1,1,0.0146,-0.0124,-0.0341*
1,1,0.0146,-0.0124,0.0341*
%
%ADD238ROUNDEDRECTD238*%
G04:AMPARAMS|DCode=239|XSize=39.4mil|YSize=82.7mil|CornerRadius=5.5mil|HoleSize=0mil|Usage=FLASHONLY|Rotation=90.000|XOffset=0mil|YOffset=0mil|HoleType=Round|Shape=RoundedRectangle|*
%AMROUNDEDRECTD239*
21,1,0.0394,0.0717,0,0,90.0*
21,1,0.0283,0.0827,0,0,90.0*
1,1,0.0110,0.0358,0.0142*
1,1,0.0110,0.0358,-0.0142*
1,1,0.0110,-0.0358,-0.0142*
1,1,0.0110,-0.0358,0.0142*
%
%ADD239ROUNDEDRECTD239*%
%ADD240R,0.0563X0.0563*%
G04:AMPARAMS|DCode=241|XSize=27.6mil|YSize=43.3mil|CornerRadius=4.3mil|HoleSize=0mil|Usage=FLASHONLY|Rotation=270.000|XOffset=0mil|YOffset=0mil|HoleType=Round|Shape=RoundedRectangle|*
%AMROUNDEDRECTD241*
21,1,0.0276,0.0346,0,0,270.0*
21,1,0.0189,0.0433,0,0,270.0*
1,1,0.0087,-0.0173,-0.0094*
1,1,0.0087,-0.0173,0.0094*
1,1,0.0087,0.0173,0.0094*
1,1,0.0087,0.0173,-0.0094*
%
%ADD241ROUNDEDRECTD241*%
G04:AMPARAMS|DCode=242|XSize=65.4mil|YSize=19.7mil|CornerRadius=3.9mil|HoleSize=0mil|Usage=FLASHONLY|Rotation=0.000|XOffset=0mil|YOffset=0mil|HoleType=Round|Shape=RoundedRectangle|*
%AMROUNDEDRECTD242*
21,1,0.0654,0.0118,0,0,0.0*
21,1,0.0575,0.0197,0,0,0.0*
1,1,0.0079,0.0287,-0.0059*
1,1,0.0079,-0.0287,-0.0059*
1,1,0.0079,-0.0287,0.0059*
1,1,0.0079,0.0287,0.0059*
%
%ADD242ROUNDEDRECTD242*%
G04:AMPARAMS|DCode=243|XSize=74.8mil|YSize=63mil|CornerRadius=4.9mil|HoleSize=0mil|Usage=FLASHONLY|Rotation=90.000|XOffset=0mil|YOffset=0mil|HoleType=Round|Shape=RoundedRectangle|*
%AMROUNDEDRECTD243*
21,1,0.0748,0.0531,0,0,90.0*
21,1,0.0650,0.0630,0,0,90.0*
1,1,0.0098,0.0266,0.0325*
1,1,0.0098,0.0266,-0.0325*
1,1,0.0098,-0.0266,-0.0325*
1,1,0.0098,-0.0266,0.0325*
%
%ADD243ROUNDEDRECTD243*%
G04:AMPARAMS|DCode=244|XSize=49.2mil|YSize=27.6mil|CornerRadius=4.3mil|HoleSize=0mil|Usage=FLASHONLY|Rotation=180.000|XOffset=0mil|YOffset=0mil|HoleType=Round|Shape=RoundedRectangle|*
%AMROUNDEDRECTD244*
21,1,0.0492,0.0189,0,0,180.0*
21,1,0.0406,0.0276,0,0,180.0*
1,1,0.0087,-0.0203,0.0094*
1,1,0.0087,0.0203,0.0094*
1,1,0.0087,0.0203,-0.0094*
1,1,0.0087,-0.0203,-0.0094*
%
%ADD244ROUNDEDRECTD244*%
G04:AMPARAMS|DCode=245|XSize=49.2mil|YSize=15.7mil|CornerRadius=3.2mil|HoleSize=0mil|Usage=FLASHONLY|Rotation=180.000|XOffset=0mil|YOffset=0mil|HoleType=Round|Shape=RoundedRectangle|*
%AMROUNDEDRECTD245*
21,1,0.0492,0.0094,0,0,180.0*
21,1,0.0429,0.0157,0,0,180.0*
1,1,0.0063,-0.0215,0.0047*
1,1,0.0063,0.0215,0.0047*
1,1,0.0063,0.0215,-0.0047*
1,1,0.0063,-0.0215,-0.0047*
%
%ADD245ROUNDEDRECTD245*%
G04:AMPARAMS|DCode=246|XSize=63mil|YSize=82.7mil|CornerRadius=7.9mil|HoleSize=0mil|Usage=FLASHONLY|Rotation=180.000|XOffset=0mil|YOffset=0mil|HoleType=Round|Shape=RoundedRectangle|*
%AMROUNDEDRECTD246*
21,1,0.0630,0.0669,0,0,180.0*
21,1,0.0472,0.0827,0,0,180.0*
1,1,0.0157,-0.0236,0.0335*
1,1,0.0157,0.0236,0.0335*
1,1,0.0157,0.0236,-0.0335*
1,1,0.0157,-0.0236,-0.0335*
%
%ADD246ROUNDEDRECTD246*%
G04:AMPARAMS|DCode=247|XSize=89.8mil|YSize=82.7mil|CornerRadius=9.8mil|HoleSize=0mil|Usage=FLASHONLY|Rotation=180.000|XOffset=0mil|YOffset=0mil|HoleType=Round|Shape=RoundedRectangle|*
%AMROUNDEDRECTD247*
21,1,0.0898,0.0630,0,0,180.0*
21,1,0.0701,0.0827,0,0,180.0*
1,1,0.0197,-0.0350,0.0315*
1,1,0.0197,0.0350,0.0315*
1,1,0.0197,0.0350,-0.0315*
1,1,0.0197,-0.0350,-0.0315*
%
%ADD247ROUNDEDRECTD247*%
G04:AMPARAMS|DCode=248|XSize=41.3mil|YSize=88.6mil|CornerRadius=11.3mil|HoleSize=0mil|Usage=FLASHONLY|Rotation=270.000|XOffset=0mil|YOffset=0mil|HoleType=Round|Shape=RoundedRectangle|*
%AMROUNDEDRECTD248*
21,1,0.0413,0.0659,0,0,270.0*
21,1,0.0187,0.0886,0,0,270.0*
1,1,0.0226,-0.0330,-0.0094*
1,1,0.0226,-0.0330,0.0094*
1,1,0.0226,0.0330,0.0094*
1,1,0.0226,0.0330,-0.0094*
%
%ADD248ROUNDEDRECTD248*%
G04:AMPARAMS|DCode=249|XSize=131.9mil|YSize=88.6mil|CornerRadius=23.1mil|HoleSize=0mil|Usage=FLASHONLY|Rotation=270.000|XOffset=0mil|YOffset=0mil|HoleType=Round|Shape=RoundedRectangle|*
%AMROUNDEDRECTD249*
21,1,0.1319,0.0423,0,0,270.0*
21,1,0.0856,0.0886,0,0,270.0*
1,1,0.0463,-0.0212,-0.0428*
1,1,0.0463,-0.0212,0.0428*
1,1,0.0463,0.0212,0.0428*
1,1,0.0463,0.0212,-0.0428*
%
%ADD249ROUNDEDRECTD249*%
G04:AMPARAMS|DCode=250|XSize=41.3mil|YSize=88.6mil|CornerRadius=11.3mil|HoleSize=0mil|Usage=FLASHONLY|Rotation=180.000|XOffset=0mil|YOffset=0mil|HoleType=Round|Shape=RoundedRectangle|*
%AMROUNDEDRECTD250*
21,1,0.0413,0.0659,0,0,180.0*
21,1,0.0187,0.0886,0,0,180.0*
1,1,0.0226,-0.0094,0.0330*
1,1,0.0226,0.0094,0.0330*
1,1,0.0226,0.0094,-0.0330*
1,1,0.0226,-0.0094,-0.0330*
%
%ADD250ROUNDEDRECTD250*%
G04:AMPARAMS|DCode=251|XSize=131.9mil|YSize=88.6mil|CornerRadius=23.1mil|HoleSize=0mil|Usage=FLASHONLY|Rotation=180.000|XOffset=0mil|YOffset=0mil|HoleType=Round|Shape=RoundedRectangle|*
%AMROUNDEDRECTD251*
21,1,0.1319,0.0423,0,0,180.0*
21,1,0.0856,0.0886,0,0,180.0*
1,1,0.0463,-0.0428,0.0212*
1,1,0.0463,0.0428,0.0212*
1,1,0.0463,0.0428,-0.0212*
1,1,0.0463,-0.0428,-0.0212*
%
%ADD251ROUNDEDRECTD251*%
G04:AMPARAMS|DCode=252|XSize=94.5mil|YSize=129.9mil|CornerRadius=11mil|HoleSize=0mil|Usage=FLASHONLY|Rotation=90.000|XOffset=0mil|YOffset=0mil|HoleType=Round|Shape=RoundedRectangle|*
%AMROUNDEDRECTD252*
21,1,0.0945,0.1079,0,0,90.0*
21,1,0.0724,0.1299,0,0,90.0*
1,1,0.0220,0.0539,0.0362*
1,1,0.0220,0.0539,-0.0362*
1,1,0.0220,-0.0539,-0.0362*
1,1,0.0220,-0.0539,0.0362*
%
%ADD252ROUNDEDRECTD252*%
G04:AMPARAMS|DCode=253|XSize=55.1mil|YSize=29.5mil|CornerRadius=4.5mil|HoleSize=0mil|Usage=FLASHONLY|Rotation=90.000|XOffset=0mil|YOffset=0mil|HoleType=Round|Shape=RoundedRectangle|*
%AMROUNDEDRECTD253*
21,1,0.0551,0.0205,0,0,90.0*
21,1,0.0461,0.0295,0,0,90.0*
1,1,0.0091,0.0102,0.0230*
1,1,0.0091,0.0102,-0.0230*
1,1,0.0091,-0.0102,-0.0230*
1,1,0.0091,-0.0102,0.0230*
%
%ADD253ROUNDEDRECTD253*%
G04:AMPARAMS|DCode=254|XSize=27.6mil|YSize=51.2mil|CornerRadius=7.9mil|HoleSize=0mil|Usage=FLASHONLY|Rotation=270.000|XOffset=0mil|YOffset=0mil|HoleType=Round|Shape=RoundedRectangle|*
%AMROUNDEDRECTD254*
21,1,0.0276,0.0354,0,0,270.0*
21,1,0.0118,0.0512,0,0,270.0*
1,1,0.0157,-0.0177,-0.0059*
1,1,0.0157,-0.0177,0.0059*
1,1,0.0157,0.0177,0.0059*
1,1,0.0157,0.0177,-0.0059*
%
%ADD254ROUNDEDRECTD254*%
%ADD255C,0.0631*%
%ADD256R,0.0631X0.0631*%
%ADD257R,0.0795X0.0795*%
%ADD258C,0.0795*%
%ADD259O,0.0730X0.0750*%
%ADD260R,0.0730X0.0750*%
%ADD261C,0.2442*%
%ADD262C,0.1000*%
G04:AMPARAMS|DCode=263|XSize=100mil|YSize=100mil|CornerRadius=26.4mil|HoleSize=0mil|Usage=FLASHONLY|Rotation=0.000|XOffset=0mil|YOffset=0mil|HoleType=Round|Shape=RoundedRectangle|*
%AMROUNDEDRECTD263*
21,1,0.1000,0.0472,0,0,0.0*
21,1,0.0472,0.1000,0,0,0.0*
1,1,0.0528,0.0236,-0.0236*
1,1,0.0528,-0.0236,-0.0236*
1,1,0.0528,-0.0236,0.0236*
1,1,0.0528,0.0236,0.0236*
%
%ADD263ROUNDEDRECTD263*%
%ADD264O,0.0710X0.0867*%
%ADD265R,0.0710X0.0867*%
%ADD266O,0.0867X0.0710*%
%ADD267R,0.0468X0.0468*%
%ADD268C,0.0468*%
%ADD269R,0.0749X0.0749*%
%ADD270C,0.0749*%
%ADD271C,0.0671*%
%ADD272C,0.1980*%
%ADD273C,0.0745*%
%ADD274R,0.0745X0.0745*%
%ADD275C,0.0316*%
%ADD276C,0.0710*%
%ADD277R,0.0671X0.0680*%
%ADD278C,0.0671*%
%ADD279C,0.0039*%
%ADD280R,0.0669X0.0669*%
%ADD281C,0.0669*%
%ADD282O,0.0789X0.0710*%
G36*
X147244Y098543D02*
X116535D01*
Y099134D01*
X147244D01*
Y098543D01*
D02*
G37*
G36*
X144488Y075709D02*
X116535D01*
Y076299D01*
X144488D01*
Y075709D01*
D02*
G37*
G36*
X145041Y069177D02*
X145046Y069176D01*
X145051Y069174D01*
X145055Y069172D01*
X14506Y069169D01*
X145064Y069165D01*
X145067Y069161D01*
X14507Y069157D01*
X145072Y069152D01*
X145074Y069147D01*
X145075Y069142D01*
X145075Y069137D01*
Y068737D01*
X145075Y068732D01*
X145074Y068727D01*
X145072Y068722D01*
X14507Y068717D01*
X145067Y068713D01*
X145064Y068709D01*
X145032Y068677D01*
X145035Y068677D01*
X145041Y068677D01*
X145046Y068676D01*
X145051Y068674D01*
X145055Y068672D01*
X14506Y068669D01*
X145064Y068665D01*
X145067Y068661D01*
X14507Y068657D01*
X145072Y068652D01*
X145074Y068647D01*
X145075Y068642D01*
X145075Y068637D01*
X145075Y068087D01*
X145075Y068082D01*
X145074Y068077D01*
X145072Y068072D01*
X14507Y068067D01*
X145067Y068063D01*
X145064Y068059D01*
X14506Y068055D01*
X145055Y068052D01*
X145051Y06805D01*
X145046Y068048D01*
X145041Y068047D01*
X145035Y068047D01*
X144535Y068047D01*
X14453Y068047D01*
X144525Y068048D01*
X14452Y06805D01*
X144515Y068052D01*
X144511Y068055D01*
X144507Y068059D01*
X144504Y068063D01*
X144501Y068067D01*
X144498Y068072D01*
X144497Y068077D01*
X144496Y068082D01*
X144495Y068087D01*
X144495Y068637D01*
X144496Y068642D01*
X144497Y068647D01*
X144498Y068652D01*
X144501Y068657D01*
X144504Y068661D01*
X144507Y068665D01*
X144511Y068669D01*
X144515Y068672D01*
X14452Y068674D01*
X144525Y068676D01*
X14453Y068677D01*
X144535Y068677D01*
X144539Y068677D01*
X144507Y068709D01*
X144504Y068713D01*
X144501Y068717D01*
X144498Y068722D01*
X144497Y068727D01*
X144496Y068732D01*
X144495Y068737D01*
X144495Y069137D01*
X144496Y069142D01*
X144497Y069147D01*
X144498Y069152D01*
X144501Y069157D01*
X144504Y069161D01*
X144507Y069165D01*
X144511Y069169D01*
X144515Y069172D01*
X14452Y069174D01*
X144525Y069176D01*
X14453Y069177D01*
X144535Y069177D01*
X145035D01*
X145041Y069177D01*
D02*
G37*
G36*
X143232Y067469D02*
X143237Y067469D01*
X143242Y067468D01*
X143247Y067466D01*
X143252Y067464D01*
X143256Y067461D01*
X14326Y067457D01*
X143264Y067453D01*
X143267Y067449D01*
X143269Y067444D01*
X143271Y067439D01*
X143272Y067434D01*
X143272Y067429D01*
X143272Y066879D01*
X143272Y066874D01*
X143271Y066869D01*
X143269Y066864D01*
X143267Y066859D01*
X143264Y066855D01*
X14326Y066851D01*
X143256Y066847D01*
X143252Y066844D01*
X143247Y066842D01*
X143242Y06684D01*
X143237Y066839D01*
X143232Y066839D01*
X143228Y066839D01*
X14326Y066807D01*
X143264Y066803D01*
X143267Y066799D01*
X143269Y066794D01*
X143271Y066789D01*
X143272Y066784D01*
X143272Y066779D01*
X143272Y066379D01*
X143272Y066374D01*
X143271Y066369D01*
X143269Y066364D01*
X143267Y066359D01*
X143264Y066355D01*
X14326Y066351D01*
X143256Y066347D01*
X143252Y066344D01*
X143247Y066342D01*
X143242Y06634D01*
X143237Y066339D01*
X143232Y066339D01*
X142732D01*
X142727Y066339D01*
X142721Y06634D01*
X142716Y066342D01*
X142712Y066344D01*
X142707Y066347D01*
X142703Y066351D01*
X1427Y066355D01*
X142697Y066359D01*
X142695Y066364D01*
X142693Y066369D01*
X142692Y066374D01*
X142692Y066379D01*
Y066779D01*
X142692Y066784D01*
X142693Y066789D01*
X142695Y066794D01*
X142697Y066799D01*
X1427Y066803D01*
X142703Y066807D01*
X142735Y066839D01*
X142732Y066839D01*
X142727Y066839D01*
X142721Y06684D01*
X142716Y066842D01*
X142712Y066844D01*
X142707Y066847D01*
X142703Y066851D01*
X1427Y066855D01*
X142697Y066859D01*
X142695Y066864D01*
X142693Y066869D01*
X142692Y066874D01*
X142692Y066879D01*
X142692Y067429D01*
X142692Y067434D01*
X142693Y067439D01*
X142695Y067444D01*
X142697Y067449D01*
X1427Y067453D01*
X142703Y067457D01*
X142707Y067461D01*
X142712Y067464D01*
X142716Y067466D01*
X142721Y067468D01*
X142727Y067469D01*
X142732Y067469D01*
X143232Y067469D01*
D02*
G37*
G36*
X163257Y059314D02*
X163262Y059314D01*
X163267Y059313D01*
X163272Y059311D01*
X163277Y059309D01*
X163282Y059306D01*
X163285Y059302D01*
X163289Y059298D01*
X163292Y059294D01*
X163294Y059289D01*
X163296Y059284D01*
X163297Y059279D01*
X163297Y059274D01*
Y058774D01*
X163297Y058769D01*
X163296Y058764D01*
X163294Y058759D01*
X163292Y058754D01*
X163289Y05875D01*
X163285Y058746D01*
X163282Y058742D01*
X163277Y058739D01*
X163272Y058737D01*
X163267Y058735D01*
X163262Y058734D01*
X163257Y058734D01*
X162857D01*
X162852Y058734D01*
X162847Y058735D01*
X162842Y058737D01*
X162837Y058739D01*
X162833Y058742D01*
X162829Y058746D01*
X162797Y058777D01*
X162797Y058774D01*
X162797Y058769D01*
X162796Y058764D01*
X162794Y058759D01*
X162792Y058754D01*
X162789Y05875D01*
X162785Y058746D01*
X162782Y058742D01*
X162777Y058739D01*
X162772Y058737D01*
X162767Y058735D01*
X162762Y058734D01*
X162757Y058734D01*
X162207Y058734D01*
X162202Y058734D01*
X162197Y058735D01*
X162192Y058737D01*
X162187Y058739D01*
X162183Y058742D01*
X162179Y058746D01*
X162175Y05875D01*
X162172Y058754D01*
X16217Y058759D01*
X162168Y058764D01*
X162167Y058769D01*
X162167Y058774D01*
X162167Y059274D01*
X162167Y059279D01*
X162168Y059284D01*
X16217Y059289D01*
X162172Y059294D01*
X162175Y059298D01*
X162179Y059302D01*
X162183Y059306D01*
X162187Y059309D01*
X162192Y059311D01*
X162197Y059313D01*
X162202Y059314D01*
X162207Y059314D01*
X162757Y059314D01*
X162762Y059314D01*
X162767Y059313D01*
X162772Y059311D01*
X162777Y059309D01*
X162782Y059306D01*
X162785Y059302D01*
X162789Y059298D01*
X162792Y059294D01*
X162794Y059289D01*
X162796Y059284D01*
X162797Y059279D01*
X162797Y059274D01*
X162797Y059271D01*
X162829Y059302D01*
X162833Y059306D01*
X162837Y059309D01*
X162842Y059311D01*
X162847Y059313D01*
X162852Y059314D01*
X162857Y059314D01*
X163257Y059314D01*
D02*
G37*
G36*
X147852Y051319D02*
X147857Y051319D01*
X147862Y051318D01*
X147867Y051316D01*
X147872Y051314D01*
X147876Y051311D01*
X14788Y051307D01*
X147884Y051303D01*
X147887Y051299D01*
X147889Y051294D01*
X147891Y051289D01*
X147892Y051284D01*
X147892Y051279D01*
X147892Y050729D01*
X147892Y050724D01*
X147891Y050719D01*
X147889Y050714D01*
X147887Y050709D01*
X147884Y050705D01*
X14788Y050701D01*
X147876Y050697D01*
X147872Y050694D01*
X147867Y050692D01*
X147862Y05069D01*
X147857Y050689D01*
X147852Y050689D01*
X147848Y050689D01*
X14788Y050657D01*
X147884Y050653D01*
X147887Y050649D01*
X147889Y050644D01*
X147891Y050639D01*
X147892Y050634D01*
X147892Y050629D01*
X147892Y050229D01*
X147892Y050224D01*
X147891Y050219D01*
X147889Y050214D01*
X147887Y050209D01*
X147884Y050205D01*
X14788Y050201D01*
X147876Y050197D01*
X147872Y050194D01*
X147867Y050192D01*
X147862Y05019D01*
X147857Y050189D01*
X147852Y050189D01*
X147352D01*
X147347Y050189D01*
X147341Y05019D01*
X147336Y050192D01*
X147332Y050194D01*
X147327Y050197D01*
X147323Y050201D01*
X14732Y050205D01*
X147317Y050209D01*
X147315Y050214D01*
X147313Y050219D01*
X147312Y050224D01*
X147312Y050229D01*
Y050629D01*
X147312Y050634D01*
X147313Y050639D01*
X147315Y050644D01*
X147317Y050649D01*
X14732Y050653D01*
X147323Y050657D01*
X147355Y050689D01*
X147352Y050689D01*
X147347Y050689D01*
X147341Y05069D01*
X147336Y050692D01*
X147332Y050694D01*
X147327Y050697D01*
X147323Y050701D01*
X14732Y050705D01*
X147317Y050709D01*
X147315Y050714D01*
X147313Y050719D01*
X147312Y050724D01*
X147312Y050729D01*
X147312Y051279D01*
X147312Y051284D01*
X147313Y051289D01*
X147315Y051294D01*
X147317Y051299D01*
X14732Y051303D01*
X147323Y051307D01*
X147327Y051311D01*
X147332Y051314D01*
X147336Y051316D01*
X147341Y051318D01*
X147347Y051319D01*
X147352Y051319D01*
X147852Y051319D01*
D02*
G37*
%LPC*%
G36*
X144889Y068547D02*
X144888Y068547D01*
X144889D01*
X144889Y068547D01*
D02*
G37*
G36*
X144682Y068547D02*
X144682Y068547D01*
X144683D01*
X144682Y068547D01*
D02*
G37*
G36*
X143085Y066969D02*
X143084D01*
X143085Y066969D01*
X143085Y066969D01*
D02*
G37*
G36*
X142879Y066969D02*
X142878D01*
X142878Y066969D01*
X142879Y066969D01*
D02*
G37*
G36*
X162667Y059127D02*
X162667Y059127D01*
Y059127D01*
X162667Y059127D01*
D02*
G37*
G36*
X162667Y058921D02*
Y058921D01*
X162667Y058921D01*
X162667Y058921D01*
D02*
G37*
G36*
X147705Y050819D02*
X147704D01*
X147705Y050819D01*
X147705Y050819D01*
D02*
G37*
G36*
X147499Y050819D02*
X147498D01*
X147498Y050819D01*
X147499Y050819D01*
D02*
G37*
%LPD*%
D49*
X146177Y050674D02*
D03*
Y049004D02*
D03*
D126*
X164236Y062669D02*
D03*
X162268D02*
D03*
D158*
X132562Y058619D02*
D03*
Y059119D02*
D03*
X130062Y058619D02*
D03*
Y059119D02*
D03*
X155319Y051559D02*
D03*
Y051059D02*
D03*
X157819Y051559D02*
D03*
Y051059D02*
D03*
X132562Y062079D02*
D03*
Y062579D02*
D03*
X130062Y062079D02*
D03*
Y062579D02*
D03*
Y060779D02*
D03*
Y060279D02*
D03*
X132562Y060779D02*
D03*
Y060279D02*
D03*
X148702Y054849D02*
D03*
Y055349D02*
D03*
X146202Y054849D02*
D03*
Y055349D02*
D03*
D159*
X152975Y069629D02*
D03*
Y068629D02*
D03*
X155928D02*
D03*
X155928Y069629D02*
D03*
X159175Y069629D02*
D03*
Y068629D02*
D03*
X162128D02*
D03*
X162128Y069629D02*
D03*
D160*
X144785Y068297D02*
D03*
X147602Y051069D02*
D03*
X142982Y067219D02*
D03*
D161*
X144785Y068887D02*
D03*
X147602Y050479D02*
D03*
X142982Y066629D02*
D03*
D162*
X143865Y068592D02*
D03*
X14298D02*
D03*
X146621D02*
D03*
X145735D02*
D03*
X152025Y048249D02*
D03*
X151139D02*
D03*
X144792Y066739D02*
D03*
X143906D02*
D03*
D163*
X147655Y069674D02*
D03*
Y068493D02*
D03*
X151702Y068538D02*
D03*
Y06972D02*
D03*
X161852Y070838D02*
D03*
Y07202D02*
D03*
X160802D02*
D03*
Y070838D02*
D03*
X157902Y068538D02*
D03*
Y06972D02*
D03*
X156902D02*
D03*
Y068538D02*
D03*
X163182Y068668D02*
D03*
Y06985D02*
D03*
X164232Y068678D02*
D03*
Y06986D02*
D03*
X162072Y054278D02*
D03*
Y05546D02*
D03*
X145682Y065929D02*
D03*
Y06711D02*
D03*
D164*
X140194Y067804D02*
D03*
X141926D02*
D03*
D165*
X1304Y055089D02*
D03*
X12977D02*
D03*
X131377Y052029D02*
D03*
X132007D02*
D03*
X121537Y052419D02*
D03*
X122167D02*
D03*
X121537Y054719D02*
D03*
X122167D02*
D03*
X146827Y051639D02*
D03*
X146197D02*
D03*
X145569Y058543D02*
D03*
X144939D02*
D03*
X164482Y059059D02*
D03*
X163852D02*
D03*
X144292Y048499D02*
D03*
X143662D02*
D03*
X143682Y047839D02*
D03*
X144312D02*
D03*
X125382Y058249D02*
D03*
X124752D02*
D03*
X126077Y068209D02*
D03*
X125447D02*
D03*
X126697D02*
D03*
X127327D02*
D03*
X144347Y059179D02*
D03*
X143717D02*
D03*
D166*
X136101Y073223D02*
D03*
X132562D02*
D03*
Y070999D02*
D03*
X136101D02*
D03*
D167*
X135582Y073223D02*
D03*
X135082D02*
D03*
X134582D02*
D03*
X134082D02*
D03*
X133582D02*
D03*
X133082D02*
D03*
Y070999D02*
D03*
X133582D02*
D03*
X134082D02*
D03*
X134582D02*
D03*
X135082D02*
D03*
X135582D02*
D03*
D168*
X127891Y073219D02*
D03*
X127223Y073839D02*
D03*
X126833Y054519D02*
D03*
Y052619D02*
D03*
X123293Y052139D02*
D03*
X146183Y052299D02*
D03*
X145554Y057893D02*
D03*
X144885Y057193D02*
D03*
X140822Y071189D02*
D03*
X140832Y070539D02*
D03*
X139332Y071189D02*
D03*
X139333Y070539D02*
D03*
X137853Y071209D02*
D03*
X137852Y070559D02*
D03*
X151663Y061145D02*
D03*
X153901Y066079D02*
D03*
X163063Y065879D02*
D03*
X163062Y065209D02*
D03*
X160193Y057449D02*
D03*
X158297Y053452D02*
D03*
X155958Y052329D02*
D03*
X153752Y053359D02*
D03*
X154438Y052659D02*
D03*
X126741Y058259D02*
D03*
X128181Y058249D02*
D03*
X118402Y063019D02*
D03*
X120351D02*
D03*
X117781D02*
D03*
X123743Y070019D02*
D03*
X124412Y070666D02*
D03*
X132381Y066229D02*
D03*
X133969D02*
D03*
X148103Y056119D02*
D03*
X147252Y056079D02*
D03*
X149387Y056767D02*
D03*
X150056Y057437D02*
D03*
X144641Y065689D02*
D03*
D169*
X127222Y073219D02*
D03*
X127892Y073839D02*
D03*
X127502Y054519D02*
D03*
Y052619D02*
D03*
X123962Y052139D02*
D03*
X146852Y052299D02*
D03*
X144885Y057893D02*
D03*
X145554Y057193D02*
D03*
X141491Y071189D02*
D03*
X141501Y070539D02*
D03*
X140001Y071189D02*
D03*
X140002Y070539D02*
D03*
X138522Y071209D02*
D03*
X138521Y070559D02*
D03*
X150994Y061145D02*
D03*
X153232Y066079D02*
D03*
X163732Y065879D02*
D03*
X163731Y065209D02*
D03*
X160862Y057449D02*
D03*
X157628Y053452D02*
D03*
X155289Y052329D02*
D03*
X154421Y053359D02*
D03*
X153769Y052659D02*
D03*
X126072Y058259D02*
D03*
X127512Y058249D02*
D03*
X119071Y063019D02*
D03*
X119682D02*
D03*
X117112D02*
D03*
X124412Y070019D02*
D03*
X123743Y070666D02*
D03*
X131712Y066229D02*
D03*
X1333D02*
D03*
X148772Y056119D02*
D03*
X146583Y056079D02*
D03*
X150056Y056767D02*
D03*
X149387Y057437D02*
D03*
X143972Y065689D02*
D03*
D170*
X132772Y053238D02*
D03*
Y053859D02*
D03*
X120902Y054588D02*
D03*
Y05255D02*
D03*
X132572Y068589D02*
D03*
X130602Y06793D02*
D03*
X140412Y065009D02*
D03*
X139412D02*
D03*
X139272Y06086D02*
D03*
X141352Y06087D02*
D03*
X143672D02*
D03*
X15276Y061214D02*
D03*
X149832Y060529D02*
D03*
X155942Y062121D02*
D03*
Y064678D02*
D03*
X156146Y067484D02*
D03*
X154819Y066814D02*
D03*
X154156Y067484D02*
D03*
X162272Y066488D02*
D03*
X155942Y056974D02*
D03*
Y054388D02*
D03*
X147632Y04902D02*
D03*
X143017Y048499D02*
D03*
X135972Y051258D02*
D03*
X138203Y055712D02*
D03*
X137309D02*
D03*
X136416D02*
D03*
X135523D02*
D03*
X138203Y056974D02*
D03*
X137309Y057644D02*
D03*
X136416D02*
D03*
X135523Y056974D02*
D03*
X133452Y059218D02*
D03*
Y060838D02*
D03*
Y062708D02*
D03*
X129362Y062688D02*
D03*
Y060888D02*
D03*
Y059228D02*
D03*
X128172Y059748D02*
D03*
X128152Y06128D02*
D03*
X124182Y06255D02*
D03*
Y061938D02*
D03*
X117982Y067388D02*
D03*
X119482Y066719D02*
D03*
X128532Y067649D02*
D03*
X128462Y066408D02*
D03*
X134912Y06434D02*
D03*
X135937D02*
D03*
X136962D02*
D03*
X155942Y059543D02*
D03*
X142162Y056868D02*
D03*
X141142Y056858D02*
D03*
D171*
X132772Y052569D02*
D03*
Y054528D02*
D03*
X120902Y053919D02*
D03*
Y053219D02*
D03*
X132572Y069258D02*
D03*
X130602Y068599D02*
D03*
X140412Y06434D02*
D03*
X139412D02*
D03*
X139272Y061529D02*
D03*
X141352Y061539D02*
D03*
X143672D02*
D03*
X15276Y060545D02*
D03*
X149832Y061198D02*
D03*
X155942Y061452D02*
D03*
Y064008D02*
D03*
X156146Y066814D02*
D03*
X154819Y067484D02*
D03*
X154156Y066814D02*
D03*
X162272Y065819D02*
D03*
X155942Y056304D02*
D03*
Y053719D02*
D03*
X147632Y049689D02*
D03*
X143017Y04783D02*
D03*
X135972Y050589D02*
D03*
X138203Y056381D02*
D03*
X137309D02*
D03*
X136416D02*
D03*
X135523D02*
D03*
X138203Y057644D02*
D03*
X137309Y056974D02*
D03*
X136416D02*
D03*
X135523Y057644D02*
D03*
X133452Y058549D02*
D03*
Y060169D02*
D03*
Y062039D02*
D03*
X129362Y062019D02*
D03*
Y060219D02*
D03*
Y058559D02*
D03*
X128172Y059079D02*
D03*
X128152Y061949D02*
D03*
X124182Y063219D02*
D03*
Y061269D02*
D03*
X117982Y066719D02*
D03*
X119482Y067388D02*
D03*
X128532Y068318D02*
D03*
X128462Y065739D02*
D03*
X134912Y065009D02*
D03*
X135937D02*
D03*
X136962D02*
D03*
X155942Y058874D02*
D03*
X142162Y056199D02*
D03*
X141142Y056189D02*
D03*
D172*
X131922Y052799D02*
D03*
Y053299D02*
D03*
Y053799D02*
D03*
X129786Y054299D02*
D03*
Y053799D02*
D03*
X131922Y054299D02*
D03*
X129786Y053299D02*
D03*
X129786Y052799D02*
D03*
X123934Y052819D02*
D03*
X123934Y053319D02*
D03*
X12607Y054319D02*
D03*
X123934Y053819D02*
D03*
Y054319D02*
D03*
X12607Y053819D02*
D03*
Y053319D02*
D03*
Y052819D02*
D03*
X146336Y058293D02*
D03*
Y057793D02*
D03*
Y057293D02*
D03*
X148472Y056793D02*
D03*
Y057293D02*
D03*
X146336Y056793D02*
D03*
X148472Y057793D02*
D03*
X148472Y058293D02*
D03*
D173*
X126852Y053884D02*
D03*
Y053254D02*
D03*
X148552Y052129D02*
D03*
Y052759D02*
D03*
Y050884D02*
D03*
Y051514D02*
D03*
X145537Y051679D02*
D03*
Y052309D02*
D03*
X137082Y071474D02*
D03*
Y070844D02*
D03*
X134762Y069654D02*
D03*
Y069024D02*
D03*
X130392Y072454D02*
D03*
Y071824D02*
D03*
Y071159D02*
D03*
Y070529D02*
D03*
Y069214D02*
D03*
Y069844D02*
D03*
X134782Y067924D02*
D03*
Y067294D02*
D03*
X15276Y05991D02*
D03*
Y05928D02*
D03*
X149842Y059309D02*
D03*
Y059939D02*
D03*
X155463Y067503D02*
D03*
Y066873D02*
D03*
X144997Y050099D02*
D03*
Y050729D02*
D03*
Y049499D02*
D03*
Y048869D02*
D03*
X139842Y052984D02*
D03*
Y053614D02*
D03*
X139707Y050309D02*
D03*
Y049679D02*
D03*
X139052Y050304D02*
D03*
Y049674D02*
D03*
X117332Y064334D02*
D03*
Y063704D02*
D03*
D174*
X122819Y055069D02*
D03*
X123685D02*
D03*
X157093Y052399D02*
D03*
X157959D02*
D03*
D175*
X123071Y053069D02*
D03*
X121533Y053069D02*
D03*
X121533Y054069D02*
D03*
X123071D02*
D03*
D176*
X11911Y053943D02*
D03*
Y053195D02*
D03*
X120193Y053569D02*
D03*
D177*
X149478Y052915D02*
D03*
Y052009D02*
D03*
Y051104D02*
D03*
D178*
X151785Y052009D02*
D03*
D179*
X145574Y053409D02*
D03*
X14833D02*
D03*
D180*
X140842Y071789D02*
D03*
X14159D02*
D03*
X141216Y072872D02*
D03*
X139358Y071789D02*
D03*
X140106D02*
D03*
X139732Y072872D02*
D03*
X154099Y050938D02*
D03*
X153725Y05202D02*
D03*
X154473D02*
D03*
X137058Y050348D02*
D03*
X137806D02*
D03*
X137432Y05143D02*
D03*
D181*
X137882Y071927D02*
D03*
X13863D02*
D03*
X138256Y072892D02*
D03*
D182*
X138452Y069639D02*
D03*
X137952D02*
D03*
X138452Y067139D02*
D03*
X137952D02*
D03*
X133312Y067088D02*
D03*
X133812D02*
D03*
X133312Y069588D02*
D03*
X133812D02*
D03*
X131872D02*
D03*
X131372D02*
D03*
X131872Y067088D02*
D03*
X131372D02*
D03*
X129752Y068288D02*
D03*
X129252D02*
D03*
X129752Y065788D02*
D03*
X129252D02*
D03*
X140023Y059468D02*
D03*
X140523D02*
D03*
X140023Y061968D02*
D03*
X140523D02*
D03*
X142885D02*
D03*
X142385D02*
D03*
X142885Y059468D02*
D03*
X142385D02*
D03*
D183*
X135482Y067421D02*
D03*
X135982D02*
D03*
X136482D02*
D03*
X136982D02*
D03*
Y069557D02*
D03*
X136482D02*
D03*
X135982D02*
D03*
X135482D02*
D03*
D184*
X151772Y066228D02*
D03*
Y06737D02*
D03*
X150782Y066228D02*
D03*
Y06737D02*
D03*
X119232Y059998D02*
D03*
Y06114D02*
D03*
X118232Y059998D02*
D03*
Y06114D02*
D03*
D185*
X152112Y063566D02*
D03*
Y065219D02*
D03*
X150422Y063546D02*
D03*
Y065199D02*
D03*
X120332Y060946D02*
D03*
Y059292D02*
D03*
X117132Y059302D02*
D03*
Y060956D02*
D03*
D186*
X150495Y062299D02*
D03*
X152149D02*
D03*
X117905Y062069D02*
D03*
X119559D02*
D03*
X123989Y071999D02*
D03*
X122335D02*
D03*
X123989Y068649D02*
D03*
X122335D02*
D03*
D187*
X150577Y060324D02*
D03*
X151077Y060324D02*
D03*
X152077Y058189D02*
D03*
X151577Y060324D02*
D03*
X152077D02*
D03*
X151577Y058189D02*
D03*
X151077D02*
D03*
X150577D02*
D03*
X119482Y065987D02*
D03*
X118982D02*
D03*
X118482D02*
D03*
X117982Y063851D02*
D03*
X118482D02*
D03*
X117982Y065987D02*
D03*
X118982Y063851D02*
D03*
X119482Y063851D02*
D03*
D188*
X160352Y064879D02*
D03*
X160352Y065379D02*
D03*
X160352Y065879D02*
D03*
Y066379D02*
D03*
X158052Y064879D02*
D03*
Y065379D02*
D03*
Y065879D02*
D03*
Y066379D02*
D03*
D189*
X159202Y065629D02*
D03*
D190*
X162242Y067339D02*
D03*
X161061D02*
D03*
X159091Y067329D02*
D03*
X160272D02*
D03*
X163081Y067689D02*
D03*
X164262D02*
D03*
X163111Y066729D02*
D03*
X164292D02*
D03*
X164202Y059909D02*
D03*
X163021D02*
D03*
X163031Y055269D02*
D03*
X164212D02*
D03*
X150791Y050059D02*
D03*
X151972D02*
D03*
X14047Y069576D02*
D03*
X141651D02*
D03*
D191*
X162417Y059024D02*
D03*
D192*
X163007D02*
D03*
D193*
X162429Y058019D02*
D03*
X164094D02*
D03*
D194*
X162272Y057112D02*
D03*
Y056226D02*
D03*
X163822Y057112D02*
D03*
Y056226D02*
D03*
D195*
X164229Y054319D02*
D03*
X162894D02*
D03*
D196*
X160955Y056719D02*
D03*
X160128D02*
D03*
D197*
X157072Y053456D02*
D03*
X158871Y053456D02*
D03*
D198*
X157972Y056369D02*
D03*
D199*
X149302Y048103D02*
D03*
Y049835D02*
D03*
X142952Y063543D02*
D03*
Y065275D02*
D03*
D200*
X147622Y048492D02*
D03*
Y047666D02*
D03*
D201*
X141184Y049746D02*
D03*
X142956Y049746D02*
D03*
X141578Y049746D02*
D03*
X141184Y053092D02*
D03*
X142956Y053092D02*
D03*
X142759D02*
D03*
X142562Y053092D02*
D03*
X143349Y049746D02*
D03*
X143153Y049746D02*
D03*
X142562D02*
D03*
X142365Y049746D02*
D03*
X142168D02*
D03*
X141971D02*
D03*
X141775Y049746D02*
D03*
X141381Y053092D02*
D03*
X142759Y049746D02*
D03*
X141381Y049746D02*
D03*
X142365Y053092D02*
D03*
X142168D02*
D03*
X141971D02*
D03*
X141775D02*
D03*
X141578Y053092D02*
D03*
X143349Y053092D02*
D03*
X143153Y053092D02*
D03*
X126673Y084272D02*
D03*
X127067D02*
D03*
X127264D02*
D03*
X127461Y084272D02*
D03*
X127657D02*
D03*
X127854Y084272D02*
D03*
X128051D02*
D03*
X128248D02*
D03*
X128445D02*
D03*
X128839Y084272D02*
D03*
Y080925D02*
D03*
X128642D02*
D03*
X128445D02*
D03*
X128248Y080925D02*
D03*
X127854Y080925D02*
D03*
X127657D02*
D03*
X127461D02*
D03*
X127264Y080925D02*
D03*
X127067D02*
D03*
X12687D02*
D03*
X126673Y080925D02*
D03*
X128051Y080925D02*
D03*
X12687Y084272D02*
D03*
X128642D02*
D03*
D202*
X14394Y051124D02*
D03*
Y050336D02*
D03*
Y050533D02*
D03*
Y05073D02*
D03*
Y050927D02*
D03*
X14394Y051911D02*
D03*
Y052108D02*
D03*
Y051321D02*
D03*
X140594Y050533D02*
D03*
Y05073D02*
D03*
Y050927D02*
D03*
Y050336D02*
D03*
Y051124D02*
D03*
Y051321D02*
D03*
Y051517D02*
D03*
Y052502D02*
D03*
Y052305D02*
D03*
X14394Y052502D02*
D03*
X14394Y051714D02*
D03*
X14394Y052305D02*
D03*
X14394Y051517D02*
D03*
X140594Y052108D02*
D03*
Y051911D02*
D03*
Y051714D02*
D03*
X126083Y081516D02*
D03*
X126083Y082106D02*
D03*
X126083Y082303D02*
D03*
Y0825D02*
D03*
Y082697D02*
D03*
Y082894D02*
D03*
X126083Y083091D02*
D03*
X126083Y083287D02*
D03*
Y083484D02*
D03*
Y083681D02*
D03*
X129429D02*
D03*
X129429Y083287D02*
D03*
Y083091D02*
D03*
Y082894D02*
D03*
Y082697D02*
D03*
X129429Y0825D02*
D03*
Y082303D02*
D03*
X129429Y082106D02*
D03*
Y081909D02*
D03*
Y081713D02*
D03*
Y081516D02*
D03*
Y083484D02*
D03*
X126083Y081713D02*
D03*
Y081909D02*
D03*
D203*
X127106Y059119D02*
D03*
Y059619D02*
D03*
Y060119D02*
D03*
Y060619D02*
D03*
Y061119D02*
D03*
Y061619D02*
D03*
Y062119D02*
D03*
X125157D02*
D03*
Y061619D02*
D03*
Y061119D02*
D03*
Y060619D02*
D03*
Y060119D02*
D03*
Y059619D02*
D03*
Y059119D02*
D03*
D204*
X123032Y070849D02*
D03*
X12189D02*
D03*
X123032Y069799D02*
D03*
X12189D02*
D03*
D205*
X160344Y062663D02*
D03*
X157627Y062663D02*
D03*
D206*
X160874Y059559D02*
D03*
X15859D02*
D03*
D207*
X125699Y069089D02*
D03*
Y069589D02*
D03*
Y070089D02*
D03*
Y070589D02*
D03*
Y071089D02*
D03*
Y071589D02*
D03*
Y072089D02*
D03*
Y072589D02*
D03*
X129364D02*
D03*
Y072089D02*
D03*
Y071589D02*
D03*
Y071089D02*
D03*
Y070589D02*
D03*
Y070089D02*
D03*
Y069589D02*
D03*
Y069089D02*
D03*
D208*
X149521Y069993D02*
D03*
X149521Y07271D02*
D03*
D209*
X133465Y079843D02*
D03*
Y082205D02*
D03*
D210*
X1329Y080236D02*
D03*
Y080039D02*
D03*
Y079843D02*
D03*
Y079646D02*
D03*
Y079449D02*
D03*
X13403Y080236D02*
D03*
Y080039D02*
D03*
Y079843D02*
D03*
Y079646D02*
D03*
Y079449D02*
D03*
Y081811D02*
D03*
Y082008D02*
D03*
Y082205D02*
D03*
Y082402D02*
D03*
Y082598D02*
D03*
X1329Y081811D02*
D03*
Y082008D02*
D03*
Y082205D02*
D03*
Y082402D02*
D03*
Y082598D02*
D03*
D211*
X121999Y079055D02*
D03*
X122489Y079055D02*
D03*
Y077283D02*
D03*
X121999D02*
D03*
X122489Y077874D02*
D03*
X121999D02*
D03*
X122489Y078465D02*
D03*
X121999D02*
D03*
X124016Y083976D02*
D03*
X123526D02*
D03*
X124016Y082205D02*
D03*
X123526D02*
D03*
X124016Y082795D02*
D03*
X123526D02*
D03*
X124016Y085157D02*
D03*
X123526D02*
D03*
X124016Y084567D02*
D03*
X123526D02*
D03*
D212*
X116923Y09125D02*
D03*
X117638Y09125D02*
D03*
X116953Y089685D02*
D03*
X117668Y089685D02*
D03*
X124655Y085748D02*
D03*
X12537Y085748D02*
D03*
X1254Y084577D02*
D03*
X124685Y084577D02*
D03*
D213*
X117638Y090472D02*
D03*
X117008D02*
D03*
X125315Y085157D02*
D03*
X124685D02*
D03*
X117638Y088898D02*
D03*
X117008D02*
D03*
X125315Y086339D02*
D03*
X124685D02*
D03*
X12685Y094409D02*
D03*
X12748D02*
D03*
X131024Y080827D02*
D03*
X130394D02*
D03*
X131024Y083189D02*
D03*
X130394D02*
D03*
X131024Y082598D02*
D03*
X130394D02*
D03*
X131024Y082008D02*
D03*
X130394D02*
D03*
X131024Y081417D02*
D03*
X130394D02*
D03*
X125472Y077283D02*
D03*
X126102D02*
D03*
Y079843D02*
D03*
X125472D02*
D03*
X130591Y091063D02*
D03*
X13122D02*
D03*
Y090472D02*
D03*
X130591D02*
D03*
X139646Y077087D02*
D03*
X140276D02*
D03*
X135354Y079449D02*
D03*
X134724D02*
D03*
X139646Y079449D02*
D03*
X140276D02*
D03*
X142008Y08122D02*
D03*
X142638D02*
D03*
X142008Y08063D02*
D03*
X142638D02*
D03*
X142008Y081811D02*
D03*
X142638D02*
D03*
X142008Y080039D02*
D03*
X142638D02*
D03*
X13752Y081811D02*
D03*
X13689D02*
D03*
X13752Y080039D02*
D03*
X13689D02*
D03*
X13752Y08063D02*
D03*
X13689D02*
D03*
X13752Y08122D02*
D03*
X13689D02*
D03*
X14126Y084567D02*
D03*
X14063D02*
D03*
X14126Y085354D02*
D03*
X14063D02*
D03*
Y083583D02*
D03*
X14126D02*
D03*
X13689Y085157D02*
D03*
X13752D02*
D03*
X136142Y085354D02*
D03*
X135512D02*
D03*
X129646Y088307D02*
D03*
X129016D02*
D03*
X146181Y097559D02*
D03*
X145551D02*
D03*
X128071Y088701D02*
D03*
X127441D02*
D03*
X142047Y092638D02*
D03*
X141417D02*
D03*
X141024Y088898D02*
D03*
X141654D02*
D03*
X143701Y091496D02*
D03*
X144331D02*
D03*
X143701Y090945D02*
D03*
X144331D02*
D03*
X142205Y088307D02*
D03*
X142835D02*
D03*
X141024Y087126D02*
D03*
X141654D02*
D03*
X141024Y087717D02*
D03*
X141654D02*
D03*
X128032Y095D02*
D03*
X128661D02*
D03*
X124685Y083976D02*
D03*
X125315Y083976D02*
D03*
X124685Y083386D02*
D03*
X125315D02*
D03*
X124685Y082795D02*
D03*
X125315D02*
D03*
Y082205D02*
D03*
X124685D02*
D03*
D214*
X12126Y09748D02*
D03*
Y09685D02*
D03*
X120669Y09748D02*
D03*
Y09685D02*
D03*
X120079D02*
D03*
Y09748D02*
D03*
X122441Y09685D02*
D03*
Y09748D02*
D03*
X123032Y09685D02*
D03*
Y09748D02*
D03*
X123622Y09685D02*
D03*
Y09748D02*
D03*
X122244Y088032D02*
D03*
Y087402D02*
D03*
X123819Y088032D02*
D03*
Y087402D02*
D03*
X123228Y088032D02*
D03*
Y087402D02*
D03*
X119488Y09685D02*
D03*
Y09748D02*
D03*
X12185Y09685D02*
D03*
Y09748D02*
D03*
X130315Y079331D02*
D03*
Y079961D02*
D03*
X127559Y085669D02*
D03*
Y085039D02*
D03*
X12815Y085669D02*
D03*
Y085039D02*
D03*
X129724Y079331D02*
D03*
Y079961D02*
D03*
X144685Y09685D02*
D03*
Y09748D02*
D03*
X131437Y091732D02*
D03*
Y092362D02*
D03*
X130512Y089173D02*
D03*
Y089803D02*
D03*
X131299D02*
D03*
Y089173D02*
D03*
X138976Y077953D02*
D03*
Y078583D02*
D03*
X138189Y078583D02*
D03*
Y077953D02*
D03*
X137795Y093307D02*
D03*
Y093937D02*
D03*
X138976D02*
D03*
Y093307D02*
D03*
X14311Y093504D02*
D03*
Y094134D02*
D03*
X143701Y08563D02*
D03*
Y08626D02*
D03*
X127362Y095669D02*
D03*
Y096299D02*
D03*
X125394Y088032D02*
D03*
Y087402D02*
D03*
X121654Y088032D02*
D03*
Y087402D02*
D03*
X121063Y088032D02*
D03*
Y087402D02*
D03*
X120472Y088032D02*
D03*
Y087402D02*
D03*
X129331Y085669D02*
D03*
Y085039D02*
D03*
X12874Y085669D02*
D03*
Y085039D02*
D03*
D215*
X137854Y087557D02*
D03*
X137854Y087057D02*
D03*
X137854Y086557D02*
D03*
X140098Y090057D02*
D03*
X140098Y089557D02*
D03*
X140098Y089057D02*
D03*
Y088557D02*
D03*
Y088057D02*
D03*
Y087557D02*
D03*
X140098Y087057D02*
D03*
X140098Y086557D02*
D03*
X137854Y090057D02*
D03*
X137854Y089557D02*
D03*
X137854Y089057D02*
D03*
Y088557D02*
D03*
Y088057D02*
D03*
D216*
X125413Y07812D02*
D03*
X126161D02*
D03*
X125787Y079203D02*
D03*
X128346Y096722D02*
D03*
X12872Y09564D02*
D03*
X127972Y09564D02*
D03*
D217*
X127106Y07748D02*
D03*
X128799D02*
D03*
X13813Y09126D02*
D03*
X139823D02*
D03*
D218*
X138858Y083563D02*
D03*
X139882Y083189D02*
D03*
Y082815D02*
D03*
Y083563D02*
D03*
X138858Y082815D02*
D03*
Y085335D02*
D03*
X139882Y084961D02*
D03*
Y084587D02*
D03*
Y085335D02*
D03*
X138858Y084587D02*
D03*
D219*
X13061Y087126D02*
D03*
X131201D02*
D03*
X13376Y078268D02*
D03*
X133169D02*
D03*
X13376Y078858D02*
D03*
X133169D02*
D03*
X135335Y080039D02*
D03*
X134744D02*
D03*
X135335Y078858D02*
D03*
X134744D02*
D03*
X134941Y081614D02*
D03*
X135532D02*
D03*
Y082205D02*
D03*
X134941D02*
D03*
Y082795D02*
D03*
X135532D02*
D03*
X142618Y083583D02*
D03*
X142028D02*
D03*
X129626Y089291D02*
D03*
X129035D02*
D03*
X133563Y09126D02*
D03*
X132972D02*
D03*
X131201Y086535D02*
D03*
X13061D02*
D03*
X127461Y08811D02*
D03*
X128051D02*
D03*
X119193Y08811D02*
D03*
X118602D02*
D03*
X141634Y088307D02*
D03*
X141043D02*
D03*
X124114Y083386D02*
D03*
X123524D02*
D03*
X139272Y092441D02*
D03*
X139862D02*
D03*
X137894Y092441D02*
D03*
X138484D02*
D03*
X143209Y092638D02*
D03*
X142618D02*
D03*
X142815Y088898D02*
D03*
X142224Y088898D02*
D03*
X144587Y096181D02*
D03*
X143996D02*
D03*
X128051Y089291D02*
D03*
X127461D02*
D03*
X138878Y079252D02*
D03*
X138287D02*
D03*
X128937Y078661D02*
D03*
X128346D02*
D03*
X124705Y081417D02*
D03*
X125295D02*
D03*
X130413Y084567D02*
D03*
X131004D02*
D03*
X125295Y080827D02*
D03*
X124705D02*
D03*
X131004Y083976D02*
D03*
X130413Y083976D02*
D03*
X127657Y078661D02*
D03*
X127067D02*
D03*
D220*
X137205Y095354D02*
D03*
Y094646D02*
D03*
Y096929D02*
D03*
Y09622D02*
D03*
D221*
X119252Y087323D02*
D03*
X118543D02*
D03*
X133622Y092835D02*
D03*
X132913D02*
D03*
X133622Y092047D02*
D03*
X132913Y092047D02*
D03*
X13252Y087913D02*
D03*
X133228Y087913D02*
D03*
X13252Y087126D02*
D03*
X133228Y087126D02*
D03*
D222*
X13563Y090952D02*
D03*
Y088812D02*
D03*
D223*
X122382Y080449D02*
D03*
X122385Y086489D02*
D03*
D224*
X122589Y082339D02*
D03*
Y082772D02*
D03*
Y083205D02*
D03*
Y083638D02*
D03*
Y084071D02*
D03*
Y084504D02*
D03*
Y084937D02*
D03*
Y08537D02*
D03*
Y085804D02*
D03*
D225*
X118452Y086489D02*
D03*
Y079939D02*
D03*
D226*
X132087Y080138D02*
D03*
Y079547D02*
D03*
Y0825D02*
D03*
Y081909D02*
D03*
X13189Y084468D02*
D03*
Y083878D02*
D03*
X13248D02*
D03*
Y084468D02*
D03*
X134646D02*
D03*
Y083878D02*
D03*
X137008Y084468D02*
D03*
Y083878D02*
D03*
X137598D02*
D03*
Y084468D02*
D03*
X138189Y082894D02*
D03*
Y083484D02*
D03*
Y085256D02*
D03*
Y084665D02*
D03*
X140945Y077972D02*
D03*
X140945Y078563D02*
D03*
X132028Y092343D02*
D03*
Y091752D02*
D03*
X131299Y087815D02*
D03*
Y088406D02*
D03*
X127362Y086831D02*
D03*
Y087421D02*
D03*
X127953Y087421D02*
D03*
Y086831D02*
D03*
X119882Y087421D02*
D03*
Y088012D02*
D03*
X126772Y095689D02*
D03*
Y09628D02*
D03*
X143504Y088406D02*
D03*
Y088996D02*
D03*
X143898Y09687D02*
D03*
Y097461D02*
D03*
X138386Y093917D02*
D03*
X138386Y093327D02*
D03*
X128543Y079941D02*
D03*
Y07935D02*
D03*
X129134Y079941D02*
D03*
Y07935D02*
D03*
X126575Y08565D02*
D03*
Y085059D02*
D03*
D227*
X137579Y07878D02*
D03*
X137205Y077756D02*
D03*
X136831D02*
D03*
X137579D02*
D03*
X136831Y07878D02*
D03*
X135453Y083661D02*
D03*
X135827Y084685D02*
D03*
X136201Y084685D02*
D03*
X135453D02*
D03*
X136201Y083661D02*
D03*
X140335Y077756D02*
D03*
X139587Y07878D02*
D03*
X140335D02*
D03*
X139961D02*
D03*
X139587Y077756D02*
D03*
X141949Y084252D02*
D03*
X142323Y085276D02*
D03*
X142697D02*
D03*
X141949D02*
D03*
X142697Y084252D02*
D03*
D228*
X133091Y084705D02*
D03*
X133839Y083642D02*
D03*
X133465Y084705D02*
D03*
X133839D02*
D03*
X133091Y083642D02*
D03*
X133465Y083642D02*
D03*
D229*
X138602Y081919D02*
D03*
X138602Y081663D02*
D03*
X138602Y081407D02*
D03*
X138602Y081152D02*
D03*
X138602Y080896D02*
D03*
X138602Y08064D02*
D03*
Y080384D02*
D03*
Y080128D02*
D03*
X140925Y081919D02*
D03*
Y081663D02*
D03*
Y081407D02*
D03*
Y081152D02*
D03*
Y080896D02*
D03*
Y08064D02*
D03*
Y080384D02*
D03*
Y080128D02*
D03*
D230*
X129882Y086998D02*
D03*
X12878Y087254D02*
D03*
X129882Y086742D02*
D03*
Y08751D02*
D03*
X12878Y086742D02*
D03*
Y08751D02*
D03*
X129882Y087254D02*
D03*
X12878Y086998D02*
D03*
D231*
X129193Y087598D02*
D03*
X129469D02*
D03*
X129193Y086654D02*
D03*
X129469D02*
D03*
D232*
X129331Y087126D02*
D03*
D233*
X131998Y090659D02*
D03*
X131998Y090404D02*
D03*
X131998Y090148D02*
D03*
Y089892D02*
D03*
X13375Y090659D02*
D03*
X13375Y090404D02*
D03*
X13375Y090148D02*
D03*
X13375Y089892D02*
D03*
D234*
X136496Y092835D02*
D03*
X135945Y092835D02*
D03*
D235*
X130512Y088386D02*
D03*
Y087835D02*
D03*
X130709Y092913D02*
D03*
Y092362D02*
D03*
D236*
X132239Y088898D02*
D03*
X133509Y088898D02*
D03*
D237*
X144094Y093863D02*
D03*
Y092593D02*
D03*
X139961Y094454D02*
D03*
Y093184D02*
D03*
D238*
X118933Y089179D02*
D03*
X119433Y089179D02*
D03*
X119933Y089179D02*
D03*
X120433Y089179D02*
D03*
X120933D02*
D03*
X121433Y089179D02*
D03*
X121933Y089179D02*
D03*
X122433Y089179D02*
D03*
X122933D02*
D03*
X123433Y089179D02*
D03*
X123933Y089179D02*
D03*
X124433Y089179D02*
D03*
X124933Y089179D02*
D03*
X125433D02*
D03*
X125433Y095872D02*
D03*
X124933Y095872D02*
D03*
X124433Y095872D02*
D03*
X123933Y095872D02*
D03*
X123433D02*
D03*
X122933D02*
D03*
X122433Y095872D02*
D03*
X121933Y095872D02*
D03*
X121433Y095872D02*
D03*
X120933D02*
D03*
X120433D02*
D03*
X119933Y095872D02*
D03*
X119433Y095872D02*
D03*
X118933Y095872D02*
D03*
D239*
X125827Y090276D02*
D03*
Y090776D02*
D03*
Y091276D02*
D03*
Y091776D02*
D03*
Y092276D02*
D03*
Y092776D02*
D03*
X125827Y093276D02*
D03*
X125827Y093776D02*
D03*
Y094276D02*
D03*
Y094776D02*
D03*
D240*
X121163Y091409D02*
D03*
X121163Y092132D02*
D03*
Y092854D02*
D03*
X121886Y091409D02*
D03*
X121886Y092132D02*
D03*
Y092854D02*
D03*
X122608Y091409D02*
D03*
X122608Y092132D02*
D03*
X122608Y092854D02*
D03*
D241*
X142274Y093445D02*
D03*
Y094193D02*
D03*
X141191Y093819D02*
D03*
X142372Y087323D02*
D03*
X143455Y087697D02*
D03*
Y086949D02*
D03*
D242*
X144142Y095406D02*
D03*
X144142Y09515D02*
D03*
X144142Y094894D02*
D03*
X144142Y094638D02*
D03*
X146409D02*
D03*
Y094894D02*
D03*
Y09515D02*
D03*
Y095406D02*
D03*
D243*
X124016Y077126D02*
D03*
Y080197D02*
D03*
X132087Y097323D02*
D03*
Y094252D02*
D03*
X130118Y097323D02*
D03*
Y094252D02*
D03*
D244*
X144581Y086378D02*
D03*
Y088268D02*
D03*
X144581Y088583D02*
D03*
Y086063D02*
D03*
D245*
Y087618D02*
D03*
Y087224D02*
D03*
Y087421D02*
D03*
Y087028D02*
D03*
Y088012D02*
D03*
Y086831D02*
D03*
Y087815D02*
D03*
Y086634D02*
D03*
D246*
X146364Y089335D02*
D03*
Y085311D02*
D03*
D247*
X144817Y089335D02*
D03*
Y085311D02*
D03*
D248*
X136181Y095787D02*
D03*
Y096693D02*
D03*
X136181Y094882D02*
D03*
D249*
X133898Y095787D02*
D03*
D250*
X128543Y090315D02*
D03*
X129449D02*
D03*
X127638Y090315D02*
D03*
D251*
X128543Y092598D02*
D03*
D252*
X142323Y090866D02*
D03*
D253*
X142073Y091959D02*
D03*
X141573Y091959D02*
D03*
X142573D02*
D03*
X143073Y091959D02*
D03*
X142073Y089793D02*
D03*
X141573Y089793D02*
D03*
X142573Y089793D02*
D03*
X143073D02*
D03*
D254*
X145276Y096575D02*
D03*
X145276Y096949D02*
D03*
X146457Y096201D02*
D03*
Y096575D02*
D03*
X145276Y096201D02*
D03*
X146457Y096949D02*
D03*
D255*
X153922Y054387D02*
D03*
Y056979D02*
D03*
Y062139D02*
D03*
Y059555D02*
D03*
Y064702D02*
D03*
D256*
X154922Y054387D02*
D03*
Y056979D02*
D03*
Y062139D02*
D03*
Y059555D02*
D03*
Y064702D02*
D03*
D257*
X14508Y064988D02*
D03*
D258*
Y063988D02*
D03*
D259*
X139412Y066159D02*
D03*
X140412D02*
D03*
X139412Y063159D02*
D03*
X13495Y063185D02*
D03*
Y066185D02*
D03*
X13595D02*
D03*
X13695D02*
D03*
X13595Y063185D02*
D03*
X141175Y058193D02*
D03*
X142175D02*
D03*
X141175Y055193D02*
D03*
D260*
X140412Y063159D02*
D03*
X13695Y063185D02*
D03*
X142175Y055193D02*
D03*
D261*
X16388Y072588D02*
D03*
X118117Y072573D02*
D03*
X163966Y048744D02*
D03*
X118067Y048795D02*
D03*
D262*
X159186Y072155D02*
D03*
X154462D02*
D03*
D263*
X157186D02*
D03*
X152462D02*
D03*
D264*
X1453Y071348D02*
D03*
X1433D02*
D03*
X1443D02*
D03*
X15507Y048076D02*
D03*
X16007Y048076D02*
D03*
X15907D02*
D03*
X15707Y048076D02*
D03*
D265*
X1463Y071348D02*
D03*
D266*
X146788Y065611D02*
D03*
X146788Y060611D02*
D03*
Y061611D02*
D03*
X146788Y063611D02*
D03*
D267*
X146497Y073119D02*
D03*
X137992Y049579D02*
D03*
D268*
X145497Y073119D02*
D03*
X144497D02*
D03*
X143497D02*
D03*
X136992Y049579D02*
D03*
X135992D02*
D03*
X134992D02*
D03*
D269*
X163537Y052479D02*
D03*
D270*
X162552D02*
D03*
D271*
X135848Y055193D02*
D03*
X136848D02*
D03*
X137848D02*
D03*
Y058193D02*
D03*
X136848D02*
D03*
X135848D02*
D03*
D272*
X121067Y064685D02*
D03*
X130905D02*
D03*
Y056693D02*
D03*
X121067D02*
D03*
D273*
X128167Y064126D02*
D03*
X127622Y065244D02*
D03*
X127076Y064126D02*
D03*
X126531Y065244D02*
D03*
X125986Y064126D02*
D03*
X125441Y065244D02*
D03*
X124895Y064126D02*
D03*
X12435Y065244D02*
D03*
X123805Y057252D02*
D03*
X12435Y056134D02*
D03*
X124895Y057252D02*
D03*
X125441Y056134D02*
D03*
X125986Y057252D02*
D03*
X126531Y056134D02*
D03*
X127076Y057252D02*
D03*
X127622Y056134D02*
D03*
D274*
X123805Y064126D02*
D03*
X128167Y057252D02*
D03*
D275*
X153501Y067568D02*
D03*
X121163Y091771D02*
D03*
Y092493D02*
D03*
X121525Y091409D02*
D03*
Y092132D02*
D03*
X121525Y092854D02*
D03*
X121886Y091771D02*
D03*
Y092493D02*
D03*
X122247Y091409D02*
D03*
X122247Y092132D02*
D03*
X122247Y092854D02*
D03*
X122608Y091771D02*
D03*
Y092493D02*
D03*
D276*
X143898Y082598D02*
D03*
X143898Y081024D02*
D03*
Y079252D02*
D03*
Y077677D02*
D03*
X13248Y085945D02*
D03*
X141142Y077087D02*
D03*
X140748Y092441D02*
D03*
X134843D02*
D03*
X141535Y086142D02*
D03*
X142126Y079055D02*
D03*
X140748Y082795D02*
D03*
X142126D02*
D03*
X136614D02*
D03*
X13622Y080827D02*
D03*
Y079646D02*
D03*
X135827Y077874D02*
D03*
X123622Y08122D02*
D03*
X126181Y097165D02*
D03*
X125D02*
D03*
X143898Y083976D02*
D03*
X128346Y094213D02*
D03*
X137597Y09775D02*
D03*
X13622Y097756D02*
D03*
X130906Y077283D02*
D03*
D277*
X117717Y078563D02*
D03*
X142323Y095886D02*
D03*
X139173Y09687D02*
D03*
D278*
X117717Y077579D02*
D03*
X142323Y09687D02*
D03*
X139173Y095886D02*
D03*
D279*
X118325Y085169D02*
D03*
Y081959D02*
D03*
X145014Y088461D02*
D03*
Y086185D02*
D03*
D280*
X120972Y079268D02*
D03*
D281*
X120972Y078268D02*
D03*
X120972Y077268D02*
D03*
X119972D02*
D03*
X119972Y078268D02*
D03*
X119972Y079268D02*
D03*
D282*
X145472Y092728D02*
D03*
Y093728D02*
D03*
Y09076D02*
D03*
Y09176D02*
D03*
M02*
