G04*
G04 #@! TF.GenerationSoftware,Altium Limited,Altium Designer,24.0.1 (36)*
G04*
G04 Layer_Color=255*
%FSTAX24Y24*%
%MOIN*%
G70*
G04*
G04 #@! TF.SameCoordinates,F3E9A89A-E33D-43AE-B610-609CB64B5824*
G04*
G04*
G04 #@! TF.FilePolarity,Positive*
G04*
G01*
G75*
%ADD112C,0.0551*%
%ADD113R,0.0551X0.0551*%
%ADD114R,0.0715X0.0715*%
%ADD115C,0.0715*%
%ADD116O,0.0650X0.0670*%
%ADD117R,0.0650X0.0670*%
%ADD118C,0.2362*%
%ADD119C,0.0945*%
G04:AMPARAMS|DCode=120|XSize=94.5mil|YSize=94.5mil|CornerRadius=23.6mil|HoleSize=0mil|Usage=FLASHONLY|Rotation=0.000|XOffset=0mil|YOffset=0mil|HoleType=Round|Shape=RoundedRectangle|*
%AMROUNDEDRECTD120*
21,1,0.0945,0.0472,0,0,0.0*
21,1,0.0472,0.0945,0,0,0.0*
1,1,0.0472,0.0236,-0.0236*
1,1,0.0472,-0.0236,-0.0236*
1,1,0.0472,-0.0236,0.0236*
1,1,0.0472,0.0236,0.0236*
%
%ADD120ROUNDEDRECTD120*%
%ADD121O,0.0630X0.0787*%
%ADD122R,0.0630X0.0787*%
%ADD123O,0.0787X0.0630*%
%ADD124R,0.0388X0.0388*%
%ADD125C,0.0388*%
%ADD126C,0.0787*%
%ADD127R,0.0669X0.0669*%
%ADD128C,0.0669*%
%ADD129C,0.0591*%
%ADD130C,0.1900*%
%ADD131C,0.0665*%
%ADD132R,0.0665X0.0665*%
%ADD133C,0.0236*%
%ADD134C,0.0630*%
%ADD135R,0.0591X0.0600*%
%ADD136C,0.0591*%
%ADD137R,0.0630X0.0630*%
%ADD138O,0.0709X0.0630*%
G04:AMPARAMS|DCode=139|XSize=70.9mil|YSize=78.7mil|CornerRadius=17.7mil|HoleSize=0mil|Usage=FLASHONLY|Rotation=180.000|XOffset=0mil|YOffset=0mil|HoleType=Round|Shape=RoundedRectangle|*
%AMROUNDEDRECTD139*
21,1,0.0709,0.0433,0,0,180.0*
21,1,0.0354,0.0787,0,0,180.0*
1,1,0.0354,-0.0177,0.0217*
1,1,0.0354,0.0177,0.0217*
1,1,0.0354,0.0177,-0.0217*
1,1,0.0354,-0.0177,-0.0217*
%
%ADD139ROUNDEDRECTD139*%
%ADD140C,0.0394*%
D112*
X153922Y054387D02*
D03*
Y056979D02*
D03*
Y062139D02*
D03*
Y059555D02*
D03*
Y064702D02*
D03*
D113*
X154922Y054387D02*
D03*
Y056979D02*
D03*
Y062139D02*
D03*
Y059555D02*
D03*
Y064702D02*
D03*
D114*
X14508Y064988D02*
D03*
D115*
Y063988D02*
D03*
D116*
X139412Y066159D02*
D03*
X140412D02*
D03*
X139412Y063159D02*
D03*
X13495Y063185D02*
D03*
Y066185D02*
D03*
X13595D02*
D03*
X13695D02*
D03*
X13595Y063185D02*
D03*
X141175Y058193D02*
D03*
X142175D02*
D03*
X141175Y055193D02*
D03*
D117*
X140412Y063159D02*
D03*
X13695Y063185D02*
D03*
X142175Y055193D02*
D03*
D118*
X16388Y072588D02*
D03*
X118117Y072573D02*
D03*
X163966Y048744D02*
D03*
X118067Y048795D02*
D03*
D119*
X159186Y072155D02*
D03*
X154462D02*
D03*
D120*
X157186D02*
D03*
X152462D02*
D03*
D121*
X1453Y071348D02*
D03*
X1433D02*
D03*
X1443D02*
D03*
X15507Y048076D02*
D03*
X16007Y048076D02*
D03*
X15907D02*
D03*
X15707Y048076D02*
D03*
D122*
X1463Y071348D02*
D03*
D123*
X146788Y065611D02*
D03*
X146788Y060611D02*
D03*
Y061611D02*
D03*
X146788Y063611D02*
D03*
D124*
X146497Y073119D02*
D03*
X137992Y049579D02*
D03*
D125*
X145497Y073119D02*
D03*
X144497D02*
D03*
X143497D02*
D03*
X136992Y049579D02*
D03*
X135992D02*
D03*
X134992D02*
D03*
D126*
X164236Y062669D02*
D03*
X162268D02*
D03*
D127*
X163537Y052479D02*
D03*
D128*
X162552D02*
D03*
D129*
X135848Y055193D02*
D03*
X136848D02*
D03*
X137848D02*
D03*
Y058193D02*
D03*
X136848D02*
D03*
X135848D02*
D03*
D130*
X121067Y064685D02*
D03*
X130905D02*
D03*
Y056693D02*
D03*
X121067D02*
D03*
D131*
X128167Y064126D02*
D03*
X127622Y065244D02*
D03*
X127076Y064126D02*
D03*
X126531Y065244D02*
D03*
X125986Y064126D02*
D03*
X125441Y065244D02*
D03*
X124895Y064126D02*
D03*
X12435Y065244D02*
D03*
X123805Y057252D02*
D03*
X12435Y056134D02*
D03*
X124895Y057252D02*
D03*
X125441Y056134D02*
D03*
X125986Y057252D02*
D03*
X126531Y056134D02*
D03*
X127076Y057252D02*
D03*
X127622Y056134D02*
D03*
D132*
X123805Y064126D02*
D03*
X128167Y057252D02*
D03*
D133*
X121163Y091771D02*
D03*
Y092493D02*
D03*
X121525Y091409D02*
D03*
Y092132D02*
D03*
X121525Y092854D02*
D03*
X121886Y091771D02*
D03*
Y092493D02*
D03*
X122247Y091409D02*
D03*
X122247Y092132D02*
D03*
X122247Y092854D02*
D03*
X122608Y091771D02*
D03*
Y092493D02*
D03*
D134*
X143898Y082598D02*
D03*
X143898Y081024D02*
D03*
Y079252D02*
D03*
Y077677D02*
D03*
X13248Y085945D02*
D03*
X141142Y077087D02*
D03*
X140748Y092441D02*
D03*
X134843D02*
D03*
X141535Y086142D02*
D03*
X142126Y079055D02*
D03*
X140748Y082795D02*
D03*
X142126D02*
D03*
X136614D02*
D03*
X13622Y080827D02*
D03*
Y079646D02*
D03*
X135827Y077874D02*
D03*
X123622Y08122D02*
D03*
X126181Y097165D02*
D03*
X125D02*
D03*
X143898Y083976D02*
D03*
X128346Y094213D02*
D03*
X137597Y09775D02*
D03*
X13622Y097756D02*
D03*
X130906Y077283D02*
D03*
X120972Y078268D02*
D03*
X120972Y077268D02*
D03*
X119972D02*
D03*
X119972Y078268D02*
D03*
X119972Y079268D02*
D03*
D135*
X117717Y078563D02*
D03*
X142323Y095886D02*
D03*
X139173Y09687D02*
D03*
D136*
X117717Y077579D02*
D03*
X142323Y09687D02*
D03*
X139173Y095886D02*
D03*
D137*
X120972Y079268D02*
D03*
D138*
X145472Y092728D02*
D03*
Y093728D02*
D03*
Y09076D02*
D03*
Y09176D02*
D03*
D139*
X157192Y069773D02*
D03*
X1517D02*
D03*
X157192Y067804D02*
D03*
X1517D02*
D03*
D140*
X158482Y068139D02*
D03*
X14344Y066519D02*
D03*
X148132Y050729D02*
D03*
X144352Y057909D02*
D03*
X14432Y057194D02*
D03*
X152092Y057379D02*
D03*
X1445Y072135D02*
D03*
X1435D02*
D03*
X124292Y060779D02*
D03*
X118372Y058859D02*
D03*
X119342Y05832D02*
D03*
X118332Y05425D02*
D03*
X119082Y05503D02*
D03*
X130482Y053799D02*
D03*
X130402Y053139D02*
D03*
X133452Y05285D02*
D03*
X135132Y053912D02*
D03*
X124142Y060089D02*
D03*
X150518Y057495D02*
D03*
M02*
