M48
;Layer_Color=9474304
;FILE_FORMAT=2:4
INCH,LZ
;TYPE=PLATED
T01F00S00C0.0118
T02F00S00C0.0250
T03F00S00C0.0315
T04F00S00C0.0340
T05F00S00C0.0354
T06F00S00C0.0394
T07F00S00C0.0429
T08F00S00C0.0433
T09F00S00C0.0630
T10F00S00C0.1260
T11F00S00C0.1300
;TYPE=NON_PLATED
T12F00S00C0.0276
%
T01
X162762Y047589
X161926Y047726
X161062Y047449
X159412Y047529
X158453Y04793
X158442Y048539
X158974Y048907
X158852Y049429
X158972Y050039
X158383Y050088
X158362Y051059
X158974Y051269
X159062Y0523
X15917Y052647
X159564
X159532Y054679
X159862Y055459
X160542Y055829
X159672Y057019
X158312Y056819
X157612
X157972Y056369
X158332Y055929
X157582Y055939
X157672Y054969
X158572Y054849
X158862Y054039
X161622Y053949
X161336Y053631
X161926Y05245
X161336Y051269
X162517
X163698
X164809Y05085
X164923Y051794
X164995Y05291
X164289Y05245
X163698Y053631
X163382Y054809
X163895Y055206
X163698Y055403
Y055796
X164092
X164546Y054319
X164952Y054083
X164742Y058029
X164882Y059069
X164652Y059899
X162911Y060718
X161852Y058899
X161842Y058449
X161832Y057579
X161512Y057069
X159342Y058279
X158944Y058076
X158022Y058189
X156342Y058884
Y056314
X157092Y049819
X156611Y048907
X161336
X162072Y049176
X161926Y050088
X163107
X165012Y049909
X160352Y061899
X159662Y061899
X159202Y062039
X159502Y062419
X160745Y062293
X156021Y060718
X152281Y059537
X151887Y059733
X152281Y058946
X152107Y057378
X151062Y057429
X150518Y057494
X149852Y058909
X149442Y059929
X150582Y059829
X148999Y058291
X148934Y056584
X148344Y056387
X149482Y056149
X149202Y054849
X14832Y053809
X148152Y052749
Y052119
Y051504
X147592Y051469
Y052249
X147642Y052879
X147192Y053999
X146202Y054009
X146111Y052813
X144612Y052509
X14445Y053119
X144352Y053742
X144352Y054589
X144442Y055139
X144372Y055849
X144302Y056529
X14432Y057193
X144392Y057909
X144539Y058533
X144342Y058819
X143882Y058719
X143537Y057807
X143062Y058039
X142152Y057268
X141132Y057258
X141362Y06047
X142084Y0606
X142432Y061319
X142723Y061427
X144192Y060869
X144472Y060339
X144462Y061769
X145202Y062299
X145922Y058899
X146736Y058303
X146862Y056809
X146966Y055796
X146922Y054959
X149488Y052515
X150022Y052009
X150621Y051389
X150912Y051079
X150762Y050619
X151602Y050869
X152112Y050959
X152802Y051089
X152422Y052039
X153325Y05201
X153369Y052649
X152792Y052689
X153285Y053355
X153932Y051569
X154578Y051491
X154789Y050189
X154879Y049371
X153962Y049379
X156021Y050088
X156148Y050806
X155952Y053319
X155299Y052752
X150836Y052429
X151192Y049439
X149992Y048199
X150115Y047726
X149842Y047459
X148592Y047509
X148112Y047679
X148762Y048089
X148428Y048717
X146782Y048079
X146572Y047726
X146832Y047439
X146062Y047949
X145391Y047726
X145532Y047429
X144712Y047849
X144692Y048509
X145382Y048879
X145432Y050529
X148132Y050729
X142912Y051149
X142112Y051239
X142142Y050579
X141472Y050869
X141572Y052119
X142372Y052079
X142932Y052299
X143412Y051729
X143251Y048959
X142872Y048969
X143644Y048907
X143442Y047479
X142447Y047478
X142152Y047919
X142512Y048229
X141627Y04812
X141422Y047478
X140667Y047726
X140852Y061969
X156021Y047726
X139485
X138304
X137123
X135942
X134761
X13358
X132399
X131218
X130627Y048907
X131808
X132989
X133102Y050079
X132252Y049969
X131218Y050088
X131602Y050909
X131387Y051629
X130627Y051269
X130156Y050765
X132522Y050879
X132407Y052039
X133382Y051759
X133452Y05285
X133362Y053999
X133573Y054647
X133272Y055039
X133132Y055939
Y056809
X133232Y057729
X133152Y059219
X131802Y059069
X131712Y058049
X131802Y060469
X133852Y060848
X135332Y061199
X135292Y060239
X135522Y059539
X135152Y058879
X134922Y057869
X136016Y056964
Y056351
X137709Y056391
Y056984
X136932Y058969
X136822Y059799
X136702Y060929
X139282Y060479
X139832Y054014
X140262Y053229
X137292Y053289
X136882Y052479
X136772Y051719
X137422Y05183
X135962Y051658
X135811Y052414
X135232Y052279
X135092Y053169
X135132Y053912
X134802Y054279
X136142Y053219
X135005Y051286
X134962Y050339
X135572Y050579
X135392Y049069
X136222Y049019
X137529Y049018
X139062Y049274
X139714Y049277
X138539Y049915
X138652Y050294
X138332Y050379
X131486Y05278
X130342Y053229
Y053799
X130552Y054429
X130833Y055095
X131712Y055329
X132442Y055309
X131912Y054699
X130052Y055639
X129702Y055779
X128545Y056131
X128818Y056813
X128675Y058258
X128842Y059789
X129357Y059623
X129682Y059829
X129762Y061689
X129159Y061323
X128732Y062273
X127702Y061619
X126483Y058818
X126022Y058909
X125162Y05877
Y052909
X125646Y05331
X127252Y053264
X129297Y052794
X129386Y054289
X125336Y051566
X123303Y051739
X122177Y052019
X122157Y055119
X122814Y055464
X12338Y058542
X124357Y058244
X124304Y060169
X124292Y060778
X120902Y059309
X118956Y058934
X118372Y058879
X117652Y059289
X117955Y053727
Y053411
X119793Y053559
X124812Y053509
X122114Y063462
X122232Y063939
X120751Y063029
X119475Y064446
X117962Y064359
X117322Y064734
X116937Y063699
X117117Y062624
X117349Y066476
X119112Y068439
X119534Y068494
X120395Y068596
X120382Y067849
X120392Y069759
X120886Y070938
X121422Y071539
X122461Y071322
X122952Y071979
X124852Y071919
X124762Y071299
X124592Y073689
X123467Y073754
X122011
X120202Y073799
X119372Y073669
X120011Y073005
X120276Y076102
X121063
X12185
X122638
X123425
X124213
X123504Y077126
X122784Y077283
Y077874
X121693Y077992
X121654Y077402
X119488Y076102
X118701
X117913
X117126
X116902Y071519
X117102Y070829
X117682Y070929
X121762Y068629
X122442Y069249
X122552Y067769
X123642Y067739
X124833Y067609
X121352Y066589
X126196Y06663
X127302Y066529
X126922Y067409
X127852Y067359
X128092Y067909
X128419Y068727
X128452Y066808
X129802Y066819
X130402
X130202Y067919
X129762Y067779
X131902Y067789
X132577Y068194
X132915Y067681
X13365Y067873
X134382Y067914
Y067284
X135502Y066929
X136002Y067999
X136982Y067919
X137488Y067862
X137462Y067429
X138442Y069139
X138901Y070569
X138817Y071209
X138625Y072322
X138261Y072504
X137966Y073714
X136818Y07375
X137072Y071874
X137087Y070449
X136982Y070109
X136107Y070514
X135477Y069952
X135152Y069039
X133822Y069099
X134367Y069649
X134182Y070159
X134292Y071939
X13486Y072537
X135472Y072289
X133152Y072019
X133082Y073799
X132552Y073779
X131352
X130233Y073777
X128932Y073789
X128937Y076102
X12815
X127362
X126575
X125787
X125
X125832Y073719
X126452Y073749
X127773Y072041
X131072Y071719
X131862Y070109
X132402Y066609
X132282Y064739
X133282Y064639
X133483Y063723
X133442Y063108
X131862Y063739
X130372Y063379
X130052Y062979
X129862Y063689
X128812Y062919
X127932Y062869
X127096Y062519
X128482Y064989
X126082Y067814
X125457Y067809
X125112Y069589
X129724Y076102
X130512
X131299
X132087
X132874
X133661
X134449
X135236
X136024
X136811
X137598
X138386
X139173
X139961
X140551Y077087
X138032Y07689
X137205Y077362
X133858Y077559
X13315Y077953
X139609Y073766
X139732Y073049
X140101Y072184
X140382Y071199
X140402Y070549
X14048Y068979
X140393Y068395
X140402Y065409
X139879Y065639
X139402Y065389
X136962Y063849
X135922Y063819
X135372Y064329
X133979Y065829
X142082Y065569
X141887Y067096
X142596Y067174
X143442Y066519
X145672Y066329
X146002Y065399
X14616Y064645
X147282Y064289
X149792Y065179
X152732Y065219
X154276Y066084
X154832Y066359
X155468Y066343
X156156Y066414
X155899Y068149
X154809Y067884
X153501Y067568
X155952Y063628
X144382Y062659
X143482Y062669
X143432Y063539
X142196Y063961
X1448Y067804
X145115Y067765
X145785Y069379
X141901Y070549
X141886Y071194
X141585Y072184
X141202Y073349
X140752Y073749
X140748Y076102
X141535
X142323
X14311
X143898
X141299Y077992
X162792Y071269
X163107Y071348
X163592Y071029
X164412
X164072Y070629
X163698Y070167
X163172Y070328
X164962Y070389
X164812Y069869
X165059Y069386
X165131Y06853
X165109Y067472
X164741Y067699
X164771Y066739
X165052Y066379
X165022Y065529
X165016Y064652
X165002Y063899
X164289Y064261
X164131Y065219
X164132Y065889
X163107Y064261
X161926
X161592Y063719
X161139Y063474
X161352Y063129
X161533Y062883
X161982Y063369
X161052Y063949
X159563Y06384
X159492Y064389
X158992Y064379
X158383Y064261
X157852Y064339
X157522Y064874
Y065374
X158972Y065199
X159432
X159202Y065629
X158972Y066059
X159432
X159564Y066623
X158942Y066629
X161052Y065889
X161461Y067349
X161412Y068069
X161042Y068129
X16126Y068724
X161462Y069229
X165072Y071229
X165117Y071847
X158992Y063599
X158974Y06308
X159032Y062729
X159392Y063169
X141929Y078268
X141299Y078583
X14063Y079055
X14252Y079528
X141417Y082205
X141732Y083583
X142992
X143701Y085354
X144213Y085906
X145079Y085787
X145827Y085315
X145079Y087756
X144016Y087205
X142717Y087323
X141929Y088307
X142205Y089252
X142559Y090197
X141575Y090236
X14122Y091614
X140945Y091693
X141024Y091417
X140906Y093189
X140984Y093465
X141299Y093346
X142638Y092953
X142323Y092333
X143346Y092283
X143661Y092362
X143504Y092638
X144089Y09187
X144094Y090472
X14378Y090512
X143858Y090276
X144213Y08937
Y088701
X143858Y088976
X145866Y089331
X140748Y088898
X140709Y088504
X140669Y087569
Y087274
X142323Y085669
X140276Y084961
X138858Y085079
X138189Y085551
X137795Y085157
X137874Y084252
X138189Y084291
X138858Y083898
X137835Y083307
Y082874
X137598Y083543
X137008
X135827Y083346
X135827Y082795
Y082205
Y081614
X134961Y081299
X134449Y080591
X134018Y08043
X133669Y080139
X13326
Y079546
X133669
X132559Y079203
X131772Y079528
X131102
X131181Y079213
X131299Y080512
Y080827
X131247Y081228
X132087Y081339
X132205Y080669
X132559Y080748
X131732Y080157
X131772Y081929
X131526Y082165
X131772Y08248
X132025Y08297
X132087Y083504
X132835Y083189
X133268Y08252
X133661
Y08189
X133268
X134409Y082008
X134961Y08311
X134252Y084252
X134173Y084724
X134646Y084764
X135236Y085354
X135827Y08498
X133465Y085079
X13248Y084843
X13189
X130984Y084921
X130394Y084882
X130709Y085551
X130906Y085787
X131142Y086142
X131496Y086535
X131496Y087126
X13109Y087606
X130433Y08752
X129331Y087372
X129528Y087126
X129134
X129331Y08688
X128465Y087206
X128425Y086201
X12815Y085945
X126575
X126535Y086929
X126909Y086886
X127283Y087795
X127559Y087756
X128583Y088189
X129035Y088996
X129606Y089606
X129764Y089803
X130315Y090472
X130315Y091063
X130551Y092047
X130906
X131437Y091457
X132638Y091181
X132953Y091614
X133032Y09248
X132598Y092323
X132559Y092717
X130866Y093228
X130512
X130512Y088878
X131299
X131929Y089685
X132598Y089843
X132835Y090551
X134016Y09189
X136457Y093268
X136732
X13685Y092953
X137795Y093031
X138465Y092087
X139331Y092795
X139803Y093543
X140079
X140354
X139409Y088955
Y088659
X139134Y087165
X139173Y086811
X139961Y08626
X140276Y083189
X140315Y081732
X140276Y081299
X139488Y081628
X139173Y081496
X138071Y081535
X137953Y079331
X137234Y078829
X136535Y07878
X13689Y079685
X13563Y080039
X135276Y078504
X134055Y078268
X128937Y078346
X129134Y079055
X128622Y079016
X128925Y080169
X128254Y080205
X127992Y079921
X126102Y080157
X126417Y079331
X126161Y078435
X127087Y078346
X125315Y080512
X126634Y082398
X127008Y082559
X127362Y082362
X127441Y082008
X128228Y083661
X128552Y083395
X131378Y083976
X132283Y08752
X133268
X13378Y087283
X133661Y086732
Y087913
X137008Y087717
Y088307
Y086732
X129941Y088307
X128346Y089567
X127165Y089291
X127244Y090039
Y090472
Y090906
X125157Y090276
X125079Y087402
X125866Y087165
X126218Y085037
X138976Y078858
X139961Y078366
X122784Y078465
X122785Y079054
X121693Y079173
Y078583
X122205Y08
X124409Y080827
Y081417
X124311Y082205
Y082795
X124961Y082795
Y082205
Y083386
Y083976
Y084567
X124921Y084882
X124311Y085157
Y084567
Y083976
X123228Y083937
X123057Y084681
X12311Y085709
X124961Y085748
Y08622
X123819Y088465
X123228Y088386
X122244Y088346
X121654Y087756
X121654Y087106
X121063
X120472
X119882Y087126
X11937Y08689
X119134Y086732
X118189Y087126
X118307Y087717
Y087992
X118622Y087795
X117913Y088504
Y090079
X117953Y086496
X121703
Y084567
X123268Y082795
X123189Y082126
X117913Y079961
X120472Y088307
X121525Y091409
X122247Y091409
X122247Y092132
X122608Y091771
X121886
X121163
Y092493
X121525Y092854
X121525Y092132
X121886Y092493
X122247Y092854
X122608Y092493
X123032Y090315
X124528Y095197
X124845Y095199
X123622Y097244
X123032
X122441
X121811Y097205
X12185Y09874
X121063
X120276
X119488
X118701
X117913
X117126
X118504Y096339
X119488Y097244
X120079
X122638Y09874
X123425
X124213
X125
X125787
X126575
X127362
X12815
X128937
X129724
X130512
X131299
X132087
X132874
X133661
X134449
X135236
X136024
X136811
X137598
X138386
X139173
X139961
X140354Y094843
X140472Y094567
X139291Y093937
X138386Y094213
X137795Y094232
X136811Y094724
X136142Y094449
X135472
X135433Y094921
X136024Y097008
X136299
X135945Y097323
X137638Y09626
Y095984
X133504Y096634
X133228Y096555
X133268Y09687
X132244Y094843
X130236Y094803
X129016Y095
X12874Y096024
X129055Y096299
X127323Y09689
X126772Y096575
X125039Y094331
X14063Y094803
X142205Y094449
X14248
X142756Y094567
X142835Y093898
X144724Y094803
X145236Y095079
X145551
X145866Y094921
X145906Y095984
X144961Y095965
X143622Y095945
X143898Y096594
X143898Y09874
X144685
X145472
X14626
X145276Y097559
X14311Y09874
X142323
X141535
X140748
T02
X134992Y049579
X135992
X136992
X137992
X143497Y073119
X144497
X145497
X146497
T03
X135848Y055193
X136848
X137848
Y058193
X136848
X135848
T04
X141175Y055193
X142175
Y058193
X141175
X140412Y063159
X139412
X13695Y063185
X13595
X13495
Y066185
X13595
X13695
X139412Y066159
X140412
T05
X16007Y048076
X15907
X15707Y048076
X15507
X154922Y054387
X153922
Y056979
X154922
Y059555
X153922
Y062139
X154922
X146788Y061611
Y060611
X120972Y077268
X119972
X117717Y077579
X146788Y065611
Y063611
X153922Y064702
X154922
X145472Y09076
Y09176
Y092728
Y093728
X120972Y079268
X119972
X119972Y078268
X120972
X117717Y078563
X139173Y095886
Y09687
X142323
Y095886
T06
X130906Y077283
X135827Y077874
X141142Y077087
X143898Y077677
X1443Y071348
X1453
X1463
X1433
X14508Y064988
Y063988
X162268Y062669
X164236
X143898Y079252
Y081024
X143898Y082598
X143898Y083976
X142126Y082795
X140748
X141535Y086142
X140748Y092441
X142126Y079055
X13622Y079646
Y080827
X136614Y082795
X13248Y085945
X134843Y092441
X123622Y08122
X118325Y081959
Y085169
X125Y097165
X126181
X128346Y094213
X13622Y097756
X137597Y09775
T07
X125441Y056134
X126531
X127622
X127076Y057252
X128167
X125986
X124895
X123805
X12435Y056134
X124895Y064126
X123805
X12435Y065244
X125441
X126531
X127622
X127076Y064126
X128167
X125986
T08
X163537Y052479
X162552
T09
X154462Y072155
X152462
X157186
X159186
T10
X163966Y048744
X118067Y048795
X118117Y072573
X16388Y072588
T11
X130905Y056693
X121067
Y064685
X130905
T12
X145014Y086185
Y088461
M30
